<?xml version="1.0" encoding="UTF-8"?>
<svg id="Layer_3" data-name="Layer 3" xmlns="http://www.w3.org/2000/svg" viewBox="0 0 1080 1080">
  <defs>
    <style>
      .cls-1 {
        font-size: 2.43px;
      }

      .cls-1, .cls-2, .cls-3, .cls-4, .cls-5, .cls-6, .cls-7, .cls-8, .cls-9, .cls-10, .cls-11, .cls-12, .cls-13, .cls-14, .cls-15, .cls-16, .cls-17, .cls-18, .cls-19, .cls-20, .cls-21, .cls-22, .cls-23, .cls-24, .cls-25, .cls-26, .cls-27, .cls-28, .cls-29, .cls-30, .cls-31, .cls-32, .cls-33, .cls-34, .cls-35, .cls-36, .cls-37, .cls-38, .cls-39, .cls-40, .cls-41, .cls-42, .cls-43, .cls-44, .cls-45, .cls-46, .cls-47, .cls-48, .cls-49 {
        isolation: isolate;
      }

      .cls-1, .cls-2, .cls-4, .cls-5, .cls-6, .cls-9, .cls-10, .cls-11, .cls-12, .cls-13, .cls-14, .cls-15, .cls-16, .cls-17, .cls-19, .cls-21, .cls-22, .cls-23, .cls-24, .cls-25, .cls-26, .cls-27, .cls-28, .cls-34, .cls-35, .cls-38, .cls-39, .cls-41, .cls-43, .cls-44, .cls-46, .cls-47, .cls-49 {
        font-family: ArialMT, Arial;
      }

      .cls-2 {
        font-size: 2.26px;
      }

      .cls-3, .cls-7, .cls-8, .cls-18, .cls-20, .cls-29, .cls-30, .cls-31, .cls-32, .cls-33, .cls-36, .cls-37, .cls-40, .cls-42, .cls-45, .cls-48 {
        font-family: Arial-BoldMT, Arial;
        font-weight: 700;
      }

      .cls-3, .cls-19 {
        font-size: 2.87px;
      }

      .cls-4 {
        font-size: 2.13px;
      }

      .cls-50 {
        letter-spacing: 0em;
      }

      .cls-5, .cls-30 {
        font-size: 4.87px;
      }

      .cls-6, .cls-31 {
        font-size: 5.08px;
      }

      .cls-7, .cls-39 {
        font-size: 4.41px;
      }

      .cls-8, .cls-46 {
        font-size: 4.99px;
      }

      .cls-9 {
        font-size: 5.1px;
      }

      .cls-10, .cls-33 {
        font-size: 3.65px;
      }

      .cls-11 {
        font-size: 1.91px;
      }

      .cls-12 {
        font-size: 3.05px;
      }

      .cls-51 {
        letter-spacing: -.02em;
      }

      .cls-52 {
        letter-spacing: -.02em;
      }

      .cls-53 {
        letter-spacing: -.02em;
      }

      .cls-13, .cls-37 {
        font-size: 4.39px;
      }

      .cls-14, .cls-40 {
        font-size: 4.57px;
      }

      .cls-54 {
        letter-spacing: -.06em;
      }

      .cls-55 {
        letter-spacing: 0em;
      }

      .cls-56 {
        letter-spacing: 0em;
      }

      .cls-15 {
        font-size: 3.32px;
      }

      .cls-16 {
        font-size: 2.84px;
      }

      .cls-17, .cls-42 {
        font-size: 3.2px;
      }

      .cls-18, .cls-27 {
        font-size: 3.69px;
      }

      .cls-20, .cls-49 {
        font-size: 6.47px;
      }

      .cls-57 {
        letter-spacing: -.02em;
      }

      .cls-58 {
        letter-spacing: 0em;
      }

      .cls-59 {
        letter-spacing: -.02em;
      }

      .cls-60 {
        letter-spacing: -.02em;
      }

      .cls-21, .cls-48 {
        font-size: 6.13px;
      }

      .cls-22, .cls-36 {
        font-size: 7.65px;
      }

      .cls-23 {
        font-size: 3.02px;
      }

      .cls-61 {
        letter-spacing: -.07em;
      }

      .cls-62 {
        letter-spacing: -.02em;
      }

      .cls-24 {
        font-size: 3.24px;
      }

      .cls-63 {
        letter-spacing: -.07em;
      }

      .cls-64 {
        letter-spacing: -.07em;
      }

      .cls-65 {
        letter-spacing: -.07em;
      }

      .cls-66 {
        letter-spacing: -.07em;
      }

      .cls-67 {
        letter-spacing: -.07em;
      }

      .cls-25 {
        font-size: 2.46px;
      }

      .cls-26 {
        font-size: 4.32px;
      }

      .cls-68 {
        letter-spacing: 0em;
      }

      .cls-69 {
        letter-spacing: -.06em;
      }

      .cls-70 {
        letter-spacing: -.06em;
      }

      .cls-71 {
        letter-spacing: -.06em;
      }

      .cls-72 {
        letter-spacing: -.06em;
      }

      .cls-73 {
        letter-spacing: -.06em;
      }

      .cls-74 {
        letter-spacing: 0em;
      }

      .cls-75 {
        letter-spacing: -.06em;
      }

      .cls-76 {
        letter-spacing: -.06em;
      }

      .cls-77 {
        letter-spacing: -.06em;
      }

      .cls-28, .cls-45 {
        font-size: 4.53px;
      }

      .cls-29, .cls-44 {
        font-size: 4.26px;
      }

      .cls-32, .cls-41 {
        font-size: 5.47px;
      }

      .cls-34 {
        font-size: 3.38px;
      }

      .cls-35 {
        font-size: 4.09px;
      }

      .cls-38 {
        font-size: 2.94px;
      }

      .cls-78, .cls-79 {
        stroke-width: 0px;
      }

      .cls-43 {
        font-size: 2.93px;
      }

      .cls-79 {
        fill: #e6e6e6;
      }

      .cls-47 {
        font-size: 3.65px;
      }
    </style>
  </defs>
  <path class="cls-78" d="m912.52,867.27H164.89V115.77h747.63v751.5Zm-746.63-1h745.63V116.77H165.89v749.5Z"/>
  <path class="cls-78" d="m906.49,860.04H170.92V122.99h735.57v737.05Zm-734.82-.75h734.07V123.74H171.67v735.55Z"/>
  <path class="cls-78" d="m413.5,183h-232c-.28,0-.5-.22-.5-.5s.22-.5.5-.5h232c.28,0,.5.22.5.5s-.22.5-.5.5Z"/>
  <path class="cls-78" d="m608,300h-98v-28h-70v-18h-35v10h-53v-58h255.71l.15.15c.19.19.48.49.14,93.35v.5Zm-97-1h96c.11-30.42.25-86.58.04-92h-254.04v56h51v-10h37v18h69v-17.5h1v45.5Z"/>
  <path class="cls-78" d="m262.7,303h-81.7v-36h80.5c.07,0,.14.02.2.04v-83.59c0-.28.22-.5.5-.5s.5.22.5.5v119.55Zm-80.7-1h79.7v-34.04c-.06.03-.13.04-.2.04h-79.5v34Z"/>
  <path class="cls-78" d="m223.5,302.33c-.28,0-.5-.22-.5-.5v-34.33c0-.28.22-.5.5-.5s.5.22.5.5v34.33c0,.28-.22.5-.5.5Z"/>
  <path class="cls-78" d="m200.76,267c-.28,0-.5-.22-.5-.5v-26.5h61.95c.28,0,.5.22.5.5s-.22.5-.5.5h-60.95v25.5c0,.28-.22.5-.5.5Z"/>
  <path class="cls-78" d="m489.5,272.18c-.28,0-.5-.22-.5-.5v-18.18c0-.28.22-.5.5-.5s.5.22.5.5v18.18c0,.28-.22.5-.5.5Z"/>
  <path class="cls-78" d="m440.5,273h-45.78v-9.3c0-.28.22-.5.5-.5s.5.22.5.5v8.3h44.78c.28,0,.5.22.5.5s-.22.5-.5.5Z"/>
  <path class="cls-78" d="m427.5,272.63c-.28,0-.5-.22-.5-.5v-16.63c0-.28.22-.5.5-.5s.5.22.5.5v16.63c0,.28-.22.5-.5.5Z"/>
  <path class="cls-78" d="m414.5,253c-.28,0-.5-.22-.5-.5v-123c0-.28.22-.5.5-.5s.5.22.5.5v123c0,.28-.22.5-.5.5Z"/>
  <path class="cls-78" d="m351.5,182.51c-.28,0-.5-.22-.5-.5v-52.51c0-.28.22-.5.5-.5s.5.22.5.5v52.51c0,.28-.22.5-.5.5Z"/>
  <path class="cls-78" d="m324,530h-143V129h428v77.5c0,.28-.22.5-.5.5s-.5-.22-.5-.5v-76.5H182v399h141v-232h-60.5c-.28,0-.5-.22-.5-.5s.22-.5.5-.5h61.5v234Z"/>
  <path class="cls-78" d="m323.39,371h-141.89c-.28,0-.5-.22-.5-.5s.22-.5.5-.5h141.89c.28,0,.5.22.5.5s-.22.5-.5.5Z"/>
  <path class="cls-78" d="m322.95,430.03h0s-138.01-.03-140.45-.03c-.28,0-.5-.22-.5-.5s.22-.5.5-.5c2.44,0,140.45.03,140.45.03.28,0,.5.22.5.5s-.22.5-.5.5Z"/>
  <path class="cls-78" d="m253,429h-71v-56h71v56Zm-70-1h69v-54h-69v54Z"/>
  <path class="cls-78" d="m313,429h-59v-56h59v56Zm-58-1h57v-54h-57v54Z"/>
  <path class="cls-78" d="m250.5,738.5c-.28,0-.5-.22-.5-.5v-148h-17v6h-22v-64.5c0-.28.22-.5.5-.5s.5.22.5.5v63.5h20v-6h19v149c0,.28-.22.5-.5.5Z"/>
  <path class="cls-78" d="m253.5,767h-25.56c-.28,0-.5-.22-.5-.5s.22-.5.5-.5h24.56v-178h-35.5v-56.5c0-.28.22-.5.5-.5s.5.22.5.5v55.5h35.5v180Z"/>
  <path class="cls-78" d="m180,149h-4v-25h36v4h-32v21Zm-3-1h2v-21h32v-2h-34v23Z"/>
  <path class="cls-78" d="m180,303h-6v-36h6v36Zm-5-1h4v-34h-4v34Z"/>
  <path class="cls-78" d="m173.5,531h-.5v-161h6v156l3.89-.17.21,5.01-9.6.16Zm.5-1h1.58l6.48-.14-.13-2.99-3.93.17v-156.04h-4v159Z"/>
  <path class="cls-78" d="m199,765h-23v-176h19.5v4h-15.58v169h19.08v3Zm-22-1h21v-1h-19.08v-171h15.58v-2h-17.5v174Z"/>
  <path class="cls-78" d="m251.5,765.02h-23.75v-5.06h18.66v-22.46h5.09v27.52Zm-22.75-1h21.75v-25.52h-3.09v22.46h-18.66v3.06Z"/>
  <path class="cls-78" d="m251.5,765.02h-23.75v-5.06h18.66v-22.46h5.09v27.52Zm-22.75-1h21.75v-25.52h-3.09v22.46h-18.66v3.06Z"/>
  <path class="cls-78" d="m200,767h-26v-180h21.5c.28,0,.5.22.5.5s-.22.5-.5.5h-20.5v178h24v-6h-18v-164h6.44v-2.97c0-.28.22-.5.5-.5s.5.22.5.5v3.97h-6.44v162h18v8Z"/>
  <path class="cls-78" d="m250.45,634.1h0c-11.36-.02-68.06-.11-68.96-.35-.27-.07-.43-.34-.36-.61.07-.26.33-.41.58-.36,1.47.18,45.58.29,68.74.32.28,0,.5.22.5.5,0,.28-.22.5-.5.5Z"/>
  <path class="cls-78" d="m249.79,700.28h0l-68.17-.67c-.28,0-.5-.23-.5-.5,0-.27.23-.5.5-.5h0l68.17.67c.28,0,.5.23.5.5,0,.27-.23.5-.5.5Z"/>
  <path class="cls-78" d="m321.5,752h-68c-.28,0-.5-.22-.5-.5s.22-.5.5-.5h68c.28,0,.5.22.5.5s-.22.5-.5.5Z"/>
  <path class="cls-78" d="m234.16,700.28c-.27,0-.5-.22-.5-.5l-.67-65.51c0-.28.22-.5.5-.5h0c.27,0,.5.22.5.5l.67,65.51c0,.28-.22.5-.5.5h0Z"/>
  <path class="cls-78" d="m321.5,713h-68c-.28,0-.5-.22-.5-.5s.22-.5.5-.5h68c.28,0,.5.22.5.5s-.22.5-.5.5Z"/>
  <path class="cls-78" d="m354.75,851h-30.25l.04-100h4.06l.86,96h25.29v4Zm-29.25-1h28.25v-2h-25.28l-.86-96h-2.07l-.04,98Z"/>
  <path class="cls-78" d="m354.75,854h-33.75l1.01-180h301v179h-115v-45h62v36.5c0,.28-.22.5-.5.5s-.5-.22-.5-.5v-35.5h-60v43h113v-177h-299l-.99,178h31.75v-2.5c0-.28.22-.5.5-.5s.5.22.5.5v3.5Z"/>
  <path class="cls-78" d="m508.5,845.93c-.27,0-.5-.22-.5-.5s.22-.5.5-.5l105.5-.92v-32h3.5c.28,0,.5.22.5.5s-.22.5-.5.5h-2.5v32h-.5s-106,.93-106,.93h0Z"/>
  <path class="cls-78" d="m621.5,781h-152.5v-43h-106.65v-63.17c0-.28.22-.5.5-.5s.5.22.5.5v62.17h106.65v43h151.5c.28,0,.5.22.5.5s-.22.5-.5.5Z"/>
  <path class="cls-78" d="m469.6,742.18c-.28,0-.5-.22-.5-.5v-66.84c0-.28.22-.5.5-.5s.5.22.5.5v66.84c0,.28-.22.5-.5.5Z"/>
  <path class="cls-78" d="m511.83,780.42c-.28,0-.5-.22-.5-.5v-105.42c0-.28.22-.5.5-.5s.5.22.5.5v105.42c0,.28-.22.5-.5.5Z"/>
  <path class="cls-78" d="m568.36,809c-.28,0-.5-.22-.5-.5v-27.92c0-.28.22-.5.5-.5s.5.22.5.5v27.92c0,.28-.22.5-.5.5Z"/>
  <path class="cls-78" d="m416.39,737.85c-.28,0-.5-.22-.5-.5v-61.85c0-.28.22-.5.5-.5s.5.22.5.5v61.85c0,.28-.22.5-.5.5Z"/>
  <path class="cls-78" d="m320,480h-44v-47.52h.5v-.48h43.5v48Zm-43-1h42v-46h-42v46Z"/>
  <path class="cls-78" d="m312,524.5h-9.5c-.28,0-.5-.22-.5-.5s.22-.5.5-.5h8.5v-40.5h-34v40.5h5.5c.28,0,.5.22.5.5s-.22.5-.5.5h-6.5v-42.5h36v42.5Z"/>
  <path class="cls-78" d="m621.42,851.28h-.51s-111.91-.28-111.91-.28v-4h108v-35h4l.42,39.28Zm-111.42-1.28l110.4.28-.4-37.28h-2v35h-108v2Z"/>
  <path class="cls-78" d="m621.5,794h-6.92v-13.42c0-.28.22-.5.5-.5s.5.22.5.5v12.42h5.92c.28,0,.5.22.5.5s-.22.5-.5.5Z"/>
  <path class="cls-78" d="m619.5,812.84c-.28,0-.5-.22-.5-.5v-18.84c0-.28.22-.5.5-.5s.5.22.5.5v18.84c0,.28-.22.5-.5.5Z"/>
  <path class="cls-78" d="m905,853h-282.5c-.28,0-.5-.22-.5-.5s.22-.5.5-.5h281.5v-71h-184v-42l-97.77-.15c-.28,0-.5-.22-.5-.5s.22-.5.5-.5h0l98.77.15v42h184v73Z"/>
  <path class="cls-78" d="m274.56,523.38l-92.94-.12v-91.63h92.94v91.75Zm-92.19-.87l91.44.12v-90.25h-91.44v90.13Z"/>
  <path class="cls-78" d="m248.01,495.25h-38.53v-62.79c0-.21.17-.38.38-.38s.38.17.38.38v62.04h37.03s0-35.14,0-35.14c0-.21.17-.38.38-.38s.38.17.38.38v35.89Z"/>
  <path class="cls-78" d="m243.09,459.13c-.21,0-.38-.17-.38-.38v-26.34c0-.21.17-.38.38-.38s.38.17.38.38v26.34c0,.21-.17.38-.38.38Z"/>
  <path class="cls-78" d="m238.4,459.13c-.21,0-.38-.17-.38-.38v-26.34c0-.21.17-.38.38-.38s.38.17.38.38v26.34c0,.21-.17.38-.38.38Z"/>
  <path class="cls-78" d="m234.61,459.13c-.21,0-.38-.17-.38-.38v-26.34c0-.21.17-.38.38-.38s.38.17.38.38v26.34c0,.21-.17.38-.38.38Z"/>
  <path class="cls-78" d="m230.37,458.98c-.21,0-.38-.17-.38-.38v-26.34c0-.21.17-.38.38-.38s.38.17.38.38v26.34c0,.21-.17.38-.38.38Z"/>
  <path class="cls-78" d="m225.98,459.13c-.21,0-.38-.17-.38-.38v-26.34c0-.21.17-.38.38-.38s.38.17.38.38v26.34c0,.21-.17.38-.38.38Z"/>
  <path class="cls-78" d="m222.19,458.87c-.21,0-.38-.17-.38-.38v-26.34c0-.21.17-.38.38-.38s.38.17.38.38v26.34c0,.21-.17.38-.38.38Z"/>
  <path class="cls-78" d="m218.1,459.13c-.21,0-.38-.17-.38-.38v-26.34c0-.21.17-.38.38-.38s.38.17.38.38v26.34c0,.21-.17.38-.38.38Z"/>
  <path class="cls-78" d="m245.33,522.78c-.21,0-.38-.17-.38-.38v-26.9c0-.21.17-.38.38-.38s.38.17.38.38v26.9c0,.21-.17.38-.38.38Z"/>
  <path class="cls-78" d="m240.56,522.78c-.21,0-.38-.17-.38-.38v-26.9c0-.21.17-.38.38-.38s.38.17.38.38v26.9c0,.21-.17.38-.38.38Z"/>
  <path class="cls-78" d="m235.63,522.78c-.21,0-.38-.17-.38-.38v-26.9c0-.21.17-.38.38-.38s.38.17.38.38v26.9c0,.21-.17.38-.38.38Z"/>
  <path class="cls-78" d="m231.94,522.78c-.21,0-.38-.17-.38-.38v-26.9c0-.21.17-.38.38-.38s.38.17.38.38v26.9c0,.21-.17.38-.38.38Z"/>
  <path class="cls-78" d="m227.94,522.78c-.21,0-.38-.17-.38-.38v-26.9c0-.21.17-.38.38-.38s.38.17.38.38v26.9c0,.21-.17.38-.38.38Z"/>
  <path class="cls-78" d="m223.63,522.78c-.21,0-.38-.17-.38-.38v-26.9c0-.21.17-.38.38-.38s.38.17.38.38v26.9c0,.21-.17.38-.38.38Z"/>
  <path class="cls-78" d="m219.47,522.78c-.21,0-.38-.17-.38-.38v-26.9c0-.21.17-.38.38-.38s.38.17.38.38v26.9c0,.21-.17.38-.38.38Z"/>
  <path class="cls-78" d="m214.55,522.48c-.21,0-.38-.17-.38-.38v-26.9c0-.21.17-.38.38-.38s.38.17.38.38v26.9c0,.21-.17.38-.38.38Z"/>
  <path class="cls-78" d="m273.82,460.58h0l-25.64-.14c-.21,0-.37-.17-.37-.38,0-.21.17-.37.38-.37h0l25.64.14c.21,0,.37.17.37.38,0,.21-.17.37-.38.37Z"/>
  <path class="cls-78" d="m273.79,465.03h0l-25.64-.14c-.21,0-.37-.17-.37-.38,0-.21.17-.37.38-.37h0l25.64.14c.21,0,.37.17.37.38,0,.21-.17.37-.38.37Z"/>
  <path class="cls-78" d="m274.05,469.02h0l-25.64-.14c-.21,0-.37-.17-.37-.38,0-.21.17-.37.38-.37h0l25.64.14c.21,0,.37.17.37.38,0,.21-.17.37-.38.37Z"/>
  <path class="cls-78" d="m273.75,473.07h0l-25.64-.14c-.21,0-.37-.17-.37-.38,0-.21.17-.37.38-.37h0l25.64.14c.21,0,.37.17.37.38,0,.21-.17.37-.38.37Z"/>
  <path class="cls-78" d="m273.72,476.81h0l-25.64-.14c-.21,0-.37-.17-.37-.38,0-.21.17-.37.38-.37h0l25.64.14c.21,0,.37.17.37.38,0,.21-.17.37-.38.37Z"/>
  <path class="cls-78" d="m273.7,480.83h0l-25.64-.14c-.21,0-.37-.17-.37-.38,0-.21.17-.37.38-.37h0l25.64.14c.21,0,.37.17.37.38,0,.21-.17.37-.38.37Z"/>
  <path class="cls-78" d="m273.68,484.7h0l-25.64-.14c-.21,0-.37-.17-.37-.38,0-.21.17-.37.38-.37h0l25.64.14c.21,0,.37.17.37.38,0,.21-.17.37-.38.37Z"/>
  <path class="cls-78" d="m246.27,493.54h-33.89v-33.37h33.89v33.37Zm-33.14-.75h32.39v-31.87h-32.39v31.87Z"/>
  <path class="cls-78" d="m245.89,493.54h-35.26v-34.98h37c.21,0,.38.17.38.38s-.17.38-.38.38h-36.25v33.48h34.51c.21,0,.38.17.38.38s-.17.38-.38.38Z"/>
  <path class="cls-78" d="m214.06,458.87c-.21,0-.38-.17-.38-.38v-26.34c0-.21.17-.38.38-.38s.38.17.38.38v26.34c0,.21-.17.38-.38.38Z"/>
  <path class="cls-78" d="m273.84,489.27h0l-25.64-.14c-.21,0-.37-.17-.37-.38,0-.21.17-.37.38-.37h0l25.64.14c.21,0,.37.17.37.38,0,.21-.17.37-.38.37Z"/>
  <path class="cls-78" d="m244.33,493.63c-.21,0-.38-.17-.38-.38v-32.54c0-.21.17-.38.38-.38s.38.17.38.38v32.54c0,.21-.17.38-.38.38Z"/>
  <path class="cls-78" d="m209.24,466.6h0l-27.15-.15c-.21,0-.37-.17-.37-.38,0-.21.17-.37.38-.37h0l27.15.15c.21,0,.37.17.37.38,0,.21-.17.37-.38.37Z"/>
  <path class="cls-78" d="m209.21,471.06h0l-27.15-.15c-.21,0-.37-.17-.37-.38,0-.21.17-.37.38-.37h0l27.15.15c.21,0,.37.17.37.38,0,.21-.17.37-.38.37Z"/>
  <path class="cls-78" d="m209.49,475.04h0l-27.15-.15c-.21,0-.37-.17-.37-.38,0-.21.17-.37.38-.37h0l27.15.15c.21,0,.37.17.37.38,0,.21-.17.37-.38.37Z"/>
  <path class="cls-78" d="m209.16,479.1h0l-27.15-.15c-.21,0-.37-.17-.37-.38,0-.21.17-.37.38-.37h0l27.15.15c.21,0,.37.17.37.38,0,.21-.17.37-.38.37Z"/>
  <path class="cls-78" d="m209.14,482.83h0l-27.15-.15c-.21,0-.37-.17-.37-.38,0-.21.17-.37.38-.37h0l27.15.15c.21,0,.37.17.37.38,0,.21-.17.37-.38.37Z"/>
  <path class="cls-78" d="m209.12,486.85h0l-27.15-.15c-.21,0-.37-.17-.37-.38,0-.21.17-.37.38-.37h0l27.15.15c.21,0,.37.17.37.38,0,.21-.17.37-.38.37Z"/>
  <path class="cls-78" d="m209.09,490.73h0l-27.15-.15c-.21,0-.37-.17-.37-.38,0-.21.17-.37.38-.37h0l27.15.15c.21,0,.37.17.37.38,0,.21-.17.37-.38.37Z"/>
  <path class="cls-78" d="m209.27,495.3h0l-27.15-.15c-.21,0-.37-.17-.37-.38,0-.21.17-.37.38-.37h0l27.15.15c.21,0,.37.17.37.38,0,.21-.17.37-.38.37Z"/>
  <path class="cls-78" d="m829.21,555.26h-.38l-92.56-.12v-91.63h92.93v91.75Zm-92.18-.87l91.43.12v-90.25h-91.43v90.13Z"/>
  <path class="cls-78" d="m802.66,527.13h-38.53v-62.79c0-.21.17-.38.38-.38s.38.17.38.38v62.04h37.03s0-35.14,0-35.14c0-.21.17-.38.38-.38s.38.17.38.38v35.89Z"/>
  <path class="cls-78" d="m797.74,491c-.21,0-.38-.17-.38-.38v-26.34c0-.21.17-.38.38-.38s.38.17.38.38v26.34c0,.21-.17.38-.38.38Z"/>
  <path class="cls-78" d="m793.04,491c-.21,0-.38-.17-.38-.38v-26.34c0-.21.17-.38.38-.38s.38.17.38.38v26.34c0,.21-.17.38-.38.38Z"/>
  <path class="cls-78" d="m789.26,491c-.21,0-.38-.17-.38-.38v-26.34c0-.21.17-.38.38-.38s.38.17.38.38v26.34c0,.21-.17.38-.38.38Z"/>
  <path class="cls-78" d="m785.02,490.86c-.21,0-.38-.17-.38-.38v-26.34c0-.21.17-.38.38-.38s.38.17.38.38v26.34c0,.21-.17.38-.38.38Z"/>
  <path class="cls-78" d="m780.63,491c-.21,0-.38-.17-.38-.38v-26.34c0-.21.17-.38.38-.38s.38.17.38.38v26.34c0,.21-.17.38-.38.38Z"/>
  <path class="cls-78" d="m776.84,490.75c-.21,0-.38-.17-.38-.38v-26.34c0-.21.17-.38.38-.38s.38.17.38.38v26.34c0,.21-.17.38-.38.38Z"/>
  <path class="cls-78" d="m772.75,491c-.21,0-.38-.17-.38-.38v-26.34c0-.21.17-.38.38-.38s.38.17.38.38v26.34c0,.21-.17.38-.38.38Z"/>
  <path class="cls-78" d="m799.98,554.65c-.21,0-.38-.17-.38-.38v-26.9c0-.21.17-.38.38-.38s.38.17.38.38v26.9c0,.21-.17.38-.38.38Z"/>
  <path class="cls-78" d="m795.21,554.65c-.21,0-.38-.17-.38-.38v-26.9c0-.21.17-.38.38-.38s.38.17.38.38v26.9c0,.21-.17.38-.38.38Z"/>
  <path class="cls-78" d="m790.28,554.65c-.21,0-.38-.17-.38-.38v-26.9c0-.21.17-.38.38-.38s.38.17.38.38v26.9c0,.21-.17.38-.38.38Z"/>
  <path class="cls-78" d="m786.59,554.65c-.21,0-.38-.17-.38-.38v-26.9c0-.21.17-.38.38-.38s.38.17.38.38v26.9c0,.21-.17.38-.38.38Z"/>
  <path class="cls-78" d="m782.59,554.65c-.21,0-.38-.17-.38-.38v-26.9c0-.21.17-.38.38-.38s.38.17.38.38v26.9c0,.21-.17.38-.38.38Z"/>
  <path class="cls-78" d="m778.28,554.65c-.21,0-.38-.17-.38-.38v-26.9c0-.21.17-.38.38-.38s.38.17.38.38v26.9c0,.21-.17.38-.38.38Z"/>
  <path class="cls-78" d="m774.12,554.65c-.21,0-.38-.17-.38-.38v-26.9c0-.21.17-.38.38-.38s.38.17.38.38v26.9c0,.21-.17.38-.38.38Z"/>
  <path class="cls-78" d="m769.2,554.35c-.21,0-.38-.17-.38-.38v-26.9c0-.21.17-.38.38-.38s.38.17.38.38v26.9c0,.21-.17.38-.38.38Z"/>
  <path class="cls-78" d="m828.47,492.46h0l-25.64-.14c-.21,0-.37-.17-.37-.38,0-.21.17-.37.38-.37h0l25.64.14c.21,0,.37.17.37.38,0,.21-.17.37-.38.37Z"/>
  <path class="cls-78" d="m828.44,496.91h0l-25.64-.14c-.21,0-.37-.17-.37-.38,0-.21.17-.37.38-.37h0l25.64.14c.21,0,.37.17.37.38,0,.21-.17.37-.38.37Z"/>
  <path class="cls-78" d="m828.7,500.89h0l-25.64-.14c-.21,0-.37-.17-.37-.38,0-.21.17-.37.38-.37h0l25.64.14c.21,0,.37.17.37.38,0,.21-.17.37-.38.37Z"/>
  <path class="cls-78" d="m828.4,504.95h0l-25.64-.14c-.21,0-.37-.17-.37-.38,0-.21.13-.35.38-.37l25.64.14c.21,0,.37.17.37.38,0,.21-.17.37-.38.37Z"/>
  <path class="cls-78" d="m828.37,508.68h0l-25.64-.14c-.21,0-.37-.17-.37-.38s.16-.35.38-.37l25.64.14c.21,0,.37.17.37.38,0,.21-.17.37-.38.37Z"/>
  <path class="cls-78" d="m828.35,512.7h0l-25.64-.14c-.21,0-.37-.17-.37-.38s.18-.34.38-.37l25.64.14c.21,0,.37.17.37.38,0,.21-.17.37-.38.37Z"/>
  <path class="cls-78" d="m828.33,516.58h0l-25.64-.14c-.21,0-.37-.17-.37-.38,0-.21.2-.38.38-.37l25.64.14c.21,0,.37.17.37.38,0,.21-.17.37-.38.37Z"/>
  <path class="cls-78" d="m800.92,525.41h-33.89v-33.37h33.89v33.37Zm-33.14-.75h32.39v-31.87h-32.39v31.87Z"/>
  <path class="cls-78" d="m800.54,525.41h-35.26v-34.98h37c.21,0,.38.17.38.38s-.17.38-.38.38h-36.25v33.48h34.51c.21,0,.38.17.38.38s-.17.38-.38.38Z"/>
  <path class="cls-78" d="m768.71,490.75c-.21,0-.38-.17-.38-.38v-26.34c0-.21.17-.38.38-.38s.38.17.38.38v26.34c0,.21-.17.38-.38.38Z"/>
  <path class="cls-78" d="m828.5,521.15h0l-25.64-.14c-.21,0-.37-.17-.37-.38,0-.21.17-.37.38-.37h0l25.64.14c.21,0,.37.17.37.38,0,.21-.17.37-.38.37Z"/>
  <path class="cls-78" d="m798.98,525.51c-.21,0-.38-.17-.38-.38v-32.54c0-.21.17-.38.38-.38s.38.17.38.38v32.54c0,.21-.17.38-.38.38Z"/>
  <path class="cls-78" d="m763.89,498.48h0l-27.15-.15c-.21,0-.37-.17-.37-.38,0-.21.17-.37.38-.37h0l27.15.15c.21,0,.37.17.37.38,0,.21-.17.37-.38.37Z"/>
  <path class="cls-78" d="m763.86,502.93h0l-27.15-.15c-.21,0-.37-.17-.37-.38,0-.21.17-.37.38-.37h0l27.15.15c.21,0,.37.17.37.38,0,.21-.17.37-.38.37Z"/>
  <path class="cls-78" d="m764.14,506.92h0l-27.15-.15c-.21,0-.37-.17-.37-.38,0-.21.17-.37.38-.37h0l27.15.15c.21,0,.37.17.37.38,0,.21-.17.37-.38.37Z"/>
  <path class="cls-78" d="m763.81,510.97h0l-27.15-.15c-.21,0-.37-.17-.37-.38s.19-.36.38-.37l27.15.15c.21,0,.37.17.37.38,0,.21-.17.37-.38.37Z"/>
  <path class="cls-78" d="m763.79,514.71h0l-27.15-.15c-.21,0-.37-.17-.37-.38,0-.21.21-.37.38-.37l27.15.15c.21,0,.37.17.37.38,0,.21-.17.37-.38.37Z"/>
  <path class="cls-78" d="m763.77,518.73h0l-27.15-.15c-.21,0-.37-.17-.37-.38,0-.21.17-.37.38-.37h0l27.15.15c.21,0,.37.17.37.38,0,.21-.17.37-.38.37Z"/>
  <path class="cls-78" d="m763.75,522.61h0l-27.15-.15c-.21,0-.37-.17-.37-.38,0-.21.17-.37.38-.37h0l27.15.15c.21,0,.37.17.37.38,0,.21-.17.37-.38.37Z"/>
  <path class="cls-78" d="m763.92,527.17h0l-27.15-.15c-.21,0-.37-.17-.37-.38,0-.21.17-.37.38-.37h0l27.15.15c.21,0,.37.17.37.38,0,.21-.17.37-.38.37Z"/>
  <path class="cls-78" d="m606.88,778.69h-.38l-92.56-.12v-91.63h92.93v91.75Zm-92.18-.87l91.43.12v-90.25h-91.43v90.13Z"/>
  <path class="cls-78" d="m580.33,750.57h-38.53v-62.79c0-.21.17-.38.38-.38s.38.17.38.38v62.04h37.03s0-35.14,0-35.14c0-.21.17-.38.38-.38s.38.17.38.38v35.89Z"/>
  <path class="cls-78" d="m575.4,714.44c-.21,0-.38-.17-.38-.38v-26.34c0-.21.17-.38.38-.38s.38.17.38.38v26.34c0,.21-.17.38-.38.38Z"/>
  <path class="cls-78" d="m570.71,714.44c-.21,0-.38-.17-.38-.38v-26.34c0-.21.17-.38.38-.38s.38.17.38.38v26.34c0,.21-.17.38-.38.38Z"/>
  <path class="cls-78" d="m566.92,714.44c-.21,0-.38-.17-.38-.38v-26.34c0-.21.17-.38.38-.38s.38.17.38.38v26.34c0,.21-.17.38-.38.38Z"/>
  <path class="cls-78" d="m562.68,714.29c-.21,0-.38-.17-.38-.38v-26.34c0-.21.17-.38.38-.38s.38.17.38.38v26.34c0,.21-.17.38-.38.38Z"/>
  <path class="cls-78" d="m558.29,714.44c-.21,0-.38-.17-.38-.38v-26.34c0-.21.17-.38.38-.38s.38.17.38.38v26.34c0,.21-.17.38-.38.38Z"/>
  <path class="cls-78" d="m554.51,714.19c-.21,0-.38-.17-.38-.38v-26.34c0-.21.17-.38.38-.38s.38.17.38.38v26.34c0,.21-.17.38-.38.38Z"/>
  <path class="cls-78" d="m550.42,714.44c-.21,0-.38-.17-.38-.38v-26.34c0-.21.17-.38.38-.38s.38.17.38.38v26.34c0,.21-.17.38-.38.38Z"/>
  <path class="cls-78" d="m577.64,778.09c-.21,0-.38-.17-.38-.38v-26.9c0-.21.17-.38.38-.38s.38.17.38.38v26.9c0,.21-.17.38-.38.38Z"/>
  <path class="cls-78" d="m572.87,778.09c-.21,0-.38-.17-.38-.38v-26.9c0-.21.17-.38.38-.38s.38.17.38.38v26.9c0,.21-.17.38-.38.38Z"/>
  <path class="cls-78" d="m567.95,778.09c-.21,0-.38-.17-.38-.38v-26.9c0-.21.17-.38.38-.38s.38.17.38.38v26.9c0,.21-.17.38-.38.38Z"/>
  <path class="cls-78" d="m564.25,778.09c-.21,0-.38-.17-.38-.38v-26.9c0-.21.17-.38.38-.38s.38.17.38.38v26.9c0,.21-.17.38-.38.38Z"/>
  <path class="cls-78" d="m560.25,778.09c-.21,0-.38-.17-.38-.38v-26.9c0-.21.17-.38.38-.38s.38.17.38.38v26.9c0,.21-.17.38-.38.38Z"/>
  <path class="cls-78" d="m555.94,778.09c-.21,0-.38-.17-.38-.38v-26.9c0-.21.17-.38.38-.38s.38.17.38.38v26.9c0,.21-.17.38-.38.38Z"/>
  <path class="cls-78" d="m551.79,778.09c-.21,0-.38-.17-.38-.38v-26.9c0-.21.17-.38.38-.38s.38.17.38.38v26.9c0,.21-.17.38-.38.38Z"/>
  <path class="cls-78" d="m546.86,777.79c-.21,0-.38-.17-.38-.38v-26.9c0-.21.17-.38.38-.38s.38.17.38.38v26.9c0,.21-.17.38-.38.38Z"/>
  <path class="cls-78" d="m606.13,715.89h0l-25.64-.14c-.21,0-.37-.17-.37-.38,0-.21.17-.37.38-.37h0l25.64.14c.21,0,.37.17.37.38,0,.21-.17.37-.38.37Z"/>
  <path class="cls-78" d="m606.11,720.35h0l-25.64-.14c-.21,0-.37-.17-.37-.38,0-.21.17-.37.38-.37h0l25.64.14c.21,0,.37.17.37.38,0,.21-.17.37-.38.37Z"/>
  <path class="cls-78" d="m606.37,724.33h0l-25.64-.14c-.21,0-.37-.17-.37-.38,0-.21.17-.37.38-.37h0l25.64.14c.21,0,.37.17.37.38,0,.21-.17.37-.38.37Z"/>
  <path class="cls-78" d="m606.06,728.39h0l-25.64-.14c-.21,0-.37-.17-.37-.38,0-.21.17-.37.38-.37h0l25.64.14c.21,0,.37.17.37.38,0,.21-.17.37-.38.37Z"/>
  <path class="cls-78" d="m606.04,732.12h0l-25.64-.14c-.21,0-.37-.17-.37-.38,0-.21.17-.37.38-.37h0l25.64.14c.21,0,.37.17.37.38,0,.21-.17.37-.38.37Z"/>
  <path class="cls-78" d="m606.02,736.14h0l-25.64-.14c-.21,0-.37-.17-.37-.38s.16-.39.38-.37l25.64.14c.21,0,.37.17.37.38,0,.21-.17.37-.38.37Z"/>
  <path class="cls-78" d="m605.99,740.02h0l-25.64-.14c-.21,0-.37-.17-.37-.38s.18-.33.38-.37l25.64.14c.21,0,.37.17.37.38,0,.21-.17.37-.38.37Z"/>
  <path class="cls-78" d="m578.58,748.85h-33.89v-33.37h33.89v33.37Zm-33.14-.75h32.39v-31.87h-32.39v31.87Z"/>
  <path class="cls-78" d="m578.21,748.85h-35.26v-34.98h37c.21,0,.38.17.38.38s-.17.38-.38.38h-36.25v33.48h34.51c.21,0,.38.17.38.38s-.17.38-.38.38Z"/>
  <path class="cls-78" d="m546.38,714.19c-.21,0-.38-.17-.38-.38v-26.34c0-.21.17-.38.38-.38s.38.17.38.38v26.34c0,.21-.17.38-.38.38Z"/>
  <path class="cls-78" d="m606.16,744.59h0l-25.64-.14c-.21,0-.37-.17-.37-.38,0-.21.17-.37.38-.37h0l25.64.14c.21,0,.37.17.37.38,0,.21-.17.37-.38.37Z"/>
  <path class="cls-78" d="m576.64,748.95c-.21,0-.38-.17-.38-.38v-32.54c0-.21.17-.38.38-.38s.38.17.38.38v32.54c0,.21-.17.38-.38.38Z"/>
  <path class="cls-78" d="m541.55,721.92h0l-27.15-.15c-.21,0-.37-.17-.37-.38,0-.21.17-.37.38-.37h0l27.15.15c.21,0,.37.17.37.38,0,.21-.17.37-.38.37Z"/>
  <path class="cls-78" d="m541.52,726.37h0l-27.15-.15c-.21,0-.37-.17-.37-.38,0-.21.17-.37.38-.37h0l27.15.15c.21,0,.37.17.37.38,0,.21-.17.37-.38.37Z"/>
  <path class="cls-78" d="m541.8,730.36h0l-27.15-.15c-.21,0-.37-.17-.37-.38,0-.21.17-.37.38-.37h0l27.15.15c.21,0,.37.17.37.38,0,.21-.17.37-.38.37Z"/>
  <path class="cls-78" d="m541.48,734.41h0l-27.15-.15c-.21,0-.37-.17-.37-.38,0-.21.17-.37.38-.37h0l27.15.15c.21,0,.37.17.37.38,0,.21-.17.37-.38.37Z"/>
  <path class="cls-78" d="m541.46,738.14h0l-27.15-.15c-.21,0-.37-.17-.37-.38,0-.21.17-.37.38-.37h0l27.15.15c.21,0,.37.17.37.38,0,.21-.17.37-.38.37Z"/>
  <path class="cls-78" d="m541.43,742.17h0l-27.15-.15c-.21,0-.37-.17-.37-.38s.17-.37.38-.37l27.15.15c.21,0,.37.17.37.38,0,.21-.17.37-.38.37Z"/>
  <path class="cls-78" d="m541.41,746.04h0l-27.15-.15c-.21,0-.37-.17-.37-.38,0-.21.17-.37.38-.37h0l27.15.15c.21,0,.37.17.37.38,0,.21-.17.37-.38.37Z"/>
  <path class="cls-78" d="m541.59,750.61h0l-27.15-.15c-.21,0-.37-.17-.37-.38,0-.21.17-.37.38-.37h0l27.15.15c.21,0,.37.17.37.38,0,.21-.17.37-.38.37Z"/>
  <path class="cls-78" d="m607.88,435.88h-255.75v-134.11h-28.18c-.21,0-.38-.17-.38-.38s.17-.38.38-.38h283.93v134.86Zm-255-.75h254.25v-133.36h-254.25v133.36Z"/>
  <path class="cls-78" d="m607.16,342.88h-214.03v-20h-40.62c-.21,0-.38-.17-.38-.38s.17-.38.38-.38h41.38v20h213.28c.21,0,.38.17.38.38s-.17.38-.38.38Z"/>
  <path class="cls-78" d="m607.6,346.44h-254.5c-.21,0-.38-.17-.38-.38s.17-.38.38-.38h254.5c.21,0,.38.17.38.38s-.17.38-.38.38Z"/>
  <path class="cls-78" d="m396.5,435.38c-.21,0-.38-.17-.38-.38v-88.5c0-.21.17-.38.38-.38s.38.17.38.38v88.5c0,.21-.17.38-.38.38Z"/>
  <path class="cls-78" d="m580.23,435.38c-.21,0-.38-.17-.38-.38v-89c0-.21.17-.38.38-.38s.38.17.38.38v89c0,.21-.17.38-.38.38Z"/>
  <path class="cls-78" d="m376.15,435.38c-.21,0-.38-.17-.38-.38v-88.38c0-.21.17-.38.38-.38s.38.17.38.38v88.38c0,.21-.17.38-.38.38Z"/>
  <path class="cls-78" d="m593.41,435.38c-.21,0-.38-.17-.38-.38v-88.38c0-.21.17-.38.38-.38s.38.17.38.38v88.38c0,.21-.17.38-.38.38Z"/>
  <path class="cls-78" d="m489.66,435.38c-.21,0-.38-.17-.38-.38v-87.94c0-.21.17-.38.38-.38s.38.17.38.38v87.94c0,.21-.17.38-.38.38Z"/>
  <path class="cls-78" d="m396.27,351.31h-43.23c-.21,0-.38-.17-.38-.38s.17-.38.38-.38h43.23c.21,0,.38.17.38.38s-.17.38-.38.38Z"/>
  <path class="cls-78" d="m396.54,355.89h-43.76c-.21,0-.38-.17-.38-.38s.17-.38.38-.38h43.76c.21,0,.38.17.38.38s-.17.38-.38.38Z"/>
  <path class="cls-78" d="m396.28,359.6h-43.23c-.21,0-.38-.17-.38-.38s.17-.38.38-.38h43.23c.46,0,46.42-.31,91.85-.48,78.91-.3,90.4,0,92.18.36v-.04h26.37c.21,0,.38.17.38.38s-.17.38-.38.38h-27.27l.13-.13c-9.75-.68-122.86-.12-183.25.29Z"/>
  <path class="cls-78" d="m396,364.18h-43.46c-.21,0-.38-.17-.38-.38s.17-.38.38-.38h43.46c.21,0,.38.17.38.38s-.17.38-.38.38Z"/>
  <path class="cls-78" d="m396.27,368.46h-43.23c-.21,0-.38-.17-.38-.38s.17-.38.38-.38h43.23c.21,0,.38.17.38.38s-.17.38-.38.38Z"/>
  <path class="cls-78" d="m396.54,373.04h-43.76c-.21,0-.38-.17-.38-.38s.17-.38.38-.38h43.76c1.83,0,183.01-.16,183.61-.16h26.69c.21,0,.38.17.38.38s-.17.38-.38.38l-26.69-.04c-.33.04-.93.04-2.06.04l-181.55.16Z"/>
  <path class="cls-78" d="m396.27,377.75h-43.23c-.21,0-.38-.17-.38-.38s.17-.38.38-.38h43.23c.21,0,.38.17.38.38s-.17.38-.38.38Z"/>
  <path class="cls-78" d="m396,381.33h-43.46c-.21,0-.38-.17-.38-.38s.17-.38.38-.38h43.46c.21,0,.38.17.38.38s-.17.38-.38.38Z"/>
  <path class="cls-78" d="m396.33,385.54h-43.29c-.21,0-.38-.17-.38-.38s.17-.38.38-.38h43.29c.46,0,46.51-.27,92.02-.41,78.73-.25,90.42,0,92.25.34v-.06h26.4c.21,0,.38.17.38.38s-.17.38-.38.38h-27.48l.15-.12c-10.79-.57-123.17-.1-183.34.25Z"/>
  <path class="cls-78" d="m396.54,389.25h-43.76c-.21,0-.38-.17-.38-.38s.17-.38.38-.38h43.76c.21,0,.38.17.38.38s-.17.38-.38.38Z"/>
  <path class="cls-78" d="m396.27,392.96h-43.23c-.21,0-.38-.17-.38-.38s.17-.38.38-.38h43.23c.21,0,.38.17.38.38s-.17.38-.38.38Z"/>
  <path class="cls-78" d="m424.98,397.65c-22.49,0-27.17-.06-28.2-.18v.07h-44.24c-.21,0-.38-.17-.38-.38s.17-.38.38-.38l44.51.02c7.17.26,181.22-.17,182.95-.19h26.98c.21,0,.38.17.38.38s-.17.38-.38.38l-26.98-.02c-4.04.07-90.64.22-91.54.22-29.76.05-49.88.07-63.48.07Z"/>
  <path class="cls-78" d="m396.27,401.82h-43.23c-.21,0-.38-.17-.38-.38s.17-.38.38-.38h43.23c.21,0,.38.17.38.38s-.17.38-.38.38Z"/>
  <path class="cls-78" d="m396.54,406.4h-43.76c-.21,0-.38-.17-.38-.38s.17-.38.38-.38h43.76c.21,0,.38.17.38.38s-.17.38-.38.38Z"/>
  <path class="cls-78" d="m396.28,410.11h-43.23c-.21,0-.38-.17-.38-.38s.17-.38.38-.38h43.23c.46,0,46.45-.23,91.9-.37,78.81-.24,90.35-.03,92.13.27v-.06h26.37c.21,0,.38.17.38.38s-.17.38-.38.38h-27.27l.09-.09c-10.12-.48-122.9-.05-183.22.25Z"/>
  <path class="cls-78" d="m395.78,413.69h-42.78c-.21,0-.38-.17-.38-.38s.17-.38.38-.38h42.78c.21,0,.38.17.38.38s-.17.38-.38.38Z"/>
  <path class="cls-78" d="m396.56,417.99h-43.76c-.21,0-.38-.17-.38-.38s.17-.38.38-.38h43.76c.21,0,.38.17.38.38s-.17.38-.38.38Z"/>
  <path class="cls-78" d="m396.3,421.7h-43.23c-.21,0-.38-.17-.38-.38s.17-.38.38-.38h43.23c.46,0,46.38-.4,91.79-.63,78.95-.39,90.44.05,92.23.47h0s26.37,0,26.37,0c.21,0,.38.17.38.38s-.17.38-.38.38h-27.27l.17-.17c-9.31-.92-122.81-.2-183.29.34Z"/>
  <path class="cls-78" d="m396,426.28h-43.43c-.21,0-.38-.17-.38-.38s.17-.38.38-.38h43.43c.21,0,.38.17.38.38s-.17.38-.38.38Z"/>
  <path class="cls-78" d="m396.56,430.99h-43.76c-.21,0-.38-.17-.38-.38s.17-.38.38-.38h43.76c.21,0,.38.17.38.38s-.17.38-.38.38Z"/>
  <path class="cls-78" d="m606.68,351.15h-26.37c-.21,0-.38-.17-.38-.38s.17-.38.38-.38h26.37c.21,0,.38.17.38.38s-.17.38-.38.38Z"/>
  <path class="cls-78" d="m606.84,354.73h-26.69c-.21,0-.38-.17-.38-.38s.17-.38.38-.38h26.69c.21,0,.38.17.38.38s-.17.38-.38.38Z"/>
  <path class="cls-78" d="m606.98,364.02h-26.98c-.21,0-.38-.17-.38-.38s.17-.38.38-.38h26.98c.21,0,.38.17.38.38s-.17.38-.38.38Z"/>
  <path class="cls-78" d="m606.68,368.29h-26.37c-.21,0-.38-.17-.38-.38s.17-.38.38-.38h26.37c.21,0,.38.17.38.38s-.17.38-.38.38Z"/>
  <path class="cls-78" d="m607.68,377.58h-26.68c-.21,0-.38-.17-.38-.38s.17-.38.38-.38h26.68c.21,0,.38.17.38.38s-.17.38-.38.38Z"/>
  <path class="cls-78" d="m607,381.16h-26c-.21,0-.38-.17-.38-.38s.17-.38.38-.38h26c.21,0,.38.17.38.38s-.17.38-.38.38Z"/>
  <path class="cls-78" d="m606.84,389.09h-26.69c-.21,0-.38-.17-.38-.38s.17-.38.38-.38h26.69c.21,0,.38.17.38.38s-.17.38-.38.38Z"/>
  <path class="cls-78" d="m606.68,392.8h-26.37c-.21,0-.38-.17-.38-.38s.17-.38.38-.38h26.37c.21,0,.38.17.38.38s-.17.38-.38.38Z"/>
  <path class="cls-78" d="m606.68,401.65h-26.37c-.21,0-.38-.17-.38-.38s.17-.38.38-.38h26.37c.21,0,.38.17.38.38s-.17.38-.38.38Z"/>
  <path class="cls-78" d="m606.84,406.23h-26.69c-.21,0-.38-.17-.38-.38s.17-.38.38-.38h26.69c.21,0,.38.17.38.38s-.17.38-.38.38Z"/>
  <path class="cls-78" d="m606.98,413.52h-25.98c-.21,0-.38-.17-.38-.38s.17-.38.38-.38h25.98c.21,0,.38.17.38.38s-.17.38-.38.38Z"/>
  <path class="cls-78" d="m606.85,417.83h-26.69c-.21,0-.38-.17-.38-.38s.17-.38.38-.38h26.69c.21,0,.38.17.38.38s-.17.38-.38.38Z"/>
  <path class="cls-78" d="m607,426.12h-26c-.21,0-.38-.17-.38-.38s.17-.38.38-.38h26c.21,0,.38.17.38.38s-.17.38-.38.38Z"/>
  <path class="cls-78" d="m606.85,430.83h-26.69c-.21,0-.38-.17-.38-.38s.17-.38.38-.38h26.69c.21,0,.38.17.38.38s-.17.38-.38.38Z"/>
  <path class="cls-78" d="m428.36,339.88c-.21,0-.38-.17-.38-.38v-37.78c0-.21.17-.38.38-.38s.38.17.38.38v37.78c0,.21-.17.38-.38.38Z"/>
  <path class="cls-78" d="m481.24,338.88c-.21,0-.38-.17-.38-.38v-36.78c0-.21.17-.38.38-.38s.38.17.38.38v36.78c0,.21-.17.38-.38.38Z"/>
  <path class="cls-78" d="m529.79,338.88c-.21,0-.38-.17-.38-.38v-36.78c0-.21.17-.38.38-.38s.38.17.38.38v36.78c0,.21-.17.38-.38.38Z"/>
  <path class="cls-78" d="m603.88,339.68h-210.76c-.21,0-.38-.17-.38-.38s.17-.38.38-.38h210.01v-37.2c0-.21.17-.38.38-.38s.38.17.38.38v37.95Z"/>
  <path class="cls-78" d="m396.88,642.88h-54.75v-85.75h54.75v85.75Zm-54-.75h53.25v-84.25h-53.25v84.25Z"/>
  <path class="cls-78" d="m622.88,648.88h-33.57v-6.01l-21.18-.59v-84.15h54.75v90.75Zm-32.82-.75h32.07v-89.25h-53.25v82.67l21.18.59v5.99Z"/>
  <path class="cls-78" d="m568,562.48h-171.34c-.21,0-.38-.17-.38-.38s.17-.38.38-.38h171.34c.21,0,.38.17.38.38s-.17.38-.38.38Z"/>
  <path class="cls-78" d="m568.5,642.88h-172c-.21,0-.38-.17-.38-.38s.17-.38.38-.38h172c.21,0,.38.17.38.38s-.17.38-.38.38Z"/>
  <path class="cls-78" d="m903,779.5h-24v-4.5s20,0,20,0l.12-100.52h4s0,.5,0,.5l-.11,104.52Zm-23-1h22l.11-103.02h-2s-.12,100.53-.12,100.53h-20v2.5Z"/>
  <path class="cls-78" d="m785.15,779.42h-.52s-62.63-.42-62.63-.42l.48-41.41h3.53v37.41h58.98l.17,4.42Zm-62.14-1.41l61.1.4-.09-2.41h-59.02v-37.41h-1.54l-.46,39.41Z"/>
  <path class="cls-78" d="m904.5,781c-.28,0-.5-.22-.5-.5v-356.5h-182l-1,314.5c0,.28-.26.48-.5.5-.28,0-.5-.23-.5-.5l1-315.5h184v357.5c0,.28-.22.5-.5.5Z"/>
  <path class="cls-78" d="m903.48,594h-4.48v-63.01h-12.5v-5.11h17l-.02,68.12Zm-3.48-1h2.48l.02-66.12h-15v3.13h12.5v62.99Z"/>
  <path class="cls-78" d="m783,461h-48v-35h48v35Zm-47-1h46v-33h-46v33Z"/>
  <path class="cls-78" d="m832,461h-48v-35h48v35Zm-47-1h46v-33h-46v33Z"/>
  <path class="cls-78" d="m897,461h-64v-35h64v35Zm-63-1h62v-33h-62v33Z"/>
  <path class="cls-78" d="m903.16,468.5h-17v-4.55l12.5-.15v-38.48h4.48l.02,43.18Zm-16-1h15l-.02-41.18h-2.48v38.47l-12.5.15v2.56Z"/>
  <path class="cls-78" d="m832.39,500.66l-.47-36.49,27.35-.33.04,4.99-21.58.38.39,31.38-5.73.08Zm.54-35.5l.45,34.49,3.73-.05-.39-31.37,21.58-.38-.03-2.99-25.35.3Z"/>
  <path class="cls-78" d="m747,590v-9h-25.5c-.28,0-.5-.22-.5-.5s.22-.5.5-.5h26.5v9l148-.99v-55h-11.5v-9h19.5c.28,0,.5.22.5.5s-.22.5-.5.5h-18.5v7h11.5v57h-.5s-149.5,1.01-149.5,1.01Z"/>
  <path class="cls-78" d="m745,197h-136.4c-.28,0-.5-.22-.5-.5s.22-.5.5-.5h135.4v-36h-134.5c-.28,0-.5-.22-.5-.5s.22-.5.5-.5h135.5v38Z"/>
  <path class="cls-78" d="m744.5,144c-.28,0-.5-.22-.5-.5v-13.5h-135.5c-.28,0-.5-.22-.5-.5s.22-.5.5-.5h136.5v14.5c0,.28-.22.5-.5.5Z"/>
  <path class="cls-78" d="m902,314h-181v-13.5c0-.28.22-.5.5-.5s.5.22.5.5v12.5h179v-164h-69v14.5c0,.28-.22.5-.5.5s-.5-.22-.5-.5v-15.5h71v166Z"/>
  <path class="cls-78" d="m720.5,310h-38.5v-9h-74.5c-.28,0-.5-.22-.5-.5s.22-.5.5-.5h75.5v9h37.5c.28,0,.5.22.5.5s-.22.5-.5.5Z"/>
  <path class="cls-78" d="m712,253.56h-104.4c-.28,0-.5-.22-.5-.5s.22-.5.5-.5h103.4v-55.37c0-.28.22-.5.5-.5s.5.22.5.5v56.37Z"/>
  <path class="cls-78" d="m735,274h-23v-20.94c0-.28.22-.5.5-.5s.5.22.5.5v19.94h21l-.42-75.8c0-.28.22-.5.5-.5h0c.28,0,.5.22.5.5l.42,76.81Z"/>
  <path class="cls-78" d="m901.5,200h-72.5v-21h9.25v19.5c0,.28-.22.5-.5.5s-.5-.22-.5-.5v-18.5h-7.25v19h71.5c.28,0,.5.22.5.5s-.22.5-.5.5Z"/>
  <path class="cls-78" d="m838.25,229h-103.28c-.28,0-.5-.22-.5-.5s.22-.5.5-.5h102.28v-27.5c0-.28.22-.5.5-.5s.5.22.5.5v28.5Z"/>
  <path class="cls-78" d="m765.5,197h-22c-.28,0-.5-.22-.5-.5s.22-.5.5-.5h22c.28,0,.5.22.5.5s-.22.5-.5.5Z"/>
  <path class="cls-78" d="m809.5,228.73c-.28,0-.5-.22-.5-.5v-31.23h-28.5c-.28,0-.5-.22-.5-.5s.22-.5.5-.5h29.5v32.23c0,.28-.22.5-.5.5Z"/>
  <path class="cls-78" d="m859.5,313.42c-.28,0-.5-.22-.5-.5v-45.73h41.68c.28,0,.5.22.5.5s-.22.5-.5.5h-40.68v44.73c0,.28-.22.5-.5.5Z"/>
  <path class="cls-78" d="m899.5,676h-178c-.28,0-.5-.22-.5-.5s.22-.5.5-.5h178c.28,0,.5.22.5.5s-.22.5-.5.5Z"/>
  <path class="cls-78" d="m784.5,776c-.27,0-.5-.22-.5-.5l-.33-57.71h-62.56c-.28,0-.5-.22-.5-.5s.22-.5.5-.5h63.56l.33,58.71c0,.28-.22.5-.5.5h0Z"/>
  <path class="cls-78" d="m895,773.21l-110.5-.21c-.28,0-.5-.22-.5-.5,0-.28.22-.5.5-.5h0l109.5.21v-81.21h-14v-11h-95.33v37.29c0,.28-.22.5-.5.5s-.5-.22-.5-.5v-38.29h97.33v11h14v83.21Z"/>
  <rect class="cls-79" x="183" y="131" width="167" height="50"/>
  <rect class="cls-79" x="416" y="131" width="190" height="73"/>
  <polygon class="cls-79" points="605 296 514 296 514 252 417 252 417 209 605 209 605 296"/>
  <polygon class="cls-79" points="412 185 265 185 266 293 327 293 327 299 506 299 506 275 388.92 275 388.92 267 348 267 348 204 412 204 412 185"/>
  <polygon class="cls-79" points="184 185 260 185 260 237 198 237 198 265 184 265 184 185"/>
  <polygon class="cls-79" points="183 304 265 304 265 299 322 299 322 369 183 369 183 304"/>
  <path class="cls-79" d="m625.5,743.5h92v41h182v64h-274s0-106,0-105Z"/>
  <rect class="cls-79" x="722" y="677" width="61" height="39"/>
  <polygon class="cls-79" points="722 719 783 719 783 773 728 773 728 736 722 736 722 719"/>
  <polygon class="cls-79" points="787 682 878 682 878 694 892 694 892 770 787 770 787 682"/>
  <polygon class="cls-79" points="724 583 744 583 744 594 897 594 897 671 724 671 724 583"/>
  <polygon class="cls-79" points="174 771 255 771 255 755 318 754.97 318 855 175 855 174 771"/>
  <polygon class="cls-79" points="325 679 359 679 359 744 465 744 465 786 564 786 564 805 504 805 504 856 358 856 358 844 332 844 332 747 325 747 325 679"/>
  <path class="cls-79" d="m609.5,255.5h100v21h28l.5-44.5h104v-30h56l.5,63.5h-42v45h-132v-12h-6v9h-33v-10h-76s-.24-42.24,0-42Z"/>
  <polygon class="cls-79" points="204 244 259 244 259 263.5 204 264 204 244"/>
  <path class="cls-78" d="m884.66,527.35h-55.87c-.28,0-.5-.22-.5-.5s.22-.5.5-.5h55.87c.28,0,.5.22.5.5s-.22.5-.5.5Z"/>
  <path class="cls-79" d="m342,439v115h279v-116s-279,0-279,1Z"/>
  <polygon class="cls-79" points="573 784 612 784 612 797 617 797 617 809 611 809 611 841 573 841 573 784"/>
  <g id="ATTRIB">
    <text class="cls-14" transform="translate(189.52 319.42)"><tspan x="0" y="0">TEKSTIILITYÖ</tspan></text>
  </g>
  <g id="ATTRIB-2" data-name="ATTRIB">
    <text class="cls-40" transform="translate(189.52 314.91)"><tspan x="0" y="0">B.108</tspan></text>
  </g>
  <g id="ATTRIB-3" data-name="ATTRIB">
    <text class="cls-14" transform="translate(189.52 325.08)"><tspan x="0" y="0">55,0</tspan></text>
  </g>
  <g id="ATTRIB-4" data-name="ATTRIB">
    <text class="cls-14" transform="translate(198.16 325.08)"><tspan x="0" y="0" xml:space="preserve"> m</tspan></text>
  </g>
  <g id="ATTRIB-5" data-name="ATTRIB">
    <text class="cls-12" transform="translate(203.09 323.76)"><tspan x="0" y="0">2</tspan></text>
  </g>
  <g id="ATTRIB-6" data-name="ATTRIB">
    <text class="cls-39" transform="translate(273.49 202.34)"><tspan x="0" y="0">SUUNNITTELUN</tspan><tspan class="cls-60" x="34.05" y="0"> </tspan><tspan x="35.19" y="0">TIL</tspan><tspan class="cls-77" x="41.56" y="0">A</tspan></text>
  </g>
  <g id="ATTRIB-7" data-name="ATTRIB">
    <text class="cls-7" transform="translate(273.49 197.43)"><tspan x="0" y="0">B.</tspan><tspan class="cls-71" x="4.41" y="0">1</tspan><tspan class="cls-50" x="6.62" y="0">17</tspan></text>
  </g>
  <g id="ATTRIB-8" data-name="ATTRIB">
    <text class="cls-39" transform="translate(273.49 207.24)"><tspan x="0" y="0">58,5</tspan></text>
  </g>
  <g id="ATTRIB-9" data-name="ATTRIB">
    <text class="cls-39" transform="translate(281.82 207.24)"><tspan x="0" y="0" xml:space="preserve"> m</tspan></text>
  </g>
  <g id="ATTRIB-10" data-name="ATTRIB">
    <text class="cls-38" transform="translate(286.58 205.96)"><tspan x="0" y="0">2</tspan></text>
  </g>
  <g id="ATTRIB-11" data-name="ATTRIB">
    <text class="cls-13" transform="translate(423.71 223.14)"><tspan x="0" y="0">ME</tspan><tspan class="cls-67" x="6.58" y="0">T</tspan><tspan class="cls-74" x="8.94" y="0">ALLITYÖ</tspan></text>
  </g>
  <g id="ATTRIB-12" data-name="ATTRIB">
    <text class="cls-37" transform="translate(423.71 218.81)"><tspan x="0" y="0">B.126</tspan></text>
  </g>
  <g id="ATTRIB-13" data-name="ATTRIB">
    <text class="cls-13" transform="translate(423.71 228.58)"><tspan x="0" y="0">72,5</tspan></text>
  </g>
  <g id="ATTRIB-14" data-name="ATTRIB">
    <text class="cls-13" transform="translate(432 228.58)"><tspan x="0" y="0" xml:space="preserve"> m</tspan></text>
  </g>
  <g id="ATTRIB-15" data-name="ATTRIB">
    <text class="cls-43" transform="translate(436.73 227.3)"><tspan x="0" y="0">2</tspan></text>
  </g>
  <g id="ATTRIB-16" data-name="ATTRIB">
    <text class="cls-46" transform="translate(190.17 147.83)"><tspan x="0" y="0">PENKKISALI</tspan></text>
  </g>
  <g id="ATTRIB-17" data-name="ATTRIB">
    <text class="cls-8" transform="translate(190.17 142.29)"><tspan x="0" y="0">B.</tspan><tspan class="cls-69" x="4.99" y="0">1</tspan><tspan x="7.48" y="0">12</tspan></text>
  </g>
  <g id="ATTRIB-18" data-name="ATTRIB">
    <text class="cls-46" transform="translate(190.17 153.38)"><tspan x="0" y="0">45,0</tspan></text>
  </g>
  <g id="ATTRIB-19" data-name="ATTRIB">
    <text class="cls-46" transform="translate(199.59 153.38)"><tspan x="0" y="0" xml:space="preserve"> m</tspan></text>
  </g>
  <g id="ATTRIB-20" data-name="ATTRIB">
    <text class="cls-15" transform="translate(204.97 151.93)"><tspan x="0" y="0">2</tspan></text>
  </g>
  <g id="ATTRIB-21" data-name="ATTRIB">
    <text class="cls-27" transform="translate(360.8 223.78)"><tspan x="0" y="0">PIN</tspan><tspan class="cls-64" x="6.15" y="0">T</tspan><tspan x="8.14" y="0">AKÄSITTE</tspan><tspan class="cls-64" x="25.98" y="0">L</tspan><tspan class="cls-51" x="27.76" y="0">Y</tspan></text>
  </g>
  <g id="ATTRIB-22" data-name="ATTRIB">
    <text class="cls-18" transform="translate(360.8 220.14)"><tspan x="0" y="0">B.</tspan><tspan class="cls-73" x="3.69" y="0">1</tspan><tspan x="5.54" y="0">18</tspan></text>
  </g>
  <g id="ATTRIB-23" data-name="ATTRIB">
    <text class="cls-27" transform="translate(360.8 228.35)"><tspan x="0" y="0">16,5</tspan></text>
  </g>
  <g id="ATTRIB-24" data-name="ATTRIB">
    <text class="cls-27" transform="translate(367.78 228.35)"><tspan x="0" y="0" xml:space="preserve"> m</tspan></text>
  </g>
  <g id="ATTRIB-25" data-name="ATTRIB">
    <text class="cls-25" transform="translate(371.76 227.28)"><tspan x="0" y="0">2</tspan></text>
  </g>
  <g id="ATTRIB-26" data-name="ATTRIB">
    <text class="cls-44" transform="translate(189.16 200.81)"><tspan x="0" y="0">TEKNOLOGIAN</tspan><tspan class="cls-59" x="30.74" y="0"> </tspan><tspan x="31.84" y="0">TIL</tspan><tspan class="cls-54" x="37.99" y="0">A</tspan></text>
  </g>
  <g id="ATTRIB-27" data-name="ATTRIB">
    <text class="cls-29" transform="translate(189.16 196.08)"><tspan x="0" y="0">B.</tspan><tspan class="cls-54" x="4.25" y="0">11</tspan><tspan x="8.52" y="0">1</tspan></text>
  </g>
  <g id="ATTRIB-28" data-name="ATTRIB">
    <text class="cls-44" transform="translate(189.16 205.54)"><tspan x="0" y="0">26,0</tspan></text>
  </g>
  <g id="ATTRIB-29" data-name="ATTRIB">
    <text class="cls-44" transform="translate(197.21 205.54)"><tspan x="0" y="0" xml:space="preserve"> m</tspan></text>
  </g>
  <g id="ATTRIB-30" data-name="ATTRIB">
    <text class="cls-16" transform="translate(201.79 204.31)"><tspan x="0" y="0">2</tspan></text>
  </g>
  <g id="ATTRIB-31" data-name="ATTRIB">
    <text class="cls-5" transform="translate(805.26 571.23)"><tspan x="0" y="0">ULKOURHEILUVÄLINE</tspan><tspan class="cls-61" x="51.93" y="0">V</tspan><tspan x="54.82" y="0">ARAS</tspan><tspan class="cls-53" x="68.07" y="0">T</tspan><tspan class="cls-55" x="70.96" y="0">O</tspan></text>
  </g>
  <g id="ATTRIB-32" data-name="ATTRIB">
    <text class="cls-30" transform="translate(805.26 566.43)"><tspan x="0" y="0">B.157</tspan></text>
  </g>
  <g id="ATTRIB-33" data-name="ATTRIB">
    <text class="cls-5" transform="translate(805.26 577.26)"><tspan x="0" y="0">28,0</tspan></text>
  </g>
  <g id="ATTRIB-34" data-name="ATTRIB">
    <text class="cls-5" transform="translate(814.45 577.26)"><tspan x="0" y="0" xml:space="preserve"> m</tspan></text>
  </g>
  <g id="ATTRIB-35" data-name="ATTRIB">
    <text class="cls-24" transform="translate(819.71 575.85)"><tspan x="0" y="0">2</tspan></text>
  </g>
  <g id="ATTRIB-36" data-name="ATTRIB">
    <text class="cls-21" transform="translate(736.53 617.92)"><tspan x="0" y="0">MUSIIKKI-ILMAISU</tspan></text>
  </g>
  <g id="ATTRIB-37" data-name="ATTRIB">
    <text class="cls-48" transform="translate(736.53 611.1)"><tspan x="0" y="0">A.122</tspan></text>
  </g>
  <g id="ATTRIB-38" data-name="ATTRIB">
    <text class="cls-21" transform="translate(736.53 624.74)"><tspan x="0" y="0">72,5</tspan></text>
  </g>
  <g id="ATTRIB-39" data-name="ATTRIB">
    <text class="cls-21" transform="translate(748.11 624.74)"><tspan x="0" y="0" xml:space="preserve"> m</tspan></text>
  </g>
  <g id="ATTRIB-40" data-name="ATTRIB">
    <text class="cls-35" transform="translate(754.72 622.96)"><tspan x="0" y="0">2</tspan></text>
  </g>
  <g id="ATTRIB-41" data-name="ATTRIB">
    <text class="cls-19" transform="translate(739.12 437.44)"><tspan x="0" y="0">TIE</tspan><tspan class="cls-62" x="4.46" y="0">T</tspan><tspan x="6.16" y="0">O- J</tspan><tspan class="cls-70" x="11.58" y="0">A</tspan><tspan class="cls-62" x="13.34" y="0"> </tspan><tspan class="cls-56" x="14.08" y="0">TU</tspan><tspan class="cls-62" x="17.91" y="0">R</tspan><tspan class="cls-65" x="19.93" y="0">V</tspan><tspan x="21.63" y="0">A-</tspan></text>
  </g>
  <g id="ATTRIB-42" data-name="ATTRIB">
    <text class="cls-3" transform="translate(739.12 434.25)"><tspan x="0" y="0">B.155</tspan></text>
  </g>
  <g id="ATTRIB-43" data-name="ATTRIB">
    <text class="cls-19" transform="translate(739.12 443.82)"><tspan x="0" y="0">8,0</tspan></text>
  </g>
  <g id="ATTRIB-44" data-name="ATTRIB">
    <text class="cls-19" transform="translate(739.12 440.27)"><tspan x="0" y="0">JÄRJESTELMÄHUONE</tspan></text>
  </g>
  <g id="ATTRIB-45" data-name="ATTRIB">
    <text class="cls-19" transform="translate(742.99 443.82)"><tspan x="0" y="0" xml:space="preserve"> m</tspan></text>
  </g>
  <g id="ATTRIB-46" data-name="ATTRIB">
    <text class="cls-11" transform="translate(746.08 442.99)"><tspan x="0" y="0">2</tspan></text>
  </g>
  <g id="ATTRIB-47" data-name="ATTRIB">
    <text class="cls-22" transform="translate(795.4 706.69)"><tspan x="0" y="0">MUSIIKKI</tspan></text>
  </g>
  <g id="ATTRIB-48" data-name="ATTRIB">
    <text class="cls-36" transform="translate(795.4 698.17)"><tspan x="0" y="0">A.121b</tspan></text>
  </g>
  <g id="ATTRIB-49" data-name="ATTRIB">
    <text class="cls-22" transform="translate(795.4 715.21)"><tspan x="0" y="0">51,0</tspan></text>
  </g>
  <g id="ATTRIB-50" data-name="ATTRIB">
    <text class="cls-22" transform="translate(809.87 715.21)"><tspan x="0" y="0" xml:space="preserve"> m</tspan></text>
  </g>
  <g id="ATTRIB-51" data-name="ATTRIB">
    <text class="cls-9" transform="translate(818.12 712.99)"><tspan x="0" y="0">2</tspan></text>
  </g>
  <g id="ATTRIB-52" data-name="ATTRIB">
    <text class="cls-2" transform="translate(71.21 370.06)"><tspan x="0" y="0">2</tspan></text>
  </g>
  <g id="ATTRIB-53" data-name="ATTRIB">
    <text class="cls-10" transform="translate(729.68 690.94)"><tspan x="0" y="0">MUSIIKIN ETEINEN</tspan></text>
  </g>
  <g id="ATTRIB-54" data-name="ATTRIB">
    <text class="cls-33" transform="translate(729.68 686.88)"><tspan x="0" y="0">A.121a</tspan></text>
  </g>
  <g id="ATTRIB-55" data-name="ATTRIB">
    <text class="cls-10" transform="translate(729.68 694.99)"><tspan x="0" y="0">10,5</tspan></text>
  </g>
  <g id="ATTRIB-56" data-name="ATTRIB">
    <text class="cls-10" transform="translate(736.57 694.99)"><tspan x="0" y="0" xml:space="preserve"> m</tspan></text>
  </g>
  <g id="ATTRIB-57" data-name="ATTRIB">
    <text class="cls-1" transform="translate(740.5 693.94)"><tspan x="0" y="0">2</tspan></text>
  </g>
  <g id="ATTRIB-58" data-name="ATTRIB">
    <text class="cls-28" transform="translate(647.97 803.48) rotate(.14)"><tspan x="0" y="0">YHTYESOIT</tspan><tspan class="cls-52" x="25.65" y="0">T</tspan><tspan class="cls-68" x="28.34" y="0">O</tspan></text>
  </g>
  <g id="ATTRIB-59" data-name="ATTRIB">
    <text class="cls-45" transform="translate(733.95 730.46)"><tspan x="0" y="0">A.120</tspan></text>
  </g>
  <g id="ATTRIB-60" data-name="ATTRIB">
    <text class="cls-28" transform="translate(733.95 740.53)"><tspan x="0" y="0">12,5</tspan></text>
  </g>
  <g id="ATTRIB-61" data-name="ATTRIB">
    <text class="cls-28" transform="translate(742.5 740.53)"><tspan x="0" y="0" xml:space="preserve"> m</tspan></text>
  </g>
  <g id="ATTRIB-62" data-name="ATTRIB">
    <text class="cls-23" transform="translate(747.38 739.22)"><tspan x="0" y="0">2</tspan></text>
  </g>
  <g id="ATTRIB-63" data-name="ATTRIB">
    <text class="cls-41" transform="translate(576.28 799.25) scale(.83 1)"><tspan x="0" y="0">KU</tspan><tspan class="cls-66" x="7.6" y="0">V</tspan><tspan x="10.85" y="0">ANVEIS</tspan><tspan class="cls-57" x="30.92" y="0">T</tspan><tspan x="34.16" y="0">O</tspan></text>
  </g>
  <g id="ATTRIB-64" data-name="ATTRIB">
    <text class="cls-32" transform="translate(576.28 793.15) scale(.83 1)"><tspan x="0" y="0">A.</tspan><tspan class="cls-76" x="5.47" y="0">1</tspan><tspan class="cls-58" x="8.21" y="0">19</tspan></text>
  </g>
  <g id="ATTRIB-65" data-name="ATTRIB">
    <text class="cls-41" transform="translate(576.28 805.33) scale(.83 1)"><tspan x="0" y="0">15,5</tspan></text>
  </g>
  <g id="ATTRIB-66" data-name="ATTRIB">
    <text class="cls-41" transform="translate(584.82 805.33) scale(.83 1)"><tspan x="0" y="0" xml:space="preserve"> m</tspan></text>
  </g>
  <g id="ATTRIB-67" data-name="ATTRIB">
    <text class="cls-47" transform="translate(589.69 803.74) scale(.83 1)"><tspan x="0" y="0">2</tspan></text>
  </g>
  <g id="ATTRIB-68" data-name="ATTRIB">
    <text class="cls-49" transform="translate(340.75 767.49)"><tspan x="0" y="0">KU</tspan><tspan class="cls-63" x="8.99" y="0">VAT</tspan><tspan x="20.14" y="0">AIDE</tspan></text>
  </g>
  <g id="ATTRIB-69" data-name="ATTRIB">
    <text class="cls-20" transform="translate(340.75 760.28)"><tspan x="0" y="0">A.</tspan><tspan class="cls-72" x="6.47" y="0">11</tspan><tspan x="12.96" y="0">1</tspan></text>
  </g>
  <g id="ATTRIB-70" data-name="ATTRIB">
    <text class="cls-49" transform="translate(340.75 774.69)"><tspan x="0" y="0">109,5</tspan></text>
  </g>
  <g id="ATTRIB-71" data-name="ATTRIB">
    <text class="cls-49" transform="translate(356.48 774.69)"><tspan x="0" y="0" xml:space="preserve"> m</tspan></text>
  </g>
  <g id="ATTRIB-72" data-name="ATTRIB">
    <text class="cls-26" transform="translate(363.46 772.81)"><tspan x="0" y="0">2</tspan></text>
  </g>
  <g id="ATTRIB-73" data-name="ATTRIB">
    <text class="cls-17" transform="translate(355.72 461.27)"><tspan x="0" y="0">JUHLASALI/RUOKASALI</tspan></text>
  </g>
  <g id="ATTRIB-74" data-name="ATTRIB">
    <text class="cls-42" transform="translate(355.72 457.71)"><tspan x="0" y="0">B.150</tspan></text>
  </g>
  <g id="ATTRIB-75" data-name="ATTRIB">
    <text class="cls-17" transform="translate(355.72 464.82)"><tspan x="0" y="0">342,0</tspan></text>
  </g>
  <g id="ATTRIB-76" data-name="ATTRIB">
    <text class="cls-17" transform="translate(363.5 464.82)"><tspan x="0" y="0" xml:space="preserve"> m</tspan></text>
  </g>
  <g id="ATTRIB-77" data-name="ATTRIB">
    <text class="cls-4" transform="translate(366.95 463.9)"><tspan x="0" y="0">2</tspan></text>
  </g>
  <g id="ATTRIB-78" data-name="ATTRIB">
    <text class="cls-6" transform="translate(425.56 146.71)"><tspan x="0" y="0">KONESALI</tspan></text>
  </g>
  <g id="ATTRIB-79" data-name="ATTRIB">
    <text class="cls-31" transform="translate(425.56 141.06)"><tspan x="0" y="0">B.</tspan><tspan class="cls-75" x="5.08" y="0">1</tspan><tspan x="7.62" y="0">16</tspan></text>
  </g>
  <g id="ATTRIB-80" data-name="ATTRIB">
    <text class="cls-6" transform="translate(425.56 152.35)"><tspan x="0" y="0">74,5</tspan></text>
  </g>
  <g id="ATTRIB-81" data-name="ATTRIB">
    <text class="cls-6" transform="translate(435.15 152.35)"><tspan x="0" y="0" xml:space="preserve"> m</tspan></text>
  </g>
  <g id="ATTRIB-82" data-name="ATTRIB">
    <text class="cls-34" transform="translate(440.62 150.88)"><tspan x="0" y="0">2</tspan></text>
  </g>
</svg>