<?xml version="1.0" encoding="UTF-8"?>
<svg id="Layer_2" data-name="Layer 2" xmlns="http://www.w3.org/2000/svg" viewBox="0 0 1080 1080">
  <defs>
    <style>
      .cls-1 {
        letter-spacing: -.02em;
      }

      .cls-2, .cls-3, .cls-4, .cls-5, .cls-6, .cls-7, .cls-8, .cls-9, .cls-10, .cls-11, .cls-12, .cls-13, .cls-14, .cls-15, .cls-16, .cls-17, .cls-18, .cls-19, .cls-20, .cls-21, .cls-22, .cls-23, .cls-24, .cls-25, .cls-26, .cls-27, .cls-28, .cls-29, .cls-30, .cls-31, .cls-32, .cls-33, .cls-34, .cls-35, .cls-36, .cls-37, .cls-38, .cls-39, .cls-40, .cls-41, .cls-42, .cls-43, .cls-44, .cls-45, .cls-46, .cls-47, .cls-48, .cls-49, .cls-50 {
        isolation: isolate;
      }

      .cls-2, .cls-3, .cls-4, .cls-5, .cls-7, .cls-9, .cls-12, .cls-13, .cls-14, .cls-15, .cls-16, .cls-17, .cls-18, .cls-19, .cls-20, .cls-21, .cls-22, .cls-23, .cls-25, .cls-28, .cls-31, .cls-32, .cls-35, .cls-36, .cls-37, .cls-39, .cls-41, .cls-43, .cls-44, .cls-45, .cls-46, .cls-48, .cls-50 {
        font-family: ArialMT, Arial;
      }

      .cls-2, .cls-6 {
        font-size: 4.11px;
      }

      .cls-3 {
        font-size: 1.81px;
      }

      .cls-4, .cls-49 {
        font-size: 2.78px;
      }

      .cls-5 {
        font-size: 2.45px;
      }

      .cls-6, .cls-8, .cls-10, .cls-11, .cls-24, .cls-26, .cls-27, .cls-29, .cls-30, .cls-33, .cls-34, .cls-38, .cls-40, .cls-42, .cls-47, .cls-49 {
        font-family: Arial-BoldMT, Arial;
        font-weight: 700;
      }

      .cls-7 {
        font-size: 1.97px;
      }

      .cls-51, .cls-52 {
        fill: none;
      }

      .cls-51, .cls-52, .cls-53, .cls-54 {
        stroke-width: 0px;
      }

      .cls-8, .cls-36 {
        font-size: 2.95px;
      }

      .cls-9, .cls-42 {
        font-size: 4.01px;
      }

      .cls-10, .cls-46 {
        font-size: 4.41px;
      }

      .cls-11, .cls-43 {
        font-size: 3.29px;
      }

      .cls-12, .cls-47 {
        font-size: 2.68px;
      }

      .cls-13, .cls-38 {
        font-size: 2.71px;
      }

      .cls-55 {
        letter-spacing: -.02em;
      }

      .cls-56 {
        letter-spacing: 0em;
      }

      .cls-14 {
        font-size: 2.01px;
      }

      .cls-57 {
        letter-spacing: -.05em;
      }

      .cls-15 {
        font-size: 2.67px;
      }

      .cls-16 {
        font-size: 2.94px;
      }

      .cls-17 {
        font-size: 2.58px;
      }

      .cls-58 {
        letter-spacing: -.05em;
      }

      .cls-18 {
        font-size: 1.85px;
      }

      .cls-19, .cls-34 {
        font-size: 3.01px;
      }

      .cls-20 {
        font-size: 2.65px;
      }

      .cls-21, .cls-33 {
        font-size: 3.3px;
      }

      .cls-59 {
        letter-spacing: 0em;
      }

      .cls-60 {
        letter-spacing: 0em;
      }

      .cls-61 {
        letter-spacing: -.02em;
      }

      .cls-22 {
        font-size: 5.16px;
      }

      .cls-62 {
        letter-spacing: -.07em;
      }

      .cls-63 {
        letter-spacing: -.07em;
      }

      .cls-64 {
        letter-spacing: -.07em;
      }

      .cls-65 {
        letter-spacing: -.07em;
      }

      .cls-52 {
        opacity: .07;
      }

      .cls-66 {
        letter-spacing: -.07em;
      }

      .cls-23, .cls-24 {
        font-size: 3.68px;
      }

      .cls-67 {
        letter-spacing: -.07em;
      }

      .cls-68 {
        letter-spacing: -.06em;
      }

      .cls-69 {
        letter-spacing: -.06em;
      }

      .cls-70 {
        letter-spacing: -.06em;
      }

      .cls-71 {
        letter-spacing: -.06em;
      }

      .cls-72 {
        letter-spacing: -.06em;
      }

      .cls-73 {
        letter-spacing: -.06em;
      }

      .cls-74 {
        letter-spacing: -.06em;
      }

      .cls-75 {
        letter-spacing: -.05em;
      }

      .cls-25 {
        font-size: 2.19px;
      }

      .cls-26, .cls-35 {
        font-size: 7.73px;
      }

      .cls-27, .cls-28 {
        font-size: 3.97px;
      }

      .cls-76 {
        letter-spacing: -.06em;
      }

      .cls-77 {
        letter-spacing: -.06em;
      }

      .cls-78 {
        letter-spacing: -.05em;
      }

      .cls-29, .cls-32 {
        font-size: 3.37px;
      }

      .cls-30, .cls-41 {
        font-size: 3.87px;
      }

      .cls-79 {
        letter-spacing: -.06em;
      }

      .cls-80 {
        letter-spacing: -.06em;
      }

      .cls-31 {
        font-size: 3.38px;
      }

      .cls-81 {
        letter-spacing: -.06em;
      }

      .cls-37 {
        font-size: 1.78px;
      }

      .cls-39 {
        font-size: 1.95px;
      }

      .cls-40, .cls-48 {
        font-size: 2.92px;
      }

      .cls-82 {
        letter-spacing: 0em;
      }

      .cls-44 {
        font-size: 2.74px;
      }

      .cls-54 {
        fill: #f7f0f0;
      }

      .cls-45 {
        font-size: 2.25px;
      }

      .cls-83 {
        letter-spacing: 0em;
      }

      .cls-50 {
        font-size: 2.2px;
      }
    </style>
  </defs>
  <polygon class="cls-54" points="136 151 242 151 242 295 228 295 228 284 221 284 221 293 168 293 168 283 162 283 162 295 136 295 136 151"/>
  <path class="cls-54" d="m289,151h104v91h-29v9h11v49.39h-85.92s-.08-150.39-.08-149.39Z"/>
  <polygon class="cls-54" points="399 151 516.88 151 517 245 399.15 245 399 151"/>
  <polygon class="cls-54" points="521.53 246 572 246 572 250 560 250 560 301 637 301 637 151.41 521.86 151.41 521.53 246"/>
  <polygon class="cls-54" points="644 152 774 152 774 257 713 257 713 265 643 265 644 152"/>
  <polygon class="cls-54" points="779 152 918 152 918 312 887 312 887 300 771 300 771 262 780 262 779 152"/>
  <path class="cls-54" d="m821,439h97v-120h-39v-13h-58v133Z"/>
  <path class="cls-54" d="m861,449h56v202.88h-56v-34.88h-10v-101h11s-.51-67.49-1-67Z"/>
  <rect class="cls-54" x="819" y="682" width="94" height="68"/>
  <rect class="cls-54" x="819" y="757" width="94" height="68"/>
  <rect class="cls-54" x="819" y="835" width="94" height="96"/>
  <rect class="cls-54" x="745" y="874" width="68" height="57"/>
  <rect class="cls-54" x="659" y="875" width="82" height="57"/>
  <rect class="cls-54" x="429" y="875" width="226" height="57"/>
  <polygon class="cls-54" points="426 932 290 932 289 863 299 863 299 834 426 834 426 932"/>
  <rect class="cls-54" x="136" y="864" width="149" height="68"/>
  <rect class="cls-54" x="135" y="791" width="81" height="68"/>
  <rect class="cls-54" x="135" y="746" width="73" height="41"/>
  <rect class="cls-54" x="134" y="700" width="74" height="43"/>
  <rect class="cls-54" x="135" y="658" width="73" height="39"/>
  <rect class="cls-54" x="135" y="586" width="74" height="70"/>
  <rect class="cls-54" x="212" y="587" width="72" height="68"/>
  <path class="cls-53" d="m928.97,944.48H125.97V139.08h803v805.4Zm-802-1h801V140.08H126.97v803.4Z"/>
  <path class="cls-53" d="m921.34,934.58H133.17V147.62h788.17v786.96Zm-787.42-.75h786.67V148.37H133.92v785.46Z"/>
  <path class="cls-53" d="m604.37,618.36h-282.91v-280.24h282.91v280.24Zm-282.16-.75h281.41v-278.74h-281.41v278.74Z"/>
  <path class="cls-53" d="m384.16,388.62c-.21,0-.38-.17-.38-.38v-49.42c0-.21.17-.38.38-.38s.38.17.38.38v49.42c0,.21-.17.38-.38.38Z"/>
  <path class="cls-53" d="m397.56,388.62c-.21,0-.38-.17-.38-.38v-49.25c0-.21.17-.38.38-.38s.38.17.38.38v49.25c0,.21-.17.38-.38.38Z"/>
  <path class="cls-53" d="m410.97,388.78c-.21,0-.38-.17-.38-.38v-49.75c0-.21.17-.38.38-.38s.38.17.38.38v49.75c0,.21-.17.38-.38.38Z"/>
  <path class="cls-53" d="m424.04,388.28c-.21,0-.38-.17-.38-.38v-49.25c0-.21.17-.38.38-.38s.38.17.38.38v49.25c0,.21-.17.38-.38.38Z"/>
  <path class="cls-53" d="m437.44,388.45c-.21,0-.38-.17-.38-.38v-49.59c0-.21.17-.38.38-.38s.38.17.38.38v49.59c0,.21-.17.38-.38.38Z"/>
  <path class="cls-53" d="m450.51,389.12c-.21,0-.38-.17-.38-.38v-50.09c0-.21.17-.38.38-.38s.38.17.38.38v50.09c0,.21-.17.38-.38.38Z"/>
  <path class="cls-53" d="m464.08,388.45c-.21,0-.38-.17-.38-.38v-49.25c0-.21.17-.38.38-.38s.38.17.38.38v49.25c0,.21-.17.38-.38.38Z"/>
  <path class="cls-53" d="m476.98,388.28c-.21,0-.38-.17-.38-.38v-48.92c0-.21.17-.38.38-.38s.38.17.38.38v48.92c0,.21-.17.38-.38.38Z"/>
  <path class="cls-53" d="m490.56,388.78c-.21,0-.38-.17-.38-.38v-49.59c0-.21.17-.38.38-.38s.38.17.38.38v49.59c0,.21-.17.38-.38.38Z"/>
  <path class="cls-53" d="m503.96,388.45c-.21,0-.38-.17-.38-.38v-49.25c0-.21.17-.38.38-.38s.38.17.38.38v49.25c0,.21-.17.38-.38.38Z"/>
  <path class="cls-53" d="m517.37,388.95c-.21,0-.38-.17-.38-.38v-49.59c0-.21.17-.38.38-.38s.38.17.38.38v49.59c0,.21-.17.38-.38.38Z"/>
  <path class="cls-53" d="m530.1,388.78c-.21,0-.38-.17-.38-.38v-49.59c0-.21.17-.38.38-.38s.38.17.38.38v49.59c0,.21-.17.38-.38.38Z"/>
  <path class="cls-53" d="m543.34,388.28c-.21,0-.38-.17-.38-.38v-49.09c0-.21.17-.38.38-.38s.38.17.38.38v49.09c0,.21-.17.38-.38.38Z"/>
  <path class="cls-53" d="m556.91,388.62c-.21,0-.38-.17-.38-.38v-49.25c0-.21.17-.38.38-.38s.38.17.38.38v49.25c0,.21-.17.38-.38.38Z"/>
  <path class="cls-53" d="m569.81,388.45c-.21,0-.38-.17-.38-.38v-49.09c0-.21.17-.38.38-.38s.38.17.38.38v49.09c0,.21-.17.38-.38.38Z"/>
  <path class="cls-53" d="m603.88,394.37h-33.51c-.21,0-.38-.17-.38-.38s.17-.38.38-.38h33.51c.21,0,.38.17.38.38s-.17.38-.38.38Z"/>
  <path class="cls-53" d="m603.62,402.14h0l-33-.17c-.21,0-.37-.17-.37-.38,0-.21.17-.37.38-.37h0l33,.17c.21,0,.37.17.37.38,0,.21-.17.37-.38.37Z"/>
  <path class="cls-53" d="m603.62,408.99h0l-33-.17c-.21,0-.37-.17-.37-.38,0-.21.17-.37.38-.37h0l33,.17c.21,0,.37.17.37.38,0,.21-.17.37-.38.37Z"/>
  <path class="cls-53" d="m603.91,415.5h-33.51c-.21,0-.38-.17-.38-.38s.17-.38.38-.38h33.51c.21,0,.38.17.38.38s-.17.38-.38.38Z"/>
  <path class="cls-53" d="m603.91,422.37h-33.51c-.21,0-.38-.17-.38-.38s.17-.38.38-.38h33.51c.21,0,.38.17.38.38s-.17.38-.38.38Z"/>
  <path class="cls-53" d="m603.91,436.37h-33.51c-.21,0-.38-.17-.38-.38s.17-.38.38-.38h33.51c.21,0,.38.17.38.38s-.17.38-.38.38Z"/>
  <path class="cls-53" d="m603.32,429.69h0l-33-.17c-.21,0-.37-.17-.37-.38,0-.21.17-.37.38-.37h0l33,.17c.21,0,.37.17.37.38,0,.21-.17.37-.38.37Z"/>
  <path class="cls-53" d="m603.91,443.21h-33.51c-.21,0-.38-.17-.38-.38s.17-.38.38-.38h33.51c.21,0,.38.17.38.38s-.17.38-.38.38Z"/>
  <path class="cls-53" d="m603.83,450.06h-33.51c-.21,0-.38-.17-.38-.38s.17-.38.38-.38h33.51c.21,0,.38.17.38.38s-.17.38-.38.38Z"/>
  <path class="cls-53" d="m603.91,457.07h-33.51c-.21,0-.38-.17-.38-.38s.17-.38.38-.38h33.51c.21,0,.38.17.38.38s-.17.38-.38.38Z"/>
  <path class="cls-53" d="m604.08,463.37h-33.51c-.21,0-.38-.17-.38-.38s.17-.38.38-.38h33.51c.21,0,.38.17.38.38s-.17.38-.38.38Z"/>
  <path class="cls-53" d="m603.91,470.59h-33.51c-.21,0-.38-.17-.38-.38s.17-.38.38-.38h33.51c.21,0,.38.17.38.38s-.17.38-.38.38Z"/>
  <path class="cls-53" d="m604.08,477.37h-33.51c-.21,0-.38-.17-.38-.38s.17-.38.38-.38h33.51c.21,0,.38.17.38.38s-.17.38-.38.38Z"/>
  <path class="cls-53" d="m603.07,483.62h-33.51c-.21,0-.38-.17-.38-.38s.17-.38.38-.38h33.51c.21,0,.38.17.38.38s-.17.38-.38.38Z"/>
  <path class="cls-53" d="m603.91,490.63h-33.51c-.21,0-.38-.17-.38-.38s.17-.38.38-.38h33.51c.21,0,.38.17.38.38s-.17.38-.38.38Z"/>
  <path class="cls-53" d="m603.91,511.33h-33.51c-.21,0-.38-.17-.38-.38s.17-.38.38-.38h33.51c.21,0,.38.17.38.38s-.17.38-.38.38Z"/>
  <path class="cls-53" d="m603.91,504.49h-33.51c-.21,0-.38-.17-.38-.38s.17-.38.38-.38h33.51c.21,0,.38.17.38.38s-.17.38-.38.38Z"/>
  <path class="cls-53" d="m603.91,497.37h-33.51c-.21,0-.38-.17-.38-.38s.17-.38.38-.38h33.51c.21,0,.38.17.38.38s-.17.38-.38.38Z"/>
  <path class="cls-53" d="m603.91,518.18h-33.51c-.21,0-.38-.17-.38-.38s.17-.38.38-.38h33.51c.21,0,.38.17.38.38s-.17.38-.38.38Z"/>
  <path class="cls-53" d="m603.91,539.72h-33.51c-.21,0-.38-.17-.38-.38s.17-.38.38-.38h33.51c.21,0,.38.17.38.38s-.17.38-.38.38Z"/>
  <path class="cls-53" d="m603.91,532.87h-33.51c-.21,0-.38-.17-.38-.38s.17-.38.38-.38h33.51c.21,0,.38.17.38.38s-.17.38-.38.38Z"/>
  <path class="cls-53" d="m603.91,525.52h-33.51c-.21,0-.38-.17-.38-.38s.17-.38.38-.38h33.51c.21,0,.38.17.38.38s-.17.38-.38.38Z"/>
  <path class="cls-53" d="m603.32,546.64h-32.76c-.21,0-.38-.17-.38-.38s.17-.38.38-.38h32.76c.21,0,.38.17.38.38s-.17.38-.38.38Z"/>
  <path class="cls-53" d="m603.74,566.35h-33.51c-.21,0-.38-.17-.38-.38s.17-.38.38-.38h33.51c.21,0,.38.17.38.38s-.17.38-.38.38Z"/>
  <path class="cls-53" d="m603.74,560h-33.09c-.21,0-.38-.17-.38-.38s.17-.38.38-.38h33.09c.21,0,.38.17.38.38s-.17.38-.38.38Z"/>
  <path class="cls-53" d="m604.08,552.99h-33.51c-.21,0-.38-.17-.38-.38s.17-.38.38-.38h33.51c.21,0,.38.17.38.38s-.17.38-.38.38Z"/>
  <path class="cls-53" d="m603.25,388.37h-232.94l-.11-.11c-.23-.23-.61-.61-.51-25.51.05-11.85.19-23.61.19-23.72,0-.21.14-.4.38-.37.21,0,.37.17.37.38,0,.12-.14,11.87-.19,23.72-.08,19.06.14,23.87.3,24.87h232.51c.21,0,.38.17.38.38s-.17.38-.38.38Z"/>
  <path class="cls-53" d="m603.74,573.44h-33.51v-.38l-.33-.16c.82-2.73.05-122.1-.47-184.83,0-.21.17-.38.37-.38.2.01.38.17.38.37.35,41.65,1.36,174.28.43,184.62h33.12c.21,0,.38.17.38.38s-.17.38-.38.38Z"/>
  <path class="cls-53" d="m657.47,934.89c-.28,0-.5-.22-.5-.5v-61.22l-229,.33v61h-1v-101h-129v28h-9.68l.84,72.49c0,.28-.22.5-.49.51h0c-.27,0-.5-.22-.5-.49l-.85-73.51h9.69v-27h-9.5v-1h148v1h-7.5v39l230-.33v62.22c0,.28-.22.5-.5.5Z"/>
  <path class="cls-53" d="m743.14,935c-.28,0-.5-.22-.5-.5v-61.33h-84.67c-.28,0-.5-.22-.5-.5s.22-.5.5-.5h85.67v62.33c0,.28-.22.5-.5.5Z"/>
  <path class="cls-53" d="m400.97,809.5h-52v-52h52v52Zm-51-1h50v-50h-50v50Z"/>
  <path class="cls-53" d="m351.12,674.29h-63.15c-.21,0-.38-.17-.38-.38s.17-.38.38-.38h63.15c.21,0,.38.17.38.38s-.17.38-.38.38Z"/>
  <path class="cls-53" d="m517.01,674.29h-115.38c-.21,0-.38-.17-.38-.38s.17-.38.38-.38h115.38c.21,0,.38.17.38.38s-.17.38-.38.38Z"/>
  <path class="cls-53" d="m581.13,675.2c-.21,0-.37-.17-.38-.37,0-.21.17-.38.37-.38l76.17-.55-.21-74.9c0-.21.17-.38.37-.38h0c.21,0,.37.17.38.37l.21,75.65-76.92.56h0Z"/>
  <path class="cls-53" d="m394.91,692.84h-37.36v-18.55h-6.8v-19.03h9.18c.21,0,.38.17.38.38s-.17.38-.38.38h-8.43v17.53h6.8v18.55h35.86v-18.55h8.43v-17.53h-8.94c-.21,0-.38-.17-.38-.38s.17-.38.38-.38h9.69v19.03h-8.43v18.55Z"/>
  <path class="cls-53" d="m581.58,712.21h-64.72v-57.39h64.72v57.39Zm-63.97-.75h63.22v-55.89h-63.22v55.89Z"/>
  <path class="cls-53" d="m540.41,674.04h-21.94v-.38c.07-6.19.12-15.62.02-16.2l.36-.06v-.41h21.56v17.06Zm-21.19-.75h20.44v-15.56h-20.42c.07,1.18.1,4.68-.01,15.56Z"/>
  <path class="cls-53" d="m540.41,690.63h-21.94v-14.99h.38v-.36h21.56v15.35Zm-21.19-.75h20.44v-13.85h-20.44v13.85Z"/>
  <path class="cls-53" d="m555.88,690.63h-14.17v-.37c0-.33-.22-32.74-.22-32.96v-.38s.37,0,.37,0c.02,0,.04,0,.07,0h37.47v29.04h-23.52v4.67Zm-13.43-.75h12.68v-4.67h23.52v-27.54h-36.45c.05.71.06,2.09.08,4.77l.18,27.44Z"/>
  <path class="cls-53" d="m525.26,710.14h-7.92c-.21,0-.38-.17-.38-.38s.17-.38.38-.38h7.17v-16.89h-7.11c-.21,0-.38-.16-.38-.37s.17-.38.37-.38h7.86s0,18.38,0,18.38Z"/>
  <path class="cls-53" d="m540.35,710.01h-13.95v-17.89h.38v-.36h13.58v18.25Zm-13.2-.75h12.45v-16.75h-12.45v16.75Z"/>
  <path class="cls-53" d="m555.99,710.01h-13.95v-17.89h.38v-.36h13.58v18.25Zm-13.2-.75h12.45v-16.75h-12.45v16.75Z"/>
  <path class="cls-53" d="m581.62,710.14h-18.17v-22.33h.38v-.36h17.79v22.69Zm-17.42-.75h16.67v-21.19h-16.67v21.19Z"/>
  <path class="cls-53" d="m564.09,709.48h-5.96v-21.12h.38v-.36h5.59v21.48Zm-5.21-.75h4.46v-19.98h-4.46v19.98Z"/>
  <path class="cls-53" d="m710.98,809.99h-46.9v-46.9h46.9v46.9Zm-46.15-.75h45.4v-45.4h-45.4v45.4Z"/>
  <path class="cls-53" d="m493.41,831.87h-34.44c-.21,0-.38-.17-.38-.38s.17-.38.38-.38h34.44c.21,0,.38.17.38.38s-.17.38-.38.38Z"/>
  <path class="cls-53" d="m465.16,872.87h0c-.21,0-.38-.17-.38-.38v-41c.01-.21.18-.38.39-.38h0c.21,0,.38.17.38.38v41c-.01.21-.18.38-.39.38Z"/>
  <path class="cls-53" d="m493.5,811.62h-34.44c-.21,0-.38-.17-.38-.38s.17-.38.38-.38h34.44c.21,0,.38.17.38.38s-.17.38-.38.38Z"/>
  <path class="cls-53" d="m493.41,786.2h-27.86c-.21,0-.38-.17-.38-.38s.17-.38.38-.38h27.86c.21,0,.38.17.38.38s-.17.38-.38.38Z"/>
  <path class="cls-53" d="m493.88,868.38h-5.39c-.21,0-.38-.17-.38-.38s.17-.38.38-.38h4.64l.04-110.68-28.07.17.24,54.06c0,.21-.17.38-.37.38h0c-.21,0-.37-.17-.38-.37l-.25-54.81,29.58-.18-.04,112.18Z"/>
  <path class="cls-53" d="m493.07,853.38h-27.86c-.21,0-.38-.17-.38-.38s.17-.38.38-.38h27.86c.21,0,.38.17.38.38s-.17.38-.38.38Z"/>
  <path class="cls-53" d="m601.72,866.29h-106.08v-105.24h106.08v105.24Zm-105.33-.75h104.58v-103.74h-104.58v103.74Z"/>
  <path class="cls-53" d="m642.55,810.14h-7.68v-54.24h-21.73v-6.43h-13.33v2.61h-21.96v-2.43h-58.88v2.61l-25.06.12v4.26c0,.21-.17.38-.38.38s-.38-.17-.38-.38v-5.01l25.06-.12v-2.61h60.38v2.43h20.46v-2.61h14.83v6.43h21.73v54.24h6.93c.21,0,.38.17.38.38s-.17.38-.38.38Z"/>
  <path class="cls-53" d="m633.19,784.41h-29.78v-27h29.78v27Zm-29.03-.75h28.28v-25.5h-28.28v25.5Z"/>
  <path class="cls-53" d="m617.66,809.1h-14.08v-22.65h14.08v22.65Zm-13.33-.75h12.58v-21.15h-12.58v21.15Z"/>
  <path class="cls-53" d="m633.72,809.1h-14.06v-22.65h14.06v22.65Zm-13.31-.75h12.56v-21.15h-12.56v21.15Z"/>
  <path class="cls-53" d="m618.24,852.87h-14.33v-22.01h14.33v22.01Zm-13.58-.75h12.83v-20.51h-12.83v20.51Z"/>
  <path class="cls-53" d="m632.84,852.87h-13.2v-22.01h13.2v22.01Zm-12.45-.75h11.7v-20.51h-11.7v20.51Z"/>
  <path class="cls-53" d="m632.84,868.37h-28.87v-13.75h28.87v13.75Zm-28.12-.75h27.37v-12.25h-27.37v12.25Z"/>
  <path class="cls-53" d="m604.36,868.38h-110.79c-.21,0-.38-.17-.38-.38s.17-.38.38-.38h110.79c.21,0,.38.17.38.38s-.17.38-.38.38Z"/>
  <path class="cls-53" d="m568.68,834.29h0l-41.23-.09-.05-41.92h2.57c.21,0,.38.17.38.38s-.17.38-.38.38h-1.82l.05,40.42,40.48.09c.21,0,.37.17.37.38s-.17.37-.38.37Z"/>
  <path class="cls-53" d="m600.01,826.46h-30.3c-.21,0-.38-.17-.38-.38s.17-.38.38-.38h30.3c.21,0,.38.17.38.38s-.17.38-.38.38Z"/>
  <path class="cls-53" d="m600.01,821.16h-30.3c-.21,0-.38-.17-.38-.38s.17-.38.38-.38h30.3c.21,0,.38.17.38.38s-.17.38-.38.38Z"/>
  <path class="cls-53" d="m600.01,816.88h-30.3c-.21,0-.38-.17-.38-.38s.17-.38.38-.38h30.3c.21,0,.38.17.38.38s-.17.38-.38.38Z"/>
  <path class="cls-53" d="m600.19,812.09h-30.3c-.21,0-.38-.17-.38-.38s.17-.38.38-.38h30.3c.21,0,.38.17.38.38s-.17.38-.38.38Z"/>
  <path class="cls-53" d="m600.02,807.13h-30.3c-.21,0-.38-.17-.38-.38s.17-.38.38-.38h30.3c.21,0,.38.17.38.38s-.17.38-.38.38Z"/>
  <path class="cls-53" d="m600.31,802.86h-30.3c-.21,0-.38-.17-.38-.38s.17-.38.38-.38h30.3c.21,0,.38.17.38.38s-.17.38-.38.38Z"/>
  <path class="cls-53" d="m600.02,798.24h-30.3c-.21,0-.38-.17-.38-.38s.17-.38.38-.38h30.3c.21,0,.38.17.38.38s-.17.38-.38.38Z"/>
  <path class="cls-53" d="m527.27,829.82h-30.94c-.21,0-.38-.17-.38-.38s.17-.38.38-.38h30.94c.21,0,.38.17.38.38s-.17.38-.38.38Z"/>
  <path class="cls-53" d="m527.27,824.94h-30.94c-.21,0-.38-.17-.38-.38s.17-.38.38-.38h30.94c.21,0,.38.17.38.38s-.17.38-.38.38Z"/>
  <path class="cls-53" d="m527.1,819.71h-30.94c-.21,0-.38-.17-.38-.38s.17-.38.38-.38h30.94c.21,0,.38.17.38.38s-.17.38-.38.38Z"/>
  <path class="cls-53" d="m527.27,815.2h-30.94c-.21,0-.38-.17-.38-.38s.17-.38.38-.38h30.94c.21,0,.38.17.38.38s-.17.38-.38.38Z"/>
  <path class="cls-53" d="m527.27,810.68h-30.94c-.21,0-.38-.17-.38-.38s.17-.38.38-.38h30.94c.21,0,.38.17.38.38s-.17.38-.38.38Z"/>
  <path class="cls-53" d="m527.27,805.81h-30.94c-.21,0-.38-.17-.38-.38s.17-.38.38-.38h30.94c.21,0,.38.17.38.38s-.17.38-.38.38Z"/>
  <path class="cls-53" d="m527.27,801.12h-30.94c-.21,0-.38-.17-.38-.38s.17-.38.38-.38h30.94c.21,0,.38.17.38.38s-.17.38-.38.38Z"/>
  <path class="cls-53" d="m527.62,834.2h-30.94c-.21,0-.38-.17-.38-.38s.17-.38.38-.38h30.94c.21,0,.38.17.38.38s-.17.38-.38.38Z"/>
  <path class="cls-53" d="m568.63,865.76h0c-.21,0-.38-.17-.37-.38l.08-30.51c0-.21.17-.37.38-.37h0c.21,0,.38.17.37.38l-.08,30.51c0,.21-.17.37-.38.37Z"/>
  <path class="cls-53" d="m563.85,865.9h0c-.21,0-.38-.17-.37-.38l.08-30.51c0-.21.17-.37.38-.37h0c.21,0,.38.17.37.38l-.08,30.51c0,.21-.17.37-.38.37Z"/>
  <path class="cls-53" d="m558.93,866.02h0c-.21,0-.38-.17-.37-.38l.08-30.51c0-.21.17-.37.38-.37h0c.21,0,.38.17.37.38l-.08,30.51c0,.21-.17.37-.38.37Z"/>
  <path class="cls-53" d="m554.26,865.67h0c-.21,0-.38-.17-.37-.38l.08-30.51c0-.21.17-.37.38-.37h0c.21,0,.38.17.37.38l-.08,30.51c0,.21-.17.37-.38.37Z"/>
  <path class="cls-53" d="m549.97,865.65h0c-.21,0-.38-.17-.37-.38l.08-30.51c0-.21.17-.37.38-.37h0c.21,0,.38.17.37.38l-.08,30.51c0,.21-.17.37-.38.37Z"/>
  <path class="cls-53" d="m545.34,865.62h0c-.21,0-.38-.17-.37-.38l.08-30.51c0-.21.17-.37.38-.37h0c.21,0,.38.17.37.38l-.08,30.51c0,.21-.17.37-.38.37Z"/>
  <path class="cls-53" d="m540.88,865.59h0c-.21,0-.37-.17-.37-.38l.08-30.51c0-.21.17-.37.38-.37h0c.21,0,.37.17.37.38l-.08,30.51c0,.21-.17.37-.38.37Z"/>
  <path class="cls-53" d="m567.56,832.19h-38.02s0-37.93,0-37.93h38.02s0,37.93,0,37.93Zm-37.52-.51h37.02s0-36.92,0-36.92h-37.02s0,36.92,0,36.92Z"/>
  <path class="cls-53" d="m569.17,834.17h0c-.14,0-.25-.11-.25-.25v-41.12s-38.87.12-38.87.12v39.03c0,.14-.12.25-.26.25h0c-.14,0-.25-.11-.25-.25v-39.53s.26,0,.26,0l39.63-.12v41.62c0,.14-.12.25-.26.25Z"/>
  <path class="cls-53" d="m600.31,793.68h-30.3c-.21,0-.38-.17-.38-.38s.17-.38.38-.38h30.3c.21,0,.38.17.38.38s-.17.38-.38.38Z"/>
  <path class="cls-53" d="m535.62,865.78h0c-.21,0-.37-.17-.37-.38l.08-30.51c0-.21.17-.37.38-.37h0c.21,0,.37.17.37.38l-.08,30.51c0,.21-.17.37-.38.37Z"/>
  <path class="cls-53" d="m567.11,830.43h-37.43c-.14,0-.25-.12-.25-.26s.11-.25.25-.25h37.43c.14,0,.25.12.25.26s-.11.25-.25.25Z"/>
  <path class="cls-53" d="m575.86,758h-55.19c-.21,0-.38-.17-.38-.38s.17-.38.38-.38h55.19c.21,0,.38.17.38.38s-.17.38-.38.38Z"/>
  <path class="cls-53" d="m573.53,748.78c-.21,0-.38-.17-.38-.38v-36.51c0-.21.17-.38.38-.38s.38.17.38.38v36.51c0,.21-.17.38-.38.38Z"/>
  <path class="cls-53" d="m634.61,873.58c-.21,0-.38-.17-.38-.38v-42.08h8.32c.21,0,.38.17.38.38s-.17.38-.38.38h-7.57v41.33c0,.21-.17.38-.38.38Z"/>
  <path class="cls-53" d="m289.74,584.87h0c-.21,0-.37-.17-.37-.38l.73-257.12h-50.62c-.21,0-.38-.17-.38-.38s.17-.38.38-.38h51.38v.38s-.73,257.5-.73,257.5c0,.21-.17.37-.38.37Z"/>
  <path class="cls-53" d="m132.59,585.17v-103.57h102.56v103.43h-.37s-102.19.14-102.19.14Zm102.19-.51h0,0Zm-101.44-102.31v102.07l101.06-.13v-101.93h-101.06Z"/>
  <path class="cls-53" d="m132.97,482.35c-.21,0-.38-.17-.38-.38v-3.77h157.38c.21,0,.38.17.38.38s-.17.38-.38.38h-156.62v3.02c0,.21-.17.38-.38.38Z"/>
  <path class="cls-53" d="m286.25,533.37h-49.16v-51.69h49.16v51.69Zm-48.41-.75h47.66v-50.19h-47.66v50.19Z"/>
  <path class="cls-53" d="m203.64,584.99c-.21,0-.38-.17-.38-.38v-31.24h-40.45v-71.07c0-.21.17-.38.38-.38s.38.17.38.38v70.32h40.45v31.99c0,.21-.17.38-.38.38Z"/>
  <path class="cls-53" d="m167.95,513.06c-.21,0-.38-.17-.38-.38v-30.25c0-.21.17-.38.38-.38s.38.17.38.38v30.25c0,.21-.17.38-.38.38Z"/>
  <path class="cls-53" d="m173.21,513.06c-.21,0-.38-.17-.38-.38v-30.25c0-.21.17-.38.38-.38s.38.17.38.38v30.25c0,.21-.17.38-.38.38Z"/>
  <path class="cls-53" d="m178.65,513.06c-.21,0-.38-.17-.38-.38v-30.25c0-.21.17-.38.38-.38s.38.17.38.38v30.25c0,.21-.17.38-.38.38Z"/>
  <path class="cls-53" d="m182.73,513.06c-.21,0-.38-.17-.38-.38v-30.25c0-.21.17-.38.38-.38s.38.17.38.38v30.25c0,.21-.17.38-.38.38Z"/>
  <path class="cls-53" d="m187.15,513.06c-.21,0-.38-.17-.38-.38v-30.25c0-.21.17-.38.38-.38s.38.17.38.38v30.25c0,.21-.17.38-.38.38Z"/>
  <path class="cls-53" d="m192.08,512.77c-.21,0-.38-.17-.38-.38v-30.25c0-.21.17-.38.38-.38s.38.17.38.38v30.25c0,.21-.17.38-.38.38Z"/>
  <path class="cls-53" d="m196.5,513.06c-.21,0-.38-.17-.38-.38v-30.25c0-.21.17-.38.38-.38s.38.17.38.38v30.25c0,.21-.17.38-.38.38Z"/>
  <path class="cls-53" d="m166.63,584.48c-.21,0-.38-.17-.38-.38v-30.61c0-.21.17-.38.38-.38s.38.17.38.38v30.61c0,.21-.17.38-.38.38Z"/>
  <path class="cls-53" d="m171.9,584.48c-.21,0-.38-.17-.38-.38v-30.61c0-.21.17-.38.38-.38s.38.17.38.38v30.61c0,.21-.17.38-.38.38Z"/>
  <path class="cls-53" d="m176.44,584.48c-.21,0-.38-.17-.38-.38v-30.61c0-.21.17-.38.38-.38s.38.17.38.38v30.61c0,.21-.17.38-.38.38Z"/>
  <path class="cls-53" d="m180.52,584.48c-.21,0-.38-.17-.38-.38v-30.61c0-.21.17-.38.38-.38s.38.17.38.38v30.61c0,.21-.17.38-.38.38Z"/>
  <path class="cls-53" d="m184.94,584.48c-.21,0-.38-.17-.38-.38v-30.61c0-.21.17-.38.38-.38s.38.17.38.38v30.61c0,.21-.17.38-.38.38Z"/>
  <path class="cls-53" d="m189.7,584.48c-.21,0-.38-.17-.38-.38v-30.61c0-.21.17-.38.38-.38s.38.17.38.38v30.61c0,.21-.17.38-.38.38Z"/>
  <path class="cls-53" d="m194.29,584.48c-.21,0-.38-.17-.38-.38v-30.61c0-.21.17-.38.38-.38s.38.17.38.38v30.61c0,.21-.17.38-.38.38Z"/>
  <path class="cls-53" d="m198.83,585.07c-.21,0-.38-.17-.38-.38v-31.17c0-.21.17-.38.38-.38s.38.17.38.38v31.17c0,.21-.17.38-.38.38Z"/>
  <path class="cls-53" d="m133.67,520.18c-.21,0-.37-.17-.38-.37,0-.21.17-.38.37-.38l29.3-.17h0c.21,0,.37.17.38.37,0,.21-.17.38-.37.38l-29.3.17h0Z"/>
  <path class="cls-53" d="m133.7,525.19c-.21,0-.37-.17-.38-.37,0-.21.17-.38.37-.38l29.27-.17h0c.21,0,.37.17.38.37,0,.21-.17.38-.37.38l-29.27.17h0Z"/>
  <path class="cls-53" d="m133.39,529.67c-.21,0-.37-.17-.38-.37,0-.21.17-.38.37-.38l29.57-.17c.18-.03.38.17.38.37s-.17.38-.37.38l-29.57.17h0Z"/>
  <path class="cls-53" d="m132.97,534.23c-.21,0-.37-.17-.38-.37,0-.21.17-.38.37-.38l30.03-.17h0c.21,0,.37.17.38.37,0,.21-.17.38-.37.38l-30.03.17h0Z"/>
  <path class="cls-53" d="m132.97,538.43c-.21,0-.37-.17-.38-.37,0-.21.17-.38.37-.38l30.06-.17h0c.21,0,.37.17.38.37,0,.21-.17.38-.37.38l-30.06.17h0Z"/>
  <path class="cls-53" d="m133.97,542.95c-.21,0-.37-.17-.38-.37s.17-.38.37-.38l29.09-.17h0c.21,0,.37.17.38.37s-.17.38-.37.38l-29.09.17h0Z"/>
  <path class="cls-53" d="m132.83,547.31c-.21,0-.37-.17-.38-.37s.17-.38.37-.38l30.25-.17h0c.21,0,.37.17.38.37s-.17.38-.37.38l-30.25.17h0Z"/>
  <path class="cls-53" d="m133.19,553.48c-.21,0-.37-.17-.38-.37s.17-.38.37-.38l30.25-.17h0c.21,0,.37.17.38.37s-.17.38-.37.38l-30.25.17h0Z"/>
  <path class="cls-53" d="m209.75,788.37h0c-.21,0-.37-.17-.37-.38l.71-131c0-.21.15-.41.38-.37.21,0,.37.17.37.38l-.71,131c0,.21-.17.37-.38.37Z"/>
  <path class="cls-53" d="m276.83,585.03h-10.57c-.21,0-.38-.17-.38-.38s.17-.38.38-.38h9.82v-47.41h-37.91v47.41h5.66c.21,0,.38.17.38.38s-.17.38-.38.38h-6.41v-48.91h39.41v48.91Z"/>
  <path class="cls-53" d="m289.63,585.03h-10.66l.26-48.91h10.57c.21,0,.38.17.38.38s-.17.38-.38.38h-9.82l-.25,47.41h9.9c.21,0,.38.17.38.38s-.17.38-.38.38Z"/>
  <path class="cls-53" d="m201.96,551.48h-37.09v-37.18h37.09v37.18Zm-36.59-.5h36.09v-36.18h-36.09v36.18Z"/>
  <path class="cls-53" d="m203.89,551.48h-38.77c-.14,0-.25-.11-.25-.25s.11-.25.25-.25h38.27v-37.99h-40.2c-.14,0-.25-.11-.25-.25s.11-.25.25-.25h40.7v38.99Z"/>
  <path class="cls-53" d="m201.03,512.77c-.21,0-.38-.17-.38-.38v-30.25c0-.21.17-.38.38-.38s.38.17.38.38v30.25c0,.21-.17.38-.38.38Z"/>
  <path class="cls-53" d="m288.47,789h-154.98c-.21,0-.38-.17-.38-.38s.17-.38.38-.38h154.98c.21,0,.38.17.38.38s-.17.38-.38.38Z"/>
  <path class="cls-53" d="m281.47,788.37c-.21,0-.38-.17-.38-.38v-100.38h6v-29.87h-153.61c-.21,0-.38-.17-.38-.38s.17-.38.38-.38h154.36v31.37h-6v99.62c0,.21-.17.38-.38.38Z"/>
  <path class="cls-53" d="m246.47,789c-.21,0-.38-.17-.38-.38v-130.62c0-.21.17-.38.38-.38s.38.17.38.38v130.62c0,.21-.17.38-.38.38Z"/>
  <path class="cls-53" d="m210.08,698.99h-76.59c-.21,0-.38-.17-.38-.38s.17-.38.38-.38h76.59c.21,0,.38.17.38.38s-.17.38-.38.38Z"/>
  <path class="cls-53" d="m209.19,745.11h-75.82c-.21,0-.38-.17-.38-.38s.17-.38.38-.38h75.82c.21,0,.38.17.38.38s-.17.38-.38.38Z"/>
  <path class="cls-53" d="m210.19,657.37c-.21,0-.38-.17-.38-.38v-72c0-.21.17-.38.38-.38s.38.17.38.38v72c0,.21-.17.38-.38.38Z"/>
  <path class="cls-53" d="m287.01,657.76c-.21,0-.38-.17-.38-.38v-72.16c0-.21.17-.38.38-.38s.38.17.38.38v72.16c0,.21-.17.38-.38.38Z"/>
  <path class="cls-53" d="m168.47,408.57h-34.98c-.21,0-.38-.17-.38-.38s.17-.38.38-.38h34.98c.21,0,.38.17.38.38s-.17.38-.38.38Z"/>
  <path class="cls-53" d="m168.07,479.07c-.21,0-.38-.17-.38-.38v-150.75c0-.21.17-.38.38-.38s.38.17.38.38v150.75c0,.21-.17.38-.38.38Z"/>
  <path class="cls-53" d="m289.47,358.37h-30.38v-54.38c0-.21.17-.38.38-.38s.38.17.38.38v53.62h29.62c.21,0,.38.17.38.38s-.17.38-.38.38Z"/>
  <path class="cls-53" d="m238.47,362.37c-.21,0-.38-.17-.38-.38v-5.38h21.38c.21,0,.38.17.38.38s-.17.38-.38.38h-20.62v4.62c0,.21-.17.38-.38.38Z"/>
  <path class="cls-53" d="m245.47,478.74c-.21,0-.38-.17-.38-.38v-121.37c0-.21.17-.38.38-.38s.38.17.38.38v121.37c0,.21-.17.38-.38.38Z"/>
  <path class="cls-53" d="m290,416.37h-44.53c-.21,0-.38-.17-.38-.38s.17-.38.38-.38h44.53c.21,0,.38.17.38.38s-.17.38-.38.38Z"/>
  <path class="cls-53" d="m662.84,302.37H242.07v-155c0-.21.17-.38.38-.38s.38.17.38.38v154.25h419.27v-6h52v-38h62v-109.36c0-.21.17-.38.38-.38s.38.17.38.38v110.11h-62v38h-52v6Z"/>
  <path class="cls-53" d="m286.01,303.49c-.21,0-.38-.17-.38-.38v-153.86c0-.21.17-.38.38-.38s.38.17.38.38v153.86c0,.21-.17.38-.38.38Z"/>
  <path class="cls-53" d="m397.68,246.37h-31.21c-.21,0-.38-.17-.38-.38s.17-.38.38-.38h30.46v-96.36c0-.21.17-.38.38-.38s.38.17.38.38v97.11Z"/>
  <path class="cls-53" d="m378.23,302.6c-.21,0-.38-.17-.38-.38v-55.42c0-.21.17-.38.38-.38s.38.17.38.38v55.42c0,.21-.17.38-.38.38Z"/>
  <path class="cls-53" d="m437.47,246.37h-40.17c-.21,0-.38-.17-.38-.38s.17-.38.38-.38h40.17c.21,0,.38.17.38.38s-.17.38-.38.38Z"/>
  <path class="cls-53" d="m426.12,303.05c-.21,0-.38-.17-.38-.38v-55.87c0-.21.17-.38.38-.38s.38.17.38.38v55.87c0,.21-.17.38-.38.38Z"/>
  <path class="cls-53" d="m519.61,249.37h-22.14c-.21,0-.38-.17-.38-.38s.17-.38.38-.38h21.39v-99.81c0-.21.17-.38.38-.38s.38.17.38.38v100.56Z"/>
  <path class="cls-53" d="m509.88,303.93c-.23,0-.42-.17-.42-.38v-54.54c0-.21.19-.38.42-.38s.42.17.42.38v54.54c0,.21-.19.38-.42.38Z"/>
  <path class="cls-53" d="m569.47,248.37h-50.24c-.21,0-.38-.17-.38-.38s.17-.38.38-.38h50.24c.21,0,.38.17.38.38s-.17.38-.38.38Z"/>
  <path class="cls-53" d="m557.47,303.49c-.21,0-.38-.17-.38-.38v-54.12c0-.21.17-.38.38-.38s.38.17.38.38v54.12c0,.21-.17.38-.38.38Z"/>
  <path class="cls-53" d="m286.01,247.62h-42.56c-.21,0-.38-.17-.38-.38s.17-.38.38-.38h42.56c.21,0,.38.17.38.38s-.17.38-.38.38Z"/>
  <path class="cls-53" d="m425.68,286.2h-47.44c-.21,0-.38-.17-.38-.38s.17-.38.38-.38h47.44c.21,0,.38.17.38.38s-.17.38-.38.38Z"/>
  <path class="cls-53" d="m640.72,303.05c-.21,0-.38-.17-.38-.38v-152.97c0-.21.17-.38.38-.38s.38.17.38.38v152.97c0,.21-.17.38-.38.38Z"/>
  <path class="cls-53" d="m715,267.37h-74.53c-.21,0-.38-.17-.38-.38s.17-.38.38-.38h74.53c.21,0,.38.17.38.38s-.17.38-.38.38Z"/>
  <path class="cls-53" d="m766.64,303.37c-.21,0-.38-.17-.38-.38v-42.89c0-.21.17-.38.38-.38s.38.17.38.38v42.89c0,.21-.17.38-.38.38Z"/>
  <path class="cls-53" d="m721.47,304.37h-6.38v-7.38c0-.21.17-.38.38-.38s.38.17.38.38v6.62h5.62c.21,0,.38.17.38.38s-.17.38-.38.38Z"/>
  <path class="cls-53" d="m776.84,304.37h-18.38c-.21,0-.38-.17-.38-.38s.17-.38.38-.38h17.62v-2.62c0-.21.17-.38.38-.38s.38.17.38.38v3.38Z"/>
  <path class="cls-53" d="m659.12,529.87c-.21,0-.38-.17-.38-.38v-225.94c0-.21.17-.38.38-.38s.38.17.38.38v225.94c0,.21-.17.38-.38.38Z"/>
  <path class="cls-53" d="m820.47,656.37h-3.38v-5.75h39.75v4h63.62c.21,0,.38.17.38.38s-.17.38-.38.38h-64.38v-4h-38.25v4.25h2.62c.21,0,.38.17.38.38s-.17.38-.38.38Z"/>
  <path class="cls-53" d="m818.84,451h-.75v-147.38h65.75v11h37.36v.37c.61,59.18.2,129.85-.43,130.49l-.11.11h-.16s-101.66,0-101.66,0v5.4Zm0-6.15h101.34c.42-5.42.72-86.24.28-129.47h-37.37v-11h-64.25v140.47Z"/>
  <path class="cls-53" d="m794.84,450.37h-52.75v-51.75h52.75v51.75Zm-52-.75h51.25v-50.25h-51.25v50.25Z"/>
  <path class="cls-53" d="m164.47,304.37c-.21,0-.38-.17-.38-.38v-18c0-.21.17-.38.38-.38s.38.17.38.38v18c0,.21-.17.38-.38.38Z"/>
  <path class="cls-53" d="m224.47,304.37c-.21,0-.38-.17-.38-.38v-18c0-.21.17-.38.38-.38s.38.17.38.38v18c0,.21-.17.38-.38.38Z"/>
  <path class="cls-53" d="m698.14,597.87h-60.25v-68.56h60.25v68.56Zm-59.5-.75h58.75v-67.06h-58.75v67.06Z"/>
  <path class="cls-53" d="m656.28,557.54h-15.51v-25.33h15.51v25.33Zm-14.76-.75h14.01v-23.83h-14.01v23.83Z"/>
  <path class="cls-53" d="m678.41,557.54h-13.61v-25.33h13.61v25.33Zm-12.86-.75h12.11v-23.83h-12.11v23.83Z"/>
  <path class="cls-53" d="m695.64,557.54h-15.86v-17.28h15.86v17.28Zm-15.11-.75h14.36v-15.78h-14.36v15.78Z"/>
  <path class="cls-53" d="m695.64,538.56h-15.86v-6.35h15.86v6.35Zm-15.11-.75h14.36v-4.85h-14.36v4.85Z"/>
  <path class="cls-53" d="m662.54,557.54h-4.86v-25.33h4.86v25.33Zm-4.11-.75h3.36v-23.83h-3.36v23.83Z"/>
  <path class="cls-53" d="m695.64,572.61h-22.94v-13.67h22.94v13.67Zm-22.19-.75h21.44v-12.17h-21.44v12.17Z"/>
  <path class="cls-53" d="m695.64,587.55h-22.94v-13.67h22.94v13.67Zm-22.19-.75h21.44v-12.17h-21.44v12.17Z"/>
  <path class="cls-53" d="m695.42,596.37h-22.94v-7.26h22.94v7.26Zm-22.19-.75h21.44v-5.76h-21.44v5.76Z"/>
  <path class="cls-53" d="m671.06,595.52h-30.06v-36.51h30.06v36.51Zm-29.31-.75h28.56v-35.01h-28.56v35.01Z"/>
  <path class="cls-53" d="m846.52,613.98h-.38s-98.5-.13-98.5-.13v-99.27h98.88v99.4Zm-98.13-.88l97.38.13v-97.89h-97.38v97.77Z"/>
  <path class="cls-53" d="m818.26,583.49h-40.96v-68.04c0-.21.17-.38.38-.38s.38.17.38.38v67.28h39.46s0-38.12,0-38.12c0-.21.17-.38.38-.38s.38.17.38.38v38.88Z"/>
  <path class="cls-53" d="m813.05,544.33c-.21,0-.38-.17-.38-.38v-28.56c0-.21.17-.38.38-.38s.38.17.38.38v28.56c0,.21-.17.38-.38.38Z"/>
  <path class="cls-53" d="m808.05,544.33c-.21,0-.38-.17-.38-.38v-28.56c0-.21.17-.38.38-.38s.38.17.38.38v28.56c0,.21-.17.38-.38.38Z"/>
  <path class="cls-53" d="m804.02,544.33c-.21,0-.38-.17-.38-.38v-28.56c0-.21.17-.38.38-.38s.38.17.38.38v28.56c0,.21-.17.38-.38.38Z"/>
  <path class="cls-53" d="m799.51,544.17c-.21,0-.38-.17-.38-.38v-28.56c0-.21.17-.38.38-.38s.38.17.38.38v28.56c0,.21-.17.38-.38.38Z"/>
  <path class="cls-53" d="m794.83,544.33c-.21,0-.38-.17-.38-.38v-28.56c0-.21.17-.38.38-.38s.38.17.38.38v28.56c0,.21-.17.38-.38.38Z"/>
  <path class="cls-53" d="m790.8,544.06c-.21,0-.38-.17-.38-.38v-28.56c0-.21.17-.38.38-.38s.38.17.38.38v28.56c0,.21-.17.38-.38.38Z"/>
  <path class="cls-53" d="m786.45,544.33c-.21,0-.38-.17-.38-.38v-28.56c0-.21.17-.38.38-.38s.38.17.38.38v28.56c0,.21-.17.38-.38.38Z"/>
  <path class="cls-53" d="m815.43,613.33c-.21,0-.38-.17-.38-.38v-29.16c0-.21.17-.38.38-.38s.38.17.38.38v29.16c0,.21-.17.38-.38.38Z"/>
  <path class="cls-53" d="m810.35,613.33c-.21,0-.38-.17-.38-.38v-29.16c0-.21.17-.38.38-.38s.38.17.38.38v29.16c0,.21-.17.38-.38.38Z"/>
  <path class="cls-53" d="m805.11,613.33c-.21,0-.38-.17-.38-.38v-29.16c0-.21.17-.38.38-.38s.38.17.38.38v29.16c0,.21-.17.38-.38.38Z"/>
  <path class="cls-53" d="m801.18,613.33c-.21,0-.38-.17-.38-.38v-29.16c0-.21.17-.38.38-.38s.38.17.38.38v29.16c0,.21-.17.38-.38.38Z"/>
  <path class="cls-53" d="m796.92,613.33c-.21,0-.38-.17-.38-.38v-29.16c0-.21.17-.38.38-.38s.38.17.38.38v29.16c0,.21-.17.38-.38.38Z"/>
  <path class="cls-53" d="m792.33,613.33c-.21,0-.38-.17-.38-.38v-29.16c0-.21.17-.38.38-.38s.38.17.38.38v29.16c0,.21-.17.38-.38.38Z"/>
  <path class="cls-53" d="m787.91,613.33c-.21,0-.38-.17-.38-.38v-29.16c0-.21.17-.38.38-.38s.38.17.38.38v29.16c0,.21-.17.38-.38.38Z"/>
  <path class="cls-53" d="m782.67,613c-.21,0-.38-.17-.38-.38v-29.16c0-.21.17-.38.38-.38s.38.17.38.38v29.16c0,.21-.17.38-.38.38Z"/>
  <path class="cls-53" d="m845.76,545.91h0l-27.29-.16c-.21,0-.37-.17-.37-.38s.17-.37.38-.37h0l27.29.16c.21,0,.37.17.37.38s-.17.37-.38.37Z"/>
  <path class="cls-53" d="m845.73,550.73h0l-27.29-.16c-.21,0-.37-.17-.37-.38,0-.21.18-.36.38-.37l27.29.16c.21,0,.37.17.37.38s-.17.37-.38.37Z"/>
  <path class="cls-53" d="m846.01,555.05h0l-27.29-.16c-.21,0-.37-.17-.37-.38s.17-.37.38-.37h0l27.29.16c.21,0,.37.17.37.38s-.17.37-.38.37Z"/>
  <path class="cls-53" d="m845.68,559.45h0l-27.29-.16c-.21,0-.37-.17-.37-.38s.17-.37.38-.37h0l27.29.16c.21,0,.37.17.37.38s-.17.37-.38.37Z"/>
  <path class="cls-53" d="m845.66,563.5h0l-27.29-.16c-.21,0-.37-.17-.37-.38s.17-.37.38-.37h0l27.29.16c.21,0,.37.17.37.38s-.17.37-.38.37Z"/>
  <path class="cls-53" d="m845.63,567.86h0l-27.29-.16c-.21,0-.37-.17-.37-.38s.17-.37.38-.37h0l27.29.16c.21,0,.37.17.37.38s-.17.37-.38.37Z"/>
  <path class="cls-53" d="m845.61,572.06h0l-27.29-.16c-.21,0-.37-.17-.37-.38s.17-.37.38-.37h0l27.29.16c.21,0,.37.17.37.38s-.17.37-.38.37Z"/>
  <path class="cls-53" d="m816.28,581.51h-35.77v-35.86h35.77v35.86Zm-35.27-.5h34.77v-34.86h-34.77v34.86Z"/>
  <path class="cls-53" d="m816.03,581.51h-37.38v-37.61h39.24c.14,0,.25.11.25.25s-.11.25-.25.25h-38.74v36.61h36.88c.14,0,.25.11.25.25s-.11.25-.25.25Z"/>
  <path class="cls-53" d="m782.15,544.06c-.21,0-.38-.17-.38-.38v-28.56c0-.21.17-.38.38-.38s.38.17.38.38v28.56c0,.21-.17.38-.38.38Z"/>
  <path class="cls-53" d="m796.31,652.66h-3.12v-5.61h-51.82v-20.31h-5.09c-.21,0-.38-.17-.38-.38s.17-.38.38-.38h5.84v20.31h51.82v5.61h1.62v-34.56c0-.21.17-.38.38-.38s.38.17.38.38v35.31Z"/>
  <path class="cls-53" d="m773.79,644.43l-29.42-.17v-.37s-.12-26.83-.12-26.92v-.38s.37,0,.37,0h29.17v27.84Zm-28.67-.91l27.92.16v-26.33h-28.07c.04.62.04,1.76.05,3.83l.1,22.34Z"/>
  <path class="cls-53" d="m744.62,617.34c-.21,0-.38-.17-.38-.38v-.94h-5.5v-4.53c0-.21.17-.38.38-.38s.38.17.38.38v3.78h5.5v1.69c0,.21-.17.38-.38.38Z"/>
  <path class="cls-53" d="m845.79,577.01h0l-27.29-.16c-.21,0-.37-.17-.37-.38s.17-.37.38-.37h0l27.29.16c.21,0,.37.17.37.38s-.17.37-.38.37Z"/>
  <path class="cls-53" d="m858.85,653.37h-2.38c-.21,0-.38-.17-.38-.38s.17-.38.38-.38h1.62l-.3-31.3h-9.23v-3.93h-77.44c-.21,0-.38-.17-.38-.38s.17-.38.38-.38h78.19v3.93h9.22l.31,32.8Z"/>
  <path class="cls-53" d="m793.99,630.01h-18.75v-13.21h18.75v13.21Zm-18-.75h17.25v-11.71h-17.25v11.71Z"/>
  <path class="cls-53" d="m793.97,644.93h-18.75v-13.71h18.75v13.71Zm-18-.75h17.25v-12.21h-17.25v12.21Z"/>
  <path class="cls-53" d="m836.89,630.43h-18.75v-13.71h18.75v13.71Zm-18-.75h17.25v-12.21h-17.25v12.21Z"/>
  <path class="cls-53" d="m836.89,644.64h-18.77l.03-13.26h18.75v13.26Zm-18.02-.75h17.27v-11.76h-17.25l-.02,11.76Z"/>
  <path class="cls-53" d="m856.63,644.57h-18.35v-22.2h18.35v22.2Zm-17.6-.75h16.85v-20.7h-16.85v20.7Z"/>
  <path class="cls-53" d="m817.83,633.86h-21.13c-.21,0-.38-.17-.38-.38s.17-.38.38-.38h21.13c.21,0,.38.17.38.38s-.17.38-.38.38Z"/>
  <path class="cls-53" d="m744.62,616.03c-.21,0-.38-.17-.38-.38v-1.26h-3.32v-24.57l3.28.11v-48.82h-5.24v-4.85c0-.21.17-.38.38-.38s.38.17.38.38v4.1h5.24v50.34l-3.28-.11v23.05h3.32v2.01c0,.21-.17.38-.38.38Z"/>
  <path class="cls-53" d="m814.37,581.61c-.14,0-.25-.11-.25-.25v-35.28c0-.14.11-.25.25-.25s.25.11.25.25v35.28c0,.14-.11.25-.25.25Z"/>
  <path class="cls-53" d="m787.61,512.93c-.21,0-.38-.17-.38-.38v-31.95h-45.34v30.86c0,.21-.17.38-.38.38s-.38-.17-.38-.38v-31.61h46.84v32.7c0,.21-.17.38-.38.38Z"/>
  <path class="cls-53" d="m735.84,628.7c-.21,0-.38-.17-.38-.38v-17.19h3.28v-17.49h-2.73v-57.76h2.95v-23.73h109.65v-5.99h-11.14v-25.22l21.12.13v31.83h-9.23v104.11c0,.21-.17.38-.38.38s-.38-.17-.38-.38v-104.11h-108.9v23.73h-2.95v56.26h2.73v18.99h-3.28v16.44c0,.21-.17.38-.38.38Zm113.52-116.54h8.48v-30.34l-19.62-.12v23.71h11.14v6.74Z"/>
  <path class="cls-53" d="m816.88,512.93c-.21,0-.38-.17-.38-.38v-37.79c0-.21.17-.38.38-.38s.38.17.38.38v37.79c0,.21-.17.38-.38.38Z"/>
  <path class="cls-53" d="m837.85,482.36h-20.75c-.21,0-.38-.17-.38-.38s.17-.38.38-.38h20.75c.21,0,.38.17.38.38s-.17.38-.38.38Z"/>
  <path class="cls-53" d="m837.63,498.52h-20.97c-.21,0-.38-.17-.38-.38s.17-.38.38-.38h20.97c.21,0,.38.17.38.38s-.17.38-.38.38Z"/>
  <path class="cls-53" d="m857.65,481.82c-.21,0-.38-.17-.38-.38v-36.23c0-.21.17-.38.38-.38s.38.17.38.38v36.23c0,.21-.17.38-.38.38Z"/>
  <path class="cls-53" d="m218,859.12c-.07,0-.12-.06-.12-.12v-68c0-.07.06-.12.12-.12s.12.06.12.12v68c0,.07-.06.12-.12.12Z"/>
  <path class="cls-53" d="m284.99,862.07h0l-149.02-.45c-.07,0-.12-.06-.12-.12s.06-.12.12-.12h0l149.02.45c.07,0,.12.06.12.12s-.06.12-.12.12Z"/>
  <path class="cls-53" d="m910.63,680.31h0l-91.91-.27c-.07,0-.12-.06-.12-.12s.06-.12.12-.12h0l91.91.27c.07,0,.12.06.12.12s-.06.12-.12.12Z"/>
  <path class="cls-53" d="m910.63,753.88h0l-91.91-.27c-.07,0-.12-.06-.12-.12s.06-.12.12-.12h0l91.91.27c.07,0,.12.06.12.12s-.06.12-.12.12Z"/>
  <path class="cls-53" d="m910.63,831.88h0l-91.91-.27c-.07,0-.12-.06-.12-.12s.06-.12.12-.12h0l91.91.27c.07,0,.12.06.12.12s-.06.12-.12.12Z"/>
  <path class="cls-53" d="m814.98,872.81h0l-69.39-.21c-.07,0-.12-.06-.12-.12s.06-.12.12-.12h0l69.39.21c.07,0,.12.06.12.12s-.06.12-.12.12Z"/>
  <path class="cls-53" d="m815.97,931.62c-.07,0-.12-.06-.12-.12v-252c0-.07.06-.12.12-.12s.12.06.12.12v252c0,.07-.06.12-.12.12Z"/>
  <g id="ATTRIB">
    <text class="cls-21" transform="translate(303.83 189.01)"><tspan x="0" y="0">LUONNONTIEDE FYS /KEM</tspan></text>
  </g>
  <g id="ATTRIB-2" data-name="ATTRIB">
    <text class="cls-33" transform="translate(303.83 185.34)"><tspan x="0" y="0">B.313</tspan></text>
  </g>
  <g id="ATTRIB-3" data-name="ATTRIB">
    <text class="cls-21" transform="translate(303.83 192.69)"><tspan x="0" y="0">65,5</tspan></text>
  </g>
  <g id="ATTRIB-4" data-name="ATTRIB">
    <text class="cls-21" transform="translate(310.08 192.69)"><tspan x="0" y="0" xml:space="preserve"> m</tspan></text>
  </g>
  <g id="ATTRIB-5" data-name="ATTRIB">
    <text class="cls-50" transform="translate(313.64 191.73)"><tspan x="0" y="0">2</tspan></text>
  </g>
  <g id="ATTRIB-6" data-name="ATTRIB">
    <text class="cls-41" transform="translate(146.63 189.08)"><tspan x="0" y="0">HENKILÖKUNNAN KAHVIL</tspan><tspan class="cls-69" x="48.12" y="0">A</tspan></text>
  </g>
  <g id="ATTRIB-7" data-name="ATTRIB">
    <text class="cls-30" transform="translate(146.63 185.27)"><tspan x="0" y="0">B.3</tspan><tspan class="cls-69" x="6.02" y="0">1</tspan><tspan x="7.95" y="0">1a</tspan></text>
  </g>
  <g id="ATTRIB-8" data-name="ATTRIB">
    <text class="cls-41" transform="translate(146.63 193.88)"><tspan x="0" y="0">85,5</tspan></text>
  </g>
  <g id="ATTRIB-9" data-name="ATTRIB">
    <text class="cls-41" transform="translate(153.93 193.88)"><tspan x="0" y="0" xml:space="preserve"> m</tspan></text>
  </g>
  <g id="ATTRIB-10" data-name="ATTRIB">
    <text class="cls-17" transform="translate(158.1 192.75)"><tspan x="0" y="0">2</tspan></text>
  </g>
  <g id="ATTRIB-11" data-name="ATTRIB">
    <text class="cls-43" transform="translate(858.75 541.48)"><tspan x="0" y="0">OPETUS J</tspan><tspan class="cls-81" x="16.08" y="0">A</tspan><tspan class="cls-55" x="18.09" y="0"> </tspan><tspan x="18.94" y="0">TYÖSKENTE</tspan><tspan class="cls-64" x="38.85" y="0">L</tspan><tspan class="cls-82" x="40.44" y="0">YTIL</tspan><tspan class="cls-57" x="47.38" y="0">A</tspan></text>
  </g>
  <g id="ATTRIB-12" data-name="ATTRIB">
    <text class="cls-11" transform="translate(858.75 538.24)"><tspan x="0" y="0">B.324</tspan></text>
  </g>
  <g id="ATTRIB-13" data-name="ATTRIB">
    <text class="cls-43" transform="translate(858.75 545.55)"><tspan x="0" y="0">59,0</tspan></text>
  </g>
  <g id="ATTRIB-14" data-name="ATTRIB">
    <text class="cls-43" transform="translate(864.97 545.55)"><tspan x="0" y="0" xml:space="preserve"> m</tspan></text>
  </g>
  <g id="ATTRIB-15" data-name="ATTRIB">
    <text class="cls-25" transform="translate(868.51 544.6)"><tspan x="0" y="0">2</tspan></text>
  </g>
  <g id="ATTRIB-16" data-name="ATTRIB">
    <text class="cls-2" transform="translate(494.01 901.03)"><tspan x="0" y="0">OPETUS J</tspan><tspan class="cls-73" x="20.09" y="0">A</tspan><tspan class="cls-1" x="22.61" y="0"> </tspan><tspan x="23.67" y="0">TYÖSKENTE</tspan><tspan class="cls-65" x="48.56" y="0">L</tspan><tspan x="50.54" y="0">YTIL</tspan><tspan class="cls-80" x="59.22" y="0">A</tspan></text>
  </g>
  <g id="ATTRIB-17" data-name="ATTRIB">
    <text class="cls-6" transform="translate(494.01 896.98)"><tspan x="0" y="0">A.312</tspan></text>
  </g>
  <g id="ATTRIB-18" data-name="ATTRIB">
    <text class="cls-2" transform="translate(494.01 906.13)"><tspan x="0" y="0">64,5</tspan></text>
  </g>
  <g id="ATTRIB-19" data-name="ATTRIB">
    <text class="cls-2" transform="translate(501.78 906.13)"><tspan x="0" y="0" xml:space="preserve"> m</tspan></text>
  </g>
  <g id="ATTRIB-20" data-name="ATTRIB">
    <text class="cls-44" transform="translate(506.21 904.93)"><tspan x="0" y="0">2</tspan></text>
  </g>
  <g id="ATTRIB-21" data-name="ATTRIB">
    <text class="cls-19" transform="translate(415.84 191.54)"><tspan x="0" y="0">LUONNONTIEDE BIOLOGI</tspan><tspan class="cls-72" x="37.15" y="0">A</tspan></text>
  </g>
  <g id="ATTRIB-22" data-name="ATTRIB">
    <text class="cls-34" transform="translate(415.84 186.79)"><tspan x="0" y="0">B.317</tspan></text>
  </g>
  <g id="ATTRIB-23" data-name="ATTRIB">
    <text class="cls-19" transform="translate(415.84 182.79)"><tspan x="0" y="0">67,5</tspan></text>
  </g>
  <g id="ATTRIB-24" data-name="ATTRIB">
    <text class="cls-19" transform="translate(421.53 182.79)"><tspan x="0" y="0" xml:space="preserve"> m</tspan></text>
  </g>
  <g id="ATTRIB-25" data-name="ATTRIB">
    <text class="cls-14" transform="translate(424.77 181.92)"><tspan x="0" y="0">2</tspan></text>
  </g>
  <g id="ATTRIB-26" data-name="ATTRIB">
    <text class="cls-23" transform="translate(547.32 188.77)"><tspan x="0" y="0">LUONNONTIEDE MAANTIE</tspan><tspan class="cls-61" x="46.6" y="0">T</tspan><tspan x="48.78" y="0">O</tspan></text>
  </g>
  <g id="ATTRIB-27" data-name="ATTRIB">
    <text class="cls-24" transform="translate(547.32 184.68)"><tspan x="0" y="0">B.319</tspan></text>
  </g>
  <g id="ATTRIB-28" data-name="ATTRIB">
    <text class="cls-23" transform="translate(547.32 192.86)"><tspan x="0" y="0">69,0</tspan></text>
  </g>
  <g id="ATTRIB-29" data-name="ATTRIB">
    <text class="cls-23" transform="translate(554.27 192.86)"><tspan x="0" y="0" xml:space="preserve"> m</tspan></text>
  </g>
  <g id="ATTRIB-30" data-name="ATTRIB">
    <text class="cls-5" transform="translate(558.24 191.79)"><tspan x="0" y="0">2</tspan></text>
  </g>
  <path class="cls-53" d="m825.85,744.01s-.04,0-.05-.02l-.34-.34s-.03-.07,0-.1c.03-.03.07-.03.1,0l.35.34s.03.07,0,.1c-.01.01-.03.02-.05.02Z"/>
  <polyline class="cls-51" points="825.28 844.22 825.51 843.99 825.74 843.87 825.85 843.64"/>
  <polyline class="cls-51" points="825.28 847.32 825.51 847.09 825.74 846.86 825.85 846.75 825.97 846.52 825.97 846.29 825.97 846.17 825.85 845.94 825.74 845.71 825.51 845.6 825.28 845.37"/>
  <polyline class="cls-51" points="825.28 850.43 825.51 850.2 825.74 849.97 825.85 849.85 825.97 849.62 825.97 849.39 825.97 849.28 825.85 849.05 825.74 848.82 825.51 848.7 825.28 848.47"/>
  <polyline class="cls-51" points="825.28 853.53 825.51 853.3 825.74 853.07 825.85 852.84 825.97 852.73 825.97 852.5 825.97 852.27 825.85 852.15 825.74 851.92 825.51 851.69 825.28 851.58"/>
  <g id="ATTRIB-31" data-name="ATTRIB">
    <text class="cls-31" transform="translate(667.35 188.12)"><tspan x="0" y="0">OPETUSTIL</tspan><tspan class="cls-71" x="18.8" y="0">A</tspan><tspan x="20.87" y="0" xml:space="preserve"> (OT3) LUONNONTIEDE</tspan></text>
  </g>
  <g id="ATTRIB-32" data-name="ATTRIB">
    <text class="cls-29" transform="translate(667.56 184.07)"><tspan x="0" y="0">B.321</tspan></text>
  </g>
  <g id="ATTRIB-33" data-name="ATTRIB">
    <text class="cls-32" transform="translate(667.56 191.57)"><tspan x="0" y="0">64,0</tspan></text>
  </g>
  <g id="ATTRIB-34" data-name="ATTRIB">
    <text class="cls-32" transform="translate(673.92 191.57)"><tspan x="0" y="0" xml:space="preserve"> m</tspan></text>
  </g>
  <g id="ATTRIB-35" data-name="ATTRIB">
    <text class="cls-45" transform="translate(677.55 190.59)"><tspan x="0" y="0">2</tspan></text>
  </g>
  <g id="ATTRIB-36" data-name="ATTRIB">
    <text class="cls-48" transform="translate(826.27 698.44)"><tspan class="cls-66" x="0" y="0">A</tspan><tspan class="cls-60" x="1.73" y="0">VOIN OPETUSTIL</tspan><tspan class="cls-78" x="25.92" y="0">A</tspan><tspan x="27.71" y="0" xml:space="preserve"> (OT1)</tspan></text>
  </g>
  <g id="ATTRIB-37" data-name="ATTRIB">
    <text class="cls-40" transform="translate(826.27 695.19)"><tspan x="0" y="0">A.337</tspan></text>
  </g>
  <g id="ATTRIB-38" data-name="ATTRIB">
    <text class="cls-48" transform="translate(826.27 701.69)"><tspan x="0" y="0">32,5</tspan></text>
  </g>
  <g id="ATTRIB-39" data-name="ATTRIB">
    <text class="cls-48" transform="translate(831.79 701.69)"><tspan x="0" y="0" xml:space="preserve"> m</tspan></text>
  </g>
  <g id="ATTRIB-40" data-name="ATTRIB">
    <text class="cls-39" transform="translate(834.94 700.84)"><tspan x="0" y="0">2</tspan></text>
  </g>
  <g id="ATTRIB-41" data-name="ATTRIB">
    <text class="cls-4" transform="translate(680.56 894.69)"><tspan x="0" y="0">OPETUSTIL</tspan><tspan class="cls-58" x="15.42" y="0">A</tspan><tspan x="17.12" y="0" xml:space="preserve"> (OT1)</tspan></text>
  </g>
  <g id="ATTRIB-42" data-name="ATTRIB">
    <text class="cls-49" transform="translate(680.56 891.6)"><tspan x="0" y="0">A.333</tspan></text>
  </g>
  <g id="ATTRIB-43" data-name="ATTRIB">
    <text class="cls-4" transform="translate(680.56 897.77)"><tspan x="0" y="0">21,5</tspan></text>
  </g>
  <g id="ATTRIB-44" data-name="ATTRIB">
    <text class="cls-4" transform="translate(685.8 897.77)"><tspan x="0" y="0" xml:space="preserve"> m</tspan></text>
  </g>
  <g id="ATTRIB-45" data-name="ATTRIB">
    <text class="cls-18" transform="translate(688.8 896.97)"><tspan x="0" y="0">2</tspan></text>
  </g>
  <g id="ATTRIB-46" data-name="ATTRIB">
    <text class="cls-36" transform="translate(827.18 847.49)"><tspan class="cls-62" x="0" y="0">A</tspan><tspan x="1.75" y="0">VOIN OPETUSTIL</tspan><tspan class="cls-77" x="26.18" y="0">A</tspan><tspan class="cls-83" x="27.99" y="0" xml:space="preserve"> (OT1)</tspan></text>
  </g>
  <g id="ATTRIB-47" data-name="ATTRIB">
    <text class="cls-8" transform="translate(827.18 844.21)"><tspan x="0" y="0">A.335</tspan></text>
  </g>
  <g id="ATTRIB-48" data-name="ATTRIB">
    <text class="cls-36" transform="translate(827.18 850.78)"><tspan x="0" y="0">46,0</tspan></text>
  </g>
  <g id="ATTRIB-49" data-name="ATTRIB">
    <text class="cls-36" transform="translate(832.76 850.78)"><tspan x="0" y="0" xml:space="preserve"> m</tspan></text>
  </g>
  <g id="ATTRIB-50" data-name="ATTRIB">
    <text class="cls-7" transform="translate(835.94 849.92)"><tspan x="0" y="0">2</tspan></text>
  </g>
  <g id="ATTRIB-51" data-name="ATTRIB">
    <text class="cls-28" transform="translate(822.67 359.78)"><tspan x="0" y="0">OPETUSTIL</tspan><tspan class="cls-79" x="22.05" y="0">A</tspan><tspan x="24.48" y="0" xml:space="preserve"> (OT3)</tspan></text>
  </g>
  <g id="ATTRIB-52" data-name="ATTRIB">
    <text class="cls-27" transform="translate(822.67 355.36)"><tspan x="0" y="0">B.323</tspan></text>
  </g>
  <g id="ATTRIB-53" data-name="ATTRIB">
    <text class="cls-28" transform="translate(822.67 364.19)"><tspan x="0" y="0">58,0</tspan></text>
  </g>
  <g id="ATTRIB-54" data-name="ATTRIB">
    <text class="cls-28" transform="translate(830.17 364.19)"><tspan x="0" y="0" xml:space="preserve"> m</tspan></text>
  </g>
  <g id="ATTRIB-55" data-name="ATTRIB">
    <text class="cls-20" transform="translate(834.45 363.04)"><tspan x="0" y="0">2</tspan></text>
  </g>
  <g id="ATTRIB-56" data-name="ATTRIB">
    <text class="cls-9" transform="translate(789.89 188.12)"><tspan x="0" y="0">OPETUSTIL</tspan><tspan class="cls-76" x="22.28" y="0">A</tspan><tspan x="24.74" y="0" xml:space="preserve"> (OT3)</tspan></text>
  </g>
  <g id="ATTRIB-57" data-name="ATTRIB">
    <text class="cls-42" transform="translate(789.89 183.66)"><tspan x="0" y="0">B.322</tspan></text>
  </g>
  <g id="ATTRIB-58" data-name="ATTRIB">
    <text class="cls-9" transform="translate(789.89 192.58)"><tspan x="0" y="0">97,5</tspan></text>
  </g>
  <g id="ATTRIB-59" data-name="ATTRIB">
    <text class="cls-9" transform="translate(797.47 192.58)"><tspan x="0" y="0" xml:space="preserve"> m</tspan></text>
  </g>
  <g id="ATTRIB-60" data-name="ATTRIB">
    <text class="cls-15" transform="translate(801.79 191.42)"><tspan x="0" y="0">2</tspan></text>
  </g>
  <g id="ATTRIB-61" data-name="ATTRIB">
    <text class="cls-12" transform="translate(746.55 893.2)"><tspan class="cls-67" x="0" y="0">A</tspan><tspan class="cls-56" x="1.59" y="0">VOIN OPETUSTIL</tspan><tspan class="cls-75" x="23.74" y="0">A</tspan><tspan x="25.38" y="0" xml:space="preserve"> (OT1)</tspan></text>
  </g>
  <g id="ATTRIB-62" data-name="ATTRIB">
    <text class="cls-47" transform="translate(746.55 890.22)"><tspan x="0" y="0">A.334a</tspan></text>
  </g>
  <g id="ATTRIB-63" data-name="ATTRIB">
    <text class="cls-12" transform="translate(746.55 896.18)"><tspan x="0" y="0">19,5</tspan></text>
  </g>
  <g id="ATTRIB-64" data-name="ATTRIB">
    <text class="cls-12" transform="translate(751.6 896.18)"><tspan x="0" y="0" xml:space="preserve"> m</tspan></text>
  </g>
  <g id="ATTRIB-65" data-name="ATTRIB">
    <text class="cls-37" transform="translate(754.49 895.4)"><tspan x="0" y="0">2</tspan></text>
  </g>
  <g id="ATTRIB-66" data-name="ATTRIB">
    <text class="cls-46" transform="translate(319.46 865.49)"><tspan x="0" y="0">OPETUSTIL</tspan><tspan class="cls-74" x="24.51" y="0">A</tspan><tspan x="27.2" y="0" xml:space="preserve"> (OT2)</tspan></text>
  </g>
  <g id="ATTRIB-67" data-name="ATTRIB">
    <text class="cls-10" transform="translate(319.46 860.58)"><tspan x="0" y="0">A.310</tspan></text>
  </g>
  <g id="ATTRIB-68" data-name="ATTRIB">
    <text class="cls-46" transform="translate(319.46 870.4)"><tspan x="0" y="0">97,0</tspan></text>
  </g>
  <g id="ATTRIB-69" data-name="ATTRIB">
    <text class="cls-46" transform="translate(327.79 870.4)"><tspan x="0" y="0" xml:space="preserve"> m</tspan></text>
  </g>
  <g id="ATTRIB-70" data-name="ATTRIB">
    <text class="cls-16" transform="translate(332.55 869.12)"><tspan x="0" y="0">2</tspan></text>
  </g>
  <g id="ATTRIB-71" data-name="ATTRIB">
    <text class="cls-13" transform="translate(827.27 770.84)"><tspan class="cls-63" x="0" y="0">A</tspan><tspan class="cls-59" x="1.61" y="0">VOIN OPETUSTIL</tspan><tspan class="cls-68" x="24.06" y="0">A</tspan><tspan x="25.72" y="0" xml:space="preserve"> (OT3)</tspan></text>
  </g>
  <g id="ATTRIB-72" data-name="ATTRIB">
    <text class="cls-38" transform="translate(827.27 767.82)"><tspan x="0" y="0">A.336</tspan></text>
  </g>
  <g id="ATTRIB-73" data-name="ATTRIB">
    <text class="cls-13" transform="translate(827.27 773.85)"><tspan x="0" y="0">34,5</tspan></text>
  </g>
  <g id="ATTRIB-74" data-name="ATTRIB">
    <text class="cls-13" transform="translate(832.39 773.85)"><tspan x="0" y="0" xml:space="preserve"> m</tspan></text>
  </g>
  <g id="ATTRIB-75" data-name="ATTRIB">
    <text class="cls-3" transform="translate(835.32 773.07)"><tspan x="0" y="0">2</tspan></text>
  </g>
  <g id="ATTRIB-76" data-name="ATTRIB">
    <text class="cls-35" transform="translate(143.34 903.39)"><tspan x="0" y="0">OPETUSTIL</tspan><tspan class="cls-70" x="42.98" y="0">A</tspan><tspan x="47.71" y="0" xml:space="preserve"> (OT3)</tspan></text>
  </g>
  <g id="ATTRIB-77" data-name="ATTRIB">
    <text class="cls-26" transform="translate(143.34 894.78)"><tspan x="0" y="0">A.205a</tspan></text>
  </g>
  <g id="ATTRIB-78" data-name="ATTRIB">
    <text class="cls-35" transform="translate(143.34 911.99)"><tspan x="0" y="0">68,0</tspan></text>
  </g>
  <g id="ATTRIB-79" data-name="ATTRIB">
    <text class="cls-35" transform="translate(157.96 911.99)"><tspan x="0" y="0" xml:space="preserve"> m</tspan></text>
  </g>
  <g id="ATTRIB-80" data-name="ATTRIB">
    <text class="cls-22" transform="translate(166.3 909.75)"><tspan x="0" y="0">2</tspan></text>
  </g>
  <rect class="cls-52" x="745" y="873" width="70" height="58"/>
</svg>