<?xml version="1.0" encoding="UTF-8"?>
<svg id="Layer_1" data-name="Layer 1" xmlns="http://www.w3.org/2000/svg" viewBox="0 0 917.26 914.28">
  <defs>
    <style>
      .cls-1 {
        letter-spacing: -.11em;
      }

      .cls-1, .cls-2, .cls-3, .cls-4, .cls-5, .cls-6, .cls-7, .cls-8, .cls-9, .cls-10, .cls-11, .cls-12, .cls-13, .cls-14, .cls-15, .cls-16, .cls-17, .cls-18, .cls-19, .cls-20, .cls-21, .cls-22, .cls-23, .cls-24, .cls-25, .cls-26, .cls-27, .cls-28, .cls-29, .cls-30, .cls-31, .cls-32, .cls-33, .cls-34, .cls-35, .cls-36, .cls-37, .cls-38, .cls-39, .cls-40, .cls-41, .cls-42, .cls-43, .cls-44, .cls-45, .cls-46, .cls-47, .cls-48, .cls-49, .cls-50, .cls-51, .cls-52, .cls-53, .cls-54, .cls-55, .cls-56, .cls-57, .cls-58, .cls-59, .cls-60, .cls-61, .cls-62, .cls-63, .cls-64, .cls-65, .cls-66, .cls-67, .cls-68 {
        isolation: isolate;
      }

      .cls-1, .cls-2, .cls-3, .cls-5, .cls-6, .cls-7, .cls-8, .cls-9, .cls-10, .cls-13, .cls-15, .cls-16, .cls-17, .cls-19, .cls-20, .cls-21, .cls-22, .cls-23, .cls-25, .cls-26, .cls-27, .cls-29, .cls-30, .cls-31, .cls-32, .cls-33, .cls-34, .cls-36, .cls-38, .cls-40, .cls-41, .cls-42, .cls-44, .cls-45, .cls-47, .cls-48, .cls-49, .cls-50, .cls-51, .cls-52, .cls-54, .cls-55, .cls-56, .cls-58, .cls-59, .cls-60, .cls-62, .cls-63, .cls-64, .cls-65, .cls-67, .cls-68 {
        font-family: ArialMT, Arial;
      }

      .cls-1, .cls-16, .cls-33, .cls-54, .cls-66 {
        font-size: 7.88px;
      }

      .cls-2, .cls-12 {
        font-size: 7.4px;
      }

      .cls-3 {
        font-size: 5.27px;
      }

      .cls-4, .cls-10, .cls-47 {
        font-size: 6.42px;
      }

      .cls-4, .cls-11, .cls-12, .cls-14, .cls-18, .cls-24, .cls-28, .cls-35, .cls-37, .cls-39, .cls-43, .cls-46, .cls-53, .cls-61, .cls-66 {
        font-family: Arial-BoldMT, Arial;
        font-weight: 700;
      }

      .cls-5 {
        letter-spacing: -.12em;
      }

      .cls-5, .cls-23, .cls-60, .cls-61 {
        font-size: 7.97px;
      }

      .cls-6, .cls-34, .cls-35 {
        font-size: 8.19px;
      }

      .cls-7, .cls-14, .cls-41 {
        font-size: 7.91px;
      }

      .cls-8 {
        letter-spacing: -.09em;
      }

      .cls-8, .cls-29, .cls-53 {
        font-size: 8.92px;
      }

      .cls-9 {
        letter-spacing: -.12em;
      }

      .cls-9, .cls-17, .cls-37 {
        font-size: 7.73px;
      }

      .cls-11, .cls-38, .cls-65 {
        font-size: 4.85px;
      }

      .cls-69 {
        fill: none;
      }

      .cls-69, .cls-70, .cls-71 {
        stroke-width: 0px;
      }

      .cls-13 {
        font-size: 5.28px;
      }

      .cls-15, .cls-19, .cls-67 {
        font-size: 6.12px;
      }

      .cls-16 {
        letter-spacing: -.11em;
      }

      .cls-18, .cls-27, .cls-50 {
        font-size: 8.29px;
      }

      .cls-19 {
        letter-spacing: -.12em;
      }

      .cls-20 {
        font-size: 5.16px;
      }

      .cls-21 {
        font-size: 3.24px;
      }

      .cls-22 {
        letter-spacing: -.12em;
      }

      .cls-22, .cls-43, .cls-45 {
        font-size: 7.07px;
      }

      .cls-24, .cls-42, .cls-52, .cls-62 {
        font-size: 9.22px;
      }

      .cls-25 {
        letter-spacing: -.11em;
      }

      .cls-25, .cls-39, .cls-56 {
        font-size: 8.35px;
      }

      .cls-26, .cls-46, .cls-49 {
        font-size: 6.58px;
      }

      .cls-72 {
        letter-spacing: -.04em;
      }

      .cls-28, .cls-32, .cls-58 {
        font-size: 8.13px;
      }

      .cls-73 {
        letter-spacing: -.04em;
      }

      .cls-74 {
        letter-spacing: -.04em;
      }

      .cls-75 {
        letter-spacing: -.04em;
      }

      .cls-76 {
        letter-spacing: -.04em;
      }

      .cls-77 {
        letter-spacing: -.04em;
      }

      .cls-78 {
        letter-spacing: -.04em;
      }

      .cls-79 {
        letter-spacing: -.04em;
      }

      .cls-30 {
        font-size: 5.53px;
      }

      .cls-31 {
        font-size: 6.14px;
      }

      .cls-80 {
        letter-spacing: -.04em;
      }

      .cls-81 {
        letter-spacing: -.04em;
      }

      .cls-82 {
        letter-spacing: -.06em;
      }

      .cls-34 {
        letter-spacing: -.12em;
      }

      .cls-36 {
        font-size: 5.25px;
      }

      .cls-38 {
        letter-spacing: -.02em;
      }

      .cls-40 {
        font-size: 4.39px;
      }

      .cls-41 {
        letter-spacing: -.11em;
      }

      .cls-44 {
        font-size: 4.93px;
      }

      .cls-47 {
        letter-spacing: -.11em;
      }

      .cls-48 {
        font-size: 5.95px;
      }

      .cls-49 {
        letter-spacing: -.12em;
      }

      .cls-50 {
        letter-spacing: -.09em;
      }

      .cls-51 {
        font-size: 5.57px;
      }

      .cls-52 {
        letter-spacing: -.07em;
      }

      .cls-54 {
        letter-spacing: -.02em;
      }

      .cls-55 {
        font-size: 5.31px;
      }

      .cls-58 {
        letter-spacing: -.11em;
      }

      .cls-59 {
        font-size: 4.28px;
      }

      .cls-60 {
        letter-spacing: -.13em;
      }

      .cls-62 {
        letter-spacing: -.04em;
      }

      .cls-63 {
        font-size: 5.42px;
      }

      .cls-71 {
        fill: #eae2e6;
      }

      .cls-64 {
        font-size: 4.71px;
      }

      .cls-67 {
        letter-spacing: -.11em;
      }

      .cls-68 {
        font-size: 5.46px;
      }
    </style>
  </defs>
  <path class="cls-70" d="m917.26,914.28H0V0h917.26v914.28Zm-916.26-1h915.26V1H1v912.28Z"/>
  <path class="cls-70" d="m909.88,905.51H7.38V8.77h902.51v896.75Zm-901.76-.75h901.01V9.52H8.12v895.25Z"/>
  <path class="cls-70" d="m135.08,786.37H9.33c-.21,0-.38-.17-.38-.38s.17-.38.38-.38h125v-48.85l49.07-.5v-35.99l.26-8.94h6.6v-186.15l2.54-.13v-120.53h-2.95v-.38l-.1-154.93V79.6l-10.68.25V10.83c0-.21.17-.38.38-.38s.38.17.38.38v68.26l10.68-.25v150.39l.1,154.56h2.95v121.99l-2.54.13v186.19h-6.62l-.24,8.2v36.72l-49.07.5v48.85Z"/>
  <path class="cls-70" d="m135.08,786.37H8.33c-.21,0-.38-.17-.38-.38s.17-.38.38-.38h126"/>
  <path class="cls-70" d="m357.17,786.37h-221.68c-.21,0-.38-.17-.38-.38s.17-.38.38-.38h221.68c.21,0,.38.17.38.38s-.17.38-.38.38Z"/>
  <path class="cls-70" d="m192.42,903.01c-.21,0-.38-.17-.38-.38v-83.75h10.93v-32.89c0-.21.17-.38.38-.38s.38.17.38.38v33.64h-10.93v83c0,.21-.17.38-.38.38Z"/>
  <path class="cls-70" d="m203.35,903.01c-.21,0-.38-.17-.38-.38v-18.43h-10.18c-.21,0-.38-.17-.38-.38s.17-.38.38-.38h10.93v19.18c0,.21-.17.38-.38.38Z"/>
  <path class="cls-70" d="m350.04,903.01c-.21,0-.38-.17-.38-.38v-116.65c0-.21.17-.38.38-.38s.38.17.38.38v116.65c0,.21-.17.38-.38.38Z"/>
  <path class="cls-70" d="m350.29,832.21c-.21,0-.37-.17-.38-.37s.17-.38.37-.38l70.79-.22-.05-21.71c0-.21.17-.4.38-.38.21,0,.37.17.38.37l.05,22.46-71.54.22h0Z"/>
  <path class="cls-70" d="m427.88,786.37h-43.94c-.21,0-.38-.17-.38-.38s.17-.38.38-.38h43.94c.21,0,.38.17.38.38s-.17.38-.38.38Z"/>
  <path class="cls-70" d="m391.84,831h0c-.21,0-.38-.17-.38-.38l.02-44.64c0-.21.17-.38.38-.38h0c.21,0,.38.17.38.38l-.02,44.64c0,.21-.17.38-.38.38Z"/>
  <path class="cls-70" d="m428,759.67h-43.93c-.21,0-.38-.17-.38-.38s.17-.38.38-.38h43.93c.21,0,.38.17.38.38s-.17.38-.38.38Z"/>
  <path class="cls-70" d="m427.88,731.79h-35.54c-.21,0-.38-.17-.38-.38s.17-.38.38-.38h35.54c.21,0,.38.17.38.38s-.17.38-.38.38Z"/>
  <path class="cls-70" d="m428.38,821.92h-6.77c-.21,0-.38-.17-.38-.38s.17-.38.38-.38h6.02l.06-121.48-36.03.2.32,59.33c0,.21-.17.38-.37.38h0c-.21,0-.37-.17-.38-.37l-.32-60.08,37.53-.2v.38l-.06,122.6Z"/>
  <path class="cls-70" d="m427.45,808.76h-35.54c-.21,0-.38-.17-.38-.38s.17-.38.38-.38h35.54c.21,0,.38.17.38.38s-.17.38-.38.38Z"/>
  <path class="cls-70" d="m183.78,702.18h-48.93l-.25-10.09-125.28-.34c-.21,0-.37-.17-.37-.38s.2-.4.38-.37l126,.34.25,10.09h48.19c.21,0,.38.17.38.38s-.17.38-.38.38Z"/>
  <path class="cls-70" d="m145.47,737.25c-.21,0-.37-.17-.38-.37l-.21-34.25c0-.21.17-.38.37-.38h0c.21,0,.37.17.38.37l.21,34.25c0,.21-.17.38-.37.38h0Z"/>
  <path class="cls-70" d="m190.51,586.45H9.33c-.21,0-.38-.17-.38-.38s.17-.38.38-.38h181.18c.21,0,.38.17.38.38s-.17.38-.38.38Z"/>
  <path class="cls-70" d="m15.96,503.7v-116.1h115.68v115.95h-.37s-115.31.15-115.31.15Zm115.3-.53h0,0Zm-114.55-114.82v114.6l114.18-.15v-114.45H16.71Z"/>
  <path class="cls-70" d="m16.33,388.35c-.21,0-.38-.17-.38-.38v-4.19h177.23c.21,0,.38.17.38.38s-.17.38-.38.38H16.71v3.44c0,.21-.17.38-.38.38Z"/>
  <path class="cls-70" d="m95.56,328.02H9.33c-.21,0-.38-.17-.38-.38s.17-.38.38-.38h86.23c.21,0,.38.17.38.38s-.17.38-.38.38Z"/>
  <path class="cls-70" d="m95.82,279.29H9.33c-.21-.01-.38-.18-.38-.39s.17-.38.38-.38h86.49c.21.01.38.18.38.39s-.17.38-.38.38Z"/>
  <path class="cls-70" d="m32.77,221.58h0c-.21,0-.38-.17-.37-.38v-6s-23.06,0-23.06,0c-.21,0-.38-.17-.38-.38s.17-.38.38-.38h23.83v6.76c-.01.21-.18.37-.39.37Z"/>
  <path class="cls-70" d="m25.88,225.81H9.33c-.21,0-.38-.17-.38-.38s.17-.38.38-.38h15.81v-10.1c0-.21.18-.37.38-.37h0c.21,0,.37.17.37.38v10.84Z"/>
  <path class="cls-70" d="m95.88,384.63c-.21,0-.38-.17-.38-.38l-.06-162.42c0-.21.17-.38.38-.38s.38.17.38.38l.06,162.42c0,.21-.17.38-.38.38Z"/>
  <path class="cls-70" d="m127.89,351.62h-31.82c-.21,0-.38-.17-.38-.38s.17-.38.38-.38h31.08l.26-128.78-101.5-.25c-.21,0-.37-.17-.37-.38,0-.21.17-.37.38-.37h0l102.25.25v.38s-.26,129.9-.26,129.9Z"/>
  <path class="cls-70" d="m160.4,232.88h-32.5c-.21,0-.38-.17-.38-.38s.17-.38.38-.38h31.75v-3.28h20.19c.21,0,.38.17.38.38s-.17.38-.38.38h-19.44v3.28Z"/>
  <path class="cls-70" d="m194.52,351.74l-14.88-.13v-122.76l14.88-.08v122.97Zm-14.13-.87l13.38.11v-121.45l-13.38.08v121.27Z"/>
  <path class="cls-70" d="m179.81,342.56h-51.71c-.21,0-.38-.17-.38-.38s.17-.38.38-.38h51.71c.21,0,.38.17.38.38s-.17.38-.38.38Z"/>
  <path class="cls-70" d="m179.61,314.65h-52.02c-.21,0-.38-.17-.38-.38s.17-.38.38-.38h52.02c.21,0,.38.17.38.38s-.17.38-.38.38Z"/>
  <path class="cls-70" d="m188.96,447.21h-55.06v-59.52h55.06v59.52Zm-54.31-.75h53.56v-58.02h-53.56v58.02Z"/>
  <path class="cls-70" d="m96.32,503.5c-.21,0-.38-.17-.38-.38v-35.08h-45.37v-79.69c0-.21.17-.38.38-.38s.38.17.38.38v78.94h45.37v35.83c0,.21-.17.38-.38.38Z"/>
  <path class="cls-70" d="m56.28,422.81c-.21,0-.38-.17-.38-.38v-33.94c0-.21.17-.38.38-.38s.38.17.38.38v33.94c0,.21-.17.38-.38.38Z"/>
  <path class="cls-70" d="m62.19,422.81c-.21,0-.38-.17-.38-.38v-33.94c0-.21.17-.38.38-.38s.38.17.38.38v33.94c0,.21-.17.38-.38.38Z"/>
  <path class="cls-70" d="m68.3,422.81c-.21,0-.38-.17-.38-.38v-33.94c0-.21.17-.38.38-.38s.38.17.38.38v33.94c0,.21-.17.38-.38.38Z"/>
  <path class="cls-70" d="m72.87,422.81c-.21,0-.38-.17-.38-.38v-33.94c0-.21.17-.38.38-.38s.38.17.38.38v33.94c0,.21-.17.38-.38.38Z"/>
  <path class="cls-70" d="m77.83,422.81c-.21,0-.38-.17-.38-.38v-33.94c0-.21.17-.38.38-.38s.38.17.38.38v33.94c0,.21-.17.38-.38.38Z"/>
  <path class="cls-70" d="m83.36,422.48c-.21,0-.38-.17-.38-.38v-33.94c0-.21.17-.38.38-.38s.38.17.38.38v33.94c0,.21-.17.38-.38.38Z"/>
  <path class="cls-70" d="m88.32,422.81c-.21,0-.38-.17-.38-.38v-33.94c0-.21.17-.38.38-.38s.38.17.38.38v33.94c0,.21-.17.38-.38.38Z"/>
  <path class="cls-70" d="m54.81,502.93c-.21,0-.38-.17-.38-.38v-34.34c0-.21.17-.38.38-.38s.38.17.38.38v34.34c0,.21-.17.38-.38.38Z"/>
  <path class="cls-70" d="m60.72,502.93c-.21,0-.38-.17-.38-.38v-34.34c0-.21.17-.38.38-.38s.38.17.38.38v34.34c0,.21-.17.38-.38.38Z"/>
  <path class="cls-70" d="m65.82,502.93c-.21,0-.38-.17-.38-.38v-34.34c0-.21.17-.38.38-.38s.38.17.38.38v34.34c0,.21-.17.38-.38.38Z"/>
  <path class="cls-70" d="m70.39,502.93c-.21,0-.38-.17-.38-.38v-34.34c0-.21.17-.38.38-.38s.38.17.38.38v34.34c0,.21-.17.38-.38.38Z"/>
  <path class="cls-70" d="m75.35,502.93c-.21,0-.38-.17-.38-.38v-34.34c0-.21.17-.38.38-.38s.38.17.38.38v34.34c0,.21-.17.38-.38.38Z"/>
  <path class="cls-70" d="m80.69,502.93c-.21,0-.38-.17-.38-.38v-34.34c0-.21.17-.38.38-.38s.38.17.38.38v34.34c0,.21-.17.38-.38.38Z"/>
  <path class="cls-70" d="m85.84,502.93c-.21,0-.38-.17-.38-.38v-34.34c0-.21.17-.38.38-.38s.38.17.38.38v34.34c0,.21-.17.38-.38.38Z"/>
  <path class="cls-70" d="m90.94,503.59c-.21,0-.38-.17-.38-.38v-34.97c0-.21.17-.38.38-.38s.38.17.38.38v34.97c0,.21-.17.38-.38.38Z"/>
  <path class="cls-70" d="m16.71,431.92c-.21,0-.37-.17-.38-.37,0-.21.17-.38.37-.38l33.94-.19h0c.21,0,.37.17.38.37,0,.21-.17.38-.37.38l-33.94.19h0Z"/>
  <path class="cls-70" d="m16.74,437.54c-.21,0-.37-.17-.38-.37,0-.21.17-.38.37-.38l33.94-.2h0c.21,0,.37.17.38.37,0,.21-.17.38-.37.38l-33.94.2h0Z"/>
  <path class="cls-70" d="m16.39,442.56c-.21,0-.37-.17-.38-.37,0-.21.17-.38.37-.38l33.94-.2h0c.21,0,.37.17.38.37,0,.21-.17.38-.37.38l-33.94.2h0Z"/>
  <path class="cls-70" d="m16.8,447.67c-.21,0-.37-.17-.38-.37,0-.21.17-.38.37-.38l33.94-.19h0c.21,0,.37.17.38.37,0,.21-.17.38-.37.38l-33.94.19h0Z"/>
  <path class="cls-70" d="m16.83,452.4c-.21,0-.37-.17-.38-.37,0-.21.17-.38.37-.38l33.94-.2h0c.21,0,.37.17.38.37,0,.21-.17.38-.37.38l-33.94.2h0Z"/>
  <path class="cls-70" d="m16.86,457.46c-.21,0-.37-.17-.38-.37,0-.21.17-.38.37-.38l33.94-.2h0c.21,0,.37.17.38.37,0,.21-.17.38-.37.38l-33.94.2h0Z"/>
  <path class="cls-70" d="m16.89,462.36c-.21,0-.37-.17-.38-.37s.17-.38.37-.38l33.93-.19h0c.21,0,.37.17.38.37,0,.21-.17.38-.37.38l-33.93.19h0Z"/>
  <path class="cls-70" d="m17.29,468.16c-.21,0-.37-.17-.38-.37,0-.21.17-.38.37-.38l33.94-.2h0c.21,0,.37.17.38.37s-.17.38-.37.38l-33.94.2h0Z"/>
  <path class="cls-70" d="m103.19,586.03c-.21,0-.38-.17-.38-.38v-81.75c0-.21.17-.38.38-.38s.38.17.38.38v81.75c0,.21-.17.38-.38.38Z"/>
  <path class="cls-70" d="m178.4,503.54h-11.81c-.21,0-.38-.17-.38-.38s.17-.38.38-.38h11.06v-52.01h-42.62v52.01h6.4c.21,0,.38.17.38.38s-.17.38-.38.38h-7.15v-53.51h44.12v53.51Z"/>
  <path class="cls-70" d="m192.8,503.54h-11.91l.28-53.41h11.81c.21,0,.38.17.38.38s-.17.38-.38.38h-11.07l-.28,51.91h11.15c.21,0,.38.17.38.38s-.17.38-.38.38Z"/>
  <path class="cls-70" d="m189.88,112.9h-89.34c-.21,0-.38-.17-.38-.38s.17-.38.38-.38h89.34c.21,0,.38.17.38.38s-.17.38-.38.38Z"/>
  <path class="cls-70" d="m142.08,157.65h-30.62v-44.87c0-.21.17-.38.38-.38s.38.17.38.38v44.12h29.88c.21,0,.38.17.38.38s-.17.38-.38.38Z"/>
  <path class="cls-70" d="m127.21,186.88h-27.04v-4.19c0-.21.17-.38.38-.38s.38.17.38.38v3.44h25.54v-27.98h-25.54v7.77c0,.21-.17.38-.38.38s-.38-.17-.38-.38v-8.52h27.04v29.48Z"/>
  <path class="cls-70" d="m234.32,187.41c-24.75,0-42.11-.09-44.44-.34v.05h-47.67v-64.81h46.9c.21,0,.38.17.38.38s-.17.38-.38.38h-46.15v63.31h47.29v.06c6.91.53,135.4.04,203.9-.3V10.58c0-.21.17-.38.38-.38s.38.17.38.38v176.29h-.37c-47.76.24-115.85.53-160.21.53Z"/>
  <path class="cls-70" d="m403.04,186.88h-8.51c-.21,0-.38-.17-.38-.38s.17-.38.38-.38h7.76v-4.71c0-.21.17-.38.38-.38s.38.17.38.38v5.46Z"/>
  <path class="cls-70" d="m293.85,187h-11.04v-10.29h10.28l-.38-10.29h.39v-42.34h-11.06v-12.32h3.42c.21,0,.38.17.38.38s-.17.38-.38.38h-2.67v10.82h11.06v43.09h46.16v-28.98h10.67v-24.93h-3.81c-.21,0-.38-.17-.38-.38s.17-.38.38-.38h4.56v26.43h-10.67v28.98h-46.91v19.83Zm-10.29-.75h9.54v-8.79h-9.54v8.79Z"/>
  <path class="cls-70" d="m340.38,138.19h-14.1v-26.43h4.56c.21,0,.38.17.38.38s-.17.38-.38.38h-3.81v24.93h13.35c.21,0,.38.17.38.38s-.17.38-.38.38Z"/>
  <path class="cls-70" d="m325.89,124.08h-32.42c-.21,0-.38-.17-.38-.38s.17-.38.38-.38h32.42c.21,0,.38.17.38.38s-.17.38-.38.38Z"/>
  <path class="cls-70" d="m340.38,187c-.21,0-.38-.17-.38-.38v-19.83c0-.21.17-.38.38-.38s.38.17.38.38v19.83c0,.21-.17.38-.38.38Z"/>
  <path class="cls-70" d="m674.54,145.23h-75.92V11.35c0-.21.17-.38.38-.38s.38.17.38.38v133.13h74.42v-7.63h-10.38v-.75h78.85V10.6c0-.21.17-.38.38-.38s.38.17.38.38v126.25h-68.48v8.38Z"/>
  <path class="cls-70" d="m591.17,178v-38.27c0-.21.17-.38.38-.38s.38.17.38.38v38.27h82.61v7.62h7.39v-1.92c0-.21.17-.38.38-.38s.38.17.38.38v2.67h-8.89v-7.62h-56.95v7.88h-25.66v-8.63Zm.75,7.88h24.16v-7.13h-24.16v7.13Z"/>
  <path class="cls-70" d="m674.16,186.37c-.21,0-.38-.17-.38-.38v-49.51c0-.21.17-.38.38-.38s.38.17.38.38v49.51c0,.21-.17.38-.38.38Z"/>
  <path class="cls-70" d="m674.16,145.69h0l-82.87-.46c-.21,0-.37-.17-.37-.38,0-.21.17-.37.38-.37l82.87.46c.21,0,.37.17.37.38,0,.21-.17.37-.38.37Z"/>
  <path class="cls-70" d="m744.21,186.88h-11.18v-49.69c0-.21.17-.38.38-.38s.38.17.38.38v48.94h9.68v-2.67c0-.21.17-.38.38-.38s.38.17.38.38v3.42Z"/>
  <path class="cls-70" d="m733.4,186.88h-8.77v-2.92c0-.21.17-.38.38-.38s.38.17.38.38v2.17h8.02c.21,0,.38.17.38.38s-.17.38-.38.38Z"/>
  <path class="cls-70" d="m611.12,444.02c-.21,0-.38-.17-.38-.38V187.01c0-.21.17-.38.38-.38s.38.17.38.38v256.64c0,.21-.17.38-.38.38Z"/>
  <path class="cls-70" d="m656.12,521.04h-69.01v-78.54h69.01v78.54Zm-68.26-.75h67.51v-77.04h-67.51v77.04Z"/>
  <path class="cls-70" d="m608.08,474.78h-17.68v-28.95h17.68v28.95Zm-16.93-.75h16.18v-27.45h-16.18v27.45Z"/>
  <path class="cls-70" d="m633.47,474.78h-15.51v-28.95h15.51v28.95Zm-14.76-.75h14.01v-27.45h-14.01v27.45Z"/>
  <path class="cls-70" d="m653.25,474.78h-18.09v-19.71h18.09v19.71Zm-17.34-.75h16.59v-18.21h-16.59v18.21Z"/>
  <path class="cls-70" d="m653.25,453h-18.09v-7.18h18.09v7.18Zm-17.34-.75h16.59v-5.68h-16.59v5.68Z"/>
  <path class="cls-70" d="m615.26,474.78h-5.47v-28.95h5.47v28.95Zm-4.72-.75h3.97v-27.45h-3.97v27.45Z"/>
  <path class="cls-70" d="m653.25,492.07h-26.21v-15.57h26.21v15.57Zm-25.46-.75h24.71v-14.07h-24.71v14.07Z"/>
  <path class="cls-70" d="m653.25,509.21h-26.21v-15.57h26.21v15.57Zm-25.46-.75h24.71v-14.07h-24.71v14.07Z"/>
  <path class="cls-70" d="m653,520.75h-26.21v-9.64h26.21v9.64Zm-25.46-.75h24.71v-8.14h-24.71v8.14Z"/>
  <path class="cls-70" d="m625.04,518.34h-34.37v-41.77h34.37v41.77Zm-33.62-.75h32.87v-40.27h-32.87v40.27Z"/>
  <path class="cls-70" d="m550.49,545.07H228.65V225.15h321.83v319.92Zm-321.08-.75h320.33V225.9H229.4v318.42Z"/>
  <path class="cls-70" d="m511.64,544.7c-.21,0-.38-.17-.38-.38v-261.12c0-.21.17-.38.38-.38s.38.17.38.38v261.12c0,.21-.17.38-.38.38Z"/>
  <path class="cls-70" d="m550.11,283.1h-264.64v-56.44c0-.21.17-.38.38-.38s.38.17.38.38v55.69h263.89c.21,0,.38.17.38.38s-.17.38-.38.38Z"/>
  <path class="cls-70" d="m299.95,282.71c-.21,0-.38-.17-.38-.38v-56.43c0-.21.17-.38.38-.38s.38.17.38.38v56.43c0,.21-.17.38-.38.38Z"/>
  <path class="cls-70" d="m315.21,282.71c-.21,0-.38-.17-.38-.38v-56.24c0-.21.17-.38.38-.38s.38.17.38.38v56.24c0,.21-.17.38-.38.38Z"/>
  <path class="cls-70" d="m330.46,282.9c-.21,0-.38-.17-.38-.38v-56.82c0-.21.17-.38.38-.38s.38.17.38.38v56.82c0,.21-.17.38-.38.38Z"/>
  <path class="cls-70" d="m345.33,282.33c-.21,0-.38-.17-.38-.38v-56.25c0-.21.17-.38.38-.38s.38.17.38.38v56.25c0,.21-.17.38-.38.38Z"/>
  <path class="cls-70" d="m360.59,282.52c-.21,0-.38-.17-.38-.38v-56.63c0-.21.17-.38.38-.38s.38.17.38.38v56.63c0,.21-.17.38-.38.38Z"/>
  <path class="cls-70" d="m375.46,283.29c-.21,0-.38-.17-.38-.38v-57.2c0-.21.17-.38.38-.38s.38.17.38.38v57.2c0,.21-.17.38-.38.38Z"/>
  <path class="cls-70" d="m390.9,282.52c-.21,0-.38-.17-.38-.38v-56.24c0-.21.17-.38.38-.38s.38.17.38.38v56.24c0,.21-.17.38-.38.38Z"/>
  <path class="cls-70" d="m405.58,282.33c-.21,0-.38-.17-.38-.38v-55.86c0-.21.17-.38.38-.38s.38.17.38.38v55.86c0,.21-.17.38-.38.38Z"/>
  <path class="cls-70" d="m421.03,282.9c-.21,0-.38-.17-.38-.38v-56.62c0-.21.17-.38.38-.38s.38.17.38.38v56.62c0,.21-.17.38-.38.38Z"/>
  <path class="cls-70" d="m436.28,282.52c-.21,0-.38-.17-.38-.38v-56.24c0-.21.17-.38.38-.38s.38.17.38.38v56.24c0,.21-.17.38-.38.38Z"/>
  <path class="cls-70" d="m451.53,283.1c-.21,0-.38-.17-.38-.38v-56.62c0-.21.17-.38.38-.38s.38.17.38.38v56.62c0,.21-.17.38-.38.38Z"/>
  <path class="cls-70" d="m466.02,282.9c-.21,0-.38-.17-.38-.38v-56.62c0-.21.17-.38.38-.38s.38.17.38.38v56.62c0,.21-.17.38-.38.38Z"/>
  <path class="cls-70" d="m481.09,282.33c-.21,0-.38-.17-.38-.38v-56.05c0-.21.17-.38.38-.38s.38.17.38.38v56.05c0,.21-.17.38-.38.38Z"/>
  <path class="cls-70" d="m496.53,282.71c-.21,0-.38-.17-.38-.38v-56.24c0-.21.17-.38.38-.38s.38.17.38.38v56.24c0,.21-.17.38-.38.38Z"/>
  <path class="cls-70" d="m511.21,282.52c-.21,0-.38-.17-.38-.38v-56.05c0-.21.17-.38.38-.38s.38.17.38.38v56.05c0,.21-.17.38-.38.38Z"/>
  <path class="cls-70" d="m286.09,391.77c-.21,0-.38-.17-.38-.38v-108.11h-56.44c-.21,0-.38-.17-.38-.38s.17-.38.38-.38h57.19v108.86c0,.21-.17.38-.38.38Z"/>
  <path class="cls-70" d="m285.05,287.67h-55.34c-.21,0-.38-.17-.38-.38s.17-.38.38-.38h55.34c.21,0,.38.17.38.38s-.17.38-.38.38Z"/>
  <path class="cls-70" d="m284.95,293.02h-55.14c-.21,0-.38-.17-.38-.38s.17-.38.38-.38h55.14c.21,0,.38.17.38.38s-.17.38-.38.38Z"/>
  <path class="cls-70" d="m284.95,298.17h-55.14c-.21,0-.38-.17-.38-.38s.17-.38.38-.38h55.14c.21,0,.38.17.38.38s-.17.38-.38.38Z"/>
  <path class="cls-70" d="m285.05,303.4h-55.34c-.21,0-.38-.17-.38-.38s.17-.38.38-.38h55.34c.21,0,.38.17.38.38s-.17.38-.38.38Z"/>
  <path class="cls-70" d="m284.95,308.75h-55.14c-.21,0-.38-.17-.38-.38s.17-.38.38-.38h55.14c.21,0,.38.17.38.38s-.17.38-.38.38Z"/>
  <path class="cls-70" d="m284.95,313.9h-55.14c-.21,0-.38-.17-.38-.38s.17-.38.38-.38h55.14c.21,0,.38.17.38.38s-.17.38-.38.38Z"/>
  <path class="cls-70" d="m285.05,318.81h-55.34c-.21,0-.38-.17-.38-.38s.17-.38.38-.38h55.34c.21,0,.38.17.38.38s-.17.38-.38.38Z"/>
  <path class="cls-70" d="m284.95,324.13h-55.14c-.21,0-.38-.17-.38-.38s.17-.38.38-.38h55.14c.21,0,.38.17.38.38s-.17.38-.38.38Z"/>
  <path class="cls-70" d="m284.95,329.29h-55.14c-.21,0-.38-.17-.38-.38s.17-.38.38-.38h55.14c.21,0,.38.17.38.38s-.17.38-.38.38Z"/>
  <path class="cls-70" d="m285.05,334.54h-55.34c-.21,0-.38-.17-.38-.38s.17-.38.38-.38h55.34c.21,0,.38.17.38.38s-.17.38-.38.38Z"/>
  <path class="cls-70" d="m284.95,339.87h-55.14c-.21,0-.38-.17-.38-.38s.17-.38.38-.38h55.14c.21,0,.38.17.38.38s-.17.38-.38.38Z"/>
  <path class="cls-70" d="m284.95,345.02h-55.14c-.21,0-.38-.17-.38-.38s.17-.38.38-.38h55.14c.21,0,.38.17.38.38s-.17.38-.38.38Z"/>
  <path class="cls-70" d="m285.05,349.81h-55.34c-.21,0-.38-.17-.38-.38s.17-.38.38-.38h55.34c.21,0,.38.17.38.38s-.17.38-.38.38Z"/>
  <path class="cls-70" d="m284.95,355.15h-55.14c-.21,0-.38-.17-.38-.38s.17-.38.38-.38h55.14c.21,0,.38.17.38.38s-.17.38-.38.38Z"/>
  <path class="cls-70" d="m284.95,360.29h-55.14c-.21,0-.38-.17-.38-.38s.17-.38.38-.38h55.14c.21,0,.38.17.38.38s-.17.38-.38.38Z"/>
  <path class="cls-70" d="m285.05,365.21h-55.34c-.21,0-.38-.17-.38-.38s.17-.38.38-.38h55.34c.21,0,.38.17.38.38s-.17.38-.38.38Z"/>
  <path class="cls-70" d="m284.95,370.54h-55.14c-.21,0-.38-.17-.38-.38s.17-.38.38-.38h55.14c.21,0,.38.17.38.38s-.17.38-.38.38Z"/>
  <path class="cls-70" d="m284.95,375.69h-55.14c-.21,0-.38-.17-.38-.38s.17-.38.38-.38h55.14c.21,0,.38.17.38.38s-.17.38-.38.38Z"/>
  <path class="cls-70" d="m285.05,380.94h-55.34c-.21,0-.38-.17-.38-.38s.17-.38.38-.38h55.34c.21,0,.38.17.38.38s-.17.38-.38.38Z"/>
  <path class="cls-70" d="m284.95,386.27h-55.14c-.21,0-.38-.17-.38-.38s.17-.38.38-.38h55.14c.21,0,.38.17.38.38s-.17.38-.38.38Z"/>
  <path class="cls-70" d="m511.59,391.42H229.81c-.21,0-.38-.17-.38-.38s.17-.38.38-.38h281.78c.21,0,.38.17.38.38s-.17.38-.38.38Z"/>
  <path class="cls-70" d="m398.91,391.4c-.21,0-.38-.17-.38-.38v-108.49c0-.21.17-.38.38-.38s.38.17.38.38v108.49c0,.21-.17.38-.38.38Z"/>
  <path class="cls-70" d="m511.98,297.98h-225.95c-.21,0-.38-.17-.38-.38s.17-.38.38-.38h225.95c.21,0,.38.17.38.38s-.17.38-.38.38Z"/>
  <path class="cls-70" d="m511.41,313.23h-225.57c-.21,0-.38-.17-.38-.38s.17-.38.38-.38h225.57c.21,0,.38.17.38.38s-.17.38-.38.38Z"/>
  <path class="cls-70" d="m511.88,329.44h-225.94c-.21,0-.38-.17-.38-.38s.17-.38.38-.38h225.94c.21,0,.38.17.38.38s-.17.38-.38.38Z"/>
  <path class="cls-70" d="m511.32,344.69h-225.57c-.21,0-.38-.17-.38-.38s.17-.38.38-.38h225.57c.21,0,.38.17.38.38s-.17.38-.38.38Z"/>
  <path class="cls-70" d="m511.5,360.31h-225.94c-.21,0-.38-.17-.38-.38s.17-.38.38-.38h225.94c.21,0,.38.17.38.38s-.17.38-.38.38Z"/>
  <path class="cls-70" d="m510.93,375.58h-225.56c-.21,0-.38-.17-.38-.38s.17-.38.38-.38h225.56c.21,0,.38.17.38.38s-.17.38-.38.38Z"/>
  <path class="cls-70" d="m549.98,287.29h-38.13c-.21,0-.38-.17-.38-.38s.17-.38.38-.38h38.13c.21,0,.38.17.38.38s-.17.38-.38.38Z"/>
  <path class="cls-70" d="m549.69,289.96h0l-37.55-.19c-.21,0-.37-.17-.37-.38,0-.21.17-.37.38-.37h0l37.55.19c.21,0,.37.17.37.38,0,.21-.17.37-.38.37Z"/>
  <path class="cls-70" d="m549.98,292.63h-38.13c-.21,0-.38-.17-.38-.38s.17-.38.38-.38h38.13c.21,0,.38.17.38.38s-.17.38-.38.38Z"/>
  <path class="cls-70" d="m549.69,298.17h0l-37.55-.19c-.21,0-.37-.17-.37-.38,0-.21.17-.37.38-.37h0l37.55.19c.21,0,.37.17.37.38,0,.21-.17.37-.38.37Z"/>
  <path class="cls-70" d="m549.98,303.31h-38.13c-.21,0-.38-.17-.38-.38s.17-.38.38-.38h38.13c.21,0,.38.17.38.38s-.17.38-.38.38Z"/>
  <path class="cls-70" d="m549.69,305.98h0l-37.55-.19c-.21,0-.37-.17-.37-.38,0-.21.17-.37.38-.37h0l37.55.19c.21,0,.37.17.37.38,0,.21-.17.37-.38.37Z"/>
  <path class="cls-70" d="m549.98,308.65h-38.13c-.21,0-.38-.17-.38-.38s.17-.38.38-.38h38.13c.21,0,.38.17.38.38s-.17.38-.38.38Z"/>
  <path class="cls-70" d="m550.01,313.42h-38.13c-.21,0-.38-.17-.38-.38s.17-.38.38-.38h38.13c.21,0,.38.17.38.38s-.17.38-.38.38Z"/>
  <path class="cls-70" d="m549.72,321.62h0l-37.55-.19c-.21,0-.37-.17-.37-.38,0-.21.21-.38.38-.37l37.55.19c.21,0,.37.17.37.38,0,.21-.17.37-.38.37Z"/>
  <path class="cls-70" d="m550.01,318.75h-38.13c-.21,0-.38-.17-.38-.38s.17-.38.38-.38h38.13c.21,0,.38.17.38.38s-.17.38-.38.38Z"/>
  <path class="cls-70" d="m550.11,324.48h0l-38.12-.19c-.21,0-.37-.17-.37-.38s.18-.34.38-.37l38.12.19c.21,0,.37.17.37.38,0,.21-.17.37-.38.37Z"/>
  <path class="cls-70" d="m550.01,337.25h-38.13c-.21,0-.38-.17-.38-.38s.17-.38.38-.38h38.13c.21,0,.38.17.38.38s-.17.38-.38.38Z"/>
  <path class="cls-70" d="m549.34,329.62h0l-37.55-.19c-.21,0-.37-.17-.37-.38,0-.21.17-.37.38-.37h0l37.55.19c.21,0,.37.17.37.38,0,.21-.17.37-.38.37Z"/>
  <path class="cls-70" d="m550.01,334.19h-38.14c-.21,0-.38-.17-.38-.38s.17-.38.38-.38h38.14c.21,0,.38.17.38.38s-.17.38-.38.38Z"/>
  <path class="cls-70" d="m550.01,340.1h-38.13c-.21,0-.38-.17-.38-.38s.17-.38.38-.38h38.13c.21,0,.38.17.38.38s-.17.38-.38.38Z"/>
  <path class="cls-70" d="m550.01,345.06h-38.13c-.21,0-.38-.17-.38-.38s.17-.38.38-.38h38.13c.21,0,.38.17.38.38s-.17.38-.38.38Z"/>
  <path class="cls-70" d="m550.01,349.83h-38.13c-.21,0-.38-.17-.38-.38s.17-.38.38-.38h38.13c.21,0,.38.17.38.38s-.17.38-.38.38Z"/>
  <path class="cls-70" d="m549.92,352.88h-38.13c-.21,0-.38-.17-.38-.38s.17-.38.38-.38h38.13c.21,0,.38.17.38.38s-.17.38-.38.38Z"/>
  <path class="cls-70" d="m550.01,355.56h-38.13c-.21,0-.38-.17-.38-.38s.17-.38.38-.38h38.13c.21,0,.38.17.38.38s-.17.38-.38.38Z"/>
  <path class="cls-70" d="m550.01,360.9h-38.13c-.21,0-.38-.17-.38-.38s.17-.38.38-.38h38.13c.21,0,.38.17.38.38s-.17.38-.38.38Z"/>
  <path class="cls-70" d="m550.2,365.85h-38.13c-.21,0-.38-.17-.38-.38s.17-.38.38-.38h38.13c.21,0,.38.17.38.38s-.17.38-.38.38Z"/>
  <path class="cls-70" d="m549.82,368.33h-38.13c-.21,0-.38-.17-.38-.38s.17-.38.38-.38h38.13c.21,0,.38.17.38.38s-.17.38-.38.38Z"/>
  <path class="cls-70" d="m550.01,371h-38.13c-.21,0-.38-.17-.38-.38s.17-.38.38-.38h38.13c.21,0,.38.17.38.38s-.17.38-.38.38Z"/>
  <path class="cls-70" d="m550.01,376.33h-38.13c-.21,0-.38-.17-.38-.38s.17-.38.38-.38h38.13c.21,0,.38.17.38.38s-.17.38-.38.38Z"/>
  <path class="cls-70" d="m550.2,381.1h-38.13c-.21,0-.38-.17-.38-.38s.17-.38.38-.38h38.13c.21,0,.38.17.38.38s-.17.38-.38.38Z"/>
  <path class="cls-70" d="m550.01,383.77h-38.13c-.21,0-.38-.17-.38-.38s.17-.38.38-.38h38.13c.21,0,.38.17.38.38s-.17.38-.38.38Z"/>
  <path class="cls-70" d="m550.01,386.63h-38.13c-.21,0-.38-.17-.38-.38s.17-.38.38-.38h38.13c.21,0,.38.17.38.38s-.17.38-.38.38Z"/>
  <path class="cls-70" d="m549.58,391.38h-38.13c-.21,0-.38-.17-.38-.38s.17-.38.38-.38h38.13c.21,0,.38.17.38.38s-.17.38-.38.38Z"/>
  <path class="cls-70" d="m550.01,399.21h-38.13c-.21,0-.38-.17-.38-.38s.17-.38.38-.38h38.13c.21,0,.38.17.38.38s-.17.38-.38.38Z"/>
  <path class="cls-70" d="m550.01,422.85h-38.13c-.21,0-.38-.17-.38-.38s.17-.38.38-.38h38.13c.21,0,.38.17.38.38s-.17.38-.38.38Z"/>
  <path class="cls-70" d="m550.01,415.04h-38.13c-.21,0-.38-.17-.38-.38s.17-.38.38-.38h38.13c.21,0,.38.17.38.38s-.17.38-.38.38Z"/>
  <path class="cls-70" d="m550.01,406.65h-38.13c-.21,0-.38-.17-.38-.38s.17-.38.38-.38h38.13c.21,0,.38.17.38.38s-.17.38-.38.38Z"/>
  <path class="cls-70" d="m550.01,430.67h-38.13c-.21,0-.38-.17-.38-.38s.17-.38.38-.38h38.13c.21,0,.38.17.38.38s-.17.38-.38.38Z"/>
  <path class="cls-70" d="m550.01,454.12h-38.13c-.21,0-.38-.17-.38-.38s.17-.38.38-.38h38.13c.21,0,.38.17.38.38s-.17.38-.38.38Z"/>
  <path class="cls-70" d="m550.01,446.31h-38.13c-.21,0-.38-.17-.38-.38s.17-.38.38-.38h38.13c.21,0,.38.17.38.38s-.17.38-.38.38Z"/>
  <path class="cls-70" d="m550.01,437.92h-38.13c-.21,0-.38-.17-.38-.38s.17-.38.38-.38h38.13c.21,0,.38.17.38.38s-.17.38-.38.38Z"/>
  <path class="cls-70" d="m549.35,462.04h-37.28c-.21,0-.38-.17-.38-.38s.17-.38.38-.38h37.28c.21,0,.38.17.38.38s-.17.38-.38.38Z"/>
  <path class="cls-70" d="m549.82,484.54h-38.13c-.21,0-.38-.17-.38-.38s.17-.38.38-.38h38.13c.21,0,.38.17.38.38s-.17.38-.38.38Z"/>
  <path class="cls-70" d="m549.82,477.29h-37.65c-.21,0-.38-.17-.38-.38s.17-.38.38-.38h37.65c.21,0,.38.17.38.38s-.17.38-.38.38Z"/>
  <path class="cls-70" d="m550.2,469.29h-38.13c-.21,0-.38-.17-.38-.38s.17-.38.38-.38h38.13c.21,0,.38.17.38.38s-.17.38-.38.38Z"/>
  <path class="cls-70" d="m549.82,492.64h-38.13c-.21,0-.38-.17-.38-.38s.17-.38.38-.38h38.13c.21,0,.38.17.38.38s-.17.38-.38.38Z"/>
  <path class="cls-70" d="m261.4,606.95h-70.25c-.21,0-.38-.17-.38-.38s.17-.38.38-.38h70.25c.21,0,.38.17.38.38s-.17.38-.38.38Z"/>
  <path class="cls-70" d="m451.47,606.95h-132.19c-.21,0-.38-.17-.38-.38s.17-.38.38-.38h132.19c.21,0,.38.17.38.38s-.17.38-.38.38Z"/>
  <path class="cls-70" d="m524.94,608c-.21,0-.37-.17-.38-.37,0-.21.17-.38.37-.38l87.34-.64-.51-85.3c0-.21.17-.38.37-.38h0c.21,0,.37.17.38.37l.51,86.04h-.37s-87.71.64-87.71.64h0Z"/>
  <path class="cls-70" d="m311.52,628.21h-42.7v-21.26h-7.79v-21.69h10.46c.21,0,.38.17.38.38s-.17.38-.38.38h-9.71v20.19h7.79v21.26h41.2v-21.26h9.66v-20.19h-10.3c-.21,0-.38-.17-.38-.38s.17-.38.38-.38h11.05v21.69h-9.66v21.26Z"/>
  <path class="cls-70" d="m525.39,650.39h-74.05v-65.65h74.05v65.65Zm-73.3-.75h72.55v-64.15h-72.55v64.15Z"/>
  <path class="cls-70" d="m478.22,606.67h-25.03v-.38c.08-7.12.14-17.94.02-18.58l.35-.07v-.41h24.65v19.44Zm-24.28-.75h23.53v-17.94h-23.51c.08,1.26.11,5.2-.01,17.94Z"/>
  <path class="cls-70" d="m478.22,625.67h-25.03v-17.12h.38v-.36h24.65v17.48Zm-24.28-.75h23.53v-15.98h-23.53v15.98Z"/>
  <path class="cls-70" d="m495.95,625.68h-16.3v-38.52h.38s42.87,0,42.87,0v33.16h-26.95v5.36Zm-15.55-.75h14.8v-5.36h26.95v-31.66h-41.75v37.02Z"/>
  <path class="cls-70" d="m460.88,648.03h-9.02c-.21,0-.38-.17-.38-.38s.17-.38.38-.38h8.27v-19.46h-8.2s0,0,0,0c-.21,0-.38-.17-.38-.38s.17-.38.37-.38h8.96s0,20.95,0,20.95Z"/>
  <path class="cls-70" d="m478.17,647.88h-15.88v-20.44h.38v-.36h15.5v20.8Zm-15.13-.75h14.38v-19.3h-14.38v19.3Z"/>
  <path class="cls-70" d="m496.08,647.88h-15.88v-20.44h.38v-.36h15.5v20.8Zm-15.13-.75h14.38v-19.3h-14.38v19.3Z"/>
  <path class="cls-70" d="m525.45,648.03h-20.71v-25.54h.38v-.36h20.33v25.89Zm-19.96-.75h19.21v-24.39h-19.21v24.39Z"/>
  <path class="cls-70" d="m505.36,647.28h-6.72v-24.14h.38v-.36h6.35v24.5Zm-5.97-.75h5.22v-23h-5.22v23Z"/>
  <path class="cls-70" d="m546.67,819.63h-116.27v-115.36h116.27v115.36Zm-115.52-.75h114.77v-113.86h-114.77v113.86Z"/>
  <path class="cls-70" d="m591.48,758.04h-8.38v-59.49h-23.84v-7.05h-14.69v2.86h-24.01v-2.67h-64.65v2.86l-27.48.13v4.71c0,.21-.17.38-.38.38s-.38-.17-.38-.38v-5.45l27.48-.13v-2.86h66.15v2.67h22.51v-2.86h16.19v7.05h23.84v59.49h7.62c.21,0,.38.17.38.38s-.17.38-.38.38Z"/>
  <path class="cls-70" d="m581.17,729.83h-32.59v-29.54h32.59v29.54Zm-31.84-.75h31.09v-28.04h-31.09v28.04Z"/>
  <path class="cls-70" d="m564.16,756.89h-15.37v-24.77h15.37v24.77Zm-14.62-.75h13.87v-23.27h-13.87v23.27Z"/>
  <path class="cls-70" d="m581.76,756.89h-15.35v-24.77h15.35v24.77Zm-14.6-.75h13.85v-23.27h-13.85v23.27Z"/>
  <path class="cls-70" d="m591.48,787.5h0l-42.31-.09v-27.45h42.32c.21,0,.38.17.38.38s-.17.38-.38.38h-41.57v25.95l41.57.09c.21,0,.37.17.37.38s-.17.37-.38.37Z"/>
  <path class="cls-70" d="m564.79,807.47h-15.65v-20.38l15.65-.35v20.73Zm-14.9-.75h14.15v-19.21l-14.15.31v18.9Z"/>
  <path class="cls-70" d="m582.05,807.47h-15.65v-20.72h15.65v20.72Zm-14.9-.75h14.15v-19.22h-14.15v19.22Z"/>
  <path class="cls-70" d="m582.13,832.61h-32.92v-23.77h32.92v23.77Zm-32.17-.75h31.42v-22.27h-31.42v22.27Z"/>
  <path class="cls-70" d="m624.85,903.79c-.21,0-.38-.17-.38-.38v-71h-41.18v-45.28c0-.21.17-.38.38-.38s.38.17.38.38v44.53h41.18v71.75c0,.21-.17.38-.38.38Z"/>
  <path class="cls-70" d="m549.6,821.92h-121.52c-.21,0-.38-.17-.38-.38s.17-.38.38-.38h121.52c.21,0,.38.17.38.38s-.17.38-.38.38Z"/>
  <path class="cls-70" d="m624.85,832.41c-.21,0-.38-.17-.38-.38v-44.67h-8.26c-.21,0-.38-.17-.38-.38s.17-.38.38-.38h9.01v45.42c0,.21-.17.38-.38.38Z"/>
  <path class="cls-70" d="m778.65,903.79c-.21,0-.38-.17-.38-.38v-43.34h10.68v-73.23l-165.01.53h0c-.21,0-.37-.17-.38-.37s.17-.38.37-.38l165.77-.53v74.73h-10.68v42.59c0,.21-.17.38-.38.38Z"/>
  <path class="cls-70" d="m788.06,903.79c-.21,0-.38-.17-.38-.38v-9.04h-8.77c-.21,0-.38-.17-.38-.38s.17-.38.38-.38h9.52v9.79c0,.21-.17.38-.38.38Z"/>
  <path class="cls-70" d="m670.22,760.14h-53.63v-53.63h53.63v53.63Zm-52.88-.75h52.13v-52.13h-52.13v52.13Z"/>
  <path class="cls-70" d="m545.53,833.37h-120.5c-.21,0-.38-.17-.38-.38s.17-.38.38-.38h120.5c.21,0,.38.17.38.38s-.17.38-.38.38Z"/>
  <path class="cls-70" d="m870.79,620.58h-80.65v-9.15c0-.21.17-.38.38-.38s.38.17.38.38v8.4h79.15v-7.62h37.04c.21,0,.38.17.38.38s-.17.38-.38.38h-36.29v7.62Z"/>
  <path class="cls-70" d="m854.74,711.33h-64.59v-90.37c0-.21.17-.38.38-.38s.38.17.38.38v89.62h63.09v-11.44h45.37v10.68h8.01c.21,0,.38.17.38.38s-.17.38-.38.38h-8.76v-10.68h-43.87v11.44Z"/>
  <path class="cls-70" d="m899.03,699.89c-.21,0-.38-.17-.38-.38v-6.47h8.76c.21,0,.38.17.38.38s-.17.38-.38.38h-8.01v5.72c0,.21-.17.38-.38.38Z"/>
  <path class="cls-70" d="m94.41,465.92h-41.55v-41.65h41.55v41.65Zm-41.05-.5h40.55v-40.65h-40.55v40.65Z"/>
  <path class="cls-70" d="m96.57,465.92h-43.46c-.14,0-.25-.11-.25-.25s.11-.25.25-.25h42.96v-42.69h-45.12c-.14,0-.25-.11-.25-.25s.11-.25.25-.25h45.62v43.69Z"/>
  <path class="cls-70" d="m93.4,422.48c-.21,0-.38-.17-.38-.38v-33.94c0-.21.17-.38.38-.38s.38.17.38.38v33.94c0,.21-.17.38-.38.38Z"/>
  <path class="cls-70" d="m824.28,540.92h-.38s-114.58-.15-114.58-.15v-115.42h114.95v115.57Zm-114.2-.9l113.45.15v-114.07h-113.45v113.92Z"/>
  <path class="cls-70" d="m791.38,505.42h-47.55v-79.12c0-.21.17-.38.38-.38s.38.17.38.38v78.37h46.05s0-44.43,0-44.43c0-.21.17-.38.38-.38s.38.17.38.38v45.19Z"/>
  <path class="cls-70" d="m785.38,459.84c-.21,0-.38-.17-.38-.38v-33.24c0-.21.17-.38.38-.38s.38.17.38.38v33.24c0,.21-.17.38-.38.38Z"/>
  <path class="cls-70" d="m779.56,459.84c-.21,0-.38-.17-.38-.38v-33.24c0-.21.17-.38.38-.38s.38.17.38.38v33.24c0,.21-.17.38-.38.38Z"/>
  <path class="cls-70" d="m774.87,459.84c-.21,0-.38-.17-.38-.38v-33.24c0-.21.17-.38.38-.38s.38.17.38.38v33.24c0,.21-.17.38-.38.38Z"/>
  <path class="cls-70" d="m769.62,459.66c-.21,0-.38-.17-.38-.38v-33.23c0-.21.17-.38.38-.38s.38.17.38.38v33.23c0,.21-.17.38-.38.38Z"/>
  <path class="cls-70" d="m764.18,459.84c-.21,0-.38-.17-.38-.38v-33.24c0-.21.17-.38.38-.38s.38.17.38.38v33.24c0,.21-.17.38-.38.38Z"/>
  <path class="cls-70" d="m759.49,459.53c-.21,0-.38-.17-.38-.38v-33.24c0-.21.17-.38.38-.38s.38.17.38.38v33.24c0,.21-.17.38-.38.38Z"/>
  <path class="cls-70" d="m754.42,459.84c-.21,0-.38-.17-.38-.38v-33.24c0-.21.17-.38.38-.38s.38.17.38.38v33.24c0,.21-.17.38-.38.38Z"/>
  <path class="cls-70" d="m788.15,540.14c-.21,0-.38-.17-.38-.38v-33.94c0-.21.17-.38.38-.38s.38.17.38.38v33.94c0,.21-.17.38-.38.38Z"/>
  <path class="cls-70" d="m782.24,540.14c-.21,0-.38-.17-.38-.38v-33.94c0-.21.17-.38.38-.38s.38.17.38.38v33.94c0,.21-.17.38-.38.38Z"/>
  <path class="cls-70" d="m776.14,540.14c-.21,0-.38-.17-.38-.38v-33.94c0-.21.17-.38.38-.38s.38.17.38.38v33.94c0,.21-.17.38-.38.38Z"/>
  <path class="cls-70" d="m771.56,540.14c-.21,0-.38-.17-.38-.38v-33.94c0-.21.17-.38.38-.38s.38.17.38.38v33.94c0,.21-.17.38-.38.38Z"/>
  <path class="cls-70" d="m766.61,540.14c-.21,0-.38-.17-.38-.38v-33.94c0-.21.17-.38.38-.38s.38.17.38.38v33.94c0,.21-.17.38-.38.38Z"/>
  <path class="cls-70" d="m761.27,540.14c-.21,0-.38-.17-.38-.38v-33.94c0-.21.17-.38.38-.38s.38.17.38.38v33.94c0,.21-.17.38-.38.38Z"/>
  <path class="cls-70" d="m756.12,540.14c-.21,0-.38-.17-.38-.38v-33.94c0-.21.17-.38.38-.38s.38.17.38.38v33.94c0,.21-.17.38-.38.38Z"/>
  <path class="cls-70" d="m750.02,539.78c-.21,0-.38-.17-.38-.38v-33.94c0-.21.17-.38.38-.38s.38.17.38.38v33.94c0,.21-.17.38-.38.38Z"/>
  <path class="cls-70" d="m823.45,461.67h0l-31.76-.18c-.21,0-.37-.17-.37-.38,0-.21.17-.37.38-.37h0l31.76.18c.21,0,.37.17.37.38,0,.21-.17.37-.38.37Z"/>
  <path class="cls-70" d="m823.42,467.29h0l-31.76-.18c-.21,0-.37-.17-.37-.38,0-.21.17-.37.38-.37h0l31.76.18c.21,0,.37.17.37.38,0,.21-.17.37-.38.37Z"/>
  <path class="cls-70" d="m823.74,472.33h0l-31.76-.18c-.21,0-.37-.17-.37-.38s.17-.37.38-.37h0l31.76.18c.21,0,.37.17.37.38s-.17.37-.38.37Z"/>
  <path class="cls-70" d="m823.36,477.43h0l-31.76-.18c-.21,0-.37-.17-.37-.38,0-.21.17-.37.38-.37h0l31.76.18c.21,0,.37.17.37.38,0,.21-.17.37-.38.37Z"/>
  <path class="cls-70" d="m823.33,482.16h0l-31.76-.19c-.21,0-.37-.17-.37-.38s.17-.37.38-.37h0l31.76.19c.21,0,.37.17.37.38s-.17.37-.38.37Z"/>
  <path class="cls-70" d="m823.3,487.22h0l-31.76-.18c-.21,0-.37-.17-.37-.38,0-.21.17-.37.38-.37h0l31.76.18c.21,0,.37.17.37.38,0,.21-.17.37-.38.37Z"/>
  <path class="cls-70" d="m823.28,492.12h0l-31.77-.18c-.21,0-.37-.17-.37-.38s.17-.37.38-.37h0l31.77.18c.21,0,.37.17.37.38s-.17.37-.38.37Z"/>
  <path class="cls-70" d="m789.1,503.13h-41.55v-41.65h41.55v41.65Zm-41.05-.5h40.55v-40.65h-40.55v40.65Z"/>
  <path class="cls-70" d="m788.85,503.13h-43.47v-43.69h45.63c.14,0,.25.11.25.25s-.11.25-.25.25h-45.13v42.69h42.97c.14,0,.25.11.25.25s-.11.25-.25.25Z"/>
  <path class="cls-70" d="m749.42,459.53c-.21,0-.38-.17-.38-.38v-33.24c0-.21.17-.38.38-.38s.38.17.38.38v33.24c0,.21-.17.38-.38.38Z"/>
  <path class="cls-70" d="m765.84,585.92h-3.52v-6.53h-60.31v-23.64h-5.98c-.21,0-.38-.17-.38-.38s.17-.38.38-.38h6.73v23.64h60.31v6.53h2.02v-40.29c0-.21.17-.38.38-.38s.38.17.38.38v41.04Z"/>
  <path class="cls-70" d="m836.87,619.82c-.21,0-.38-.17-.38-.38v-40.81h-44.41l-.03,7.29h-2.65v-41.22c0-.21.17-.38.38-.38s.38.17.38.38v40.47h1.15l.03-7.29h45.91v41.56c0,.21-.17.38-.38.38Z"/>
  <path class="cls-70" d="m739.62,576.34l-34.12-.19v-.37s-.14-31.23-.14-31.33v-.38s.37,0,.37,0h33.89v32.27Zm-33.37-.94l32.62.19v-30.77h-32.8c.04.69.05,2,.06,4.52l.12,26.06Z"/>
  <path class="cls-70" d="m705.74,544.82c-.21,0-.38-.17-.38-.38v-1.15h-6.4v-5.21c0-.21.17-.38.38-.38s.38.17.38.38v4.46h6.4v1.9c0,.21-.17.38-.38.38Z"/>
  <path class="cls-70" d="m823.48,497.88h0l-31.76-.18c-.21,0-.37-.17-.37-.38s.15-.36.38-.37l31.76.18c.21,0,.37.17.37.38,0,.21-.17.37-.38.37Z"/>
  <path class="cls-70" d="m838.26,586.17h-1.32c-.21,0-.38-.17-.38-.38s.17-.38.38-.38h.57v-35.97h-10.74v-4.57h-90.2c-.21,0-.38-.17-.38-.38s.17-.38.38-.38h90.95v4.57h10.74v37.47Z"/>
  <path class="cls-70" d="m763.13,559.57h-21.7v-15.25h21.7v15.25Zm-20.95-.75h20.2v-13.75h-20.2v13.75Z"/>
  <path class="cls-70" d="m763.12,576.92h-21.7v-15.83h21.7v15.83Zm-20.95-.75h20.2v-14.33h-20.2v14.33Z"/>
  <path class="cls-70" d="m813.07,560.04h-21.7v-15.83h21.7v15.83Zm-20.95-.75h20.2v-14.33h-20.2v14.33Z"/>
  <path class="cls-70" d="m813.07,576.59h-21.73l.03-15.31h21.7v15.31Zm-20.98-.75h20.23v-13.81h-20.2l-.03,13.81Z"/>
  <path class="cls-70" d="m836.04,576.51h-21.24v-25.71h21.24v25.71Zm-20.49-.75h19.74v-24.21h-19.74v24.21Z"/>
  <path class="cls-70" d="m789.78,564.04h-24.6c-.21,0-.38-.17-.38-.38s.17-.38.38-.38h24.6c.21,0,.38.17.38.38s-.17.38-.38.38Z"/>
  <path class="cls-70" d="m705.74,543.29c-.21,0-.38-.17-.38-.38v-1.54h-3.86v-28.47l3.81.13v-56.95h-6.1v-5.59c0-.21.17-.38.38-.38s.38.17.38.38v4.84h6.1v58.47l-3.81-.13v26.95h3.86v2.29c0,.21-.17.38-.38.38Z"/>
  <path class="cls-70" d="m786.92,503.26c-.14,0-.25-.11-.25-.25v-41.06c0-.14.11-.25.25-.25s.25.11.25.25v41.06c0,.14-.11.25-.25.25Z"/>
  <path class="cls-70" d="m755.77,423.31c-.21,0-.38-.17-.38-.38v-37.26h-52.89v35.99c0,.21-.17.38-.38.38s-.38-.17-.38-.38v-36.74h54.39v38.01c0,.21-.17.38-.38.38Z"/>
  <path class="cls-70" d="m695.52,558.04c-.21,0-.38-.17-.38-.38v-19.95h3.82v-20.48h-3.18v-67.1h3.43v-27.62h127.62v-7.09h-12.97v-29.23l24.46.16v36.92h-10.74v121.24c0,.21-.17.38-.38.38s-.38-.17-.38-.38v-121.24h-126.87v27.62h-3.43v65.6h3.18v21.98h-3.82v19.2c0,.21-.17.38-.38.38Zm132.07-135.52h9.99v-35.42l-22.96-.15v27.73h12.97v7.84Z"/>
  <path class="cls-70" d="m789.84,423.31c-.21,0-.38-.17-.38-.38v-43.98c0-.21.17-.38.38-.38s.38.17.38.38v43.98c0,.21-.17.38-.38.38Z"/>
  <path class="cls-70" d="m814.24,387.71h-24.15c-.21,0-.38-.17-.38-.38s.17-.38.38-.38h24.15c.21,0,.38.17.38.38s-.17.38-.38.38Z"/>
  <path class="cls-70" d="m813.99,406.52h-24.4c-.21,0-.38-.17-.38-.38s.17-.38.38-.38h24.4c.21,0,.38.17.38.38s-.17.38-.38.38Z"/>
  <path class="cls-70" d="m790.47,217.12h0c-.21,0-.37-.17-.37-.38l.13-29.86h75.75v11.95h41.07c.21,0,.38.17.38.38s-.17.38-.38.38h-41.82v-11.95h-74.25l-.13,29.12c0,.21-.17.37-.38.37Z"/>
  <path class="cls-70" d="m898.85,198.98c-.21,0-.38-.17-.38-.38v-11.72h9.33c.21,0,.38.17.38.38s-.17.38-.38.38h-8.58v10.97c0,.21-.17.38-.38.38Z"/>
  <path class="cls-70" d="m790.6,354.15c-.21,0-.37-.16-.38-.37l-.14-9.28h117.2c.21,0,.38.17.38.38s-.17.38-.38.38h-116.44l.12,8.52c0,.21-.16.38-.37.38h0Z"/>
  <path class="cls-70" d="m836.11,386.94c-.21,0-.38-.17-.38-.38v-40.93c0-.21.17-.38.38-.38s.38.17.38.38v40.93c0,.21-.17.38-.38.38Z"/>
  <path class="cls-70" d="m837.89,550.47c-.14,0-.25-.11-.25-.25v-128c0-.14.11-.25.25-.25s.25.11.25.25v128c0,.14-.11.25-.25.25Z"/>
  <path class="cls-70" d="m790.47,345.47c-.14,0-.25-.11-.25-.25v-130c0-.14.11-.25.25-.25s.25.11.25.25v130c0,.14-.11.25-.25.25Z"/>
  <path class="cls-70" d="m510.46,784.54h0l-45.19-.1v-.37l-.05-45.52h2.78c.21,0,.38.17.38.38s-.17.38-.38.38h-2.03l.05,44.4,44.45.1c.21,0,.37.17.37.38s-.17.37-.38.37Z"/>
  <path class="cls-70" d="m544.83,775.95h-33.24c-.21,0-.38-.17-.38-.38s.17-.38.38-.38h33.24c.21,0,.38.17.38.38s-.17.38-.38.38Z"/>
  <path class="cls-70" d="m544.83,770.13h-33.24c-.21,0-.38-.18-.38-.38s.17-.38.38-.38h33.24c.21,0,.38.18.38.38s-.17.38-.38.38Z"/>
  <path class="cls-70" d="m544.83,765.45h-33.24c-.21-.01-.38-.18-.38-.39s.17-.38.38-.38h33.24c.21.01.38.18.38.39s-.17.38-.38.38Z"/>
  <path class="cls-70" d="m545.02,760.18h-33.24c-.21,0-.38-.17-.38-.38s.17-.38.38-.38h33.24c.21,0,.38.17.38.38s-.17.38-.38.38Z"/>
  <path class="cls-70" d="m544.83,754.75h-33.23c-.21,0-.38-.17-.38-.38s.17-.38.38-.38h33.23c.21,0,.38.17.38.38s-.17.38-.38.38Z"/>
  <path class="cls-70" d="m545.16,750.05h-33.24c-.21,0-.38-.17-.38-.38s.17-.38.38-.38h33.24c.21,0,.38.17.38.38s-.17.38-.38.38Z"/>
  <path class="cls-70" d="m544.84,745h-33.24c-.21,0-.38-.18-.38-.38s.17-.38.38-.38h33.24c.21,0,.38.18.38.38s-.17.38-.38.38Z"/>
  <path class="cls-70" d="m465.04,779.63h-33.93c-.21,0-.38-.18-.38-.38s.17-.38.38-.38h33.93c.21,0,.38.18.38.38s-.17.38-.38.38Z"/>
  <path class="cls-70" d="m465.05,774.28h-33.94c-.21,0-.38-.17-.38-.38s.17-.38.38-.38h33.94c.21,0,.38.17.38.38s-.17.38-.38.38Z"/>
  <path class="cls-70" d="m464.86,768.54h-33.94c-.21,0-.38-.18-.38-.38s.17-.38.38-.38h33.94c.21,0,.38.18.38.38s-.17.38-.38.38Z"/>
  <path class="cls-70" d="m465.05,763.59h-33.94c-.21,0-.38-.17-.38-.38s.17-.38.38-.38h33.94c.21,0,.38.17.38.38s-.17.38-.38.38Z"/>
  <path class="cls-70" d="m465.05,758.64h-33.94c-.21,0-.38-.18-.38-.38s.17-.38.38-.38h33.94c.21,0,.38.18.38.38s-.17.38-.38.38Z"/>
  <path class="cls-70" d="m465.05,753.3h-33.94c-.21,0-.38-.18-.38-.38s.17-.38.38-.38h33.94c.21,0,.38.18.38.38s-.17.38-.38.38Z"/>
  <path class="cls-70" d="m465.05,748.16h-33.94c-.21-.01-.38-.18-.38-.39s.17-.38.38-.38h33.94c.21.01.38.18.38.39s-.17.38-.38.38Z"/>
  <path class="cls-70" d="m465.43,784.43h-33.94c-.21,0-.38-.17-.38-.38s.17-.38.38-.38h33.94c.21,0,.38.17.38.38s-.17.38-.38.38Z"/>
  <path class="cls-70" d="m510.41,819.05h0c-.21,0-.38-.17-.37-.38l.09-33.47c0-.21.17-.37.38-.37h0c.21,0,.38.17.37.38l-.09,33.47c0,.21-.17.37-.38.37Z"/>
  <path class="cls-70" d="m505.17,819.21h0c-.21,0-.38-.17-.37-.38l.08-33.47c0-.21.17-.37.38-.37h0c.21,0,.38.17.37.38l-.08,33.47c0,.21-.17.37-.38.37Z"/>
  <path class="cls-70" d="m499.77,819.34h0c-.21,0-.38-.17-.37-.38l.08-33.47c0-.21.17-.37.38-.37h0c.21,0,.38.17.37.38l-.08,33.47c0,.21-.17.37-.38.37Z"/>
  <path class="cls-70" d="m494.65,818.96h0c-.21,0-.38-.17-.37-.38l.09-33.46c0-.21.17-.37.38-.37h0c.21,0,.38.17.37.38l-.09,33.46c0,.21-.17.37-.38.37Z"/>
  <path class="cls-70" d="m489.94,818.92h0c-.21,0-.38-.17-.37-.38l.09-33.46c0-.21.17-.37.38-.37h0c.21,0,.38.17.37.38l-.09,33.46c0,.21-.17.37-.38.37Z"/>
  <path class="cls-70" d="m484.87,818.89h0c-.21,0-.38-.17-.37-.38l.08-33.46c0-.21.17-.37.38-.37h0c.21,0,.38.17.37.38l-.08,33.46c0,.21-.17.37-.38.37Z"/>
  <path class="cls-70" d="m479.97,818.88h0c-.21,0-.38-.17-.37-.38l.09-33.47c0-.21.17-.37.38-.37h0c.21,0,.38.17.37.38l-.09,33.47c0,.21-.17.37-.38.37Z"/>
  <path class="cls-70" d="m509.21,782.26h-41.65s0-41.56,0-41.56h41.65s0,41.56,0,41.56Zm-41.15-.51h40.65s0-40.54,0-40.54h-40.65s0,40.54,0,40.54Z"/>
  <path class="cls-70" d="m511,784.41h0c-.14,0-.25-.11-.25-.25v-45.13s-42.68.13-42.68.13v42.83c-.01.14-.12.25-.26.25h0c-.14,0-.25-.11-.25-.25v-43.33s.26,0,.26,0l43.44-.13v45.63c0,.14-.12.25-.26.25Z"/>
  <path class="cls-70" d="m545.16,739.99h-33.24c-.21,0-.38-.17-.38-.38s.17-.38.38-.38h33.24c.21,0,.38.17.38.38s-.17.38-.38.38Z"/>
  <path class="cls-70" d="m474.21,819.08h0c-.21,0-.38-.17-.37-.38l.09-33.47c0-.21.17-.37.38-.37h0c.21,0,.38.17.37.38l-.09,33.47c0,.21-.17.37-.38.37Z"/>
  <path class="cls-70" d="m508.74,780.31h-41.05c-.14,0-.25-.11-.25-.25s.11-.25.25-.25h41.05c.14,0,.25.11.25.25s-.11.25-.25.25Z"/>
  <path class="cls-70" d="m518.34,700.86h-60.53c-.21,0-.38-.17-.38-.38s.17-.38.38-.38h60.53c.21,0,.38.17.38.38s-.17.38-.38.38Z"/>
  <path class="cls-70" d="m515.79,690.75c-.21,0-.38-.17-.38-.38v-40.04c0-.21.17-.38.38-.38s.38.17.38.38v40.04c0,.21-.17.38-.38.38Z"/>
  <path class="cls-71" d="m13.49,14.65h159v73.93h13.08v17.21h-92.23v86.73H12.8s.69-179.58.69-177.86Z"/>
  <path class="cls-71" d="m184.19,13.68h206.49v169.19h-45.43l.43-41.56,10.32-.26.26-32.52h-76.4v20.65l10.32.69v41.3l-9.03.34-1.29,12.39h-86.47l-.26-107.63-8.95-.77s.69-62.51,0-61.82Z"/>
  <path class="cls-71" d="m398.25,13.58h197.54l.07,120.17h-7.56l-.09,49.22h-182.49v-6.34h-5.19l-.28,6.34h-3.36s1.34-169.47,1.34-169.39Z"/>
  <path class="cls-71" d="m600.95,13.55h138.35v118.39h-78.12v10.32h-59.19s-1.38-129.06-1.03-128.71Z"/>
  <path class="cls-71" d="m747.22,14.93h158.31v168.98h-10.26v12.73h-26.91v-12.73h-121.14s1.03-168.98,0-168.98Z"/>
  <path class="cls-71" d="m795.61,190.62l-.52,150.25h110.79v-137.35h-44.23v-12.91s-65.27.77-66.04,0Z"/>
  <path class="cls-71" d="m840.49,348.33l65.72.26v259.66h-38.35v8.78h-27.9s2.1-268.7.53-268.7Z"/>
  <path class="cls-71" d="m793.25,623.73l79.47.19v-6.73h33.36v72.16h-10.74v6.12h-43.42l-.34,12.41h-58.33s-.26-84.15,0-84.15Z"/>
  <polygon class="cls-71" points="794.54 715.14 858.62 715.14 858.62 703.23 893.66 703.23 893.66 715.14 905.46 715.14 905.46 899.92 791.96 899.92 791.96 888.56 782.67 888.56 782.67 865.33 794.54 865.33 794.54 715.14"/>
  <polygon class="cls-71" points="627.8 790.48 784.47 790.22 784.73 855.78 774.41 856.04 773.89 901.98 627.8 901.21 627.8 790.48"/>
  <path class="cls-71" d="m354.2,835.65l267.41.26v66.59h-267.41v-66.85Z"/>
  <path class="cls-71" d="m206.04,788.59l140.99-.43-.43,113.73h-139.71l.18-21.07h-11.87l-.66-58.58h11.93s.21-34.29-.43-33.65Z"/>
  <path class="cls-71" d="m10.42,790.99h188.39v22.71h-10.84v87.76H10.42s0-110.59,0-110.47Z"/>
  <path class="cls-71" d="m9.91,695.55h120.76v9.14h10.81v29.58h-10.81v47.43H9.91s.13-86.15,0-86.15Z"/>
  <path class="cls-71" d="m10.39,589.49h176.55v96.02h-7.23v12.91h-40.27l-.52-10.32H10.39s0-100.15,0-98.6Z"/>
  <g id="ATTRIB-21">
    <g class="cls-57">
      <text class="cls-27" transform="translate(65.63 60.46)"><tspan x="0" y="0">KOTI</tspan></text>
      <text class="cls-50" transform="translate(84.98 60.46)"><tspan x="0" y="0">T</tspan></text>
      <text class="cls-27" transform="translate(89.42 60.46)"><tspan x="0" y="0">ALOUS</tspan></text>
    </g>
  </g>
  <g id="ATTRIB-22">
    <g class="cls-57">
      <text class="cls-18" transform="translate(65.63 51.24)"><tspan x="0" y="0">B.212</tspan></text>
    </g>
  </g>
  <g id="ATTRIB-23">
    <g class="cls-57">
      <text class="cls-27" transform="translate(65.63 69.69)"><tspan x="0" y="0">101,0</tspan></text>
    </g>
  </g>
  <g id="ATTRIB-24">
    <g class="cls-57">
      <text class="cls-27" transform="translate(85.77 69.69)"><tspan x="0" y="0" xml:space="preserve"> m</tspan></text>
    </g>
  </g>
  <g id="ATTRIB-25">
    <g class="cls-57">
      <text class="cls-30" transform="translate(94.71 67.28)"><tspan x="0" y="0">2</tspan></text>
    </g>
  </g>
  <g id="ATTRIB">
    <g class="cls-57">
      <text class="cls-29" transform="translate(263.03 58.98)"><tspan x="0" y="0">KOTI</tspan></text>
      <text class="cls-8" transform="translate(283.85 58.98)"><tspan x="0" y="0">T</tspan></text>
      <text class="cls-29" transform="translate(288.64 58.98)"><tspan x="0" y="0">ALOUS</tspan></text>
    </g>
  </g>
  <g id="ATTRIB-2">
    <g class="cls-57">
      <text class="cls-53" transform="translate(263.03 49.05)"><tspan x="0" y="0">B.214</tspan></text>
    </g>
  </g>
  <g id="ATTRIB-3">
    <g class="cls-57">
      <text class="cls-29" transform="translate(263.03 68.91)"><tspan x="0" y="0">106,5</tspan></text>
    </g>
  </g>
  <g id="ATTRIB-4">
    <g class="cls-57">
      <text class="cls-29" transform="translate(284.72 68.91)"><tspan x="0" y="0" xml:space="preserve"> m</tspan></text>
    </g>
  </g>
  <g id="ATTRIB-5">
    <g class="cls-57">
      <text class="cls-48" transform="translate(294.35 66.32)"><tspan x="0" y="0">2</tspan></text>
    </g>
  </g>
  <g id="ATTRIB-26">
    <g class="cls-57">
      <text class="cls-42" transform="translate(462.23 61.44)"><tspan x="0" y="0">KIRJAS</tspan></text>
      <text class="cls-62" transform="translate(494.5 61.44)"><tspan x="0" y="0">T</tspan></text>
      <text class="cls-42" transform="translate(499.96 61.44)"><tspan x="0" y="0">O</tspan></text>
    </g>
  </g>
  <g id="ATTRIB-27">
    <g class="cls-57">
      <text class="cls-24" transform="translate(462.23 51.18)"><tspan x="0" y="0">B.218</tspan></text>
    </g>
  </g>
  <g id="ATTRIB-28">
    <g class="cls-57">
      <text class="cls-52" transform="translate(462.23 71.7)"><tspan x="0" y="0">1</tspan></text>
      <text class="cls-42" transform="translate(466.67 71.7)"><tspan x="0" y="0">16,5</tspan></text>
    </g>
  </g>
  <g id="ATTRIB-29">
    <g class="cls-57">
      <text class="cls-42" transform="translate(483.96 71.7)"><tspan x="0" y="0" xml:space="preserve"> m</tspan></text>
    </g>
  </g>
  <g id="ATTRIB-30">
    <g class="cls-57">
      <text class="cls-31" transform="translate(493.91 69.02)"><tspan x="0" y="0">2</tspan></text>
    </g>
  </g>
  <g id="ATTRIB-46">
    <g class="cls-57">
      <text class="cls-32" transform="translate(632.42 62.69)"><tspan x="0" y="0">OPETUSTI</tspan><tspan class="cls-75" x="40.65" y="0">L</tspan></text>
      <text class="cls-58" transform="translate(677.59 62.69)"><tspan x="0" y="0">A</tspan></text>
      <text class="cls-32" transform="translate(682.56 62.69)"><tspan x="0" y="0" xml:space="preserve"> (OT3)</tspan></text>
    </g>
  </g>
  <g id="ATTRIB-47">
    <g class="cls-57">
      <text class="cls-28" transform="translate(633.51 51.47)"><tspan x="0" y="0">B.220</tspan></text>
    </g>
  </g>
  <g id="ATTRIB-48">
    <g class="cls-57">
      <text class="cls-32" transform="translate(632.42 73.92)"><tspan x="0" y="0">61,0</tspan></text>
    </g>
  </g>
  <g id="ATTRIB-49">
    <g class="cls-57">
      <text class="cls-32" transform="translate(648.87 73.92)"><tspan x="0" y="0" xml:space="preserve"> m</tspan></text>
    </g>
  </g>
  <g id="ATTRIB-50">
    <g class="cls-57">
      <text class="cls-63" transform="translate(658.73 73.74)"><tspan x="0" y="0">2</tspan></text>
    </g>
  </g>
  <g id="ATTRIB-81">
    <g class="cls-57">
      <text class="cls-60" transform="translate(779.49 58.01)"><tspan x="0" y="0">A</tspan></text>
      <text class="cls-23" transform="translate(784.21 58.01)"><tspan x="0" y="0">VOIN OPETUSTI</tspan><tspan class="cls-78" x="61.55" y="0">L</tspan></text>
      <text class="cls-5" transform="translate(850.2 58.01)"><tspan x="0" y="0">A</tspan></text>
      <text class="cls-23" transform="translate(855.08 58.01)"><tspan x="0" y="0" xml:space="preserve"> (OT3)</tspan></text>
    </g>
  </g>
  <g id="ATTRIB-82">
    <g class="cls-57">
      <text class="cls-61" transform="translate(779.49 49.14)"><tspan x="0" y="0">B.221a</tspan></text>
    </g>
  </g>
  <g id="ATTRIB-83">
    <g class="cls-57">
      <text class="cls-23" transform="translate(779.49 66.87)"><tspan x="0" y="0">97,5</tspan></text>
    </g>
  </g>
  <g id="ATTRIB-84">
    <g class="cls-57">
      <text class="cls-23" transform="translate(794.55 66.87)"><tspan x="0" y="0" xml:space="preserve"> m</tspan></text>
    </g>
  </g>
  <g id="ATTRIB-85">
    <g class="cls-57">
      <text class="cls-55" transform="translate(803.14 64.56)"><tspan x="0" y="0">2</tspan></text>
    </g>
  </g>
  <text class="cls-15" transform="translate(847.33 415.66)"><tspan x="0" y="0">OPETUS- J</tspan></text>
  <text class="cls-19" transform="translate(880.3 415.66)"><tspan x="0" y="0">A</tspan></text>
  <text class="cls-15" transform="translate(847.33 423.01)"><tspan x="0" y="0">TYSKENTE</tspan></text>
  <text class="cls-67" transform="translate(885.41 423.01)"><tspan x="0" y="0">L</tspan></text>
  <text class="cls-15" transform="translate(887.36 423.01)"><tspan x="0" y="0">YTIL</tspan><tspan class="cls-82" x="12.92" y="0">A</tspan></text>
  <g id="ATTRIB-42">
    <g class="cls-57">
      <text class="cls-12" transform="translate(848.33 406.42)"><tspan x="0" y="0">B.224</tspan></text>
    </g>
  </g>
  <g id="ATTRIB-43">
    <g class="cls-57">
      <text class="cls-2" transform="translate(848.33 431.88)"><tspan x="0" y="0">66,5</tspan></text>
    </g>
  </g>
  <g id="ATTRIB-44">
    <g class="cls-57">
      <text class="cls-2" transform="translate(863.31 431.88)"><tspan x="0" y="0" xml:space="preserve"> m</tspan></text>
    </g>
  </g>
  <g id="ATTRIB-45">
    <g class="cls-57">
      <text class="cls-44" transform="translate(871.29 429.74)"><tspan x="0" y="0">2</tspan></text>
    </g>
  </g>
  <g id="ATTRIB-61">
    <g class="cls-57">
      <text class="cls-26" transform="translate(815.79 267.29)"><tspan x="0" y="0">OPETUSTI</tspan><tspan class="cls-77" x="32.9" y="0">L</tspan></text>
      <text class="cls-49" transform="translate(852.34 267.29)"><tspan x="0" y="0">A</tspan></text>
      <text class="cls-26" transform="translate(856.37 267.29)"><tspan x="0" y="0" xml:space="preserve"> (OT3)</tspan></text>
    </g>
  </g>
  <g id="ATTRIB-62">
    <g class="cls-57">
      <text class="cls-46" transform="translate(815.79 259.97)"><tspan x="0" y="0">B.223</tspan></text>
    </g>
  </g>
  <g id="ATTRIB-63">
    <g class="cls-57">
      <text class="cls-26" transform="translate(815.79 274.61)"><tspan x="0" y="0">58,0</tspan></text>
    </g>
  </g>
  <g id="ATTRIB-64">
    <g class="cls-57">
      <text class="cls-26" transform="translate(828.23 274.61)"><tspan x="0" y="0" xml:space="preserve"> m</tspan></text>
    </g>
  </g>
  <g id="ATTRIB-65">
    <g class="cls-57">
      <text class="cls-40" transform="translate(835.32 272.7)"><tspan x="0" y="0">2</tspan></text>
    </g>
  </g>
  <g id="ATTRIB-66">
    <g class="cls-57">
      <text class="cls-10" transform="translate(801.26 649.43)"><tspan x="0" y="0">OPETUSTI</tspan><tspan class="cls-80" x="32.1" y="0">L</tspan></text>
      <text class="cls-47" transform="translate(836.92 649.43)"><tspan x="0" y="0">A</tspan></text>
      <text class="cls-10" transform="translate(840.84 649.43)"><tspan x="0" y="0" xml:space="preserve"> (OT1)</tspan></text>
    </g>
  </g>
  <g id="ATTRIB-67">
    <g class="cls-57">
      <text class="cls-4" transform="translate(801.26 642.29)"><tspan x="0" y="0">A.231</tspan></text>
    </g>
  </g>
  <g id="ATTRIB-68">
    <g class="cls-57">
      <text class="cls-10" transform="translate(801.26 656.57)"><tspan x="0" y="0">32,5</tspan></text>
    </g>
  </g>
  <g id="ATTRIB-69">
    <g class="cls-57">
      <text class="cls-10" transform="translate(813.39 656.57)"><tspan x="0" y="0" xml:space="preserve"> m</tspan></text>
    </g>
  </g>
  <g id="ATTRIB-70">
    <g class="cls-57">
      <text class="cls-59" transform="translate(820.31 654.71)"><tspan x="0" y="0">2</tspan></text>
    </g>
  </g>
  <g id="ATTRIB-76">
    <g class="cls-57">
      <text class="cls-45" transform="translate(825.37 800.93)"><tspan x="0" y="0">OPETUSTI</tspan><tspan class="cls-72" x="35.35" y="0">L</tspan></text>
      <text class="cls-22" transform="translate(864.64 800.93)"><tspan x="0" y="0">A</tspan></text>
      <text class="cls-45" transform="translate(868.96 800.93)"><tspan x="0" y="0" xml:space="preserve"> (OT3)</tspan></text>
    </g>
  </g>
  <g id="ATTRIB-77">
    <g class="cls-57">
      <text class="cls-43" transform="translate(825.37 793.07)"><tspan x="0" y="0">A.230a</tspan></text>
    </g>
  </g>
  <g id="ATTRIB-78">
    <g class="cls-57">
      <text class="cls-45" transform="translate(825.37 808.79)"><tspan x="0" y="0">77,0</tspan></text>
    </g>
  </g>
  <g id="ATTRIB-79">
    <g class="cls-57">
      <text class="cls-45" transform="translate(838.73 808.79)"><tspan x="0" y="0" xml:space="preserve"> m</tspan></text>
    </g>
  </g>
  <g id="ATTRIB-80">
    <g class="cls-57">
      <text class="cls-64" transform="translate(846.35 806.74)"><tspan x="0" y="0">2</tspan></text>
    </g>
  </g>
  <g id="ATTRIB-36">
    <g class="cls-57">
      <text class="cls-33" transform="translate(431 868.03) scale(.81 1)"><tspan x="0" y="0">OPETUS J</tspan></text>
      <text class="cls-16" transform="translate(462.21 868.03) scale(.81 1)"><tspan x="0" y="0">A</tspan></text>
      <text class="cls-54" transform="translate(466.11 868.03) scale(.81 1)"><tspan x="0" y="0"> </tspan></text>
      <text class="cls-33" transform="translate(467.77 868.03) scale(.81 1)"><tspan x="0" y="0">TYSKENTE</tspan></text>
      <text class="cls-1" transform="translate(506.43 868.03) scale(.81 1)"><tspan x="0" y="0">L</tspan></text>
      <text class="cls-33" transform="translate(509.5 868.03) scale(.81 1)"><tspan x="0" y="0">YTI</tspan><tspan class="cls-79" x="12.26" y="0">L</tspan></text>
      <text class="cls-16" transform="translate(522.98 868.03) scale(.81 1)"><tspan x="0" y="0">A</tspan></text>
    </g>
  </g>
  <g id="ATTRIB-37">
    <g class="cls-57">
      <text class="cls-66" transform="translate(431 860.27) scale(.81 1)"><tspan x="0" y="0">A.207</tspan></text>
    </g>
  </g>
  <g id="ATTRIB-38">
    <g class="cls-57">
      <text class="cls-33" transform="translate(431 877.79) scale(.81 1)"><tspan x="0" y="0">67,0</tspan></text>
    </g>
  </g>
  <g id="ATTRIB-39">
    <g class="cls-57">
      <text class="cls-33" transform="translate(443.07 877.79) scale(.81 1)"><tspan x="0" y="0" xml:space="preserve"> m</tspan></text>
    </g>
  </g>
  <g id="ATTRIB-40">
    <g class="cls-57">
      <text class="cls-36" transform="translate(449.95 875.52) scale(.81 1)"><tspan x="0" y="0">2</tspan></text>
    </g>
  </g>
  <g id="ATTRIB-51">
    <g class="cls-57">
      <text class="cls-6" transform="translate(237.12 876.74)"><tspan x="0" y="0">OPETUSTI</tspan><tspan class="cls-73" x="40.95" y="0">L</tspan></text>
      <text class="cls-34" transform="translate(282.61 876.74)"><tspan x="0" y="0">A</tspan></text>
      <text class="cls-6" transform="translate(287.62 876.74)"><tspan x="0" y="0" xml:space="preserve"> (OT2)</tspan></text>
    </g>
  </g>
  <g id="ATTRIB-52">
    <g class="cls-57">
      <text class="cls-35" transform="translate(237.12 867.63)"><tspan x="0" y="0">A.206</tspan></text>
    </g>
  </g>
  <g id="ATTRIB-53">
    <g class="cls-57">
      <text class="cls-6" transform="translate(237.12 885.85)"><tspan x="0" y="0">57,5</tspan></text>
    </g>
  </g>
  <g id="ATTRIB-54">
    <g class="cls-57">
      <text class="cls-6" transform="translate(252.59 885.85)"><tspan x="0" y="0" xml:space="preserve"> m</tspan></text>
    </g>
  </g>
  <g id="ATTRIB-55">
    <g class="cls-57">
      <text class="cls-68" transform="translate(261.42 883.47)"><tspan x="0" y="0">2</tspan></text>
    </g>
  </g>
  <g id="ATTRIB-96">
    <g class="cls-57">
      <text class="cls-17" transform="translate(34.21 878.45)"><tspan x="0" y="0">OPETUSTI</tspan><tspan class="cls-74" x="38.65" y="0">L</tspan></text>
      <text class="cls-9" transform="translate(77.19 878.45)"><tspan x="0" y="0">A</tspan></text>
      <text class="cls-17" transform="translate(81.92 878.45)"><tspan x="0" y="0" xml:space="preserve"> (OT3)</tspan></text>
    </g>
  </g>
  <g id="ATTRIB-97">
    <g class="cls-57">
      <text class="cls-37" transform="translate(34.21 869.84)"><tspan x="0" y="0">A.205a</tspan></text>
    </g>
  </g>
  <g id="ATTRIB-98">
    <g class="cls-57">
      <text class="cls-17" transform="translate(34.21 887.05)"><tspan x="0" y="0">68,0</tspan></text>
    </g>
  </g>
  <g id="ATTRIB-99">
    <g class="cls-57">
      <text class="cls-17" transform="translate(48.83 887.05)"><tspan x="0" y="0" xml:space="preserve"> m</tspan></text>
    </g>
  </g>
  <g id="ATTRIB-100">
    <g class="cls-57">
      <text class="cls-20" transform="translate(57.17 884.81)"><tspan x="0" y="0">2</tspan></text>
    </g>
  </g>
  <rect class="cls-69" x="622.27" y="791.31" width="151" height="115"/>
  <g id="ATTRIB-56">
    <g class="cls-57">
      <text class="cls-7" transform="translate(656.68 860.21)"><tspan x="0" y="0">OPETUSTI</tspan><tspan class="cls-81" x="39.55" y="0">L</tspan></text>
      <text class="cls-41" transform="translate(700.66 860.21)"><tspan x="0" y="0">A</tspan></text>
      <text class="cls-7" transform="translate(705.5 860.21)"><tspan x="0" y="0" xml:space="preserve"> (OT3)</tspan></text>
    </g>
  </g>
  <g id="ATTRIB-57">
    <g class="cls-57">
      <text class="cls-14" transform="translate(656.68 851.4)"><tspan x="0" y="0">A.228</tspan></text>
    </g>
  </g>
  <g id="ATTRIB-58">
    <g class="cls-57">
      <text class="cls-7" transform="translate(656.68 869.02)"><tspan x="0" y="0">61,0</tspan></text>
    </g>
  </g>
  <g id="ATTRIB-59">
    <g class="cls-57">
      <text class="cls-7" transform="translate(671.64 869.02)"><tspan x="0" y="0" xml:space="preserve"> m</tspan></text>
    </g>
  </g>
  <g id="ATTRIB-60">
    <g class="cls-57">
      <text class="cls-13" transform="translate(680.17 866.72)"><tspan x="0" y="0">2</tspan></text>
    </g>
  </g>
  <g id="ATTRIB-86">
    <g class="cls-57">
      <text class="cls-56" transform="translate(41.32 630.42)"><tspan x="0" y="0">OPETUSTI</tspan><tspan class="cls-76" x="41.75" y="0">L</tspan></text>
      <text class="cls-25" transform="translate(87.71 630.42)"><tspan x="0" y="0">A</tspan></text>
      <text class="cls-56" transform="translate(92.82 630.42)"><tspan x="0" y="0" xml:space="preserve"> (OT3)</tspan></text>
    </g>
  </g>
  <g id="ATTRIB-87">
    <g class="cls-57">
      <text class="cls-39" transform="translate(41.32 621.13)"><tspan x="0" y="0">A.202</tspan></text>
    </g>
  </g>
  <g id="ATTRIB-88">
    <g class="cls-57">
      <text class="cls-56" transform="translate(41.32 639.71)"><tspan x="0" y="0">60,5</tspan></text>
    </g>
  </g>
  <g id="ATTRIB-89">
    <g class="cls-57">
      <text class="cls-56" transform="translate(57.1 639.71)"><tspan x="0" y="0" xml:space="preserve"> m</tspan></text>
    </g>
  </g>
  <g id="ATTRIB-90">
    <g class="cls-57">
      <text class="cls-51" transform="translate(66.1 637.29)"><tspan x="0" y="0">2</tspan></text>
    </g>
  </g>
  <g id="ATTRIB-91">
    <g class="cls-57">
      <text class="cls-7" transform="translate(42.32 737.76)"><tspan x="0" y="0">OPETUSTI</tspan><tspan class="cls-81" x="39.55" y="0">L</tspan></text>
      <text class="cls-41" transform="translate(86.26 737.76)"><tspan x="0" y="0">A</tspan></text>
      <text class="cls-7" transform="translate(91.09 737.76)"><tspan x="0" y="0" xml:space="preserve"> (OT2)</tspan></text>
    </g>
  </g>
  <g id="ATTRIB-92">
    <g class="cls-57">
      <text class="cls-14" transform="translate(42.32 728.96)"><tspan x="0" y="0">A.203</tspan></text>
    </g>
  </g>
  <g id="ATTRIB-93">
    <g class="cls-57">
      <text class="cls-7" transform="translate(42.32 746.56)"><tspan x="0" y="0">37,0</tspan></text>
    </g>
  </g>
  <g id="ATTRIB-94">
    <g class="cls-57">
      <text class="cls-7" transform="translate(57.27 746.56)"><tspan x="0" y="0" xml:space="preserve"> m</tspan></text>
    </g>
  </g>
  <g id="ATTRIB-95">
    <g class="cls-57">
      <text class="cls-3" transform="translate(65.79 744.26)"><tspan x="0" y="0">2</tspan></text>
    </g>
  </g>
  <path class="cls-71" d="m264.89,588.63v14.63s7.23.17,7.23.17v21.51l36.82-.17v-21.51s9.12,0,9.12,0c0,.52.34-14.8.34-14.8-2.06,0-53.52.17-53.52.17Z"/>
  <g id="ATTRIB-71">
    <g class="cls-57">
      <text class="cls-38" transform="translate(278.01 611.54)"><tspan x="0" y="0">R</tspan></text>
      <text class="cls-65" transform="translate(281.43 611.54)"><tspan x="0" y="0">YHMTY</tspan></text>
    </g>
  </g>
  <g id="ATTRIB-72">
    <g class="cls-57">
      <text class="cls-11" transform="translate(278.01 606.76)"><tspan x="0" y="0">A.219</tspan></text>
    </g>
  </g>
  <g id="ATTRIB-73">
    <g class="cls-57">
      <text class="cls-65" transform="translate(278.01 617.57)"><tspan x="0" y="0">6,0</tspan></text>
    </g>
  </g>
  <g id="ATTRIB-74">
    <g class="cls-57">
      <text class="cls-65" transform="translate(284.56 617.57)"><tspan x="0" y="0" xml:space="preserve"> m</tspan></text>
    </g>
  </g>
  <g id="ATTRIB-75">
    <g class="cls-57">
      <text class="cls-21" transform="translate(289.8 616.15)"><tspan x="0" y="0">2</tspan></text>
    </g>
  </g>
</svg>