<?xml version="1.0" encoding="UTF-8"?>
<svg id="Layer_1" data-name="Layer 1" xmlns="http://www.w3.org/2000/svg" viewBox="0 0 632.86 714.29">
  <defs>
    <style>
      .cls-1 {
        fill: none;
        stroke: #14c1b8;
        stroke-linecap: round;
        stroke-linejoin: round;
      }

      .cls-2 {
        font-size: 2.57px;
      }

      .cls-2, .cls-3, .cls-4 {
        fill: #333;
        font-family: MyriadPro-Regular, 'Myriad Pro';
      }

      .cls-5 {
        letter-spacing: 0em;
      }

      .cls-6 {
        letter-spacing: 0em;
      }

      .cls-7 {
        letter-spacing: 0em;
      }

      .cls-8 {
        letter-spacing: -.03em;
      }

      .cls-9 {
        letter-spacing: -.03em;
      }

      .cls-10 {
        letter-spacing: 0em;
      }

      .cls-11 {
        letter-spacing: 0em;
      }

      .cls-3 {
        font-size: 3.42px;
      }

      .cls-12 {
        letter-spacing: .02em;
      }

      .cls-13 {
        letter-spacing: 0em;
      }

      .cls-14 {
        letter-spacing: .02em;
      }

      .cls-15 {
        letter-spacing: 0em;
      }

      .cls-16 {
        letter-spacing: 0em;
      }

      .cls-17 {
        letter-spacing: 0em;
      }

      .cls-18 {
        letter-spacing: 0em;
      }

      .cls-19 {
        letter-spacing: .03em;
      }

      .cls-20 {
        letter-spacing: 0em;
      }

      .cls-21 {
        letter-spacing: 0em;
      }

      .cls-22 {
        letter-spacing: 0em;
      }

      .cls-23 {
        letter-spacing: 0em;
      }

      .cls-4 {
        font-size: 2.77px;
      }

      .cls-24 {
        letter-spacing: -.07em;
      }

      .cls-25 {
        fill: #14c1b8;
        stroke-width: 0px;
      }
    </style>
  </defs>
  <path class="cls-1" d="m59.94,78.27h184.29V28.2h194.62v3.61h28.39v-13.42h132.15v12.91h10.32v512.1h-182.74v97.57h-182.74v50.07H59.94V219.72H13.99v-56.27h45.43s1.29-85.95.52-85.18Z"/>
  <path class="cls-25" d="m61.93,489.97l43.78-.6v-6.54h46.46v-48.18h10.67v-11.36h44.4v4.82h3.1l.17,103.42-62.46-.86v16.18h-60.57v-6.19h-24.78s-.76-50.75-.76-50.67Z"/>
  <path class="cls-25" d="m62.64,542.5h23.61v5.8s62.13.26,62.13.26l.34,70.21v30.29h-77.09v-10.67h-9.29s.22-95.81.29-95.88Z"/>
  <path class="cls-25" d="m62.17,639.59l8.26.17v10.5l78.29-.31-.13,28.45-4,.09v6.19H62s.19-45.13.17-45.08Z"/>
  <path class="cls-25" d="m150.28,588.05h103.25v50.07h-12.65v47.23h-91.63s1.42-97.7,1.03-97.31Z"/>
  <path class="cls-25" d="m280.63,310.83h109.44v51.11h-35.1v22.46h-74.85s.9-73.95.52-73.56Z"/>
  <path class="cls-25" d="m279.85,416.66h53.95v72.79h-54.98s1.29-73.05,1.03-72.79Z"/>
  <polygon class="cls-25" points="336.38 416.4 397.81 416.79 397.81 489.45 336.12 489.45 336.38 416.4"/>
  <path class="cls-25" d="m423.76,490.36l61.52.17v-8.43l28.42-.13v54.72l-90.2.13s.52-46.72.26-46.46Z"/>
  <path class="cls-25" d="m245.78,512.68h90.34v73.56h2.32v-73.56h82.6v124.93h-165.71l-.12-52.08h-8.4s-.51-73.36-1.03-72.85Z"/>
  <path class="cls-25" d="m455.21,450.78l28.38.04v38.2l-28.55-.08s.22-38.07.17-38.16Z"/>
  <path class="cls-25" d="m508.29,437.19l97.3.12.52,99.89-91.37-.52.39-56.27s-5.93,0-5.94,0-.96-43.23-.89-43.23Z"/>
  <path class="cls-25" d="m507,334.03l-38.56.12v57.82l38.17-.21s.39-57.77.39-57.73Z"/>
  <path class="cls-25" d="m508.64,334.03l97.34-.09-.22,101.4h-97.4s.23-101.35.27-101.31Z"/>
  <path class="cls-25" d="m428.78,237.66h26.46l.52,51.11-26.59-.13v-5.68h-1.16s1.03-45.3.77-45.3Z"/>
  <path class="cls-25" d="m427.62,185.26h27.43v50.35h-25.83v-3.77h-1.51s.19-46.86-.1-46.58Z"/>
  <path class="cls-25" d="m458.98,182.72h40.61l-6.54,76.75h-34.07s0-76.92,0-76.75Z"/>
  <polygon class="cls-25" points="501.31 183.24 603.35 183.24 603.35 287 481.01 287 480.92 261.1 494.6 261.33 501.31 183.24"/>
  <path class="cls-25" d="m64.07,84.3h90.51v18.93h-22.03v40.61h-67.45s-1.03-59.88-1.03-59.54Z"/>
  <path class="cls-25" d="m156.99,83.95l85.35-.34.69,103.25-87.07-1.38s1.72-101.52,1.03-101.52Z"/>
  <path class="cls-25" d="m469.48,34.05h137.66v56.79h-137.66s.52-57.3,0-56.79Z"/>
  <path class="cls-25" d="m428.87,36.12h38.55v54.72h-38.55s.52-55.24,0-54.72Z"/>
  <path class="cls-25" d="m245.09,135.58h179.3v152.12h-178.61s-.34-151.77-.69-152.12Z"/>
  <path class="cls-25" d="m249.57,37.15h175.52v50.59h-175.86s.34-50.93.34-50.59Z"/>
  <path class="cls-25" d="m455.29,416.67l28.29-.09v33.01l-28.29.04s-.02-32.95,0-32.95Z"/>
  <path class="cls-25" d="m428.35,450.82h25.81v38.2h-25.98s.34-38.03.17-38.2Z"/>
  <path class="cls-25" d="m399.1,450.82h27.88v38.2h-27.88s-.17-38.2,0-38.2Z"/>
  <g id="MTEXT">
    <text class="cls-3" transform="translate(284.34 577.66)"><tspan class="cls-9" x="0" y="0">P</tspan><tspan class="cls-15" x="1.74" y="0">ehme</tspan><tspan class="cls-17" x="9.92" y="0">ä</tspan><tspan x="11.56" y="0">t</tspan></text>
    <text class="cls-3" transform="translate(284.34 581.7)"><tspan x="0" y="0">m</tspan><tspan class="cls-17" x="2.86" y="0">a</tspan><tspan class="cls-10" x="4.49" y="0">t</tspan><tspan class="cls-15" x="5.6" y="0">e</tspan><tspan class="cls-7" x="7.32" y="0">r</tspan><tspan class="cls-21" x="8.45" y="0">iaalit</tspan></text>
  </g>
  <g id="MTEXT-2" data-name="MTEXT">
    <text class="cls-3" transform="translate(284.34 574.22)"><tspan x="0" y="0">B001</tspan></text>
  </g>
  <g id="MTEXT-3" data-name="MTEXT">
    <text class="cls-3" transform="translate(374.58 579.62)"><tspan class="cls-9" x="0" y="0">P</tspan><tspan class="cls-15" x="1.74" y="0">ehme</tspan><tspan class="cls-17" x="9.92" y="0">ä</tspan><tspan x="11.56" y="0">t</tspan></text>
    <text class="cls-3" transform="translate(374.58 583.66)"><tspan x="0" y="0">m</tspan><tspan class="cls-17" x="2.86" y="0">a</tspan><tspan class="cls-10" x="4.49" y="0">t</tspan><tspan class="cls-15" x="5.6" y="0">e</tspan><tspan class="cls-7" x="7.32" y="0">r</tspan><tspan class="cls-21" x="8.45" y="0">iaalit</tspan></text>
  </g>
  <g id="MTEXT-4" data-name="MTEXT">
    <text class="cls-3" transform="translate(374.58 576.18)"><tspan x="0" y="0">B003</tspan></text>
  </g>
  <g id="MTEXT-5" data-name="MTEXT">
    <text class="cls-2" transform="translate(466.19 522.88)"><tspan x="0" y="0">30,5 m</tspan></text>
    <text class="cls-2" transform="translate(475.88 522.88)"><tspan x="0" y="0">²</tspan></text>
  </g>
  <g id="MTEXT-6" data-name="MTEXT">
    <text class="cls-3" transform="translate(466.19 519.91)"><tspan class="cls-11" x="0" y="0">M</tspan><tspan x="2.77" y="0">ä</tspan><tspan class="cls-7" x="4.42" y="0">r</tspan><tspan class="cls-14" x="5.56" y="0">k</tspan><tspan class="cls-17" x="7.22" y="0">ä</tspan><tspan class="cls-18" x="8.86" y="0">t</tspan><tspan class="cls-22" x="10.03" y="0">y</tspan><tspan class="cls-21" x="11.6" y="0">ö</tspan></text>
  </g>
  <g id="MTEXT-7" data-name="MTEXT">
    <text class="cls-3" transform="translate(466.19 516.47)"><tspan x="0" y="0">C001</tspan></text>
  </g>
  <g id="MTEXT-8" data-name="MTEXT">
    <text class="cls-2" transform="translate(533.87 475.92)"><tspan x="0" y="0">61,0 m</tspan></text>
    <text class="cls-2" transform="translate(542.96 475.92)"><tspan x="0" y="0">²</tspan></text>
  </g>
  <g id="MTEXT-9" data-name="MTEXT">
    <text class="cls-3" transform="translate(533.87 472.96)"><tspan class="cls-10" x="0" y="0">K</tspan><tspan x="1.84" y="0">u</tspan><tspan class="cls-23" x="3.72" y="0">va</tspan><tspan x="6.99" y="0">taide</tspan></text>
  </g>
  <g id="MTEXT-10" data-name="MTEXT">
    <text class="cls-3" transform="translate(533.87 469.51)"><tspan x="0" y="0">C002</tspan></text>
  </g>
  <g id="MTEXT-11" data-name="MTEXT">
    <text class="cls-2" transform="translate(535.12 363.83)"><tspan x="0" y="0">65,5</tspan></text>
    <text class="cls-2" transform="translate(535.12 366.86)"><tspan x="0" y="0">m</tspan></text>
    <text class="cls-2" transform="translate(536.93 366.86)"><tspan x="0" y="0">²</tspan></text>
  </g>
  <g id="MTEXT-12" data-name="MTEXT">
    <text class="cls-3" transform="translate(535.12 360.87)"><tspan class="cls-10" x="0" y="0">K</tspan><tspan x="1.84" y="0">u</tspan><tspan class="cls-23" x="3.72" y="0">va</tspan><tspan x="6.99" y="0">taide</tspan></text>
  </g>
  <g id="MTEXT-13" data-name="MTEXT">
    <text class="cls-3" transform="translate(535.12 357.42)"><tspan x="0" y="0">C007</tspan></text>
  </g>
  <g id="MTEXT-14" data-name="MTEXT">
    <text class="cls-2" transform="translate(356.76 459.56)"><tspan x="0" y="0">30,5 m</tspan></text>
    <text class="cls-2" transform="translate(366.45 459.56)"><tspan x="0" y="0">²</tspan></text>
  </g>
  <g id="MTEXT-15" data-name="MTEXT">
    <text class="cls-3" transform="translate(356.76 456.6)"><tspan x="0" y="0">Suunnit</tspan><tspan class="cls-6" x="11.2" y="0">t</tspan><tspan x="12.31" y="0">elu</tspan><tspan class="cls-10" x="16.72" y="0">t</tspan><tspan x="17.83" y="0">o</tspan><tspan class="cls-7" x="19.71" y="0">r</tspan><tspan x="20.85" y="0">i</tspan></text>
  </g>
  <g id="MTEXT-16" data-name="MTEXT">
    <text class="cls-3" transform="translate(356.76 453.15)"><tspan x="0" y="0">B004</tspan></text>
  </g>
  <g id="MTEXT-17" data-name="MTEXT">
    <text class="cls-3" transform="translate(294.17 456.6)"><tspan class="cls-24" x="0" y="0">T</tspan><tspan x="1.46" y="0">e</tspan><tspan class="cls-12" x="3.17" y="0">k</tspan><tspan x="4.84" y="0">nolo</tspan><tspan class="cls-10" x="11.31" y="0">g</tspan><tspan x="13.2" y="0">ia</tspan></text>
  </g>
  <g id="MTEXT-18" data-name="MTEXT">
    <text class="cls-3" transform="translate(294.17 453.15)"><tspan x="0" y="0">B010</tspan></text>
  </g>
  <g id="MTEXT-19" data-name="MTEXT">
    <text class="cls-3" transform="translate(483.23 367.92)"><tspan x="0" y="0">14,5 m</tspan></text>
    <text class="cls-3" transform="translate(495.76 367.92)"><tspan x="0" y="0">²</tspan></text>
  </g>
  <g id="MTEXT-20" data-name="MTEXT">
    <text class="cls-3" transform="translate(483.23 359.61)"><tspan class="cls-10" x="0" y="0">K</tspan><tspan x="1.84" y="0">u</tspan><tspan class="cls-23" x="3.72" y="0">va</tspan><tspan x="6.99" y="0">taid</tspan><tspan class="cls-19" x="12.51" y="0">e</tspan><tspan x="14.32" y="0">-</tspan></text>
  </g>
  <g id="MTEXT-21" data-name="MTEXT">
    <text class="cls-3" transform="translate(483.23 363.53)"><tspan class="cls-17" x="0" y="0">v</tspan><tspan x="1.63" y="0">a</tspan><tspan class="cls-20" x="3.28" y="0">r</tspan><tspan x="4.39" y="0">as</tspan><tspan class="cls-10" x="7.39" y="0">t</tspan><tspan x="8.51" y="0">o</tspan></text>
  </g>
  <g id="MTEXT-22" data-name="MTEXT">
    <text class="cls-3" transform="translate(483.23 355.51)"><tspan x="0" y="0">C008</tspan></text>
  </g>
  <g id="MTEXT-23" data-name="MTEXT">
    <text class="cls-3" transform="translate(520.16 69.07)"><tspan x="0" y="0">Ken</tspan><tspan class="cls-14" x="5.47" y="0">k</tspan><tspan x="7.14" y="0">äe</tspan><tspan class="cls-10" x="10.5" y="0">t</tspan><tspan x="11.62" y="0">einen</tspan></text>
  </g>
  <g id="MTEXT-24" data-name="MTEXT">
    <text class="cls-3" transform="translate(520.16 65.63)"><tspan x="0" y="0">C024</tspan></text>
  </g>
  <g id="MTEXT-25" data-name="MTEXT">
    <text class="cls-2" transform="translate(517.96 215.64)"><tspan x="0" y="0">65,5</tspan></text>
    <text class="cls-2" transform="translate(517.96 218.67)"><tspan x="0" y="0">m</tspan></text>
    <text class="cls-2" transform="translate(519.78 218.67)"><tspan x="0" y="0">²</tspan></text>
  </g>
  <g id="MTEXT-26" data-name="MTEXT">
    <text class="cls-3" transform="translate(517.96 212.67)"><tspan class="cls-10" x="0" y="0">K</tspan><tspan x="1.84" y="0">u</tspan><tspan class="cls-23" x="3.72" y="0">va</tspan><tspan x="6.99" y="0">taide</tspan></text>
  </g>
  <g id="MTEXT-27" data-name="MTEXT">
    <text class="cls-3" transform="translate(517.96 209.23)"><tspan x="0" y="0">C007</tspan></text>
  </g>
  <g id="MTEXT-28" data-name="MTEXT">
    <text class="cls-3" transform="translate(468.91 221.53)"><tspan x="0" y="0">14,5 m</tspan></text>
    <text class="cls-3" transform="translate(481.44 221.53)"><tspan x="0" y="0">²</tspan></text>
  </g>
  <g id="MTEXT-29" data-name="MTEXT">
    <text class="cls-3" transform="translate(468.91 213.22)"><tspan class="cls-10" x="0" y="0">K</tspan><tspan x="1.84" y="0">u</tspan><tspan class="cls-23" x="3.72" y="0">va</tspan><tspan x="6.99" y="0">taid</tspan><tspan class="cls-19" x="12.51" y="0">e</tspan><tspan x="14.32" y="0">-</tspan></text>
  </g>
  <g id="MTEXT-30" data-name="MTEXT">
    <text class="cls-3" transform="translate(468.91 217.15)"><tspan class="cls-17" x="0" y="0">v</tspan><tspan x="1.63" y="0">a</tspan><tspan class="cls-20" x="3.28" y="0">r</tspan><tspan x="4.39" y="0">as</tspan><tspan class="cls-10" x="7.39" y="0">t</tspan><tspan x="8.51" y="0">o</tspan></text>
  </g>
  <g id="MTEXT-31" data-name="MTEXT">
    <text class="cls-3" transform="translate(468.91 209.13)"><tspan x="0" y="0">C008</tspan></text>
  </g>
  <g id="MTEXT-32" data-name="MTEXT">
    <text class="cls-3" transform="translate(443.58 65.14)"><tspan x="0" y="0">Ruo</tspan><tspan class="cls-14" x="5.61" y="0">k</tspan><tspan x="7.28" y="0">ala,</tspan></text>
  </g>
  <g id="MTEXT-33" data-name="MTEXT">
    <text class="cls-3" transform="translate(443.58 69.07)"><tspan class="cls-14" x="0" y="0">k</tspan><tspan x="1.67" y="0">abinetti</tspan></text>
  </g>
  <g id="MTEXT-34" data-name="MTEXT">
    <text class="cls-3" transform="translate(102.01 610.76)"><tspan x="0" y="0">Konesali</tspan></text>
  </g>
  <g id="MTEXT-35" data-name="MTEXT">
    <text class="cls-3" transform="translate(196.1 614.32)"><tspan class="cls-9" x="0" y="0">P</tspan><tspan class="cls-15" x="1.74" y="0">en</tspan><tspan class="cls-12" x="5.35" y="0">kk</tspan><tspan x="8.68" y="0">isali</tspan></text>
  </g>
  <g id="MTEXT-36" data-name="MTEXT">
    <text class="cls-3" transform="translate(196.1 610.88)"><tspan x="0" y="0">A002</tspan></text>
  </g>
  <g id="MTEXT-37" data-name="MTEXT">
    <text class="cls-3" transform="translate(95.05 666.43)"><tspan class="cls-13" x="0" y="0">H</tspan><tspan x="2.27" y="0">io</tspan><tspan class="cls-17" x="4.95" y="0">n</tspan><tspan x="6.83" y="0">ta</tspan></text>
  </g>
  <g id="MTEXT-38" data-name="MTEXT">
    <text class="cls-3" transform="translate(95.05 662.99)"><tspan x="0" y="0">A001</tspan></text>
  </g>
  <g id="MTEXT-39" data-name="MTEXT">
    <text class="cls-3" transform="translate(303.91 347.82)"><tspan x="0" y="0">kokoo</tspan><tspan class="cls-17" x="8.85" y="0">n</tspan><tspan x="10.74" y="0">tumistila, eni</tspan><tspan class="cls-17" x="29.02" y="0">n</tspan><tspan x="30.9" y="0">tään 37</tspan></text>
    <text class="cls-3" transform="translate(303.91 351.86)"><tspan x="0" y="0">hen</tspan><tspan class="cls-12" x="5.52" y="0">k</tspan><tspan x="7.18" y="0">ilöä</tspan></text>
  </g>
  <g id="MTEXT-40" data-name="MTEXT">
    <text class="cls-3" transform="translate(303.35 341.78)"><tspan x="0" y="0">N</tspan><tspan class="cls-16" x="2.25" y="0">ä</tspan><tspan x="3.88" y="0">yttämö</tspan></text>
  </g>
  <g id="MTEXT-41" data-name="MTEXT">
    <text class="cls-3" transform="translate(311.01 179.96)"><tspan x="0" y="0">kokoo</tspan><tspan class="cls-17" x="8.85" y="0">n</tspan><tspan x="10.74" y="0">tumistila, eni</tspan><tspan class="cls-17" x="29.02" y="0">n</tspan><tspan x="30.9" y="0">tään 450</tspan></text>
    <text class="cls-3" transform="translate(311.01 184)"><tspan x="0" y="0">hen</tspan><tspan class="cls-12" x="5.52" y="0">k</tspan><tspan x="7.18" y="0">ilöä</tspan></text>
  </g>
  <g id="MTEXT-42" data-name="MTEXT">
    <text class="cls-2" transform="translate(184.22 116.39)"><tspan x="0" y="0">59,0 m</tspan></text>
    <text class="cls-2" transform="translate(193.92 116.39)"><tspan x="0" y="0">²</tspan></text>
  </g>
  <g id="MTEXT-43" data-name="MTEXT">
    <text class="cls-3" transform="translate(184.22 113.42)"><tspan class="cls-8" x="0" y="0">T</tspan><tspan class="cls-21" x="1.61" y="0">OI</tspan><tspan class="cls-14" x="4.79" y="0">-</tspan><tspan x="5.9" y="0">opetustila</tspan></text>
  </g>
  <g id="MTEXT-44" data-name="MTEXT">
    <text class="cls-2" transform="translate(310.35 174.75)"><tspan x="0" y="0">196,0 m</tspan></text>
    <text class="cls-2" transform="translate(321.26 174.75)"><tspan x="0" y="0">²</tspan></text>
  </g>
  <g id="MTEXT-45" data-name="MTEXT">
    <text class="cls-3" transform="translate(310.35 171.78)"><tspan x="0" y="0">Ruo</tspan><tspan class="cls-14" x="5.61" y="0">k</tspan><tspan x="7.28" y="0">ala</tspan></text>
  </g>
  <g id="MTEXT-46" data-name="MTEXT">
    <text class="cls-3" transform="translate(310.35 168.34)"><tspan x="0" y="0">B017</tspan></text>
  </g>
  <g id="MTEXT-47" data-name="MTEXT">
    <text class="cls-2" transform="translate(97.19 119.85)"><tspan x="0" y="0">28,0 m</tspan></text>
    <text class="cls-2" transform="translate(106.88 119.85)"><tspan x="0" y="0">²</tspan></text>
  </g>
  <g id="MTEXT-48" data-name="MTEXT">
    <text class="cls-4" transform="translate(97.19 115.75)"><tspan class="cls-5" x="0" y="0">A</tspan><tspan x="1.68" y="0">istitila</tspan></text>
  </g>
  <g id="MTEXT-49" data-name="MTEXT">
    <text class="cls-3" transform="translate(97.19 113.44)"><tspan x="0" y="0">A030</tspan></text>
  </g>
  <g id="MTEXT-50" data-name="MTEXT">
    <text class="cls-3" transform="translate(153.19 504.05)"><tspan class="cls-10" x="0" y="0">K</tspan><tspan x="1.84" y="0">uuma</tspan><tspan class="cls-14" x="10.11" y="0">k</tspan><tspan x="11.78" y="0">äsit</tspan><tspan class="cls-6" x="16.72" y="0">t</tspan><tspan x="17.84" y="0">ely</tspan></text>
  </g>
  <g id="MTEXT-51" data-name="MTEXT">
    <text class="cls-3" transform="translate(149.06 500.61)"><tspan x="0" y="0">A008</tspan></text>
  </g>
</svg>