<svg width="552" height="307" viewBox="0 0 552 307" fill="none" xmlns="http://www.w3.org/2000/svg">
<g clip-path="url(#clip0_2_3)">
<path d="M242.5 0.5H348.5V59.5H242.5V0.5ZM353.5 0.5H397.5V44.5H353.5V0.5ZM402.5 0.5H551.5V80.5H402.5V0.5ZM468.5 85.5H551.5V162.5H468.5V85.5ZM512.5 167.5H551.5V212.5H512.5V167.5ZM468.5 217.5H551.5V262.5H468.5V217.5ZM512.5 267.5H551.5V306.5H512.5V267.5ZM131.5 0.5H237.5V80.5H131.5V0.5ZM0.5 0.5H126.5V80.5H0.5V0.5ZM0.5 85.5H81.5V165.5H0.5V85.5ZM0.5 170.5H81.5V216.5H0.5V170.5Z" fill="#0F172A" stroke="#B7B7B7"/>
<path d="M339 112H213V195H339V112Z" stroke="#B7B7B7"/>
<path d="M333 199V219M327 199V219M321 199V219M315 199V219M309 199V219M303 199V219M297 199V219M291 199V219M285 199V219M279 199V219M273 199V219M267 199V219M261 199V219M255 199V219M249 199V219M243 199V219M237 199V219M231 199V219M225 199V219M219 199V219M213 199H339V219H213V199Z" stroke="#B7B7B7"/>
<path d="M333 223V243M327 223V243M321 223V243M315 223V243M309 223V243M303 223V243M297 223V243M291 223V243M285 223V243M279 223V243M273 223V243M267 223V243M261 223V243M255 223V243M249 223V243M243 223V243M237 223V243M231 223V243M225 223V243M219 223V243M213 223H339V243H213V223Z" stroke="#B7B7B7"/>
</g>
<rect x="0.5" y="0.5" width="551" height="306" stroke="#B7B7B7" fill="none"/>
<defs>
<clipPath id="clip0_2_3">
<rect width="552" height="307" fill="white"/>
</clipPath>
</defs>
</svg>
