<svg width="484" height="228" viewBox="0 0 484 228" fill="none" xmlns="http://www.w3.org/2000/svg">
<g clip-path="url(#clip0_2_12)">
<mask id="mask0_2_12" style="mask-type:luminance" maskUnits="userSpaceOnUse" x="0" y="0" width="484" height="228">
<path d="M484 0H0V228H484V0Z" fill="white"/>
</mask>
<g mask="url(#mask0_2_12)">
<path d="M197.5 0.5H241.5V44.5H197.5V0.5Z" fill="#0F172A" stroke="#B7B7B7"/>
<path d="M246.5 0.5H395.5V44.5H246.5V0.5Z" fill="#0F172A" stroke="#B7B7B7"/>
<path d="M400.5 0.5H483.5V77.5H400.5V0.5Z" fill="#0F172A" stroke="#B7B7B7"/>
<path d="M438.5 82.5H483.5V127.5H438.5V82.5Z" fill="#0F172A" stroke="#B7B7B7"/>
<path d="M438.5 132.5H483.5V177.5H438.5V132.5Z" fill="#0F172A" stroke="#B7B7B7"/>
<path d="M400.5 182.5H483.5V227.5H400.5V182.5Z" fill="#0F172A" stroke="#B7B7B7"/>
<path d="M86.5 0.5H192.5V80.5H86.5V0.5Z" fill="#0F172A" stroke="#B7B7B7"/>
<path d="M0.5 0.5H81.5V80.5H0.5V0.5Z" fill="#0F172A" stroke="#B7B7B7"/>
<path d="M0.5 85.5H81.5V165.5H0.5V85.5Z" fill="#0F172A" stroke="#B7B7B7"/>
<path d="M0.5 170.5H81.5V227.5H0.5V170.5Z" fill="#0F172A" stroke="#B7B7B7"/>
<path d="M286 92H198V141H286V92Z" stroke="#B7B7B7"/>
<path d="M281.81 145V161M277.619 145V161M273.429 145V161M269.238 145V161M265.048 145V161M260.857 145V161M256.667 145V161M252.476 145V161M248.286 145V161M244.095 145V161M239.905 145V161M235.714 145V161M231.524 145V161M227.333 145V161M223.143 145V161M218.952 145V161M214.762 145V161M210.571 145V161M206.381 145V161M202.19 145V161M198 145H286V161H198V145Z" stroke="#B7B7B7"/>
<path d="M281.81 165V181M277.619 165V181M273.429 165V181M269.238 165V181M265.048 165V181M260.857 165V181M256.667 165V181M252.476 165V181M248.286 165V181M244.095 165V181M239.905 165V181M235.714 165V181M231.524 165V181M227.333 165V181M223.143 165V181M218.952 165V181M214.762 165V181M210.571 165V181M206.381 165V181M202.19 165V181M198 165H286V181H198V165Z" stroke="#B7B7B7"/>
</g>
</g>
<rect x="0.5" y="0.5" width="483" height="227" stroke="#B7B7B7"/>
<defs>
<clipPath id="clip0_2_12">
<rect width="484" height="228" fill="white"/>
</clipPath>
</defs>
</svg>
