<svg width="189" height="64" viewBox="0 0 189 64" fill="none" xmlns="http://www.w3.org/2000/svg">
<path d="M9.96 45V24.52H0.92V17.48H27.8V24.52H18.8V45H9.96ZM31.2672 21.4V16H39.2272V21.4H31.2672ZM31.2672 45V23.88H39.2272V45H31.2672ZM44.0406 45V16H52.0006V45H44.0406ZM63.0541 45.48C61.9607 45.48 60.9607 45.3733 60.0541 45.16C59.1474 44.9733 58.3607 44.6533 57.6941 44.2C57.0274 43.72 56.5074 43.1067 56.1341 42.36C55.7874 41.5867 55.6141 40.6533 55.6141 39.56C55.6141 37.9867 55.9341 36.7067 56.5741 35.72C57.2407 34.7333 58.2007 33.9733 59.4541 33.44C60.7074 32.9067 62.2274 32.5467 64.0141 32.36C65.8274 32.1467 67.8941 32.04 70.2141 32.04V31C70.2141 30.4133 70.0674 29.9467 69.7741 29.6C69.5074 29.2267 69.1474 28.9467 68.6941 28.76C68.2407 28.5733 67.7207 28.48 67.1341 28.48C66.6807 28.48 66.2141 28.5333 65.7341 28.64C65.2541 28.7467 64.8541 28.9333 64.5341 29.2C64.2407 29.4667 64.0941 29.84 64.0941 30.32V30.48H56.2541C56.2274 30.3733 56.2141 30.28 56.2141 30.2C56.2141 30.12 56.2141 30.0267 56.2141 29.92C56.2141 28.6133 56.6274 27.48 57.4541 26.52C58.3074 25.5333 59.5474 24.7733 61.1741 24.24C62.8274 23.68 64.8541 23.4 67.2541 23.4C69.2007 23.4 71.0007 23.6133 72.6541 24.04C74.3074 24.4667 75.6407 25.1867 76.6541 26.2C77.6674 27.1867 78.1741 28.5467 78.1741 30.28V38.52C78.1741 38.9467 78.2807 39.32 78.4941 39.64C78.7074 39.9333 79.0274 40.08 79.4541 40.08H80.8941V44.68C80.5741 44.8667 80.0407 45.04 79.2941 45.2C78.5741 45.3867 77.7207 45.48 76.7341 45.48C75.6674 45.48 74.7341 45.3733 73.9341 45.16C73.1341 44.9467 72.4807 44.64 71.9741 44.24C71.4941 43.84 71.1607 43.3733 70.9741 42.84H70.6941C70.1341 43.3467 69.4807 43.8 68.7341 44.2C68.0141 44.6 67.1874 44.9067 66.2541 45.12C65.3207 45.36 64.2541 45.48 63.0541 45.48ZM66.2941 40.52C66.8007 40.52 67.2807 40.4533 67.7341 40.32C68.2141 40.16 68.6407 39.96 69.0141 39.72C69.3874 39.4533 69.6807 39.1467 69.8941 38.8C70.1074 38.4267 70.2141 38.0267 70.2141 37.6V35.8C68.6407 35.8 67.3607 35.92 66.3741 36.16C65.4141 36.4 64.7074 36.72 64.2541 37.12C63.8007 37.52 63.5741 37.9867 63.5741 38.52C63.5741 39.0533 63.7074 39.4667 63.9741 39.76C64.2407 40.0533 64.5741 40.2533 64.9741 40.36C65.4007 40.4667 65.8407 40.52 66.2941 40.52ZM91.0538 45V24.52H82.0138V17.48H108.894V24.52H99.8938V45H91.0538ZM112.361 21.4V16H120.321V21.4H112.361ZM112.361 45V23.88H120.321V45H112.361ZM125.134 45V15.96H133.094V31.96L139.854 23.88H149.134L141.334 32.4L149.334 45H140.294L135.854 37.76L133.094 40.44V45H125.134ZM151.814 45V15.96H159.774V31.96L166.534 23.88H175.814L168.014 32.4L176.014 45H166.974L162.534 37.76L159.774 40.44V45H151.814ZM178.494 21.4V16H186.454V21.4H178.494ZM178.494 45V23.88H186.454V45H178.494Z" fill="black"/>
</svg>
