<?xml version="1.0" encoding="UTF-8"?>
<svg id="Layer_2" data-name="Layer 2" xmlns="http://www.w3.org/2000/svg" viewBox="0 0 749.05 742.88">
  <defs>
    <style>
      .cls-1 {
<!--        fill: #141111;-->
      fill: #6ea5ff; /* Blue color */
      }

      .cls-1, .cls-2 {
        stroke-width: 0px;
      }

      .cls-2 {
<!--        fill: #161515;-->
      fill: #ff8a5b; /* Orange color */
      }
    </style>
  </defs>
  <polygon class="cls-2" points="236.73 108.38 236.73 113.37 247.04 113.37 247.04 157.26 172.22 157.26 172.22 25.91 263.34 25.91 263.34 108.38 236.73 108.38"/>
  <polygon class="cls-2" points="350.39 108.93 350.39 112.48 359.48 112.48 359.48 157.48 290.98 157.48 290.98 112.48 301.4 112.48 301.4 108.93 267.26 108.93 267.26 26.02 367.68 26.02 367.68 108.93 350.39 108.93"/>
  <polygon class="cls-2" points="473.86 113.03 473.86 156.26 406.35 156.26 406.35 113.03 416.99 113.03 416.99 108.93 370.44 108.93 370.44 26.02 473.75 26.02 473.75 108.93 463.88 108.93 463.88 113.03 473.86 113.03"/>
  <polygon class="cls-1" points="593.33 27.68 593.33 119.33 538.42 119.33 538.42 128.44 481 128.44 481 27.68 593.33 27.68"/>
  <polygon class="cls-1" points="719.94 27.56 719.94 165.57 693 165.57 693 157.59 630.32 157.59 629.87 123.3 597.56 123.33 597.56 27.56 719.94 27.56"/>
  <polygon class="cls-1" points="719.64 172.62 719.64 281.16 686.91 281.16 686.91 281.25 634.14 281.25 634.14 163.98 686.91 163.98 686.91 172.62 719.64 172.62"/>
  <polygon class="cls-1" points="171.42 649.02 171.42 709.28 39.99 709.28 40.09 585.99 111.73 585.99 111.73 649.02 171.42 649.02"/>
  <polygon class="cls-1" points="292.77 648.19 292.77 709.38 175.72 709.38 175.72 648.19 184.36 648.19 184.36 622.48 292.55 622.48 292.55 648.19 292.77 648.19"/>
  <polygon class="cls-1" points="489.91 657.36 489.91 709.49 295.88 709.49 295.88 657.36 351.41 657.36 351.41 649.8 444.36 649.8 444.36 657.36 489.91 657.36"/>
  <rect class="cls-1" x="494.74" y="657.72" width="72.94" height="51.65"/>
  <polygon class="cls-1" points="719.61 619.55 719.61 709.11 632.26 709.11 632.26 708.92 570.45 708.92 570.45 656.16 632.26 656.16 632.26 619.55 719.61 619.55"/>
  <rect class="cls-1" x="631.98" y="552.31" width="87.35" height="65.84"/>
  <rect class="cls-1" x="631.97" y="488.1" width="86.94" height="62.52"/>
  <polygon class="cls-1" points="721.25 283.64 721.25 464.32 668.66 464.32 668.66 437.49 660.76 437.49 660.76 342.61 668.66 342.61 668.66 283.64 721.25 283.64"/>
  <polygon class="cls-1" points="614.94 176.19 614.94 240.81 564.04 240.81 564.04 290.12 496.74 290.12 496.74 240.81 496.62 240.81 496.62 176.19 614.94 176.19"/>
  <polygon class="cls-1" points="627.95 528.32 627.95 649.95 577.24 649.95 577.24 650.08 497.31 650.08 497.31 606.06 551.5 606.06 551.5 549.82 485.34 549.82 485.34 487.27 627.82 487.27 627.82 528.32 627.95 528.32"/>
  <polygon class="cls-1" points="324 507.72 324 551.36 323.95 551.36 323.95 601.17 274.53 601.17 274.53 551.36 222.02 551.36 222.02 602.33 175.89 602.33 175.89 507.72 324 507.72"/>
</svg>