<?xml version="1.0" encoding="UTF-8"?>
<svg id="Layer_2" data-name="Layer 2" xmlns="http://www.w3.org/2000/svg" viewBox="0 0 838.63 840.95">
  <defs>
    <style>
      .cls-1 {
        fill: #afafaf;
        stroke-width: 0px;
      }
    </style>
  </defs>
  <path class="cls-1" d="M24.72,24.72v791.51h791.51V24.72H24.72ZM813.19,813.19H27.76V27.76h785.43v785.43Z"/>
  <path class="cls-1" d="M222.41,314.04v182.05h275.91v-224.72h-.51v-2.02h-32.22v-46.15h-.76v22.9h-12.13v-22.52h-.76v22.52h-12.38v-22.93h25.9v-1.52h-243.05v92.1h-.02v.28s.02,0,.02,0ZM496.79,442.81l-14.87.15v-8.21l14.87-.15v8.21ZM496.79,434.09l-14.87.15v-8.13l14.87-.15v8.13ZM496.79,425.45l-14.87.15v-8.13l14.87-.15v8.13ZM496.79,416.81l-14.87.15v-8.13l14.87-.15v8.13ZM496.79,408.16l-14.87.15v-5.44l14.87-.15v5.44ZM496.79,402.21l-14.87.15v-8.13l14.87-.15v8.13ZM496.79,393.57l-14.87.15v-8.29l14.87-.15v-.51s-14.87.15-14.87.15v-8.13l14.87-.15v16.93ZM496.79,376.12l-14.87.15v-8.22l14.48-.15v-.51s-14.48.15-14.48.15v-8.13l14.63-.15v-.51s-14.63.15-14.63.15v-8.13l14.86-.15v-.51s-14.86.15-14.86.15v-8.3l14.87-.15v34.31ZM496.79,341.3l-14.87.15v-8.13l14.81-.15v-.51s-14.81.15-14.81.15v-8.13l14.87-.15v16.78ZM496.79,324.28l-14.87.15v-8.39l14.87-.15v8.39ZM496.79,315.38l-14.87.15v-8.13l14.87-.15v8.13ZM496.79,306.74l-14.87.15v-8.13l14.87-.15v8.13ZM496.79,298.1l-14.87.15v-8.3l14.87-.15v8.3ZM496.79,289.28l-14.87.15v-8.13l14.87-.15v8.13ZM467.48,271.88h29.32v8.77l-14.87.15v-8.14l13.94-.14v-.51s-13.94.14-13.94.14v-.17h-.41v.17l-14.03.15v-.42ZM467.48,272.8l14.03-.15v8.14l-14.03.14v-8.13ZM467.48,281.45l14.03-.14v8.13l-14.03.14v-8.13ZM467.48,290.09l14.03-.14v8.3l-14.03.14v-8.3ZM467.48,298.9l14.03-.14v8.13l-14.03.14v-8.13ZM467.48,307.54l14.03-.14v8.13l-14.03.14v-8.13ZM467.48,316.18l14.03-.14v8.39l-14.03.14v-8.39ZM467.48,324.83l14.03-.14v8.13l-14.03.14v-8.13ZM467.48,333.47l14.03-.14v8.13l-14.03.14v-8.13ZM467.48,342.11l14.03-.14v8.3l-14.03.14v-8.3ZM467.48,350.92l14.03-.14v8.13l-14.03.14v-8.13ZM467.48,359.56l14.03-.14v8.13l-14.03.14v-8.13ZM467.48,368.2l14.03-.14v8.22l-14.03.14v-8.22ZM467.48,376.93l14.03-.14v8.13l-14.03.14v-8.13ZM467.48,385.57l14.03-.14v8.29l-14.03.14v-8.29ZM467.48,394.37l14.03-.14v8.13l-14.03.14v-8.13ZM467.48,403.02l14.03-.14v5.44l-14.03.14v-5.44ZM467.48,408.97l14.03-.14v8.13l-14.03.14v-8.13ZM467.48,417.61l14.03-.14v8.13l-14.03.14v-8.13ZM467.48,426.25l14.03-.14v8.13l-14.03.14v-8.13ZM467.48,434.89l14.03-.14v8.21l-14.03.14v-8.21ZM467.48,443.62l29.32-.3v51.25h-29.32v-50.95ZM464.95,362.85h-95.27v-11.75h95.27v11.75ZM464.95,350.09h-95.27v-12.38h95.27v12.38ZM464.95,336.7h-95.27v-11.62h95.27v11.62ZM464.95,324.06h-95.27v-12.38h95.27v12.38ZM464.95,310.67h-95.27v-13.01h95.27v13.01ZM464.95,296.64h-95.27v-12.38h95.27v12.38ZM452.69,247.11h12.13v22.24h-12.13v-22.24ZM464.95,271.88v11.37h-95.27v-11.37h95.27ZM374.73,269.35v-22.24h12.38v22.24h-12.38ZM387.87,269.35v-22.24h12.13v22.24h-12.13ZM400.76,269.35v-22.24h12.13v22.24h-12.13ZM413.65,269.35v-22.24h12.26v22.24h-12.26ZM439.55,247.11h12.38v22.24h-12.38v-22.24ZM426.66,223.17h12.13v22.93h-12.13v-22.93ZM426.66,247.11h12.13v22.24h-12.13v-22.24ZM361.84,223.17h64.06v22.93h-12.26v-22.4h-.76v22.4h-12.13v-22.65h-.76v22.65h-12.13v-22.27h-.76v22.27h-12.38v-22.71h-.76v22.71h-12.13v-22.93ZM361.84,247.11h12.13v22.24h-12.13v-22.24ZM336.07,223.17h25.02v22.93h-12.13v-22.59h-.76v22.59h-12.13v-22.93ZM361.08,247.11v22.24h-12.13v-22.24h12.13ZM336.07,247.11h12.13v22.24h-12.13v-22.24ZM323.18,223.17h12.13v22.93h-12.13v-22.93ZM323.18,247.11h12.13v22.24h-12.13v-22.24ZM310.29,223.17h12.13v22.93h-12.13v-22.93ZM310.29,247.11h12.13v22.24h-12.13v-22.24ZM297.15,223.17h12.38v22.93h-12.38v-22.93ZM297.15,247.11h12.38v22.24h-12.38v-22.24ZM284.26,223.17h12.13v22.93h-12.13v-22.93ZM284.26,247.11h12.13v22.24h-12.13v-22.24ZM271.37,223.17h12.13v22.93h-12.13v-22.93ZM271.37,247.11h12.13v22.24h-12.13v-22.24ZM271.24,271.88h97.22v11.37h-97.22v-11.37ZM271.24,284.26h97.22v12.38h-97.22v-12.38ZM271.24,297.65h97.22v13.01h-97.22v-13.01ZM271.24,311.68h97.22v12.38h-97.22v-12.38ZM271.24,325.07h97.22v11.62h-97.22v-11.62ZM271.24,337.71h97.22v12.38h-97.22v-12.38ZM271.24,351.1h97.22v11.75h-97.22v-11.75ZM223.93,223.17h46.69v22.93h-.25v1.01h.25v22.24h-1.26v1.22l-21.02.07v-.09h-.66v.09l-23.74.08v-47.55ZM269.97,325.07v2.84l-21.64.08v-4.53l21.39-.08v-.28s-21.39.08-21.39.08v-4.48l21.62-.08v-.28s-21.62.08-21.62.08v-4.48l21.64-.08v10.2h-.56v1.01h.56ZM248.33,359.91v-4.48l21.64-.08v4.48l-21.64.08ZM269.97,360.11v4.48l-21.64.08v-4.48l21.64-.08ZM248.33,355.15v-4.48l21.64-.08v4.48l-21.64.08ZM248.33,350.39v-4.48l21.64-.08v4.48l-21.64.08ZM248.33,345.63v-3l21.64-.08v3l-21.64.08ZM248.33,342.35v-4.48l21.64-.08v4.48l-21.64.08ZM248.33,337.59v-4.57l21.64-.08v4.57l-21.64.08ZM248.33,332.75v-4.48l21.64-.08v4.48l-21.64.08ZM248.33,313.66v-4.57l21.64-.08v4.57l-21.64.08ZM248.33,308.81v-4.48l21.64-.08v4.48l-21.64.08ZM248.33,304.05v-4.48l21.64-.08v4.48l-21.64.08ZM248.33,299.44v-4.62l21.64-.08v4.62l-21.64.08ZM248.33,294.53v-4.48l21.64-.08v4.48l-21.64.08ZM248.33,289.77v-4.48l21.64-.08v4.48l-21.64.08ZM248.33,285.01v-4.57l21.64-.08v4.57l-21.64.08ZM248.33,280.16v-4.48l21.64-.08v4.48l-21.64.08ZM248.33,275.4v-4.48l21.02-.08v1.03h.62v3.45l-21.64.08ZM223.93,271.01l23.74-.08v4.48l-23.74.08v-4.48ZM223.93,275.77l23.74-.08v4.48l-23.74.08v-4.48ZM223.93,280.53l23.74-.08v4.57l-23.74.08v-4.57ZM223.93,285.38l23.74-.08v4.48l-23.74.08v-4.48ZM223.93,290.14l23.74-.08v4.48l-23.74.08v-4.48ZM223.93,294.9l23.74-.08v4.62l-23.74.08v-4.62ZM223.93,299.66l23.74-.08v4.48l-23.74.08v-4.48ZM223.93,304.42l23.74-.08v4.48l-23.74.08v-4.48ZM223.93,309.18l23.74-.08v4.57l-23.74.08v-4.57ZM223.93,314.03l23.74-.08v4.48l-23.74.08v-4.48ZM223.93,318.79l23.74-.08v4.48l-23.74.08v-4.48ZM223.93,323.55l23.74-.08v4.53l-23.74.08v-4.53ZM223.93,328.35l23.74-.08v4.48l-23.74.08v-4.48ZM223.93,333.11l23.74-.08v4.57l-23.74.08v-4.57ZM223.93,337.96l23.74-.08v4.48l-23.74.08v-4.48ZM223.93,342.72l23.74-.08v3l-23.74.08v-3ZM223.93,346l23.74-.08v4.48l-23.74.08v-4.48ZM223.93,350.76l23.74-.08v4.48l-23.74.08v-4.48ZM223.93,355.52l23.74-.08v4.48l-23.74.08v-4.48ZM223.93,360.28l23.74-.08v4.48l-23.74.08v-4.48ZM223.93,365.04l46.83-.17v-.25s.49,0,.49,0v-.25h193.71v130.2h-241.02v-129.53Z"/>
  <rect class="cls-1" x="325.7" y="124.8" width="2.27" height="19.71"/>
  <path class="cls-1" d="M734.22,456.43v-4.57h0v-5.18s0-4.57,0-4.57v-3.82h0v-4.67s0-3.84,0-3.84h0v-5.24s-15.28,0-15.28,0h-16.29s0,9.75,0,9.75v3.33h0v5.17s0,8.4,0,8.4h0v5.24s15.73,0,15.73,0h15.84ZM719.53,425.68h13.56s0,2.96,0,2.96h-13.56s0-2.96,0-2.96ZM719.52,430.25h13.56s0,2.91,0,2.91h-13.56s0-2.91,0-2.91ZM719.52,434.76h13.56s0,2.39,0,2.39h-13.56s0-2.39,0-2.39ZM719.52,438.76h13.56s0,2.89,0,2.89h-13.56s0-2.89,0-2.89ZM719.52,443.25h13.56s0,2.96,0,2.96h-13.56s0-2.96,0-2.96ZM719.52,447.81h13.56s0,2.91,0,2.91h-13.56s0-2.91,0-2.91ZM719.52,452.33h13.56s0,2.96,0,2.96h-13.56s0-2.96,0-2.96ZM717.8,455.29h-14.01s0-2.96,0-2.96h14.01s0,2.96,0,2.96ZM717.8,450.72h-14.01s0-2.9,0-2.9h14.01s0,2.9,0,2.9ZM717.8,446.2h-14.01s0-2.96,0-2.96h14.01s0,2.96,0,2.96ZM717.8,441.65h-14.01s0-2.9,0-2.9h14.01s0,2.9,0,2.9ZM717.8,437.14h-14.01s0-2.39,0-2.39h14.01s0,2.39,0,2.39ZM717.81,433.15h-14.01s0-2.91,0-2.91h14.01s0,2.91,0,2.91ZM717.81,428.63h-14.01s0-2.96,0-2.96h14.01s0,2.96,0,2.96Z"/>
  <path class="cls-1" d="M70.85,420.15v-3.33s-.01-4.49-.01-4.49v-9.08s-.02-5.24-.02-5.24l-16.23.03h0l-15.22.02v4.57s.01,4.51.01,4.51v4.56s.01,4.5.01,4.5v4.67h0v3.84s.01,5.24.01,5.24l15.22-.02,16.23-.03-.02-9.75h0ZM40.49,399.2l13.51-.02v2.96s-13.51.02-13.51.02v-2.96ZM40.5,403.77l13.51-.02v2.9s-13.51.02-13.51.02v-2.9ZM40.51,408.28l13.51-.02v2.96s-13.51.02-13.51.02v-2.96ZM40.52,412.84l13.51-.02v2.89s-13.51.02-13.51.02v-2.89ZM40.52,417.34l13.51-.02v2.39s-13.51.02-13.51.02v-2.39ZM40.53,421.33l13.51-.02v2.9s-13.51.02-13.51.02v-2.9ZM40.54,428.81v-2.96s13.51-.02,13.51-.02v2.96s-13.51.02-13.51.02ZM55.72,399.17l13.96-.02v2.96s-13.95.02-13.95.02v-2.96ZM55.72,403.74l13.96-.02v2.9s-13.95.02-13.95.02v-2.9ZM55.73,408.25l13.96-.02v2.96s-13.95.02-13.95.02v-2.96ZM55.74,412.81l13.96-.02v2.89s-13.95.02-13.95.02v-2.89ZM55.75,417.31l13.96-.02v2.39s-13.96.02-13.96.02v-2.39ZM55.75,421.31l13.96-.02v2.9s-13.95.02-13.95.02v-2.9ZM55.76,428.78v-2.96s13.95-.02,13.95-.02v2.96s-13.95.02-13.95.02Z"/>
  <path class="cls-1" d="M553.48,682.04h49.7v-48.69h-49.7v48.69ZM555,634.86h46.66v45.65h-46.66v-45.65Z"/>
  <polygon class="cls-1" points="623.32 473.04 628.37 473.04 628.37 472.7 628.54 472.7 628.54 468.83 631.91 468.83 631.91 466.3 628.54 466.3 628.54 466.13 626.18 466.13 626.18 470.68 624.75 470.68 624.75 465.2 623.15 465.2 623.15 472.87 623.32 472.87 623.32 473.04"/>
  <polygon class="cls-1" points="624.83 417.27 626.18 417.27 626.18 420.31 626.27 420.31 628.2 420.31 631.66 420.31 631.66 418.45 628.2 418.45 628.2 417.27 628.2 415.08 628.2 414.91 623.15 414.91 623.15 416.09 623.15 417.27 623.15 436.65 624.83 436.65 624.83 417.27"/>
  <path class="cls-1" d="M628.71,394.57h3.54v-.25h31.98v15.69s0,15.09,0,15.09h.27v37.71h-.11v29.1h-17.47v1.85h-11.62v-3.54h-9.27v6.07h3.03v29.48h2.53v.17h48.52v5.9h2.86v-8.09h-.51v-.34h-.34v-10.95h1.18v-5.73h-.84v-10.28h21.57v10.45h-1.18v5.39h1.05v11.29h-.88v7.92h2.7v-5.05h37.57v5.22h2.7v-15.67h-1.77v-14.49h1.1v-1.85h-19.71v-3.2h10.45v-4.55h-32.88v-14.48s-.12,0-.12,0v-14.61s-.4,0-.4,0v-37.73s-6.58,0-6.58,0v-15.76s0-15.08,0-15.08h-4.88s-4.14,0-4.14,0h-3.51v-2.84h-7.93v-31.34h-8.34v.88h-10.99v-1.14h-26.79v2.15h-.13v29.44h-3.29v6.06h2.65v-2.91ZM704.86,496.46h18.02v11.79h-17.18v-1.35h-.84v-10.45ZM704.52,512.29h1.18v-1.18h17.18v12.63h2.7v-22.23h17.98v14.49h-.29v7.75h-37.57v-.17h-1.18v-11.29ZM660.38,523.41h-28.47v-27.12h3.37v-1.69h11.62v1.85h13.48v26.96ZM681.61,523.41h-18.7v-12.64h18.03v1.69h.67v10.95ZM682.12,506.73h-1.18v2.19h-18.03v-12.47h19.21v10.28ZM667.67,410.47v13.5s-2.31,0-2.31,0v-13.5s2.31,0,2.31,0ZM665.36,408.87v-13.44s2.31,0,2.31,0v13.44s-2.31,0-2.31,0ZM665.5,491.91v-27.96s4.92,0,4.92,0v27.96h-4.92ZM674.65,477.33h-2.32s0-13.38,0-13.38h2.32s0,13.38,0,13.38ZM674.78,478.56v13.35h-2.32v-13.35s2.32,0,2.32,0ZM679.17,477.34h-2.6s0-13.38,0-13.38h2.6s0,13.38,0,13.38ZM679.3,478.56v13.34h-2.61v-13.35s2.61,0,2.61,0ZM684.24,491.91h-3.04v-13.34s3.05,0,3.05,0v13.34ZM681.07,477.34v-13.38s3.05,0,3.05,0v13.38s-3.05,0-3.05,0ZM688.47,491.91h-2.33v-13.34s2.33,0,2.33,0v13.34ZM686.02,477.34v-13.38s2.33,0,2.33,0v13.38s-2.33,0-2.33,0ZM692.98,491.91h-2.6v-13.34s2.61,0,2.61,0v13.34ZM690.25,477.34v-13.38s2.61,0,2.61,0v13.38s-2.61,0-2.61,0ZM697.49,491.91h-2.6v-13.34s2.61,0,2.61,0v13.34ZM694.77,477.34v-13.38s2.61,0,2.61,0v13.38s-2.61,0-2.61,0ZM702.01,491.91h-2.6v-13.34s2.61,0,2.61,0v13.34ZM701.89,477.34h-2.6s0-13.38,0-13.38h2.6s0,13.38,0,13.38ZM692.32,395.39h2.6s0,13.49,0,13.49h-2.6s0-13.49,0-13.49ZM692.31,410.48h2.6s0,13.5,0,13.5h-2.6s0-13.5,0-13.5ZM687.8,395.39h2.6s0,13.49,0,13.49h-2.6s0-13.49,0-13.49ZM687.79,410.47h2.6s0,13.5,0,13.5h-2.6s0-13.5,0-13.5ZM683.28,395.39h2.62s0,13.49,0,13.49h-2.62s0-13.49,0-13.49ZM683.27,410.47h2.62s0,13.5,0,13.5h-2.62s0-13.5,0-13.5ZM679.06,395.43h2.32s0,13.44,0,13.44h-2.32s0-13.44,0-13.44ZM679.06,410.47h2.32s0,13.5,0,13.5h-2.32s0-13.5,0-13.5ZM674.1,395.43h3.04s0,13.44,0,13.44h-3.04s0-13.44,0-13.44ZM674.1,410.47h3.04s0,13.5,0,13.5h-3.04s0-13.5,0-13.5ZM701.5,426.23v35.47s-35.89,0-35.89,0v-35.47s35.89,0,35.89,0ZM672.15,410.47v13.5s-2.56,0-2.56,0v-13.5s2.56,0,2.56,0ZM669.59,408.87v-13.44s2.56,0,2.56,0v13.44s-2.56,0-2.56,0ZM632.25,363.36h24.01v-1.39h10.99v1.01h5.69v28.43h-40.69v-28.05Z"/>
  <path class="cls-1" d="M32.55,806.37h83.23l.09.25v-.25h692.52V35.59H32.55v585.04h-.25v3.03h.25v182.71ZM325.79,792.14h-.59v12.71h-133.52v-71.68h10.45v-28.9h.25v-.75h13.65v1.26h96.11v.59h1.86v-.59h11.2v68.83h.59v18.53ZM562.16,790.45h-.5v14.4h-233.68v-12.71h-1.52v-18.53h1.52v-29.66h5.81v-1.01h13.65v1.52h22.99v-1.52h16.85v.76h-1.18v.76h116.25v-.17h14.83v.17h8.25v.16h1.18v-.16h5.9v-1.18h21.73v.17h7.42v31.09h.5v15.91ZM377.01,704.78v17.32h-13.65v-18.25h9.6v.93h4.05ZM387.28,723.61v18.99h-16.85v-.92h-7.07v-18.07h23.92ZM496.12,734.68v9.02h-107.18v-20.09h3.73v-1.51h-13.39v-17.32h4.04v-.93h9.69v30.83h103.11ZM378.69,679.42v-21.56h14.32v22.41h-11.96v-.85h-2.36ZM436.01,718.32v13h-2.96v-13h2.96ZM433.05,716.61v-14.01h2.96v14.01h-2.96ZM440.52,718.32v13h-2.9v-13h2.9ZM437.62,716.61v-14.01h2.9v14.01h-2.9ZM445.09,718.32v13h-2.96v-13h2.96ZM442.13,716.61v-14.01h2.96v14.01h-2.96ZM449.58,718.32v13h-2.89v-13h2.89ZM446.69,716.61v-14.01h2.89v14.01h-2.89ZM453.58,718.32v13h-2.39v-13h2.39ZM451.19,716.61v-14.01h2.39v14.01h-2.39ZM458.09,718.32v13h-2.9v-13h2.9ZM455.19,716.61v-14.01h2.9v14.01h-2.9ZM462.66,718.32v13h-2.96v-13h2.96ZM459.7,716.61v-14.01h2.96v14.01h-2.96ZM510.27,704.53v17.35h-12.97v-18.03h1.85v-.5h9.1v1.18h2.02ZM525.43,723.57v18.19h-8.25v2.19h-14.83v-.25h-5.05v-20.13h28.13ZM525.43,704.53v17.35h-12.46v-17.35h1.01v-1.18h9.77v1.18h1.68ZM693.07,767.71h-.17v37.14h-129.38v-14.4h-.85v-15.91h.85v-69.68h.33v-.67h114.9v-.34h13.64v.85h9.61v61.66h-8.93v1.35ZM806.87,804.85h-111.95v-35.8h7.08v.17h3.03v-66.71h.02v-.34h-.02v-.17h-.51v-62.5h56.44v-8.26h36.06v8.26h.34v.16h9.51v165.19ZM806.87,636.8h-6.82v-11.29h6.82v11.29ZM806.87,622.65h-6.82v-.17h-3.03v5.9h-36.06v-.17h-1.68v8.76h-53.07v-11.12h-.81v-13.12h1.18v-3.71h-.03v-47.19h68.06v-1.18h.34v-5.06h2.53v-.67h13.98v.51h15.41v67.22ZM704.86,609.02v-47.19h.68v47.19h-.68ZM806.87,324.11h-15.58v.59h-13.39v-.51h-32.06v-.25h-2.78v.25h-37.19v-108.92h.2v-2.36h-1.18v-12.13h1.66v-9.27h60.99v8.93h39.33v123.67ZM736.49,386.11v-1.39h-10.48v-22.62h16.67v9.22h1.9v13.02h-1.52v6.06h-6.44v-4.29h-.13ZM705.54,215.27v108.92h-1.02v-108.92h1.02ZM806.87,197.41h-7.66v-6.06h7.66v6.06ZM665.35,37.11h141.52v89.04h-.05v.5h.05v61.83h-10.53v1.35h-.16v7.58h-25.61v-7.58h-.34v-1.52h-63.68v-.16h-2.36v-57.08l-.04-4.89-38.8-.03V37.11ZM663.33,37.11v106.77h-36.14v.88h-12.13v-1.01h-18.95v3.54h8.34v6.57h-61.66V37.12s120.54,0,120.54,0ZM534.19,180.4v-24.52h70.26v25.02h-24.51v1.33h-11.12v-1.83h-34.63ZM535.71,186.21v-3.03h17.69v3.03h-17.69ZM551.13,209.21h.92v148.47h-.92v-148.47ZM181.91,37.11h182.21v149.86h-10.11v1.26h-17.94v-1.26h-16.43v-25.28h-1.26v-11.87h.75v-3.04h8.6v-2.02h-20.73v-9.39h.32v-10.7h-3.66v8.72h-31.66v-8.3h-3.66v10.7h.5v.13h8.09v51.33h-85.92v-71.8h-1.18v-17.25h1.56v-3.73h-9.48v-57.36ZM317.62,173.07v13.9h-15.42v1.26h-23.08v-.98h-.17v-51.33h25.78v11.37h2.27v-.51h10.36v3.04h.51v11.87h-.25v9.1h-38.16v2.28h38.16ZM34.07,37.11h145.82v61.09h9.1v89.05h-20.31v.73h-12.55v-.51h-6.82v-50.54h39.17v-3.03h-39.17v-6.32h.25v-3.54h-12.38v.76h-11.88v-.76h-13.9v2.53h9.1v35.63h-.25v.51h-7.75v1.34h7.75v.68h13.14v22.99h-21.23v2.03h25.02v-1.1h10.36v.59h8.59v-.59h12.55v.93h20.31v.17h-.26v10.36h.76v17.94h-.76v5.31h-27.04v3.65h-26.07v.39h-.21v-7.41h.34v-2.02h-6.07v.33h-16.85v-.33H48.48v-.17h-14.41V37.11ZM147.54,136.93v25.27h-24.77v-35.63h2.53v-.42h11.88v1.43h10.36v6.32h-.51v3.03h.51ZM134.9,187.72v-22.99h12.64v23.25h-10.36v-.26h-2.28ZM135.07,311.64v-11.46h44.14v20.89h-43.46v-9.43h-.68ZM34.07,223.19h14.41v-3.2h58.96v13.14h1.19v14.49h-1.19v19.54h-44.48v.84h-13.81v-.5h-15.08v-44.31ZM34.07,268.85h15.08v-.51h13.81v.51h44.48v6.06h1.19v14.49h-1.19v18.53h-44.14v1.52h-10.78v-.51h-18.45v-40.09ZM34.07,310.96h18.45v-1.01h10.78v1.69h44.65v12.13h-.17v6.74h.01v.34h5.72v-1.69h-4.05v-5.39h-1.01v-12.13h.68v-17.52h.17v-19.21h.16v-27.29h-.16v-14.49h.66v-13.14h2.87v-1.01h16.85v1.01h4.04v7.41h-.33v15.5h1.18v12.47h-1.52v7.75h1.52v14.82h-.85v22.24h.68v11.46h-1.35v17.86h-18.7v.84h18.7v.17h2.7v-7.75h43.46v8.09h2.63v-.34h6.3v8.93h3.54v-10.45h-1.01v-.5h-8.83v-31.97h9.55v-1.14h-9.55v-.34h-2.63v2.78h-42.79v-19.88h-1.01v-14.82h.34v-7.75h-.34v-12.47h1.68v-14.36h27.09v-.13h.54v-2.69h24.94v-.21h1.09v69.62h.51v-69.62h.51v-7.46h-1.44v-17.94h.93v-10.36h-.25v-.17h88.11v-.59h23.08v1.26h33.87v-1.26h17.94v1.01h17.94v-1.01h.25v-5.81h-3.03v3.79h-3.28V37.11h172.1s0,.25,0,.25v116.5h-3.04v-5.81h-2.69v6.06h-.09v28.81h.51v.26h.76v3.03h-.51v3.54h18.07v17.31h-1.01v2.15h.63v148.47h-.25v1.64h.63v14.15h-.38v36.14h-4.04v2.78h10.61v-2.78h-5.31v-36.14h-.37v-14.15h1.13v-1.64h-.08v-148.47h.21v-2.15h-1.01v-17.31h4.13v-3.54h-.21v-3.03h13.14v-.57h11.12v.57h24.48v2.94h-.05v3.12h8.08v-3.12h-5.76v-2.69h.03v-36.14h8.34v-1.77h12.13v1.45h26.79v38.69h-5.09v3.29h5.22v.04h10.86v-2.28h-8.21v-39.74h8.85v-3.09h-.26v-17.23h38.33v61.5h-.67v12.63h1.55v12.13h-1.86v2.36h1.49v108.92h-.17v8.21h2.65v-6.27h36.39v6.27h1.27v13.9h-.13v7.46h-1.52v5.94h-36.51v-6.07h-2.53v6.07h-.88v2.4h.88v10.99h-1.14v7.08h1.52v10.36h-.51v1.51h22.87v-1.51h-.37v-2.02h8.08v1.89h-1.64v2.78h13.77v-8.84h-1.01v-13.02h1.14v-17.56h-.76v-7.46h-.88v-13.9h1.13v-6.27h32.06v-.68h13.39v1.01h15.58v227.11h-15.41v.84h-13.98v-1.18h-2.53v-.16h-2.02v6.23h-27.8v-6.91h-2.87v6.91h-36.05v-6.23h-2.53v8.76h.17v47.19h-.14v3.71h1.02v13.12h-.88v76.15h-11.46v1.01h-13.64v-1.01h-124v2.86h6.91v36.56h-7.42v1.18h-21.73v-.84h-5.9v-18.19h.17v-1.69h-.17v-17.35h6.07v-2.19h-8.93v.84h-9.77v-.67h-5.73v.67h-9.1v-1.01h-1.85v-.17h-3.54v29.32h-29.96v-29.86h-31.89v29.86h-35.53v-29.48h29.13v-.4h37.73v-6.59h30.84v-13.92h-.05v-17.91h-30.81v.26h-37.71v-.1h-29.13v-33.62h-.17v-1.18h-.17v-1.86h3.37v-.84h16.18v1.18h4.38v3.71h2.69v-4.89h44.82v4.72h3.03v-3.2h3.03v-1.52h18.7v7.41h2.87v-.17h.17v11.97h-1.18v37.06h3.37v-1.34h11.12v1h5.56v-1h9.94v1.34h8.42v-2.69h-5.39v-51.05h-.34v-.51h-31.67v-5.89h-2.87v3.2h-18.7v-.51h-5.39v.17h-.67v.34h-44.82v-1.01h-7.07v1.01h-16.18v-.34h-5.56v1.85h.17v1.86h-4.38v2.52h3.37v24.01h-29.48v-2.44h-1.01v-10.45h1.34v-11.79h14.83v-2.7h-16.85v14.49h.17v10.45h-.34v28.98h1.86v-.68h11.62v1.01h5.9v-1.34h11.96v22.74h-9.69v-.67h-10.36v.67h-9.6v-1.94h-1.77v.25h-6.57v3.04h6.57v37.15h-14.15v.92h-13.65v-1.43h-5.81v-36.39h6.32v-2.53h-118.27v.59h-13.65v-.08h-45.49v.08h-13.65v-21.31h-1.43v-13.14h.68v-6.32h39.61v.06h2.59v-10.1h-1.13v-11.95h.62v-7.63h.05v-9.3h6.95v-2.36h-1.06v-14.56h-.19v-56.03h.4v56.48h1.01v-56.69h18.2v.89h46.67v15.33h-.34v2.86h39.26v-17.86h17.69v-.84h18.36v.51h81.03v.15h.68v3.72h.42v11.46h-.52v1.49h8.36v16.87h-7.58v2.7h10.95v-.68h9.94v.51h5.39v-.51h11.45v1.12h3.02v-.61h14.34v16.68h2.02v-16.68h7.24v-2.36h-.43v-2.27h-.75v-16.68h.75v-14.75h75.11v-2.08h-.21v-45.09h-1.14v-18.95h1.65v-9.86h9.35v.15h1.8v-.15h23.05v.11h1.78v-9.21h-.73v-13.14h.38v-2.15h-.38v-10.74h1.39v-7.58h-1.14v-11.62h.12v-11.63h-.51v-.08h-18.18v1.64h.25v24.98h-36.64v-26.54h-4.3v43.22h4.3v-14.91h28.81v36.39h-28.9v-6.57h-3.03v7.83h19.54v9.86h.76v18.95h-.5v45.09h-72.63v-18.81h-.24v-.16h-8.42v.84h-15.17v-1.35h-37.9v-.17h-2.87v7.58h.46v10.28h-.46v1.85h-81.71v.34h-18.36v-1.35h-10.62v-14.66h.34v-3.36h-8.76v.67h-34.37v-.84h-10.11v2.02h-.34v16.68h-39.42v.46h-18.7v-17.98h-.17v-.85h-.29v-17.39h.43v-49.83h.53v-3.03h-.71v-29.48h1.22v-16.85h-.17v-23.42h-4.21v23.42h-46v-51.22h45.66v16.51h4.72v-19.04h-.17v-1.51h-54.75v4.04h2.35v51.22h-.5v3.2h.5v43.47h-2.35v.63h-18.71v-1.31h-9.01l-.03-15.21-.02-15.09h-.27l-.06-37.71h.11l-.05-29.54h9.67v-3.53H34.07v-47.52ZM705.79,376v-2.91h-1.14v-10.99h17.82v13.9h-16.68ZM722.47,378.52v12.01h-17.69v-10.36h1.01v-1.65h16.68ZM410.99,696.19v-2.61h13.38v2.61h-13.38ZM424.37,698.1v2.6h-13.38v-2.6h13.38ZM410.99,691.67v-2.61h13.38v2.61h-13.38ZM410.99,687.16v-2.33h13.38v2.33h-13.38ZM410.99,682.93v-3.04h13.38v3.04h-13.38ZM410.99,677.98v-2.6h13.38v2.6h-13.38ZM410.99,673.46v-2.31h13.38v2.31h-13.38ZM396.38,669.23v-4.91h27.99v4.91h-27.99ZM409.29,671.15v2.31h-12.91v-2.31h12.91ZM409.29,675.38v2.6h-12.91v-2.6h12.91ZM409.29,679.89v3.04h-12.91v-3.04h12.91ZM409.29,684.83v2.33h-12.91v-2.33h12.91ZM409.29,689.06v2.61h-12.91v-2.61h12.91ZM409.29,693.58v2.61h-12.91v-2.61h12.91ZM409.29,698.1v2.6h-12.91v-2.6h12.91ZM426.63,700.3v-35.88h35.47v35.88h-35.47ZM477.85,668.39v2.56h-13.49v-2.56h13.49ZM464.36,666.46v-2.3h13.49v2.3h-13.49ZM477.85,672.89v3.05h-13.49v-3.05h13.49ZM477.85,677.85v2.32h-13.49v-2.32h13.49ZM477.85,682.07v2.62h-13.49v-2.62h13.49ZM477.85,686.59v2.6h-13.49v-2.6h13.49ZM477.85,691.11v2.6h-13.49v-2.6h13.49ZM492.89,668.39v2.56h-13.44v-2.56h13.44ZM479.45,666.46v-2.3h13.44v2.3h-13.44ZM492.89,672.89v3.05h-13.44v-3.05h13.44ZM492.89,677.85v2.32h-13.44v-2.32h13.44ZM492.94,682.07v2.62h-13.49v-2.62h13.49ZM492.94,686.59v2.6h-13.49v-2.6h13.49ZM492.94,691.11v2.6h-13.49v-2.6h13.49ZM512.12,679.09v-22.24h13.31v22.41h-1.34v.84h-9.94v-1.01h-2.03ZM497.47,654.99v-10.1h-1.52v-11.97h1.18v-2.69h28.3v24.76h-27.96ZM510.44,656.85v22.24h-1.85v1.01h-11.12v-23.25h12.97ZM377.34,657.86v21.56h-2.19v.85h-11.62v-22.41h13.81ZM182.92,640.08v11.95h-.82v7.77h-29v-27.38h28.05v7.66h1.77ZM190.38,430.42v29.48h-8.03v-43.13h7.65v13.65h.38ZM299,533.35v14.66h-6.4v3.2h.17v15h-34.37v-17.69h-6.07v-15.17h7.08v-2.19h34.37v2.19h5.22ZM414.37,547.17v-10.28h1.39v-4.21h19.71v16.86h-20.22v-2.37h-.88ZM415.25,554.75v-3.72h20.22v15.18h-21.15v-11.46h.93ZM422.83,584.57v-16.87h12.64v16.87h-1.01v1.66h-9.94v-1.66h-1.69ZM475.06,533.35v15.61h-.04v2.08h.04v9.78h-20.74v-.17h-3.02v5.39h-14.82v-33.36h17.18v-.67h15.17v1.34h6.23ZM476.24,565.79v16.68h-1.18v2.27h-20.74v-20.89h20.74v1.94h1.18ZM451.3,567.89v18.34h-11.45v-1.66h-3.37v-16.68h14.82ZM586.51,418.96v1.77h1.51v11.62h-.76v3.29h-15.74v-16.68h14.99ZM571.52,417.19v-6.53h14.99v6.53h-14.99ZM587.26,437.41v2.52h.38v10.74h-23.59v-13.26h23.21ZM587.64,452.82v13.14h-23.59v-13.14h23.59ZM587.1,467.48v6.32h-23.05v-6.32h23.05ZM181.84,416.77v43.13h-3.62v-43.13h3.62ZM103.83,445.5l.03,13.44h-2.55l-.03-13.44h2.55ZM101.26,430.41h2.55l.02,13.49h-2.55l-.02-13.49ZM72.01,428.2l-.06-35.47,35.75-.06.06,35.47-35.75.06ZM99.34,445.51l.02,13.44h-3.03l-.02-13.44h3.03ZM96.29,430.42h3.03s.02,13.49.02,13.49h-3.03l-.02-13.49ZM94.4,445.51l.02,13.44h-2.3s-.02-13.43-.02-13.43h2.3ZM92.09,443.92l-.02-13.5h2.31l.02,13.5h-2.31ZM90.2,445.52l.02,13.49h-2.6l-.03-13.48h2.61ZM87.57,430.43h2.61l.02,13.49h-2.61s-.02-13.49-.02-13.49ZM85.7,445.53l.02,13.48h-2.59s-.03-13.48-.03-13.48h2.6ZM83.08,430.44h2.59s.03,13.49.03,13.49h-2.6l-.02-13.49ZM81.2,445.54l.02,13.48h-2.6s-.02-13.48-.02-13.48h2.6ZM78.58,430.45h2.59s.02,13.49.02,13.49h-2.59l-.02-13.49ZM74.12,377.5l.02,12.97h-2.59l-.02-12.97h2.59ZM71.52,362.98h2.59s.02,12.96.02,12.96h-2.59s-.02-12.96-.02-12.96ZM76.04,375.94l-.02-12.97h2.59l.02,12.97h-2.59ZM78.64,390.46h-2.59l-.02-12.96h2.59s.02,12.96.02,12.96ZM80.54,375.93l-.02-12.97h2.6l.02,12.97h-2.6ZM83.15,390.45h-2.6s-.02-12.96-.02-12.96h2.59s.03,12.96.03,12.96ZM85.03,375.93l-.02-12.97h2.32s.02,12.96.02,12.96h-2.32ZM87.36,390.45h-2.32l-.02-12.97h2.32l.02,12.97ZM92.27,377.47l.02,12.97h-3.03l-.03-12.97h3.04ZM89.23,362.95h3.03l.02,12.97h-3.03l-.02-12.97ZM94.17,375.91l-.02-12.97h2.6l.02,12.97h-2.6ZM96.78,390.43h-2.6s-.02-12.96-.02-12.96h2.6s.02,12.96.02,12.96ZM98.68,375.9l-.02-12.96h2.3s.02,12.96.02,12.96h-2.3ZM100.99,390.42h-2.3s-.02-12.96-.02-12.96h2.3l.02,12.96ZM102.86,362.32h4.89l.05,28.09h-4.9s-.04-28.09-.04-28.09ZM108.02,430.4l.03,13.49h-2.3s-.02-13.49-.02-13.49h2.29ZM108.05,445.49l.02,13.44h-2.3s-.02-13.43-.02-13.43h2.3ZM34.07,362.01h36.31l.02,13.94h-.01l.02,15.66h.41l.06,37.73h6.56s.02,15.06.02,15.06l.03,15.16h-43.42v-97.55ZM34.07,463.1h79.27v3.95h2.36v-3.95h2.52v-1.05h18.71v.71h10.1v-2.52h-5.56v-43.47h36.24v43.13h-8.61v3.03h19.43v49.83h.75v-49.83h.78v49.83h.06v17.39h-21.86v1.01h-14.49v-.33h-37.4v-3.13h-2.53v3.13H34.07v-67.73ZM34.07,533.19h119.7v-1.14h14.49v.46h20.73v16.79h-.07v57.49h.82v14h-8.55v8.6h-38.7v-8.76h-3.04v1.13h-12.13v-1.13H34.07v-87.44ZM34.07,623.66h93.25v-.76h12.13v9.52h10.87v27.38h-9.6v8.59h.42v13.14h-.42v21.31h-14.16v-.59H34.07v-78.59ZM34.07,704.53h81.12v2.69h.68v-2.69h10.69v-1.01h14.16v1.01h2.52v-1.01h13.65v.75h42.54v26.54h-10.11v74.04h-73.45v-2.39h-.68v2.14l.09.25H34.07v-100.32Z"/>
</svg>