<?xml version="1.0" encoding="UTF-8"?>
<svg id="Layer_1" data-name="Layer 1" xmlns="http://www.w3.org/2000/svg" viewBox="0 0 1080 1080">
  <defs>
    <style>
      .cls-1 {
        fill: #afafaf;
        stroke-width: 0px;
      }
    </style>
  </defs>
  <path class="cls-1" d="M144,144.42v791.51h791.51V144.42H144ZM932.47,932.89H147.04V147.46h785.43v785.43Z"/>
  <path class="cls-1" d="M341.69,433.73v182.05h275.91v-224.72h-.51v-2.02h-32.22v-46.15h-.76v22.9h-12.13v-22.52h-.76v22.52h-12.38v-22.93h25.9v-1.52h-243.05v92.1h-.02v.28s.02,0,.02,0ZM616.08,562.51l-14.87.15v-8.21l14.87-.15v8.21ZM616.08,553.78l-14.87.15v-8.13l14.87-.15v8.13ZM616.08,545.14l-14.87.15v-8.13l14.87-.15v8.13ZM616.08,536.5l-14.87.15v-8.13l14.87-.15v8.13ZM616.08,527.86l-14.87.15v-5.44l14.87-.15v5.44ZM616.08,521.91l-14.87.15v-8.13l14.87-.15v8.13ZM616.08,513.26l-14.87.15v-8.29l14.87-.15v-.51s-14.87.15-14.87.15v-8.13l14.87-.15v16.93ZM616.08,495.82l-14.87.15v-8.22l14.48-.15v-.51s-14.48.15-14.48.15v-8.13l14.63-.15v-.51s-14.63.15-14.63.15v-8.13l14.86-.15v-.51s-14.86.15-14.86.15v-8.3l14.87-.15v34.31ZM616.08,461l-14.87.15v-8.13l14.81-.15v-.51s-14.81.15-14.81.15v-8.13l14.87-.15v16.78ZM616.08,443.98l-14.87.15v-8.39l14.87-.15v8.39ZM616.08,435.08l-14.87.15v-8.13l14.87-.15v8.13ZM616.08,426.43l-14.87.15v-8.13l14.87-.15v8.13ZM616.08,417.79l-14.87.15v-8.3l14.87-.15v8.3ZM616.08,408.98l-14.87.15v-8.13l14.87-.15v8.13ZM586.76,391.57h29.32v8.77l-14.87.15v-8.14l13.94-.14v-.51s-13.94.14-13.94.14v-.17h-.41v.17l-14.03.15v-.42ZM586.76,392.5l14.03-.15v8.14l-14.03.14v-8.13ZM586.76,401.14l14.03-.14v8.13l-14.03.14v-8.13ZM586.76,409.79l14.03-.14v8.3l-14.03.14v-8.3ZM586.76,418.6l14.03-.14v8.13l-14.03.14v-8.13ZM586.76,427.24l14.03-.14v8.13l-14.03.14v-8.13ZM586.76,435.88l14.03-.14v8.39l-14.03.14v-8.39ZM586.76,444.52l14.03-.14v8.13l-14.03.14v-8.13ZM586.76,453.16l14.03-.14v8.13l-14.03.14v-8.13ZM586.76,461.81l14.03-.14v8.3l-14.03.14v-8.3ZM586.76,470.62l14.03-.14v8.13l-14.03.14v-8.13ZM586.76,479.26l14.03-.14v8.13l-14.03.14v-8.13ZM586.76,487.9l14.03-.14v8.22l-14.03.14v-8.22ZM586.76,496.63l14.03-.14v8.13l-14.03.14v-8.13ZM586.76,505.27l14.03-.14v8.29l-14.03.14v-8.29ZM586.76,514.07l14.03-.14v8.13l-14.03.14v-8.13ZM586.76,522.71l14.03-.14v5.44l-14.03.14v-5.44ZM586.76,528.66l14.03-.14v8.13l-14.03.14v-8.13ZM586.76,537.31l14.03-.14v8.13l-14.03.14v-8.13ZM586.76,545.95l14.03-.14v8.13l-14.03.14v-8.13ZM586.76,554.59l14.03-.14v8.21l-14.03.14v-8.21ZM586.76,563.31l29.32-.3v51.25h-29.32v-50.95ZM584.23,482.55h-95.27v-11.75h95.27v11.75ZM584.23,469.79h-95.27v-12.38h95.27v12.38ZM584.23,456.4h-95.27v-11.62h95.27v11.62ZM584.23,443.76h-95.27v-12.38h95.27v12.38ZM584.23,430.37h-95.27v-13.01h95.27v13.01ZM584.23,416.34h-95.27v-12.38h95.27v12.38ZM571.98,366.81h12.13v22.24h-12.13v-22.24ZM584.23,391.57v11.37h-95.27v-11.37h95.27ZM494.01,389.05v-22.24h12.38v22.24h-12.38ZM507.15,389.05v-22.24h12.13v22.24h-12.13ZM520.04,389.05v-22.24h12.13v22.24h-12.13ZM532.93,389.05v-22.24h12.26v22.24h-12.26ZM558.83,366.81h12.38v22.24h-12.38v-22.24ZM545.95,342.87h12.13v22.93h-12.13v-22.93ZM545.95,366.81h12.13v22.24h-12.13v-22.24ZM481.12,342.87h64.06v22.93h-12.26v-22.4h-.76v22.4h-12.13v-22.65h-.76v22.65h-12.13v-22.27h-.76v22.27h-12.38v-22.71h-.76v22.71h-12.13v-22.93ZM481.12,366.81h12.13v22.24h-12.13v-22.24ZM455.35,342.87h25.02v22.93h-12.13v-22.59h-.76v22.59h-12.13v-22.93ZM480.37,366.81v22.24h-12.13v-22.24h12.13ZM455.35,366.81h12.13v22.24h-12.13v-22.24ZM442.46,342.87h12.13v22.93h-12.13v-22.93ZM442.46,366.81h12.13v22.24h-12.13v-22.24ZM429.57,342.87h12.13v22.93h-12.13v-22.93ZM429.57,366.81h12.13v22.24h-12.13v-22.24ZM416.43,342.87h12.38v22.93h-12.38v-22.93ZM416.43,366.81h12.38v22.24h-12.38v-22.24ZM403.54,342.87h12.13v22.93h-12.13v-22.93ZM403.54,366.81h12.13v22.24h-12.13v-22.24ZM390.65,342.87h12.13v22.93h-12.13v-22.93ZM390.65,366.81h12.13v22.24h-12.13v-22.24ZM390.53,391.57h97.22v11.37h-97.22v-11.37ZM390.53,403.96h97.22v12.38h-97.22v-12.38ZM390.53,417.35h97.22v13.01h-97.22v-13.01ZM390.53,431.38h97.22v12.38h-97.22v-12.38ZM390.53,444.77h97.22v11.62h-97.22v-11.62ZM390.53,457.41h97.22v12.38h-97.22v-12.38ZM390.53,470.8h97.22v11.75h-97.22v-11.75ZM343.21,342.87h46.69v22.93h-.25v1.01h.25v22.24h-1.26v1.22l-21.02.07v-.09h-.66v.09l-23.74.08v-47.55ZM389.25,444.77v2.84l-21.64.08v-4.53l21.39-.08v-.28s-21.39.08-21.39.08v-4.48l21.62-.08v-.28s-21.62.08-21.62.08v-4.48l21.64-.08v10.2h-.56v1.01h.56ZM367.61,479.61v-4.48l21.64-.08v4.48l-21.64.08ZM389.25,479.81v4.48l-21.64.08v-4.48l21.64-.08ZM367.61,474.85v-4.48l21.64-.08v4.48l-21.64.08ZM367.61,470.09v-4.48l21.64-.08v4.48l-21.64.08ZM367.61,465.33v-3l21.64-.08v3l-21.64.08ZM367.61,462.05v-4.48l21.64-.08v4.48l-21.64.08ZM367.61,457.29v-4.57l21.64-.08v4.57l-21.64.08ZM367.61,452.44v-4.48l21.64-.08v4.48l-21.64.08ZM367.61,433.36v-4.57l21.64-.08v4.57l-21.64.08ZM367.61,428.51v-4.48l21.64-.08v4.48l-21.64.08ZM367.61,423.75v-4.48l21.64-.08v4.48l-21.64.08ZM367.61,419.13v-4.62l21.64-.08v4.62l-21.64.08ZM367.61,414.23v-4.48l21.64-.08v4.48l-21.64.08ZM367.61,409.47v-4.48l21.64-.08v4.48l-21.64.08ZM367.61,404.71v-4.57l21.64-.08v4.57l-21.64.08ZM367.61,399.86v-4.48l21.64-.08v4.48l-21.64.08ZM367.61,395.1v-4.48l21.02-.08v1.03h.62v3.45l-21.64.08ZM343.21,390.71l23.74-.08v4.48l-23.74.08v-4.48ZM343.21,395.46l23.74-.08v4.48l-23.74.08v-4.48ZM343.21,400.22l23.74-.08v4.57l-23.74.08v-4.57ZM343.21,405.08l23.74-.08v4.48l-23.74.08v-4.48ZM343.21,409.84l23.74-.08v4.48l-23.74.08v-4.48ZM343.21,414.6l23.74-.08v4.62l-23.74.08v-4.62ZM343.21,419.36l23.74-.08v4.48l-23.74.08v-4.48ZM343.21,424.11l23.74-.08v4.48l-23.74.08v-4.48ZM343.21,428.87l23.74-.08v4.57l-23.74.08v-4.57ZM343.21,433.73l23.74-.08v4.48l-23.74.08v-4.48ZM343.21,438.49l23.74-.08v4.48l-23.74.08v-4.48ZM343.21,443.25l23.74-.08v4.53l-23.74.08v-4.53ZM343.21,448.05l23.74-.08v4.48l-23.74.08v-4.48ZM343.21,452.81l23.74-.08v4.57l-23.74.08v-4.57ZM343.21,457.66l23.74-.08v4.48l-23.74.08v-4.48ZM343.21,462.42l23.74-.08v3l-23.74.08v-3ZM343.21,465.7l23.74-.08v4.48l-23.74.08v-4.48ZM343.21,470.46l23.74-.08v4.48l-23.74.08v-4.48ZM343.21,475.22l23.74-.08v4.48l-23.74.08v-4.48ZM343.21,479.97l23.74-.08v4.48l-23.74.08v-4.48ZM343.21,484.73l46.83-.17v-.25s.49,0,.49,0v-.25h193.71v130.2h-241.02v-129.53Z"/>
  <rect class="cls-1" x="444.99" y="244.49" width="2.27" height="19.71"/>
  <path class="cls-1" d="M853.5,576.13v-4.57h0v-5.18s0-4.57,0-4.57v-3.82h0v-4.67s0-3.84,0-3.84h0v-5.24s-15.28,0-15.28,0h-16.29s0,9.75,0,9.75v3.33h0v5.17s0,8.4,0,8.4h0v5.24s15.73,0,15.73,0h15.84ZM838.81,545.37h13.56s0,2.96,0,2.96h-13.56s0-2.96,0-2.96ZM838.81,549.94h13.56s0,2.91,0,2.91h-13.56s0-2.91,0-2.91ZM838.81,554.45h13.56s0,2.39,0,2.39h-13.56s0-2.39,0-2.39ZM838.8,558.45h13.56s0,2.89,0,2.89h-13.56s0-2.89,0-2.89ZM838.8,562.94h13.56s0,2.96,0,2.96h-13.56s0-2.96,0-2.96ZM838.8,567.51h13.56s0,2.91,0,2.91h-13.56s0-2.91,0-2.91ZM838.8,572.02h13.56s0,2.96,0,2.96h-13.56s0-2.96,0-2.96ZM837.08,574.98h-14.01s0-2.96,0-2.96h14.01s0,2.96,0,2.96ZM837.08,570.41h-14.01s0-2.9,0-2.9h14.01s0,2.9,0,2.9ZM837.08,565.9h-14.01s0-2.96,0-2.96h14.01s0,2.96,0,2.96ZM837.09,561.34h-14.01s0-2.9,0-2.9h14.01s0,2.9,0,2.9ZM837.09,556.84h-14.01s0-2.39,0-2.39h14.01s0,2.39,0,2.39ZM837.09,552.84h-14.01s0-2.91,0-2.91h14.01s0,2.91,0,2.91ZM837.09,548.33h-14.01s0-2.96,0-2.96h14.01s0,2.96,0,2.96Z"/>
  <path class="cls-1" d="M190.13,539.84v-3.33s-.01-4.49-.01-4.49v-9.08s-.02-5.24-.02-5.24l-16.23.03h0l-15.22.02v4.57s.01,4.51.01,4.51v4.56s.01,4.5.01,4.5v4.67h0v3.84s.01,5.24.01,5.24l15.22-.02,16.23-.03-.02-9.75h0ZM159.78,518.89l13.51-.02v2.96s-13.51.02-13.51.02v-2.96ZM159.78,523.46l13.51-.02v2.9s-13.51.02-13.51.02v-2.9ZM159.79,527.97l13.51-.02v2.96s-13.51.02-13.51.02v-2.96ZM159.8,532.53l13.51-.02v2.89s-13.51.02-13.51.02v-2.89ZM159.81,537.03l13.51-.02v2.39s-13.51.02-13.51.02v-2.39ZM159.81,541.03l13.51-.02v2.9s-13.51.02-13.51.02v-2.9ZM159.82,548.5v-2.96s13.51-.02,13.51-.02v2.96s-13.51.02-13.51.02ZM175,518.87l13.96-.02v2.96s-13.95.02-13.95.02v-2.96ZM175.01,523.44l13.96-.02v2.9s-13.95.02-13.95.02v-2.9ZM175.01,527.95l13.96-.02v2.96s-13.95.02-13.95.02v-2.96ZM175.02,532.51l13.96-.02v2.89s-13.95.02-13.95.02v-2.89ZM175.03,537.01l13.96-.02v2.39s-13.96.02-13.96.02v-2.39ZM175.03,541.01l13.96-.02v2.9s-13.95.02-13.95.02v-2.9ZM175.05,548.48v-2.96s13.95-.02,13.95-.02v2.96s-13.95.02-13.95.02Z"/>
  <path class="cls-1" d="M672.77,801.73h49.7v-48.69h-49.7v48.69ZM674.29,754.56h46.66v45.65h-46.66v-45.65Z"/>
  <polygon class="cls-1" points="742.6 592.74 747.65 592.74 747.65 592.4 747.82 592.4 747.82 588.52 751.19 588.52 751.19 586 747.82 586 747.82 585.83 745.46 585.83 745.46 590.38 744.03 590.38 744.03 584.9 742.43 584.9 742.43 592.57 742.6 592.57 742.6 592.74"/>
  <polygon class="cls-1" points="744.12 536.97 745.46 536.97 745.46 540 745.55 540 747.49 540 750.94 540 750.94 538.15 747.49 538.15 747.49 536.97 747.49 534.78 747.49 534.61 742.43 534.61 742.43 535.79 742.43 536.97 742.43 556.34 744.12 556.34 744.12 536.97"/>
  <path class="cls-1" d="M747.99,514.27h3.54v-.25h31.98v15.69s0,15.09,0,15.09h.27v37.71h-.11v29.1h-17.47v1.85h-11.62v-3.54h-9.27v6.07h3.03v29.48h2.53v.17h48.52v5.9h2.86v-8.09h-.51v-.34h-.34v-10.95h1.18v-5.73h-.84v-10.28h21.57v10.45h-1.18v5.39h1.05v11.29h-.88v7.92h2.7v-5.05h37.57v5.22h2.7v-15.67h-1.77v-14.49h1.1v-1.85h-19.71v-3.2h10.45v-4.55h-32.88v-14.48s-.12,0-.12,0v-14.61s-.4,0-.4,0v-37.73s-6.58,0-6.58,0v-15.76s0-15.08,0-15.08h-4.88s-4.14,0-4.14,0h-3.51v-2.84h-7.93v-31.34h-8.34v.88h-10.99v-1.14h-26.79v2.15h-.13v29.44h-3.29v6.06h2.65v-2.91ZM824.14,616.15h18.02v11.79h-17.18v-1.35h-.84v-10.45ZM823.81,631.99h1.18v-1.18h17.18v12.63h2.7v-22.23h17.98v14.49h-.29v7.75h-37.57v-.17h-1.18v-11.29ZM779.67,643.11h-28.47v-27.12h3.37v-1.69h11.62v1.85h13.48v26.96ZM800.89,643.11h-18.7v-12.64h18.03v1.69h.67v10.95ZM801.4,626.43h-1.18v2.19h-18.03v-12.47h19.21v10.28ZM786.95,530.17v13.5s-2.31,0-2.31,0v-13.5s2.31,0,2.31,0ZM784.64,528.57v-13.44s2.31,0,2.31,0v13.44s-2.31,0-2.31,0ZM784.79,611.6v-27.96s4.92,0,4.92,0v27.96h-4.92ZM793.94,597.03h-2.32s0-13.38,0-13.38h2.32s0,13.38,0,13.38ZM794.06,598.26v13.35h-2.32v-13.35s2.32,0,2.32,0ZM798.45,597.03h-2.6s0-13.38,0-13.38h2.6s0,13.38,0,13.38ZM798.58,598.26v13.34h-2.61v-13.35s2.61,0,2.61,0ZM803.52,611.6h-3.04v-13.34s3.05,0,3.05,0v13.34ZM800.36,597.03v-13.38s3.05,0,3.05,0v13.38s-3.05,0-3.05,0ZM807.75,611.6h-2.33v-13.34s2.33,0,2.33,0v13.34ZM805.3,597.03v-13.38s2.33,0,2.33,0v13.38s-2.33,0-2.33,0ZM812.26,611.6h-2.6v-13.34s2.61,0,2.61,0v13.34ZM809.53,597.04v-13.38s2.61,0,2.61,0v13.38s-2.61,0-2.61,0ZM816.78,611.6h-2.6v-13.34s2.61,0,2.61,0v13.34ZM814.05,597.04v-13.38s2.61,0,2.61,0v13.38s-2.61,0-2.61,0ZM821.3,611.6h-2.6v-13.34s2.61,0,2.61,0v13.34ZM821.18,597.04h-2.6s0-13.38,0-13.38h2.6s0,13.38,0,13.38ZM811.6,515.09h2.6s0,13.49,0,13.49h-2.6s0-13.49,0-13.49ZM811.59,530.17h2.6s0,13.5,0,13.5h-2.6s0-13.5,0-13.5ZM807.08,515.09h2.6s0,13.49,0,13.49h-2.6s0-13.49,0-13.49ZM807.08,530.17h2.6s0,13.5,0,13.5h-2.6s0-13.5,0-13.5ZM802.56,515.09h2.62s0,13.49,0,13.49h-2.62s0-13.49,0-13.49ZM802.56,530.17h2.62s0,13.5,0,13.5h-2.62s0-13.5,0-13.5ZM798.34,515.13h2.32s0,13.44,0,13.44h-2.32s0-13.44,0-13.44ZM798.34,530.17h2.32s0,13.5,0,13.5h-2.32s0-13.5,0-13.5ZM793.38,515.13h3.04s0,13.44,0,13.44h-3.04s0-13.44,0-13.44ZM793.38,530.17h3.04s0,13.5,0,13.5h-3.04s0-13.5,0-13.5ZM820.78,545.93v35.47s-35.89,0-35.89,0v-35.47s35.89,0,35.89,0ZM791.43,530.17v13.5s-2.56,0-2.56,0v-13.5s2.56,0,2.56,0ZM788.87,528.57v-13.44s2.56,0,2.56,0v13.44s-2.56,0-2.56,0ZM751.53,483.06h24.01v-1.39h10.99v1.01h5.69v28.43h-40.69v-28.05Z"/>
  <path class="cls-1" d="M151.83,926.07h83.23l.09.25v-.25h692.52V155.29H151.83v585.04h-.25v3.03h.25v182.71ZM445.07,911.84h-.59v12.71h-133.52v-71.68h10.45v-28.9h.25v-.75h13.65v1.26h96.11v.59h1.86v-.59h11.2v68.83h.59v18.53ZM681.44,910.15h-.5v14.4h-233.68v-12.71h-1.52v-18.53h1.52v-29.66h5.81v-1.01h13.65v1.52h22.99v-1.52h16.85v.76h-1.18v.76h116.25v-.17h14.83v.17h8.25v.16h1.18v-.16h5.9v-1.18h21.73v.17h7.42v31.09h.5v15.91ZM496.29,824.48v17.32h-13.65v-18.25h9.6v.93h4.05ZM506.56,843.31v18.99h-16.85v-.92h-7.07v-18.07h23.92ZM615.4,854.38v9.02h-107.18v-20.09h3.73v-1.51h-13.39v-17.32h4.04v-.93h9.69v30.83h103.11ZM497.97,799.12v-21.56h14.32v22.41h-11.96v-.85h-2.36ZM555.29,838.02v13h-2.96v-13h2.96ZM552.33,836.31v-14.01h2.96v14.01h-2.96ZM559.8,838.02v13h-2.9v-13h2.9ZM556.9,836.31v-14.01h2.9v14.01h-2.9ZM564.37,838.02v13h-2.96v-13h2.96ZM561.41,836.31v-14.01h2.96v14.01h-2.96ZM568.86,838.02v13h-2.89v-13h2.89ZM565.97,836.31v-14.01h2.89v14.01h-2.89ZM572.86,838.02v13h-2.39v-13h2.39ZM570.47,836.31v-14.01h2.39v14.01h-2.39ZM577.37,838.02v13h-2.9v-13h2.9ZM574.47,836.31v-14.01h2.9v14.01h-2.9ZM581.94,838.02v13h-2.96v-13h2.96ZM578.98,836.31v-14.01h2.96v14.01h-2.96ZM629.55,824.23v17.35h-12.97v-18.03h1.85v-.5h9.1v1.18h2.02ZM644.71,843.27v18.19h-8.25v2.19h-14.83v-.25h-5.05v-20.13h28.13ZM644.71,824.23v17.35h-12.46v-17.35h1.01v-1.18h9.77v1.18h1.68ZM812.35,887.41h-.17v37.14h-129.38v-14.4h-.85v-15.91h.85v-69.68h.33v-.67h114.9v-.34h13.64v.85h9.61v61.66h-8.93v1.35ZM926.15,924.55h-111.95v-35.8h7.08v.17h3.03v-66.71h.02v-.34h-.02v-.17h-.51v-62.5h56.44v-8.26h36.06v8.26h.34v.16h9.51v165.19ZM926.15,756.5h-6.82v-11.29h6.82v11.29ZM926.15,742.35h-6.82v-.17h-3.03v5.9h-36.06v-.17h-1.68v8.76h-53.07v-11.12h-.81v-13.12h1.18v-3.71h-.03v-47.19h68.06v-1.18h.34v-5.06h2.53v-.67h13.98v.51h15.41v67.22ZM824.14,728.72v-47.19h.68v47.19h-.68ZM926.15,443.81h-15.58v.59h-13.39v-.51h-32.06v-.25h-2.78v.25h-37.19v-108.92h.2v-2.36h-1.18v-12.13h1.66v-9.27h60.99v8.93h39.33v123.67ZM855.77,505.81v-1.39h-10.48v-22.62h16.67v9.22h1.9v13.02h-1.52v6.06h-6.44v-4.29h-.13ZM824.82,334.97v108.92h-1.02v-108.92h1.02ZM926.15,317.11h-7.66v-6.06h7.66v6.06ZM784.63,156.81h141.52v89.04h-.05v.5h.05v61.83h-10.53v1.35h-.16v7.58h-25.61v-7.58h-.34v-1.52h-63.68v-.16h-2.36v-57.08l-.04-4.89-38.8-.03v-89.04ZM782.61,156.81v106.77h-36.14v.88h-12.13v-1.01h-18.95v3.54h8.34v6.57h-61.66v-116.74s120.54,0,120.54,0ZM653.47,300.1v-24.52h70.26v25.02h-24.51v1.33h-11.12v-1.83h-34.63ZM654.99,305.91v-3.03h17.69v3.03h-17.69ZM670.41,328.91h.92v148.47h-.92v-148.47ZM301.19,156.81h182.21v149.86h-10.11v1.26h-17.94v-1.26h-16.43v-25.28h-1.26v-11.87h.75v-3.04h8.6v-2.02h-20.73v-9.39h.32v-10.7h-3.66v8.72h-31.66v-8.3h-3.66v10.7h.5v.13h8.09v51.33h-85.92v-71.8h-1.18v-17.25h1.56v-3.73h-9.48v-57.36ZM436.9,292.77v13.9h-15.42v1.26h-23.08v-.98h-.17v-51.33h25.78v11.37h2.27v-.51h10.36v3.04h.51v11.87h-.25v9.1h-38.16v2.28h38.16ZM153.35,156.81h145.82v61.09h9.1v89.05h-20.31v.73h-12.55v-.51h-6.82v-50.54h39.17v-3.03h-39.17v-6.32h.25v-3.54h-12.38v.76h-11.88v-.76h-13.9v2.53h9.1v35.63h-.25v.51h-7.75v1.34h7.75v.68h13.14v22.99h-21.23v2.03h25.02v-1.1h10.36v.59h8.59v-.59h12.55v.93h20.31v.17h-.26v10.36h.76v17.94h-.76v5.31h-27.04v3.65h-26.07v.39h-.21v-7.41h.34v-2.02h-6.07v.33h-16.85v-.33h-64.35v-.17h-14.41v-180.69ZM266.82,256.63v25.27h-24.77v-35.63h2.53v-.42h11.88v1.43h10.36v6.32h-.51v3.03h.51ZM254.18,307.42v-22.99h12.64v23.25h-10.36v-.26h-2.28ZM254.35,431.34v-11.46h44.14v20.89h-43.46v-9.43h-.68ZM153.35,342.89h14.41v-3.2h58.96v13.14h1.19v14.49h-1.19v19.54h-44.48v.84h-13.81v-.5h-15.08v-44.31ZM153.35,388.55h15.08v-.51h13.81v.51h44.48v6.06h1.19v14.49h-1.19v18.53h-44.14v1.52h-10.78v-.51h-18.45v-40.09ZM153.35,430.66h18.45v-1.01h10.78v1.69h44.65v12.13h-.17v6.74h.01v.34h5.72v-1.69h-4.05v-5.39h-1.01v-12.13h.68v-17.52h.17v-19.21h.16v-27.29h-.16v-14.49h.66v-13.14h2.87v-1.01h16.85v1.01h4.04v7.41h-.33v15.5h1.18v12.47h-1.52v7.75h1.52v14.82h-.85v22.24h.68v11.46h-1.35v17.86h-18.7v.84h18.7v.17h2.7v-7.75h43.46v8.09h2.63v-.34h6.3v8.93h3.54v-10.45h-1.01v-.5h-8.83v-31.97h9.55v-1.14h-9.55v-.34h-2.63v2.78h-42.79v-19.88h-1.01v-14.82h.34v-7.75h-.34v-12.47h1.68v-14.36h27.09v-.13h.54v-2.69h24.94v-.21h1.09v69.62h.51v-69.62h.51v-7.46h-1.44v-17.94h.93v-10.36h-.25v-.17h88.11v-.59h23.08v1.26h33.87v-1.26h17.94v1.01h17.94v-1.01h.25v-5.81h-3.03v3.79h-3.28v-149.86h172.1s0,.25,0,.25v116.5h-3.04v-5.81h-2.69v6.06h-.09v28.81h.51v.26h.76v3.03h-.51v3.54h18.07v17.31h-1.01v2.15h.63v148.47h-.25v1.64h.63v14.15h-.38v36.14h-4.04v2.78h10.61v-2.78h-5.31v-36.14h-.37v-14.15h1.13v-1.64h-.08v-148.47h.21v-2.15h-1.01v-17.31h4.13v-3.54h-.21v-3.03h13.14v-.57h11.12v.57h24.48v2.94h-.05v3.12h8.08v-3.12h-5.76v-2.69h.03v-36.14h8.34v-1.77h12.13v1.45h26.79v38.69h-5.09v3.29h5.22v.04h10.86v-2.28h-8.21v-39.74h8.85v-3.09h-.26v-17.23h38.33v61.5h-.67v12.63h1.55v12.13h-1.86v2.36h1.49v108.92h-.17v8.21h2.65v-6.27h36.39v6.27h1.27v13.9h-.13v7.46h-1.52v5.94h-36.51v-6.07h-2.53v6.07h-.88v2.4h.88v10.99h-1.14v7.08h1.52v10.36h-.51v1.51h22.87v-1.51h-.37v-2.02h8.08v1.89h-1.64v2.78h13.77v-8.84h-1.01v-13.02h1.14v-17.56h-.76v-7.46h-.88v-13.9h1.13v-6.27h32.06v-.68h13.39v1.01h15.58v227.11h-15.41v.84h-13.98v-1.18h-2.53v-.16h-2.02v6.23h-27.8v-6.91h-2.87v6.91h-36.05v-6.23h-2.53v8.76h.17v47.19h-.14v3.71h1.02v13.12h-.88v76.15h-11.46v1.01h-13.64v-1.01h-124v2.86h6.91v36.56h-7.42v1.18h-21.73v-.84h-5.9v-18.19h.17v-1.69h-.17v-17.35h6.07v-2.19h-8.93v.84h-9.77v-.67h-5.73v.67h-9.1v-1.01h-1.85v-.17h-3.54v29.32h-29.96v-29.86h-31.89v29.86h-35.53v-29.48h29.13v-.4h37.73v-6.59h30.84v-13.92h-.05v-17.91h-30.81v.26h-37.71v-.1h-29.13v-33.62h-.17v-1.18h-.17v-1.86h3.37v-.84h16.18v1.18h4.38v3.71h2.69v-4.89h44.82v4.72h3.03v-3.2h3.03v-1.52h18.7v7.41h2.87v-.17h.17v11.97h-1.18v37.06h3.37v-1.34h11.12v1h5.56v-1h9.94v1.34h8.42v-2.69h-5.39v-51.05h-.34v-.51h-31.67v-5.89h-2.87v3.2h-18.7v-.51h-5.39v.17h-.67v.34h-44.82v-1.01h-7.07v1.01h-16.18v-.34h-5.56v1.85h.17v1.86h-4.38v2.52h3.37v24.01h-29.48v-2.44h-1.01v-10.45h1.34v-11.79h14.83v-2.7h-16.85v14.49h.17v10.45h-.34v28.98h1.86v-.68h11.62v1.01h5.9v-1.34h11.96v22.74h-9.69v-.67h-10.36v.67h-9.6v-1.94h-1.77v.25h-6.57v3.04h6.57v37.15h-14.15v.92h-13.65v-1.43h-5.81v-36.39h6.32v-2.53h-118.27v.59h-13.65v-.08h-45.49v.08h-13.65v-21.31h-1.43v-13.14h.68v-6.32h39.61v.06h2.59v-10.1h-1.13v-11.95h.62v-7.63h.05v-9.3h6.95v-2.36h-1.06v-14.56h-.19v-56.03h.4v56.48h1.01v-56.69h18.2v.89h46.67v15.33h-.34v2.86h39.26v-17.86h17.69v-.84h18.36v.51h81.03v.15h.68v3.72h.42v11.46h-.52v1.49h8.36v16.87h-7.58v2.7h10.95v-.68h9.94v.51h5.39v-.51h11.45v1.12h3.02v-.61h14.34v16.68h2.02v-16.68h7.24v-2.36h-.43v-2.27h-.75v-16.68h.75v-14.75h75.11v-2.08h-.21v-45.09h-1.14v-18.95h1.65v-9.86h9.35v.15h1.8v-.15h23.05v.11h1.78v-9.21h-.73v-13.14h.38v-2.15h-.38v-10.74h1.39v-7.58h-1.14v-11.62h.12v-11.63h-.51v-.08h-18.18v1.64h.25v24.98h-36.64v-26.54h-4.3v43.22h4.3v-14.91h28.81v36.39h-28.9v-6.57h-3.03v7.83h19.54v9.86h.76v18.95h-.5v45.09h-72.63v-18.81h-.24v-.16h-8.42v.84h-15.17v-1.35h-37.9v-.17h-2.87v7.58h.46v10.28h-.46v1.85h-81.71v.34h-18.36v-1.35h-10.62v-14.66h.34v-3.36h-8.76v.67h-34.37v-.84h-10.11v2.02h-.34v16.68h-39.42v.46h-18.7v-17.98h-.17v-.85h-.29v-17.39h.43v-49.83h.53v-3.03h-.71v-29.48h1.22v-16.85h-.17v-23.42h-4.21v23.42h-46v-51.22h45.66v16.51h4.72v-19.04h-.17v-1.51h-54.75v4.04h2.35v51.22h-.5v3.2h.5v43.47h-2.35v.63h-18.71v-1.31h-9.01l-.03-15.21-.02-15.09h-.27l-.06-37.71h.11l-.05-29.54h9.67v-3.53h-84.49v-47.52ZM825.07,495.7v-2.91h-1.14v-10.99h17.82v13.9h-16.68ZM841.75,498.22v12.01h-17.69v-10.36h1.01v-1.65h16.68ZM530.27,815.89v-2.61h13.38v2.61h-13.38ZM543.65,817.8v2.6h-13.38v-2.6h13.38ZM530.27,811.37v-2.61h13.38v2.61h-13.38ZM530.27,806.86v-2.33h13.38v2.33h-13.38ZM530.27,802.63v-3.04h13.38v3.04h-13.38ZM530.27,797.68v-2.6h13.38v2.6h-13.38ZM530.27,793.16v-2.31h13.38v2.31h-13.38ZM515.66,788.93v-4.91h27.99v4.91h-27.99ZM528.57,790.85v2.31h-12.91v-2.31h12.91ZM528.57,795.08v2.6h-12.91v-2.6h12.91ZM528.57,799.59v3.04h-12.91v-3.04h12.91ZM528.57,804.53v2.33h-12.91v-2.33h12.91ZM528.57,808.76v2.61h-12.91v-2.61h12.91ZM528.57,813.28v2.61h-12.91v-2.61h12.91ZM528.57,817.8v2.6h-12.91v-2.6h12.91ZM545.91,820v-35.88h35.47v35.88h-35.47ZM597.13,788.09v2.56h-13.49v-2.56h13.49ZM583.64,786.16v-2.3h13.49v2.3h-13.49ZM597.13,792.59v3.05h-13.49v-3.05h13.49ZM597.13,797.55v2.32h-13.49v-2.32h13.49ZM597.13,801.77v2.62h-13.49v-2.62h13.49ZM597.13,806.29v2.6h-13.49v-2.6h13.49ZM597.13,810.81v2.6h-13.49v-2.6h13.49ZM612.17,788.09v2.56h-13.44v-2.56h13.44ZM598.73,786.16v-2.3h13.44v2.3h-13.44ZM612.17,792.59v3.05h-13.44v-3.05h13.44ZM612.17,797.55v2.32h-13.44v-2.32h13.44ZM612.22,801.77v2.62h-13.49v-2.62h13.49ZM612.22,806.29v2.6h-13.49v-2.6h13.49ZM612.22,810.81v2.6h-13.49v-2.6h13.49ZM631.4,798.79v-22.24h13.31v22.41h-1.34v.84h-9.94v-1.01h-2.03ZM616.75,774.69v-10.1h-1.52v-11.97h1.18v-2.69h28.3v24.76h-27.96ZM629.72,776.55v22.24h-1.85v1.01h-11.12v-23.25h12.97ZM496.62,777.56v21.56h-2.19v.85h-11.62v-22.41h13.81ZM302.2,759.78v11.95h-.82v7.77h-29v-27.38h28.05v7.66h1.77ZM309.66,550.12v29.48h-8.03v-43.13h7.65v13.65h.38ZM418.28,653.05v14.66h-6.4v3.2h.17v15h-34.37v-17.69h-6.07v-15.17h7.08v-2.19h34.37v2.19h5.22ZM533.65,666.87v-10.28h1.39v-4.21h19.71v16.86h-20.22v-2.37h-.88ZM534.53,674.45v-3.72h20.22v15.18h-21.15v-11.46h.93ZM542.11,704.27v-16.87h12.64v16.87h-1.01v1.66h-9.94v-1.66h-1.69ZM594.34,653.05v15.61h-.04v2.08h.04v9.78h-20.74v-.17h-3.02v5.39h-14.82v-33.36h17.18v-.67h15.17v1.34h6.23ZM595.52,685.49v16.68h-1.18v2.27h-20.74v-20.89h20.74v1.94h1.18ZM570.58,687.59v18.34h-11.45v-1.66h-3.37v-16.68h14.82ZM705.79,538.66v1.77h1.51v11.62h-.76v3.29h-15.74v-16.68h14.99ZM690.8,536.89v-6.53h14.99v6.53h-14.99ZM706.54,557.11v2.52h.38v10.74h-23.59v-13.26h23.21ZM706.92,572.52v13.14h-23.59v-13.14h23.59ZM706.38,587.18v6.32h-23.05v-6.32h23.05ZM301.12,536.47v43.13h-3.62v-43.13h3.62ZM223.11,565.2l.03,13.44h-2.55l-.03-13.44h2.55ZM220.54,550.11h2.55l.02,13.49h-2.55l-.02-13.49ZM191.29,547.9l-.06-35.47,35.75-.06.06,35.47-35.75.06ZM218.62,565.21l.02,13.44h-3.03l-.02-13.44h3.03ZM215.57,550.12h3.03s.02,13.49.02,13.49h-3.03l-.02-13.49ZM213.68,565.21l.02,13.44h-2.3s-.02-13.43-.02-13.43h2.3ZM211.37,563.62l-.02-13.5h2.31l.02,13.5h-2.31ZM209.48,565.22l.02,13.49h-2.6l-.03-13.48h2.61ZM206.85,550.13h2.61l.02,13.49h-2.61s-.02-13.49-.02-13.49ZM204.98,565.23l.02,13.48h-2.59s-.03-13.48-.03-13.48h2.6ZM202.36,550.14h2.59s.03,13.49.03,13.49h-2.6l-.02-13.49ZM200.48,565.24l.02,13.48h-2.6s-.02-13.48-.02-13.48h2.6ZM197.86,550.15h2.59s.02,13.49.02,13.49h-2.59l-.02-13.49ZM193.4,497.2l.02,12.97h-2.59l-.02-12.97h2.59ZM190.8,482.68h2.59s.02,12.96.02,12.96h-2.59s-.02-12.96-.02-12.96ZM195.32,495.64l-.02-12.97h2.59l.02,12.97h-2.59ZM197.92,510.16h-2.59l-.02-12.96h2.59s.02,12.96.02,12.96ZM199.82,495.63l-.02-12.97h2.6l.02,12.97h-2.6ZM202.43,510.15h-2.6s-.02-12.96-.02-12.96h2.59s.03,12.96.03,12.96ZM204.31,495.63l-.02-12.97h2.32s.02,12.96.02,12.96h-2.32ZM206.64,510.15h-2.32l-.02-12.97h2.32l.02,12.97ZM211.55,497.17l.02,12.97h-3.03l-.03-12.97h3.04ZM208.51,482.65h3.03l.02,12.97h-3.03l-.02-12.97ZM213.45,495.61l-.02-12.97h2.6l.02,12.97h-2.6ZM216.06,510.13h-2.6s-.02-12.96-.02-12.96h2.6s.02,12.96.02,12.96ZM217.96,495.6l-.02-12.96h2.3s.02,12.96.02,12.96h-2.3ZM220.27,510.12h-2.3s-.02-12.96-.02-12.96h2.3l.02,12.96ZM222.14,482.02h4.89l.05,28.09h-4.9s-.04-28.09-.04-28.09ZM227.3,550.1l.03,13.49h-2.3s-.02-13.49-.02-13.49h2.29ZM227.33,565.19l.02,13.44h-2.3s-.02-13.43-.02-13.43h2.3ZM153.35,481.71h36.31l.02,13.94h-.01l.02,15.66h.41l.06,37.73h6.56s.02,15.06.02,15.06l.03,15.16h-43.42v-97.55ZM153.35,582.8h79.27v3.95h2.36v-3.95h2.52v-1.05h18.71v.71h10.1v-2.52h-5.56v-43.47h36.24v43.13h-8.61v3.03h19.43v49.83h.75v-49.83h.78v49.83h.06v17.39h-21.86v1.01h-14.49v-.33h-37.4v-3.13h-2.53v3.13h-79.77v-67.73ZM153.35,652.89h119.7v-1.14h14.49v.46h20.73v16.79h-.07v57.49h.82v14h-8.55v8.6h-38.7v-8.76h-3.04v1.13h-12.13v-1.13h-93.25v-87.44ZM153.35,743.36h93.25v-.76h12.13v9.52h10.87v27.38h-9.6v8.59h.42v13.14h-.42v21.31h-14.16v-.59h-92.49v-78.59ZM153.35,824.23h81.12v2.69h.68v-2.69h10.69v-1.01h14.16v1.01h2.52v-1.01h13.65v.75h42.54v26.54h-10.11v74.04h-73.45v-2.39h-.68v2.14l.09.25h-81.21v-100.32Z"/>
</svg>