<?xml version="1.0" encoding="UTF-8"?>
<svg id="Layer_2" data-name="Layer 2" xmlns="http://www.w3.org/2000/svg" viewBox="0 0 838.63 840.95">
  <defs>
    <style>
      .cls-1, .cls-2 {
        stroke-width: 0px;
      }

      .cls-2 {
        fill: #c1a7a7;
      }
    </style>
  </defs>
  <polygon class="cls-1" points="363.96 36.79 363.96 185.86 341.8 185.86 341.8 186.1 320.9 186.1 320.9 148.28 330.08 148.28 330.08 122.28 324.97 122.28 324.97 143.04 308.78 143.04 308.78 122.28 303.58 122.28 303.58 132.08 272.75 132.08 272.75 122.28 267.14 122.28 267.14 135.91 276.82 135.91 276.82 186.1 192.47 186.1 192.47 92.48 182.02 92.48 182.02 36.79 363.96 36.79"/>
  <polygon class="cls-1" points="189.81 98.21 189.81 122.13 177.73 122.13 177.73 122.04 110.64 122.04 110.64 127.05 120.3 127.05 120.3 160.81 110.64 160.81 110.64 165.39 132.55 165.39 132.55 185.91 110.64 185.91 110.64 213.9 34.05 213.9 34.05 36.79 180.32 36.79 180.32 98.21 189.81 98.21"/>
  <polygon class="cls-1" points="662.64 37.82 662.64 142.84 594.76 142.84 594.76 152.26 542.96 152.26 542.96 38.16 588.33 37.82 662.64 37.82"/>
  <polygon class="cls-1" points="806.1 37.9 806.1 127.44 805.98 127.44 805.98 186.79 794.86 186.79 794.86 196.59 772.96 196.59 772.96 186.79 705.39 186.88 705.14 124.33 666.27 124.58 666.04 37.9 806.1 37.9"/>
  <polygon class="cls-1" points="804.28 203.02 804.28 323.04 763.24 323.04 763.24 322.71 707.45 322.71 707.45 193.38 765.46 193.38 765.46 203.02 804.28 203.02"/>
  <polygon class="cls-1" points="805.99 327.9 805.99 552.22 771.61 552.22 771.61 558.57 747.48 558.57 747.48 327.9 805.99 327.9"/>
  <polygon class="cls-1" points="805.72 556.17 805.72 621.97 795.97 621.97 795.97 626.59 757.91 626.59 757.91 635.7 707.07 635.7 707.07 562.2 757.91 562.2 757.91 562.72 775.77 562.72 775.77 556.17 805.72 556.17"/>
  <polygon class="cls-1" points="805.78 640.37 805.78 804.12 716.98 804.12 716.98 804.14 697.11 804.14 697.11 770.07 705.97 770.07 705.97 640.37 805.78 640.37"/>
  <polygon class="cls-1" points="701.28 705.24 701.28 764.15 691.6 764.15 691.6 804.19 563.82 804.19 563.82 705.9 688.94 705.9 688.94 705.24 701.28 705.24"/>
  <polygon class="cls-1" points="324.17 705.88 324.17 803.54 203.17 803.54 203.17 803.29 193.17 803.29 193.17 734 203.17 734 203.17 705.88 324.17 705.88"/>
  <polygon class="cls-1" points="199.2 705.92 199.2 730.86 189.68 730.86 189.68 804.14 116.24 804.14 116.24 801.44 114.77 801.44 114.77 804.13 35.76 804.13 35.76 705.87 114.77 705.87 114.77 709.27 116.24 709.27 116.24 705.68 189.68 705.68 189.68 705.92 199.2 705.92"/>
  <polygon class="cls-1" points="147.03 633.73 147.03 659.09 137.4 659.09 137.4 700.66 35.36 700.66 35.36 624.56 137.4 624.56 137.4 633.73 147.03 633.73"/>
  <rect class="cls-2" x="325.7" y="124.8" width="2.27" height="19.71"/>
  <polygon class="cls-1" points="190.07 225.75 190.07 233.08 190 233.08 190 293.68 178.68 293.68 178.68 296.21 137.56 296.21 137.56 291.38 137.67 291.38 137.67 228.74 166.51 228.74 166.51 225.75 190.07 225.75"/>
  <rect class="cls-1" x="35.9" y="463.88" width="150.59" height="64.91"/>
  <polygon class="cls-1" points="186.16 534.97 186.16 619.57 175.77 619.57 175.77 626.99 146.09 626.99 146.09 619.57 35.52 619.57 35.52 534.97 186.16 534.97"/>
  <rect class="cls-1" x="208.05" y="569.4" width="138.41" height="121.66"/>
  <polygon class="cls-1" points="560.92 745.23 560.92 803.36 328.91 803.36 328.91 745.23 390.07 745.23 390.07 737.73 494.07 737.73 494.07 745.23 560.92 745.23"/>
  <polygon class="cls-1" points="685.06 548.92 685.06 633.48 684.97 633.48 684.97 682.67 603.03 682.67 603.03 633.48 554.59 633.48 554.59 548.92 685.06 548.92"/>
  <rect class="cls-1" x="555.33" y="190.22" width="139" height="163.71"/>
</svg>