<?xml version="1.0" encoding="UTF-8"?>
<svg id="Layer_2" data-name="Layer 2" xmlns="http://www.w3.org/2000/svg" viewBox="0 0 749.05 742.88">
  <defs>
    <style>
      .cls-1 {
        fill: #afafaf;
        stroke-width: 0px;
      }
    </style>
  </defs>
  <polygon class="cls-1" points="563.44 410.83 567.69 410.83 567.69 410.73 569.64 410.73 569.64 366.88 569.54 366.88 569.54 365.43 563.54 365.43 563.54 362.93 561.74 362.93 561.74 367.33 562.44 367.33 562.44 367.53 567.19 367.53 567.19 409.03 561.74 409.03 561.74 410.13 561.74 410.83 561.74 413.33 563.44 413.33 563.44 410.83"/>
  <path class="cls-1" d="M201.34,435.42h246v-246h-246v246ZM446.34,359l-13.84-.03v-5.57s13.82.03,13.82.03v-.17l-13.81-.03v-6.1s13.77.03,13.77.03v-.17l-13.76-.03.02-5.59,13.71.02v-.17l-13.71-.02v-6.1s13.67.02,13.67.02v-.17l-13.66-.03v-5.62s13.56.02,13.56.02v-.17l-13.55-.03v-5.73s13.57.03,13.57.03v-.18l-13.56-.02v-6.05s13.77.03,13.77.03v41.8ZM446.34,317.03l-13.76-.03v-5.57s13.76.03,13.76.03v5.57ZM446.34,311.29l-13.74-.03v-6.1s13.74.03,13.74.03v6.1ZM446.34,305.02l-13.73-.03v-5.59s13.73.02,13.73.02v5.6ZM446.34,299.25l-13.72-.03v-6.1s13.72.03,13.72.03v6.1ZM446.34,292.98l-13.71-.03v-5.63s13.64.03,13.64.03v-.17l-13.63-.03.02-6.1,13.57.03v-.17l-13.57-.03v-5.14s13.68.02,13.68.02v17.22ZM446.34,275.59l-13.67-.03v-6.1s13.67.03,13.67.03v6.1ZM446.34,269.32l-13.66-.03v-5.57s13.66.03,13.66.03v5.57ZM446.34,257.31v6.27l-13.65-.03v-6.1s13.64.03,13.64.03v-.17s-13.63-.03-13.63-.03v-5.59s13.64.02,13.64.02v5.6ZM446.34,251.54l-13.63-.03.02-6.1,13.61.03v6.1ZM446.34,245.27l-13.61-.03v-5.57s13.61.03,13.61.03v5.57ZM446.34,239.53l-13.6-.03v-6.1s13.6.03,13.6.03v6.1ZM406.65,190.42h39.69v42.84l-27.07-.06h-.29s-.3,0-.3,0v-20.65h.05v-.66h-.05v-21.41h-.33v21.41h-11.7v-21.48ZM419.17,388.72v-5.58s12.83.03,12.83.03v5.57s-12.83-.02-12.83-.02ZM431.99,388.91l-.02,6.05-12.81-.03v-6.04s12.83.02,12.83.02ZM419.18,382.97l.02-6.1,12.81.03v6.1s-12.83-.03-12.83-.03ZM419.2,376.7v-5.59s12.82.02,12.82.02v5.6s-12.82-.03-12.82-.03ZM419.21,370.94v-5.61s12.82.03,12.82.03v5.6s-12.82-.02-12.82-.02ZM419.22,365.16v-6.04s12.82.02,12.82.02v6.05s-12.82-.03-12.82-.03ZM419.23,358.95v-5.57s12.83.02,12.83.02l-.02,5.57-12.81-.02ZM419.24,353.21l.02-6.1,12.81.02v6.1s-12.83-.02-12.83-.02ZM419.26,346.93v-5.59s12.82.03,12.82.03v5.59s-12.82-.03-12.82-.03ZM419.27,341.17v-6.1s12.82.02,12.82.02v6.1s-12.82-.02-12.82-.02ZM419.28,334.9v-5.63s12.82.03,12.82.03v5.62s-12.82-.02-12.82-.02ZM419.29,329.1v-5.74s12.82.03,12.82.03v5.73s-12.82-.02-12.82-.02ZM419.3,323.19v-6.04s12.83.02,12.83.02v6.05s-12.83-.03-12.83-.03ZM419.32,316.98v-5.57s12.82.02,12.82.02v5.57s-12.82-.02-12.82-.02ZM419.33,311.23v-6.1s12.82.03,12.82.03v6.1s-12.82-.03-12.82-.03ZM419.34,304.96v-5.59s12.82.03,12.82.03v5.59s-12.82-.03-12.82-.03ZM419.35,299.2v-6.1s12.82.02,12.82.02v6.1s-12.82-.02-12.82-.02ZM419.36,292.93v-5.63s12.83.02,12.83.02v5.63s-12.83-.02-12.83-.02ZM419.37,287.13l.02-6.1,12.81.02v6.1s-12.83-.02-12.83-.02ZM419.39,280.85v-5.14s12.82.03,12.82.03v5.14s-12.82-.03-12.82-.03ZM419.4,275.54v-6.1s12.82.02,12.82.02v6.1s-12.82-.02-12.82-.02ZM419.41,269.27v-5.57s12.82.02,12.82.02v5.57s-12.82-.02-12.82-.02ZM419.42,263.52v-6.1s12.83.03,12.83.03l-.02,6.1-12.81-.03ZM419.43,257.25v-5.59s12.83.03,12.83.03v5.59s-12.83-.03-12.83-.03ZM419.44,251.49l.02-6.1,12.81.02v6.1s-12.83-.02-12.83-.02ZM419.46,245.22v-5.57s12.82.02,12.82.02v5.57s-12.82-.02-12.82-.02ZM419.47,239.47v-5.9s.01-.2.01-.2l12.81.03v6.1s-12.82-.03-12.82-.03ZM406.65,212.56h11.7v20.29h-11.7v-20.29ZM395.54,190.42h10.78v21.48h-10.78v-21.48ZM395.54,212.56h10.78v20.29h-10.78v-20.29ZM383.4,190.42h11.81v21.48h-11.81v-21.48ZM383.4,212.56h11.81v20.29h-11.81v-20.29ZM372.25,190.42h10.82v21.48h-10.82v-21.48ZM372.25,212.56h10.82v20.29h-10.82v-20.29ZM360.11,190.42h11.8v21.48h-11.8v-21.48ZM360.11,212.56h11.8v20.29h-11.8v-20.29ZM348.89,190.42h10.89v21.48h-10.89v-21.48ZM348.89,212.56h10.89v20.29h-10.89v-20.29ZM326.46,190.42h22.09v21.48h-11.8v-21.43h-.33v21.43h-9.96v-21.48ZM348.55,212.56v20.29h-11.8v-20.29h11.8ZM326.46,212.56h9.96v20.29h-9.96v-20.29ZM314.32,190.42h11.81v21.48h-11.81v-21.48ZM314.32,212.56h11.81v20.29h-11.81v-20.29ZM303.21,190.42h10.78v21.48h-10.78v-21.48ZM303.21,212.56h10.78v20.29h-10.78v-20.29ZM291.07,190.42h11.81v21.48h-11.81v-21.48ZM291.07,212.56h11.81v20.29h-11.81v-20.29ZM279.92,190.42h10.82v21.48h-10.82v-21.48ZM279.92,212.56h10.82v20.29h-10.82v-20.29ZM267.78,190.42h11.81v21.48h-11.81v-21.48ZM267.78,212.56h11.81v20.29h-11.81v-20.29ZM256.67,190.42h10.78v21.48h-10.78v-21.48ZM256.67,212.56h10.78v20.29h-10.78v-20.29ZM244.53,190.42h11.81v21.48h-11.81v-21.48ZM244.53,212.56h11.81v20.29h-11.75v-.03h-.06v-20.26ZM202.34,190.42h41.86v42.59h-41.86v-42.59ZM202.34,233.53h41.88v6.05l-20.45.06v-6.11h-.52v6.11l-20.91.06v-6.18ZM223.77,309.98v-5.82l20.45-.03v5.79l-20.45.06ZM244.21,310.5v5.89l-20.45.06v-5.92l20.45-.03ZM223.77,303.61v-5.65l20.45-.03v5.62l-20.45.06ZM223.77,297.42v-6.1l20.45-.03v6.07l-20.45.06ZM223.77,290.77v-5.82l20.45-.03v5.79l-20.45.06ZM223.77,284.4v-5.65l20.45-.03v5.62l-20.45.06ZM223.77,278.2v-6.23l20.45-.03v6.2l-20.45.06ZM223.77,271.43v-5.82l20.45-.03v5.79l-20.45.06ZM223.77,265.06v-5.65l20.45-.03v5.62l-20.45.06ZM223.77,258.86v-6.1l20.45-.03v6.07l-20.45.06ZM223.77,252.21v-5.82l20.45-.03v5.79l-20.45.06ZM223.77,245.84v-5.65l20.45-.03v5.62l-20.45.06ZM202.34,240.22l20.91-.03v5.65l-20.91.06v-5.68ZM202.34,246.42l20.91-.03v5.82l-20.91.06v-5.86ZM202.34,252.79l20.91-.03v6.11l-20.91.06v-6.14ZM202.34,259.44l20.91-.03v5.65l-20.91.06v-5.68ZM202.34,265.64l20.91-.03v5.82l-20.91.06v-5.86ZM202.34,272.01l20.91-.03v6.23l-20.91.06v-6.26ZM202.34,278.78l20.91-.03v5.65l-20.91.06v-5.68ZM202.34,284.98l20.91-.03v5.82l-20.91.06v-5.86ZM202.34,291.35l20.91-.03v6.1l-20.91.06v-6.14ZM202.34,298l20.91-.03v5.65l-20.91.06v-5.68ZM202.34,304.19l20.91-.03v5.82l-20.91.06v-5.86ZM202.34,310.56l20.91-.03v5.92l-20.91.06v-5.96ZM202.34,317.03l42.37-.06.03-.58h-.16s0-44.45,0-44.45h.02l.03-.58h-.06v-5.79h.02l.03-.58h-.06s0-31.46,0-31.46h.82v-.02h91.01v.02h.33v-.02h81.11v.06h1.12l-.26,131.59h-.02v.17h.02l-.06,29.6h-.07v.17l27.27.05v-.17l-13.43-.02v-6.05s13.81.03,13.81.03v-.17l-13.8-.03v-5.57s13.77.03,13.77.03v-.17l-13.76-.03.02-6.1,13.7.03v-.18l-13.7-.02v-5.59s13.67.02,13.67.02v-.17l-13.66-.03v-5.6s13.49.03,13.49.03v-.17l-13.48-.03v-6.04s13.85.02,13.85.02v75.25h-244v-117.39Z"/>
  <path class="cls-1" d="M565.98,289.99h48.22v-48.22h-48.22v48.22ZM566.98,242.77h46.22v46.22h-46.22v-46.22Z"/>
  <path class="cls-1" d="M428.64,468.4h.17v-2.66h-6.98v1.07h-13.63v-1.07h-37.58v2h.33v2.99h1.26v11.81h-1.26v-.5h-73.16v1.66h73.33v2.83h1.1v9.31h-1.1v3.33h2v-.17h5.32v16.29h-6.98v1.33h9.14v-.78h8.81v.61h6.82v-.61h9.31v.11l.03.69.31-.02h23.28v-.83h-.33v-23.11h-.17v-8.65h10.7v-2.44h-10.7v-13.19ZM372.4,470.73h1.04v-2.99h18.62v14.8h-19.66v-11.81ZM373.11,497.66v-1.83h-.71v-9.31h.87v-2.83h18.79v13.97h-18.95ZM392.23,515.29h-2.83v.36h-8.81v-.36h-.67v-16.29h12.3v16.29ZM405.53,515.65h-9.31v-.36h-2.49v-16.29h11.81v16.66ZM405.53,492.34v5.32h-11.47v-29.93h14.13v-.74h13.63v1.4h4.49v23.94h-20.78ZM426.98,515.79h-19.79v-22.11h19.79v22.11Z"/>
  <path class="cls-1" d="M224.46,601.58h48.05v-47.72h-48.05v47.72ZM225.46,554.86h46.05v45.72h-46.05v-45.72Z"/>
  <path class="cls-1" d="M497.48,600.59h43.19v-42.73h-43.19v42.73ZM498.48,558.85h41.19v40.73h-41.19v-40.73Z"/>
  <path class="cls-1" d="M38.57,26.15v224.17h-.12v1.6h.12v458.69h683.93V26.15H38.57ZM267.98,94.42h.87v-46.2h-.43v-13.4h.23v-7.92h102.8v7.72h.5v13.6h-.4v46.9h.62v15.8h.45v-15.8h.83v-46.9h-.61v-13.6h.31v-7.72h221.6v94.22h-29v.77h-16v-.57h-9.8v1.4h2v6h-61.3v-16.9h-1.18v-16.7h.58V27.02h-1.9v68.1h.66l.04,17.57v46.73h-44.1v.82h-17.1v-.62h-9.3v-46.5h9v-1.3h-27.4v.2h-11.5v-.4h-23.5v1.6h8.45v46.4h-8.45v1.04h-34.33v.25h-15.87v-1.29h-10.9v-46.5h9.3v-1.3h-19.9v.43h-11.8v-.93h-3.47v-16.9ZM480.65,154.12v-24h61.3v23.9h-20.8v.29h-10.7v-.19h-29.8ZM495.55,155.62v3.8h-14.9v-3.8h14.9ZM406.42,113.12v46.5h-40.82v-46.4h12.85v-.53h11.5v.43h16.47ZM252.15,159.42v-13.2h39.7v13.4h-19.8v.85h-19.4v-1.05h-.5ZM252.15,144.72v-31.4h19.3v-.52h11.8v.32h8.6v31.6h-39.7ZM172.32,95.18h.63V26.9h93.5v7.92h1.3v13.4h-.8v46.2h.36v16.9h-26.96v2h9.4v46.1h-59.4v.16h-17.4v-49.33h-.63v-15.07ZM135.29,94.37h.26V26.9h35.4v68.28h.92v15.07h-.92v1.07h-35.4v-.99h-.26v-15.96ZM135.55,159.27v-45.75h35.4v45.8h-3.2v.15h-10.8v-.2h-21.4ZM171.54,183.85v23.06h-22.39v-23.06h7.98v-1.55h9.98v1.55h4.43ZM172.76,376.02v27.2h-7.61v-40.3h7.6v13.1h0ZM165.65,493.27v23.8h-27.3v-20.55h-.84v-12.7h.64v-14.8h33.1v24.3h-3.6v-.05h-2ZM137.18,537.12v-13.2h1.17v-5h27.3v35.7h-27.6v-17.5h-.87ZM138.05,556.62h27.6v11.7h.96v12.9h-28.56v-24.6ZM133.75,466.52v.38h-16.6v-.48h-10.6v-61.3h2.25v-1.24h16.45v1.54h8.9v-2.3h-4.7v-40.2h32.75v40.3h-8.65v2.2h17.7v61.1h-37.5ZM136.68,523.92v13.2h-.13v44.1h-2.1v.74h-17.2v-.84h-11.33v-21.4h.63v-33h-.8v-12.1h.8v-9.7h.25v-1.9h-.25v-9.9h-.8v-12.1h.8v-12.5h10.6v-1.12h16.6v1.62h2.8v14.8h.46v12.7h-.46v27.4h.13ZM99.38,341.39v-26.27h8.37v-.25h17.4v.75h1.7v87.5h-1.6v.1h-16.45v-.8h-9.68l.14-26.34h.11l.18-34.69h-.17ZM157.68,297.72v-8.73h.86v-1.61h13v11.09h-13.37v-.75h-.49ZM158.17,301.8v-1.56h13.37v12.18h-12.91v-2.19h-.95v-8.43h.49ZM170.54,315.62v7.4h1v10.8h-1.29v26.3h-40.8v-44.5h41.09ZM171.54,285.61h-6.65v-3.1h-1.78v3.1h-6.65v3.38h.78v8.73h-1.15v4.08h1.15v8.43h-.69v2.19h-20.93v-30.47h-.77v-11.97h.77v-11.19h27.49v3.06h1.78v-3.06h6.65v3.06h.55v20.66h-.55v3.1ZM135.62,221.43v-13.19h11.2v13.08h-1.55v.66h-8.2v-.55h-1.45ZM137.07,223.43v-.78h8.2v.78h4.65v-.78h8.21v.89h4.32v-.89h7.32v.89h1.77v33.92h-35.92v-34.03h1.45ZM160.79,221.54v-13.3h10.75v13.08h-1.77v.66h-7.32v-.44h-1.66ZM159.35,208.24v13.3h-1.22v.44h-8.21v-.66h-1.77v-13.08h11.2ZM39.32,26.9h94.93v67.47h.6v15.96h-.6v44.3h-16.81v-8.49h-1.9v7.63h-47.3v-7.63h-1.9v8.49h-27.02V26.9ZM39.32,155.02l27.02.07v6.35h1.9v-5.72h47.3v5.72h1.9v-6.21l16.81.04v5.74h1.3v-.6h12.27v16.23h-.67v4.1h-17.29v3.1h17.29v23.06h-17.29v1.33h3.99v61.74h.22v11.97h-.22v30.47h-8.7v2.01h-17.4v-.24h-37.1v-100.27h-.65v-12.8h.65v-17.7h5.25v-1.9h-36.58v-26.5ZM66.34,374.91l.17-32.69,32.03.16-.17,32.7-32.03-.17ZM94.94,376.06l-.14,26.36h-3.21l.14-26.38,3.21.02ZM91.03,376.04l-.14,26.38h-3.61l.13-26.4,3.62.02ZM86.75,376.02l-.14,26.4h-2.99l.14-26.42,2.99.02ZM83.09,376l-.14,26.42h-3.24l.14-26.44,3.24.02ZM79.18,375.98l-.13,26.44h-3.25l.14-26.46,3.24.02ZM75.28,375.96l-.14,26.46h-3.24l.13-26.48,3.25.02ZM56.04,267.21v-15.29h13.31v15.62h-1.59v.67h-8.9v-1h-2.82ZM69.35,231.79v18.53h-13.31v-18.36h2.32v-.66h9.07v.49h1.92ZM69.55,315.12l-.07,12.64h-3.24s.06-12.64.06-12.64h3.25ZM69.48,328.26l-.07,12.97-3.24-.02.06-12.96h3.25ZM73.38,328.28l-.06,12.97-3.25-.02.07-12.96h3.24ZM70.14,327.77l.07-12.65h3.24l-.06,12.66h-3.25ZM77.29,328.3l-.07,12.97-3.24-.02.07-12.96h3.24ZM74.05,327.79l.07-12.67h3.24l-.07,12.68h-3.24ZM80.95,328.32l-.07,12.97-2.99-.02.07-12.96h2.99ZM77.96,327.81l.07-12.69h2.99l-.07,12.7h-2.99ZM85.23,328.34l-.07,12.97-3.61-.02.06-12.96h3.62ZM81.62,327.83l.06-12.71h3.62l-.07,12.73-3.61-.02ZM89.14,328.36l-.07,12.97h-3.24s.06-12.98.06-12.98h3.25ZM85.9,327.85l.06-12.73h3.24l-.06,12.75-3.24-.02ZM92.79,328.38l-.06,12.97h-3s.07-12.98.07-12.98h2.99ZM89.8,327.87l.07-12.75h2.99l-.06,12.77-3-.02ZM95.62,376.06l2.98.02-.14,26.34h-2.98l.14-26.36ZM93.39,341.36l.07-12.97v-.5l.07-12.77h5.4v26.26l-5.54-.02ZM39.32,183.42h29.53v17.7h.65v12.8h-.15v16.13h-1.92v.41h-9.07v-.33h-7.31v.33h-9.81v-.41h-1.92v-46.63ZM39.32,231.71h1.92v-.41h9.81v.66h3.88v18.36h-15.61v-18.61ZM39.32,251.92h15.61v15.29h-2.55v1h-9.64v-.5h-3.42v-15.79ZM39.32,269.29h3.42v-.53h9.64v.53h6.48v-.53h8.9v.53h1.59v44.9h-30.03v-44.9ZM39.32,315.12h26.32l-.14,26.13h-.5v6.28l-12.63-.07h-.5l-12.56-.07v-32.27ZM52.25,371.26l.02-3.62,12.74.07v3.62l-12.76-.07ZM65,371.74v3.66l-12.78-.07.02-3.66,12.76.07ZM52.27,367.23l.02-3.16,12.72.07v3.15l-12.74-.06ZM52.29,363.65l.02-3.59,12.7.06v3.6l-12.72-.07ZM52.31,359.64l.02-3.66,12.68.07v3.66l-12.7-.07ZM52.33,355.57l.02-3.62,12.66.07v3.61l-12.68-.06ZM52.35,351.53l.02-3.65,12.64.06v3.66l-12.66-.07ZM39.32,347.81l12.55.06v3.66s-12.55-.06-12.55-.06v-3.66ZM39.32,351.88l12.53.07-.02,3.61-12.51-.06v-3.62ZM39.32,355.91l12.51.07-.02,3.66-12.49-.07v-3.66ZM39.32,359.99l12.49.06-.02,3.6-12.47-.06v-3.6ZM39.32,364l12.47.07-.02,3.15-12.45-.06v-3.16ZM39.32,367.57l12.45.07-.02,3.62-12.43-.07v-3.62ZM39.32,371.61l12.43.06-.02,3.66-12.41-.07v-3.65ZM39.32,375.68l12.41.06v.07h.5v-.06l12.78.07v.08h.32s6.04.04,6.04.04l-.14,26.48h-31.91v-26.74ZM39.32,405.12h65.83v61.3H39.32v-61.3ZM39.32,468.52h65.08v12.5h.85v12.1h-.3v9.9h-40.2v.63h-10.1v-.73h-15.33v-34.4ZM39.32,505.07h15.33v-.76h10.1v.61h40.2v9.7h.3v12.1h-.3v15.5h-39.6v.83h-12v-.83h-14.03v-37.15ZM39.32,543.82h14.03v-.27h12v.67h39.6v15.5h.3v21.4H39.32v-37.3ZM172.64,707.77h-.39v2.09H39.32v-63.39h.07v-.33h-.07v-62.72h73.4v1.1h.18v61.62l-.02.13v.33l59.76-.13v61.3ZM293.91,697.74h-.94v12.12h-118.01v-2.09h-.32v-61.3h.11v-.05h7v-.1h1.4v-25.53h11.39v.24h98.43v63.41h.94v13.3ZM492.19,698.23h-1.36v11.63h-195.53v-12.12h-.39v-13.3h.39l.17-28.21,17.62.08v.64h23.61v-.64h9.48v.14h2.83v.66h.99v-9.31h4.49v.5h90.45v8.32h1.5v.66h6.32v-1.5h10.14v1h16.3v-1.65h11.63v29.06h1.36v14.04ZM339.36,621.2v15.13h-12.3v-14.96h1.16v-1.15h7.32v.98h3.82ZM349.01,637.33v17.29h-2.83v.88h-9.48v-1.71h-9.64v-16.46h21.95ZM341.02,636.33v-15.13h2.66v-.98h9.65v16.11h-12.31ZM353.33,637.33v9.31h-3.33v-9.31h3.33ZM377.93,551.7v3.49h1.17v-3.49h.33v-1.3h41.24v4.96h2.16v-3.83h1.99v-1.13h17.3v1.3h2.49v1.16h-.17v1.33h-.49v30.53h-26.5v-.1h-34.69v.5h-26.16v-.02h-.99v-.27l.05-29.97h.99v-2.83h1.33v-1.63h15.47v1.3h4.48ZM417.36,631.76v-12.85h.1v-1.29h-.01v-5h26.54v6.58h-.54v25.78h-26.09v-12.72h.07v-.5h-.07ZM430.52,589.05v3.2h-13.07v-3.2h13.07ZM417.45,588.37v-2.98h13.07v2.98h-13.07ZM430.52,592.95v3.62h-13.07v-3.62h13.07ZM430.52,597.24v2.99h-13.07v-2.99h13.07ZM430.52,600.89v3.25h-13.07v-3.25h13.07ZM430.52,604.8v3.24h-13.07v-3.24h13.07ZM430.52,608.71v3.24h-13.07v-3.24h13.07ZM430.93,611.95v-3.24h13.06v3.24h-13.06ZM430.93,608.04v-3.24h13.06v3.24h-13.06ZM430.93,604.14v-3.25h13.06v3.25h-13.06ZM443.95,589.05v3.2h-13.02v-3.2h13.02ZM430.93,588.37v-2.98h13.02v2.98h-13.02ZM443.95,592.95v3.62h-13.02v-3.62h13.02ZM443.95,597.24v2.99h-13.02v-2.99h13.02ZM409.26,631.76v-12.85h3.61v12.85h-3.61ZM412.87,632.26v12.72h-3.61v-12.72h3.61ZM383.76,617.63v-32h32.69v2.75h-.02v.68h.02v28.57h-32.69ZM405.69,631.76v-12.85h3.15v12.85h-3.15ZM408.84,632.26v12.72h-3.15v-12.72h3.15ZM401.67,631.76v-12.85h3.6v12.85h-3.6ZM405.27,632.26v12.72h-3.6v-12.72h3.6ZM397.6,631.76v-12.85h3.66v12.85h-3.66ZM401.26,632.26v12.72h-3.66v-12.72h3.66ZM393.57,631.76v-12.85h3.61v12.85h-3.61ZM397.18,632.26v12.72h-3.61v-12.72h3.61ZM389.49,631.76v-12.85h3.66v12.85h-3.66ZM393.15,632.26v12.72h-3.66v-12.72h3.66ZM413.29,632.26h3.66v12.72h-3.66v-12.72ZM413.29,631.76v-12.85h3.66v12.85h-3.66ZM369.79,614.09v-3.24h12.97v3.24h-12.97ZM382.76,614.76v2.86h0v.38h-12.97v-3.24h12.97ZM369.79,610.18v-3.24h12.97v3.24h-12.97ZM369.79,606.28v-3h12.97v3h-12.97ZM369.79,602.62v-3.62h12.97v3.62h-12.97ZM369.79,598.34v-3.24h12.97v3.24h-12.97ZM369.79,594.43v-2.99h12.97v2.99h-12.97ZM356.65,590.77v-5.24h26.11v5.24h-26.11ZM356.65,614.09v-3.24h12.64v3.24h-12.64ZM369.29,614.76v3.24h-12.64v-3.24h12.64ZM356.65,610.18v-3.24h12.64v3.24h-12.64ZM356.65,606.28v-3h12.64v3h-12.64ZM356.65,602.62v-3.62h12.64v3.62h-12.64ZM356.65,598.34v-3.24h12.64v3.24h-12.64ZM356.65,594.43v-2.99h12.64v2.99h-12.64ZM356.45,618.66h26.31v.25h6.32v26.07h-32.92v-24.29h.29v-2.03ZM458.25,620.53v15.8h-11.31v-16.24h9.48v.44h1.83ZM472.38,620.87v15.46h-12.64v-15.8h1.17v-.44h10.8v.78h.67ZM472.38,638.33v16.12h-9.48v.68h-10.14v-.84h-4.66v-5.99h4.66v-2.99h-.5v-6.98h20.12ZM450.26,638.33v6.98h-3.32v-6.98h3.32ZM567.82,709.86h-73.99v-11.63h-1v-14.04h1v-29.06h12.63v1.32h61.36v53.41ZM721.75,709.86h-152.5v-55.34h1.34s61.21,0,61.21,0h0s0,0,0,0l-.13-35.83v-130.99h90.07v222.16ZM721.75,464.57h-53.13v-11.8h-.71v-12.22h.58v-2.08h-.08v-.25h-8.48v-3.6h.02v-90.8h-.1v-1.4h8.5v-6.4h-.66v-12.6h.66v-15h-.66v-19.2h.26v-6h29.1v-.6h12.8v1.1h11.9v180.85ZM632.58,446.37v-1.25h-.75v-10.1h16.66v11.35h-15.91ZM648.49,447.78v12.22h-16.66v-10.64h.75v-1.58h15.91ZM630.04,432.02v-25.53h1.35v-8.61l12.74.02h12.92v34.12h-27.01ZM626.14,416.75v-10.26h3.25v10.23s-3.25.03-3.25.03ZM629.38,417.22v14.8h-3.25v-14.77s3.25-.03,3.25-.03ZM597.08,405.49v-.66s-.41,0-.41,0v.67h-.75v-35.36h4.69v.11h.68v-.11h29.1v35.36h-33.31ZM622.23,416.79v-10.3h3.25v10.27s-3.25.03-3.25.03ZM625.47,417.26v14.76h-3.25v-14.73s3.25-.03,3.25-.03ZM618.32,416.83v-10.34h3.25v10.31l-3.25.03ZM621.57,417.3v14.72h-3.26v-14.69s3.26-.03,3.26-.03ZM614.67,416.87v-10.38h2.99v10.35l-2.99.03ZM617.66,417.34v14.68h-3v-14.65l3-.03ZM611.21,449.11v10.97h-17.57v-12.19h16.74v1.22h.83ZM610.38,445.12v1.22h-16.74v-11.32h17.57v10.1h-.83ZM602.11,417.49h.04v14.53h-5.39l.31-25.53h5.09v10.5h-.06v.5ZM605.81,417.46v14.56h-3v-14.53s3-.03,3-.03ZM602.82,416.99v-10.5h3v10.47s-3,.03-3,.03ZM609.72,417.42v14.6h-3.25v-14.57s3.25-.03,3.25-.03ZM606.48,416.95v-10.46h3.24v10.43l-3.24.03ZM610.38,432.02v-14.61l3.62-.04v14.65h-3.62ZM610.38,416.91v-10.42h3.63v10.38s-3.63.04-3.63.04ZM603.84,316.09v25.73h-37.24v-26.06h5.21v-1.33h10.81v1.66h21.22ZM604.25,344.42l.24,24.71h-3.21l-.24-24.71h3.21ZM600.36,344.42l.24,24.71h-2.98l-.24-24.71h2.98ZM604.95,344.42h3.61l.25,24.71h-3.62l-.24-24.71ZM609.23,344.42h2.99l.24,24.71h-2.99l-.24-24.71ZM612.89,344.42h3.24l.24,24.71h-3.24l-.24-24.71ZM616.79,344.42h3.25l.24,24.71h-3.24l-.25-24.71ZM620.7,344.42h3.24l.25,24.71h-3.25l-.24-24.71ZM632,325.22v-10.45h16.45v13.3h-15.9v-2.85h-.55ZM632.55,330.92v-1.2h15.9v11.23h-.06v.87h-16.39v-10.9h.55ZM657.05,344.42v25.2h-12.76v-.07h-.49v.06l-12.41-.02v-.46h-6.54l-.24-24.71h32.44ZM667.36,323.42v12.6h-.61v4.9h-7.1v-2.85h.3v-1.35h-10.2v-21.95h16.6v8.65h1.01ZM657.05,374.11v3.62l-12.77-.02v-3.61h12.77ZM644.28,373.68v-3.66s12.77.02,12.77.02v3.66l-12.77-.02ZM657.05,378.15v3.15h-12.77v-3.17l12.77.02ZM657.05,381.72v3.6l-12.78-.02v-3.6s12.78.02,12.78.02ZM657.05,385.73v3.66l-12.78-.02v-3.65h12.78ZM657.05,389.81v3.61h-12.79s.01-3.63.01-3.63l12.78.02ZM657.05,393.84v3.66l-12.79-.02v-3.66l12.79.02ZM658.35,435.02v3.2h-8.26v-3.2h8.26ZM658.15,338.07v3.75h-8.39v-.87h-.01v-2.88h8.4ZM631.39,393.39v-3.62l12.39.02v3.62s-12.39-.02-12.39-.02ZM643.77,393.82v3.66l-12.38-.02v-3.65h12.38ZM631.39,389.36v-3.66l12.39.02v3.65h-12.39ZM631.39,385.29v-3.6h12.39v3.61h-12.39ZM631.39,381.27v-3.16l12.4.02v3.16l-12.4-.02ZM631.39,377.7v-3.62l12.4.02v3.61h-12.4ZM631.39,373.67v-3.66h12.41s-.01,3.67-.01,3.67h-12.4ZM650.09,439.63h16.58v.92h.66v12.22h-.42v7.23h-16.82v-20.37ZM721.75,281.62h-11.9v.22h-12.8v-.42h-63.46v-.14h-.74v-97.36h-.85v-12.56h1.03v-8.74h54.77v8.73h2.1v-.13h31.85v110.4ZM721.75,169.12h-31.85v-8.22h-2.1v.12h-54.77v-.11h-2.1v10.45h.4v18.92h.02v98.24h1.5v-5.22h.74v-.08h32.86v6h.91v19.2h-1.01v5.3h-35.1v1.05h.08v10.45h-.58v5.7h.58v10.9h-26.16v-25.73h.22v-2.99h-22.77v.67h-10.81v-.34h-7.32v2.33h.33v26.06h-3.17v2.6h.07v1.71h1.33v-1.71h33.46l.24,24.71h-1.83v37.36h1.73l-.3,25.53h-30.9v.15h-1.9v-2.65h-1.8v5.3h.9v.2h2.4v26.51h13.74v-.62h10.64v.5h22.62v-1.33h-.5v-10.97h1.33v-3.99h-1.33v-10.1h19.78v10.1h-.91v4.24h.91v10.64h-.83v1.83h36.41v2.74h-.08v2.16h54.92v20.72h-90.32v131.24l.13,35.58h-60.71v-.16h-1.74s-62.64,0-62.64,0v.69h-12.63v-.69h-3v.69h-11.63v-.36h-5.66v-33.58h5.32v-2.16h-7.15v1.15h-10.8v-.49h-4.49v.49h-9.48v-.66h-2.54v-18.78h3.15v-.6h8.2v.76h7.15v-.76h7.98v.6h2.66v-.34h4.82v-1.66h-4.82v-23.94h-2.66v2.49h-24.44v-22.11h24.61v9.64h2.49v-9.64h.17v-2h-27.44v-3.49h-4.15v.35h-62.69v-.18h-5.98v.18h-15.47v-.52h-4.65v2.83h-2.66v1.46h-10.31v-.96h-14.63v47.89h1.49v-.31h9.56v.64h6.57v-.64h10.97v-.03h.73v.02h1.11v2.52h-.01v.66h.01v3h-.09v.66h.09v11.46h-2.81v.47h-.02v1.19h-9.65v-1.02h-8.14v1.02h-7.32v-1.52h-8.48v2.83h6.15v32.42h-12.8v1.71h-12.14v-1.88h-5.65v-32.59h4.82v-1.83h-105.58v1.07h-11.39v-.85h-9.9v1.4h7.5v24h-6.11v-.09h-2v1.41h-59.41v-61.62h.11v-1.1h3.91v-.8h17.2v.5h33.2v-1.9h-.38v-12.9h.38v-73.4h5.2v-1.6h-.1v-10.95h16.45v1.55h41.45v14.25h.15v.25h35.15v-14.6h15.8v-1.62h-9.9v-14.33h.3v-2.25h-13.1v.99h-20.8v-.99h-12.8v15.85h-36.25v.55h-16.45v-76.6h1.1v-2.2h-.65v-27.2h.65v-42.2h-1.76v-10.8h1.76v-10.6h-.32v-29.91h-.99v-20.66h.99v-53.61h.45v-1.33h-.45v-23.06h1.11v-3.1h-7.53v1h-9.98v-1h-7.98v-4.1h-.83v-16.23h8.63v-.62h10.8v.92h4.2v-.4h1v-.41h17.4v1.11h59.4v.1h2.15s20.15.01,20.15.01v1.07h32.7v-1.07h15.87v.15h34.33v.64h62.7v-1.35h17.1v1.05h59.69v16.5h-.29v134.8h.18v12.4h-.18v32.3h-3.6v.54h-10.6v-.54h-3.7v38.4h.53v13.4h-.53v7.6h17.63v64.79h-37.24v1.99h37.24v.23h1.78v-.23h.44v-1.99h-.44v-64.79h10.79v-1.75h-.1v-5.75h19.4v7.1h2.5v-5.9h14.5v-1.15h-14.5v-1.1h-.3v-.55h-.29v-25.1h.62v-1.25h-.62v-12.75h.59v-10.65h-.7v-.55h-16.5v.54h-10.7v-.54h-5.08v-32.3h-.56v-12.4h.14v-134.8h-.14v-16.5h1.04v-.6h2.6v-5.4h12.1v-.7h10.7v1.2h20.8v4.9h1.1v-4.9h.2v-2.1h-.2v-31.3h6.7v-.05h16v.05h21.52v36.7h-5.72v1.6h14.8v-1.6h-7.9v-36.7h7.9V26.9h125.4v142.22ZM567.26,459.98v-24.96h24.61v25.06h-2.44v.34h-10.64v-.44h-11.53ZM446.44,598.48v-19.85h11.81v19.62h-2.5v.89h-8.2v-.66h-1.11ZM460.57,598.25v-19.62h10.31v20.51h-7.98v-.89h-2.33ZM341.19,598.84v-19.87h11.97v20.88h-9.81v-1.01h-2.16ZM327.22,576.81v-21.62h13.14v-1.32h10.31v.99h2.49v21.95h-25.94ZM339.2,578.97v19.87h-2.42v1.01h-9.56v-20.88h11.98ZM269.75,467.87v14.33h-5.15v.02h-.25v13.95h-31.3v-14.5h-1.5v-.2h-4v-13.35h10.7v-.93h20.8v.68h10.7ZM511.5,358.82v22.75h-12.35v-21.95h1.2v-1.04h10.7v.24h.45ZM526.55,366.22v2.6h.28v12.75h-14.85v-15.35h14.57ZM511.98,364.81v-5.99h14.57v5.99h-14.57ZM526.83,382.82v11.8h-20.48v-11.8h20.48ZM526.83,396.62v11.3h-20.48v-11.3h20.48ZM504.85,382.82v32.45h-26.35v-5.85h-.8v-13.4h.75v-13.2h26.4ZM492,359.62v21.95h-13.55v-22.65h1.5v-.34h10.6v1.04h1.45ZM497.65,381.57h-4.32v-21.95h4.32v21.95Z"/>
</svg>