<?xml version="1.0" encoding="UTF-8"?>
<svg id="Layer_2" data-name="Layer 2" xmlns="http://www.w3.org/2000/svg" viewBox="0 0 838.63 840.95">
  <defs>
    <style>
      .cls-1 {
        fill: #afafaf;
        stroke-width: 0px;
      }
    </style>
  </defs>
  <rect class="cls-1" x="333.59" y="113.44" width="2.27" height="19.71"/>
  <g>
    <rect class="cls-1" x="332.91" y="114.21" width="2.27" height="19.71"/>
    <path class="cls-1" d="M709.86,414.72v32.14h31.57v-32.14h-31.57ZM725.01,445.72h-14.01v-2.99h14.01v2.99ZM725.01,441.11h-14.01v-2.93h14.01v2.93ZM725.01,436.57h-14.01v-2.99h14.01v2.99ZM725.01,431.97h-14.01v-2.92h14.01v2.92ZM725.01,427.43h-14.01v-2.41h14.01v2.41ZM725.01,423.4h-14.01v-2.93h14.01v2.93ZM725.01,418.85h-14.01v-2.99h14.01v2.99ZM726.73,415.87h13.56v2.99h-13.56v-2.99ZM726.73,420.48h13.56v2.93h-13.56v-2.93ZM726.73,425.03h13.56v2.41h-13.56v-2.41ZM726.73,429.06h13.56v2.92h-13.56v-2.92ZM726.73,433.58h13.56v2.99h-13.56v-2.99ZM726.73,438.19h13.56v2.93h-13.56v-2.93ZM726.73,442.74h13.56v2.99h-13.56v-2.99Z"/>
    <path class="cls-1" d="M560.69,671.45h49.7v-48.69h-49.7v48.69ZM562.21,624.27h46.66v45.65h-46.66v-45.65Z"/>
    <path class="cls-1" d="M39.76,25v585.04h-.25v3.03h.25v182.71h83.23l.09.25v-.25h692.52V25H39.76ZM814.08,26.52v89.04h-.05v.5h.05v61.83h-10.53v1.35h-.16v7.58h-25.61v-7.58h-.34v-1.52h-63.68v-.16h-2.36v-57.08l-.04-4.89-38.8-.03V26.52h141.52ZM753.05,313.6v-.25h-2.78v.25h-37.19v-108.92h.2v-2.36h-1.18v-12.13h1.66v-9.27h60.99v8.93h39.33v123.67h-15.58v.59h-13.39v-.51h-32.06ZM743.7,375.52v-1.39h-10.48v-22.62h16.67v9.22h1.9v13.02h-1.52v6.06h-6.44v-4.29h-.13ZM712.75,204.68v108.92h-1.02v-108.92h1.02ZM806.42,186.82v-6.06h7.66v6.06h-7.66ZM550,26.53h120.54v106.76h-36.14v.88h-12.13v-1.01h-18.95v3.54h8.34v6.57h-61.66V26.53ZM541.4,169.81v-24.52h70.26v25.02h-24.51v1.33h-11.12v-1.83h-34.63ZM559.26,198.62v148.47h-.92v-148.47h.92ZM542.92,175.62v-3.03h17.69v3.03h-17.69ZM373.09,26.52h172.11v116.75h-3.04v-5.81h-2.69v6.06h-.09v28.81h.51v.26h.76v3.03h-.51v3.54h18.07v17.31h-1.01v2.15h.63v148.47h-.25v1.64h.63v14.15h-.38v36.14h-4.04v2.78h10.61v-2.78h-5.31v-36.14h-.37v-14.15h1.13v-1.64h-.08v-148.47h.21v-2.15h-1.01v-17.31h4.13v-3.54h-.21v-3.03h13.14v-.57h11.12v.57h24.48v2.94h-.05v3.12h8.08v-3.12h-5.76v-2.69h.03v-36.14h8.34v-1.77h12.13v1.45h26.79v38.69h-5.09v3.29h5.22v.04h10.86v-2.28h-8.21v-39.74h8.85v-3.09h-.26v-17.23h38.33v61.5h-.67v12.63h1.55v12.13h-1.86v2.36h1.49v108.92h-.17v8.21h2.65v-6.27h36.39v6.27h1.27v13.9h-.13v7.46h-1.52v5.94h-36.51v-6.07h-2.53v6.07h-.88v2.4h.88v10.99h-1.14v7.08h1.52v10.36h-.51v.87h-27.92v-31.34h-8.34v.88h-10.99v-1.14h-26.79v2.15h-.13v29.44h-3.29v6.06h.37v17.44h-3.28v21.73h.7v28.56h-.7v7.67h.17v.17h2.85v17.18h-.15v6.07h3.03v29.48h2.53v.17h48.52v5.9h2.86v-8.09h-.51v-.34h-.34v-10.95h1.18v-5.73h-.84v-10.28h21.57v10.45h-1.18v5.39h1.05v11.29h-.88v7.92h2.7v-5.05h37.57v5.22h.85v20.72h-1.87v6.91h-36.05v-6.23h-2.53v8.76h.17v47.19h-.14v3.71h1.02v13.12h-.88v76.15h-11.46v1.01h-13.64v-1.01h-124v2.86h6.91v36.56h-7.42v1.18h-21.73v-.84h-5.9v-18.19h.17v-1.69h-.17v-17.35h6.07v-2.19h-8.93v.84h-9.77v-.67h-5.73v.67h-9.1v-1.01h-1.85v-.17h-3.54v29.32h-29.96v-29.55h.02v-6.92h30.26v-12.83h3.55v-1.41h10.96v1h5.56v-1h9.94v1.34h8.42v-2.69h-5.39v-51.05h-.34v-.51h-31.67v-5.89h-2.87v3.2h-18.7v-.51h-3.36v-20.72h.5v-16.68h7.24v-2.36h-.43v-2.27h-.75v-16.68h.75v-14.75h75.11v-2.08h-.21v-45.09h-1.14v-18.95h1.65v-9.86h9.35v.15h1.8v-.15h23.05v.11h1.78v-9.21h-.73v-13.14h.38v-2.15h-.38v-10.74h1.39v-7.58h-1.14v-11.62h.12v-11.63h-.51v-.08h-18.18v1.64h.25v24.98h-36.64v-26.54h-4.3v43.22h4.3v-14.91h28.81v36.39h-28.9v-6.57h-3.03v7.83h19.54v9.86h.76v18.95h-.5v45.09h-72.63v-18.81h-.24v-.16h-8.42v.84h-15.17v-1.35h-37.9v-.17h-2.87v7.58h.46v10.28h-.46v1.85h-81.71v.34h-18.36v-1.35h-10.62v-14.66h.34v-3.36h-8.76v.67h-34.37v-.84h-10.11v2.02h-.34v16.68h-25.19v-53.81h274.89v-51.44h.26v-175h-.77v-.29h-32.22v-46.15h-.56v-.02h.43v-1.52h-242.85v-30.7h56.17v-.59h23.08v1.26h33.87v-1.26h17.94v1.01h17.94v-1.01h.25v-5.81h-3.03v3.79h-3.28V26.52ZM713,365.41v-2.91h-1.14v-10.99h17.82v13.9h-16.68ZM729.68,367.93v12.01h-17.69v-10.36h1.01v-1.65h16.68ZM697.61,399.88v13.5h-2.61v-13.5h2.61ZM695,398.29v-13.48h2.61v13.48h-2.61ZM708.71,415.63v35.47h-35.89v-35.47h35.89ZM702.12,399.89v13.5h-2.61v-13.5h2.61ZM699.52,398.29v-13.48h2.61v13.48h-2.61ZM709.1,466.75h-2.6v-13.38h2.6v13.38ZM709.22,467.98v13.34h-2.6v-13.34h2.6ZM702.1,467.98h2.6v13.34h-2.6v-13.34ZM701.98,466.75v-13.38h2.61v13.38h-2.61ZM697.58,467.98h2.6v13.34h-2.6v-13.34ZM697.46,466.75v-13.38h2.61v13.38h-2.61ZM693.35,467.98h2.33v13.34h-2.33v-13.34ZM693.23,466.75v-13.38h2.33v13.38h-2.33ZM688.82,501.88v10.95h-18.7v-12.64h18.03v1.69h.67ZM688.15,496.14v2.19h-18.03v-12.47h19.21v10.28h-1.18ZM667.59,485.87v26.96h-28.47v-27.12h3.37v-1.69h11.62v1.85h13.48ZM654.14,481.3l-.03.02v1.85h-11.62v-3.54h-7.56v-17.18h.66v-.34h.17v-3.88h3.37v-2.53h-3.37v-.17h-2.36v3.85h-.01v.7h-1.42v-5.48h-.39v-28.56h.47v-19.37h1.35v3.03h5.48v-1.85h-3.45v-3.54h-.23v-17.44h.73v-2.91h3.54v-.25h31.98v30.78h.27v37.71h-.11v29.1h-17.47ZM680.14,352.39v28.43h-40.69v-28.05h24.01v-1.39h10.99v1.01h5.69ZM676.8,398.28v-13.44h2.56v13.44h-2.56ZM679.36,399.88v13.5h-2.56v-13.5h2.56ZM672.57,413.37v-13.5h2.31v13.5h-2.31ZM672.72,453.36h4.92v27.96h-4.92v-27.96ZM672.57,398.28v-13.44h2.31v13.44h-2.31ZM681.86,466.75h-2.32v-13.38h2.32v13.38ZM681.98,467.97v13.35h-2.32v-13.35h2.32ZM686.38,466.75h-2.6v-13.38h2.6v13.38ZM686.5,467.96h0v13.35h-2.61v-13.35h2.61ZM688.4,481.32v-13.34h3.05v13.34h-3.05ZM688.28,466.75v-13.38h3.05v13.38h-3.05ZM684.35,399.88v13.5h-3.05v-13.5h3.05ZM681.31,398.28v-13.44h3.05v13.44h-3.05ZM688.58,399.88v13.5h-2.32v-13.5h2.32ZM686.27,398.28v-13.44h2.32v13.44h-2.32ZM690.48,413.38v-13.5h2.62v13.5h-2.62ZM693.1,398.28h-2.62v-13.48h2.62v13.48ZM712.07,496.3v-10.44h18.02v11.79h-17.18v-1.35h-.84ZM712.91,501.7v-1.18h17.18v12.63h2.7v-22.23h17.98v14.49h-.29v7.75h-37.57v-.17h-1.18v-11.29h1.18ZM814.08,544.84v67.22h-6.82v-.17h-3.03v5.9h-36.06v-.17h-1.68v8.76h-53.07v-11.12h-.81v-13.12h1.18v-3.71h-.03v-47.19h68.06v-1.18h.34v-5.06h2.53v-.67h13.98v.51h15.41ZM814.08,614.92v11.29h-6.82v-11.29h6.82ZM712.07,598.43v-47.19h.68v47.19h-.68ZM504.51,733.11v-20.13h28.13v18.19h-8.25v2.19h-14.83v-.25h-5.05ZM517.48,693.94h0v17.35h-12.97v-18.03h1.85v-.5h9.1v1.18h2.02ZM520.18,711.29v-17.35h1.01v-1.18h9.77v1.18h1.68v17.35h-12.46ZM370.57,731.09v-18.07h23.92v18.99h-16.85v-.92h-7.07ZM368.8,690.65v.25h-6.57v3.04h6.57v37.15h-14.15v.92h-13.65v-1.43h-5.81v-36.39h6.32v-2.53h-118.27v.59h-13.65v-.08h-45.49v.08h-13.65v-21.31h-1.43v-13.14h.68v-6.32h39.61v.06h2.59v-10.1h-1.13v-11.95h.62v-7.63h.05v-9.3h6.95v-2.36h-1.06v-14.56h-.19v-56.03h.4v56.48h1.01v-56.69h18.2v.89h46.67v15.33h-.34v2.86h39.26v-17.86h17.69v-.84h18.36v.51h81.03v.15h.68v3.72h.42v11.46h-.52v1.49h8.36v16.87h-7.58v2.7h10.95v-.68h9.94v.51h5.39v-.51h11.45v1.12h3.02v-.61h14.34v16.68h.49v20.72h-1v.17h-.67v.34h-44.82v-1.01h-7.07v1.01h-16.18v-.34h-5.56v1.85h.17v1.86h-4.38v2.52h3.37v24.01h-29.48v-2.44h-1.01v-10.45h1.34v-11.79h14.83v-2.7h-16.85v14.49h.17v10.45h-.34v28.98h1.86v-.68h11.62v1.01h5.9v-1.34h11.96v22.74h-9.69v-.67h-10.36v.67h-9.6v-1.94h-1.77ZM190.13,629.49v11.95h-.82v7.77h-29v-27.38h28.05v7.66h1.77ZM197.59,419.83v29.48h-8.03v-43.13h7.65v13.65h.38ZM306.21,522.76v14.66h-6.4v3.2h.17v15h-34.37v-17.69h-6.07v-15.17h7.08v-2.19h34.37v2.19h5.22ZM430.04,573.98v-16.87h12.64v16.87h-1.01v1.66h-9.94v-1.66h-1.69ZM421.58,536.58v-10.28h1.39v-4.21h19.71v16.86h-20.22v-2.37h-.88ZM422.46,544.16v-3.72h20.22v15.18h-21.15v-11.46h.93ZM482.27,522.76v15.61h-.04v2.08h.04v9.78h-20.74v-.17h-3.02v5.39h-14.82v-33.36h17.18v-.67h15.17v1.34h6.23ZM483.45,555.2v16.68h-1.18v2.27h-20.74v-20.89h20.74v1.94h1.18ZM458.51,557.3v18.34h-11.45v-1.66h-3.37v-16.68h14.82ZM502.32,622.5v-.17h.17v11.97h-1.18v17.9h-.86v.23h-30.02v.26h-37.71v-.1h-29.13v-33.62h-.17v-1.18h-.17v-1.86h3.37v-.84h16.18v1.18h4.38v3.71h2.69v-4.89h44.82v4.72h3.03v-3.2h3.03v-1.52h18.7v7.41h2.87ZM486.66,678.6v-2.6h13.49v2.6h-13.49ZM500.15,680.52v2.6h-13.49v-2.6h13.49ZM486.66,674.1v-2.62h13.49v2.62h-13.49ZM500.1,657.8v2.56h-13.44v-2.56h13.44ZM486.66,655.87v-2.3h13.44v2.3h-13.44ZM500.1,662.3v3.05h-13.44v-3.05h13.44ZM500.1,667.26v2.32h-13.44v-2.32h13.44ZM471.57,678.6v-2.6h13.49v2.6h-13.49ZM485.06,680.52v2.6h-13.49v-2.6h13.49ZM471.57,674.1v-2.62h13.49v2.62h-13.49ZM471.57,669.58v-2.32h13.49v2.32h-13.49ZM471.57,665.35v-3.05h13.49v3.05h-13.49ZM471.57,660.36v-2.56h13.49v2.56h-13.49ZM471.57,655.87v-2.3h13.49v2.3h-13.49ZM465.3,707.73v13h-2.9v-13h2.9ZM462.4,706.02v-14.01h2.9v14.01h-2.9ZM433.84,689.71v-35.88h35.47v35.88h-35.47ZM458.4,706.02v-14.01h2.39v14.01h-2.39ZM460.79,707.73v13h-2.39v-13h2.39ZM453.9,706.02v-14.01h2.89v14.01h-2.89ZM456.79,707.73v13h-2.89v-13h2.89ZM452.3,707.73v13h-2.96v-13h2.96ZM449.34,706.02v-14.01h2.96v14.01h-2.96ZM444.83,706.02v-14.01h2.9v14.01h-2.9ZM447.73,707.73v13h-2.9v-13h2.9ZM440.26,706.02v-14.01h2.96v14.01h-2.96ZM443.22,707.73v13h-2.96v-13h2.96ZM418.2,685.6v-2.61h13.38v2.61h-13.38ZM431.58,687.51v2.6h-13.38v-2.6h13.38ZM418.2,681.08v-2.61h13.38v2.61h-13.38ZM418.2,676.57v-2.33h13.38v2.33h-13.38ZM418.2,672.34v-3.04h13.38v3.04h-13.38ZM418.2,667.39v-2.6h13.38v2.6h-13.38ZM418.2,662.87v-2.31h13.38v2.31h-13.38ZM403.59,658.64v-4.91h27.99v4.91h-27.99ZM416.5,660.56v2.31h-12.91v-2.31h12.91ZM416.5,664.79v2.6h-12.91v-2.6h12.91ZM416.5,669.3v3.04h-12.91v-3.04h12.91ZM416.5,674.24v2.33h-12.91v-2.33h12.91ZM416.5,678.47v2.61h-12.91v-2.61h12.91ZM416.5,682.99v2.61h-12.91v-2.61h12.91ZM416.5,687.51v2.6h-12.91v-2.6h12.91ZM432.72,691.25v-.4h6.43v.02h-.03v29.86h-35.53v-29.48h29.13ZM466.91,707.73h2.96v13h-2.96v-13ZM466.91,706.02v-14.01h2.96v14.01h-2.96ZM385.9,668.83v-21.56h14.32v22.41h-11.96v-.85h-2.36ZM384.55,647.27v21.56h-2.19v.85h-11.62v-22.41h13.81ZM384.22,694.19v17.32h-13.65v-18.25h9.6v.93h4.05ZM386.49,711.51v-17.32h4.04v-.93h9.69v18.31h-.34v-.06h-13.39ZM396.15,713.02h3.73v-.16h.34v11.23h103.11v9.02h-107.18v-20.09ZM519.33,668.5v-22.24h13.31v22.41h-1.34v.84h-9.94v-1.01h-2.03ZM532.64,644.4h-27.96v-10.1h-1.52v-11.97h1.18v-2.69h28.3v24.76ZM504.68,652.2v-5.94h12.97v22.24h-1.85v1.01h-10.96v-17.31h-.16ZM593.72,408.37v1.77h1.51v11.62h-.76v3.29h-15.74v-16.68h14.99ZM578.73,406.6v-6.53h14.99v6.53h-14.99ZM594.47,426.82v2.52h.38v10.74h-23.59v-13.26h23.21ZM594.85,442.23v13.14h-23.59v-13.14h23.59ZM594.31,456.89v6.32h-23.05v-6.32h23.05ZM278.31,352.9v-.25h.49v-.25h193.71v130.2h-241.02v-129.53l46.83-.17h-.01ZM291.05,235.14v22.24h-12.13v-22.24h12.13ZM278.92,234.14v-20.34h12.13v20.34h-12.13ZM376.02,259.91v11.37h-97.22v-11.37h97.22ZM303.94,235.14v22.24h-12.13v-22.24h12.13ZM291.81,234.14v-20.34h12.13v20.34h-12.13ZM317.08,235.14v22.24h-12.38v-22.24h12.38ZM304.7,234.14v-20.34h12.38v20.34h-12.38ZM329.97,235.14v22.24h-12.13v-22.24h12.13ZM317.84,234.14v-20.34h12.13v20.34h-12.13ZM342.86,235.14v22.24h-12.13v-22.24h12.13ZM330.73,234.14v-20.34h12.13v20.34h-12.13ZM355.75,235.14v22.24h-12.13v-22.24h12.13ZM343.62,234.14v-20.34h12.13v20.34h-12.13ZM368.64,235.14v22.24h-12.13v-22.24h12.13ZM356.51,234.13v-20.34h12.13v20.34h-12.13ZM394.66,235.14v22.24h-12.38v-22.24h12.38ZM382.28,234.13v-20.34h12.38v20.34h-12.38ZM472.5,259.91v11.37h-95.27v-11.37h95.27ZM407.55,235.14v22.24h-12.13v-22.24h12.13ZM395.42,234.13v-20.34h12.13v20.34h-12.13ZM420.44,235.14v22.24h-12.13v-22.24h12.13ZM408.31,234.13v-20.34h12.13v20.34h-12.13ZM433.46,235.14v22.24h-12.26v-22.24h12.26ZM421.2,234.13v-20.34h12.26v20.34h-12.26ZM446.35,235.14v22.24h-12.13v-22.24h12.13ZM434.22,234.14v-20.34h12.13v20.34h-12.13ZM459.48,234.13h-12.38v-20.34h12.38v20.34ZM459.49,235.14v22.24h-12.38v-22.24h12.38ZM472.38,235.14v22.24h-12.13v-22.24h12.13ZM460.25,234.13v-20.34h12.13v20.34h-12.13ZM377.23,338.13v-12.38h95.27v12.38h-95.27ZM472.5,339.14v11.75h-95.27v-11.75h95.27ZM377.23,324.73v-11.62h95.27v11.62h-95.27ZM377.23,312.1v-12.38h95.27v12.38h-95.27ZM377.23,298.7v-13.01h95.27v13.01h-95.27ZM377.23,284.68v-12.38h95.27v12.38h-95.27ZM381.52,234.14h-12.13v-20.34h12.13v20.34ZM381.52,235.14v22.24h-12.13v-22.24h12.13ZM376.02,272.3v12.38h-97.22v-12.38h97.22ZM376.02,285.69v13.01h-97.22v-13.01h97.22ZM376.02,299.72v12.38h-97.22v-12.38h97.22ZM376.02,313.11v11.62h-97.22v-11.62h97.22ZM376.02,325.75v12.38h-97.22v-12.38h97.22ZM376.02,339.14v11.75h-97.22v-11.75h97.22ZM255.22,263.72v4.48l-23.74.08v-4.48l23.74-.08ZM231.48,263.52v-4.48l23.74-.08v4.48l-23.74.08ZM255.22,268.48v4.57l-23.74.08v-4.57l23.74-.08ZM255.22,273.33v4.48l-23.74.08v-4.48l23.74-.08ZM255.22,278.09v4.48l-23.74.08v-4.48l23.74-.08ZM255.22,282.85v4.62l-23.74.08v-4.62l23.74-.08ZM255.22,287.61v4.48l-23.74.08v-4.48l23.74-.08ZM255.22,292.37v4.48l-23.74.08v-4.48l23.74-.08ZM255.22,297.13v4.57l-23.74.08v-4.57l23.74-.08ZM255.22,301.98v4.48l-23.74.08v-4.48l23.74-.08ZM255.22,306.74v4.48l-23.74.08v-4.48l23.74-.08ZM255.22,311.5v4.53l-23.74.08v-4.53l23.74-.08ZM255.22,316.3v4.48l-23.74.08v-4.48l23.74-.08ZM255.22,321.06v4.57l-23.74.08v-4.57l23.74-.08ZM255.22,325.91v4.48l-23.74.08v-4.48l23.74-.08ZM255.22,330.67v3l-23.74.08v-3l23.74-.08ZM255.22,333.95v4.48l-23.74.08v-4.48l23.74-.08ZM255.22,338.71v4.48l-23.74.08v-4.48l23.74-.08ZM255.22,343.47v4.48l-23.74.08v-4.48l23.74-.08ZM255.22,348.23v4.48l-23.74.08v-4.48l23.74-.08ZM255.88,311.22v-4.48l21.62-.08v-.28l-21.62.08v-4.48l21.64-.08v10.2h-.56v1.01h.56v2.84l-21.64.08v-4.53l21.39-.08v-.28l-21.39.08ZM277.52,259.91v3.45l-21.64.08v-4.48l21.02-.08v1.03h.62ZM277.52,263.64v4.48l-21.64.08v-4.48l21.64-.08ZM277.52,268.4v4.57l-21.64.08v-4.57l21.64-.08ZM277.52,273.25v4.48l-21.64.08v-4.48l21.64-.08ZM277.52,278.01v4.48l-21.64.08v-4.48l21.64-.08ZM277.52,282.77v4.62l-21.64.08v-4.62l21.64-.08ZM277.52,287.53v4.48l-21.64.08v-4.48l21.64-.08ZM277.52,292.29v4.48l-21.64.08v-4.48l21.64-.08ZM277.52,297.05v4.57l-21.64.08v-4.57l21.64-.08ZM277.52,316.22v4.48l-21.64.08v-4.48l21.64-.08ZM277.52,320.98v4.57l-21.64.08v-4.57l21.64-.08ZM277.52,325.83v4.48l-21.64.08v-4.48l21.64-.08ZM277.52,330.59v3l-21.64.08v-3l21.64-.08ZM277.52,333.87v4.48l-21.64.08v-4.48l21.64-.08ZM277.52,338.63v4.48l-21.64.08v-4.48l21.64-.08ZM277.52,343.39v4.48l-21.64.08v-4.48l21.64-.08ZM277.52,348.15v4.48l-21.64.08v-4.48l21.64-.08ZM278.16,213.8v20.34h-.25v1.01h.25v22.24h-1.26v1.22l-21.02.07v-.09h-.66v.09l-23.74.08v-44.97h46.69,0ZM489.06,269.34v8.13l-14.03.14v-8.13l14.03-.14ZM475.03,268.97v-6.65h14.03v6.51l-14.03.14ZM489.06,277.99v8.3l-14.03.14v-8.3l14.03-.14ZM489.06,286.8v8.13l-14.03.14v-8.13l14.03-.14ZM489.06,295.44v8.13l-14.03.14v-8.13l14.03-.14ZM489.06,304.08v8.39l-14.03.14v-8.39l14.03-.14ZM489.06,312.72v8.13l-14.03.14v-8.13l14.03-.14ZM489.06,321.36v8.13l-14.03.14v-8.13l14.03-.14ZM489.06,330.01v8.3l-14.03.14v-8.3l14.03-.14ZM489.06,338.82v8.13l-14.03.14v-8.13l14.03-.14ZM489.06,347.46v8.13l-14.03.14v-8.13l14.03-.14ZM489.06,356.1v8.22l-14.03.14v-8.22l14.03-.14ZM489.06,364.83v8.13l-14.03.14v-8.13l14.03-.14ZM489.06,373.47v8.29l-14.03.14v-8.29l14.03-.14ZM489.06,382.27v8.13l-14.03.14v-8.13l14.03-.14ZM489.06,390.91v5.44l-14.03.14v-5.44l14.03-.14ZM489.06,396.87v8.13l-14.03.14v-8.13l14.03-.14ZM489.06,405.51v8.13l-14.03.14v-8.13l14.03-.14ZM489.06,414.15v8.13l-14.03.14v-8.13l14.03-.14ZM489.06,422.78v8.21l-14.03.14v-8.21l14.03-.14ZM502.51,431.37v1.31h1.83v49.92h-29.32v-50.95h.01l27.48-.28ZM502.51,269.21v8.13l-13.04.13v-8.13l13.04-.13ZM489.47,268.83v-6.5h13.04v6.37l-13.04.13ZM502.51,277.85v8.3l-13.04.13v-8.3l13.04-.13ZM502.51,286.66v8.13l-13.04.13v-8.13l13.04-.13ZM502.51,295.3v8.13l-13.04.13v-8.13l13.04-.13ZM502.51,303.95v8.39l-13.04.13v-8.39l13.04-.13ZM502.51,312.58v8.13l-13.04.13v-8.13l13.04-.13ZM502.51,321.23v8.13l-13.04.13v-8.13l13.04-.13ZM502.51,329.87v8.3l-13.04.13v-8.3l13.04-.13ZM502.51,338.68v8.13l-13.04.13v-8.13l13.04-.13ZM502.51,347.32v8.13l-13.04.13v-8.13l13.04-.13ZM502.51,355.96v8.22l-13.04.13v-8.22l13.04-.13ZM502.51,364.69v8.13l-13.04.13v-8.13l13.04-.13ZM502.51,373.33v8.29l-13.04.13v-8.29l13.04-.13ZM502.51,382.13v8.13l-13.04.13v-8.13l13.04-.13ZM502.51,390.78v5.44l-13.04.13v-5.44l13.04-.13ZM502.51,396.73v8.13l-13.04.13v-8.13l13.04-.13ZM502.51,405.37v8.13l-13.04.13v-8.13l13.04-.13ZM502.51,414.01v8.13l-13.04.13v-8.13l13.04-.13ZM502.51,422.65v8.21l-13.04.13v-8.21l13.04-.13ZM314.21,136.7v-.51h10.36v3.04h.51v11.87h-.25v9.1h-36.55v-.61h-2.12v-34.26h25.78v11.37h2.27ZM288.28,163.55v-1.07h36.55v13.9h-15.42v1.26h-23.08v-.98h-.17v-13.11h2.12ZM189.12,26.52h182.21v149.86h-10.11v1.26h-17.94v-1.26h-16.43v-25.28h-1.26v-11.87h.75v-3.04h8.6v-2.02h-20.73v-9.39h.32v-10.7h-3.66v8.72h-31.66v-8.3h-3.66v10.7h.5v.13h8.09v51.33h-85.92v-71.8h-1.18v-17.25h1.56v-3.73h-9.48V26.52ZM186.42,284.45v2.78h-42.79v-19.88h-1.01v-14.82h.34v-7.75h-.34v-12.47h1.68v-14.36h27.09v-.13h.54v-2.69h24.94v-.21h1.09v69.15h-.02v.72h-8.89v-.34h-2.63ZM142.28,301.05v-11.46h44.14v20.89h-43.46v-9.43h-.68ZM41.28,26.52h145.82v61.09h9.1v35.42h-1.27v.28h-38.41v-6.32h.25v-3.54h-12.38v.76h-11.88v-.76h-13.9v2.53h9.1v35.63h-.25v.51h-7.75v1.34h7.75v.68h13.14v22.99h-21.23v2.03h25.02v-1.1h10.36v.59h8.59v-.59h12.55v.93h19.64v1.08h.41v9.45h.76v17.94h-.76v5.31h-27.04v3.65h-26.07v.39h-.21v-7.41h.34v-2.02h-6.07v.33h-16.85v-.33H55.69v-.17h-14.41V26.52ZM156.52,176.88v-50.54h39.17v-.04h.51v50.36h-20.31v.73h-12.55v-.51h-6.82ZM154.75,126.34v25.27h-24.77v-35.63h2.53v-.42h11.88v1.43h10.36v6.32h-.51v3.03h.51ZM142.11,177.13v-22.99h12.64v23.25h-10.36v-.26h-2.28ZM141.78,252.53h0v14.82h-.85v22.24h.68v11.46h-1.35v17.86h-18.7v.05h-.84v-.39h-4.05v-5.39h-1.01v-12.13h.68v-17.52h.17v-19.21h.16v-27.29h-.16v-14.49h.66v-13.14h2.87v-1.01h16.85v1.01h4.04v7.41h-.33v15.5h1.18v12.47h-1.52v7.75h1.52ZM41.28,212.6h14.41v-3.2h58.96v13.14h1.19v14.49h-1.19v19.54h-44.48v.84h-13.81v-.5h-15.08v-44.31ZM41.28,258.26h15.08v-.51h13.81v.51h44.48v6.06h1.19v14.49h-1.19v18.53h-44.14v1.52h-10.78v-.51h-18.45v-40.09ZM41.28,300.37h18.45v-1.01h10.78v1.69h44.65v12.13h-.17v6.74h.01v.34h5.72v-.53h.84v.02h18.7v.17h2.7v-7.75h43.46v8.09h2.63v-.34h6.3v8.93h3.54v-10.45h-1.01v-.5h-8.83v-31.97h9.55v-1.14h-.08v-.72h-.05v-69.15h.51v-7.46h-1.44v-17.94h.93v-9.45h.68v-1.08h30.29v34.81h.53v87.99h-.02v.28h.02v181.03h-.01v54.83h-13.2v.46h-18.7v-17.98h-.17v-.85h-.29v-17.39h.43v-49.83h.53v-3.03h-.71v-29.48h1.22v-16.85h-.17v-23.42h-4.21v23.42h-46v-51.22h45.66v16.51h4.72v-19.04h-.17v-1.51h-54.75v4.04h2.35v51.22h-.5v3.2h.5v43.47h-2.35v.63h-18.71v-1.31h-9.01l-.03-15.21-.02-15.09h-.27l-.06-37.71h.11l-.05-29.54h9.67v-3.53H41.28v-47.52ZM189.05,406.18v43.13h-3.62v-43.13h3.62ZM111.04,434.91l.03,13.44h-2.55l-.03-13.44h2.55ZM108.47,419.82h2.55l.02,13.49h-2.55l-.02-13.49ZM79.22,417.61l-.06-35.47,35.75-.06.06,35.47-35.75.06ZM106.55,434.92l.02,13.44h-3.03l-.02-13.44h3.03ZM103.5,419.83h3.03l.02,13.49h-3.03l-.02-13.49ZM101.61,434.93h0s.02,13.43.02,13.43h-2.3l-.02-13.43h2.3ZM99.3,433.33l-.02-13.5h2.31l.02,13.5h-2.31ZM97.41,434.94h0s.02,13.48.02,13.48h-2.6l-.03-13.48h2.61ZM94.78,419.84h2.61l.02,13.49h-2.61l-.02-13.49ZM92.91,434.94l.02,13.48h-2.59l-.03-13.48h2.6ZM90.31,433.34l-.02-13.49h2.59l.03,13.49h-2.6ZM88.41,434.95l.02,13.48h-2.6l-.02-13.48h2.6ZM85.81,433.35l-.02-13.49h2.59l.02,13.49h-2.59ZM81.33,366.91l.02,12.97h-2.59l-.02-12.97h2.59ZM78.73,352.39h2.59l.02,12.96h-2.59l-.02-12.96ZM83.25,365.35l-.02-12.97h2.59l.02,12.97h-2.59ZM85.85,379.87h-2.59l-.02-12.96h2.59l.02,12.96ZM87.75,365.34l-.02-12.97h2.6l.02,12.97h-2.6ZM90.36,379.86h-2.6l-.02-12.96h2.59l.03,12.96ZM92.24,365.33h0s-.02-12.96-.02-12.96h2.32l.02,12.96h-2.32ZM94.57,379.86h-2.32l-.02-12.97h2.32l.02,12.97ZM99.48,366.88l.02,12.97h-3.03l-.03-12.97h3.04ZM96.44,352.36h3.03l.02,12.97h-3.03l-.02-12.97ZM101.38,365.32l-.02-12.97h2.6l.02,12.97h-2.6ZM103.99,379.84h-2.6l-.02-12.96h2.6l.02,12.96ZM105.89,365.31l-.02-12.96h2.3l.02,12.96h-2.3ZM108.2,379.83h-2.3l-.02-12.96h2.3l.02,12.96ZM110.07,351.73h4.89l.05,28.09h-4.9l-.04-28.09ZM115.23,419.81l.03,13.49h-2.3l-.02-13.49h2.29ZM115.26,434.91h0s.02,13.43.02,13.43h-2.3l-.02-13.43h2.3ZM41.28,351.42h36.31l.02,13.94h-.01l.02,15.66h.41v5.85l-15.49.03-15.22.02v9.08s.01,4.56.01,4.56v4.5s.01,4.67.01,4.67v9.08s15.23-.02,15.23-.02l16.23-.03,5.83-.02.02,15.07.03,15.16h-43.4v-97.55ZM63.69,392.6l13.95-.02v2.9l-13.95.02v-2.9ZM63.68,390.99v-2.96l13.95-.02v2.96l-13.95.02ZM63.7,400.07v-2.96l13.95-.02v2.96l-13.95.02ZM77.65,401.65v2.89l-13.95.02v-2.89l13.95-.02ZM63.7,406.17l13.96-.02v2.39l-13.96.02v-2.39ZM63.72,414.68l13.95-.02v2.96l-13.95.02v-2.96ZM63.72,413.07v-2.9l13.95-.02v2.9l-13.95.02ZM61.96,391l-13.51.02v-2.96l13.51-.02v2.96ZM61.97,392.61v2.9l-13.51.02v-2.9l13.51-.02ZM48.46,397.14l13.51-.02v2.96l-13.51.02v-2.96ZM48.47,401.7l13.51-.02v2.89l-13.51.02v-2.89ZM61.99,406.18v2.39l-13.51.02v-2.39l13.51-.02ZM48.48,410.2l13.51-.02v2.9l-13.51.02v-2.9ZM48.49,414.71l13.51-.02v2.96l-13.51.02v-2.96ZM41.28,452.51h79.27v3.95h2.36v-3.95h2.52v-1.05h18.71v.71h10.1v-2.52h-5.56v-43.47h36.24v43.13h-8.61v3.03h19.43v49.83h.75v-49.83h.78v49.83h.06v17.39h-21.86v1.01h-14.49v-.33h-37.4v-3.13h-2.53v3.13H41.28v-67.73ZM41.28,522.6h119.7v-1.14h14.49v.46h20.73v16.79h-.07v57.49h.82v14h-8.55v8.6h-38.7v-8.76h-3.04v1.13h-12.13v-1.13H41.28v-87.44ZM41.28,613.07h93.25v-.76h12.13v9.52h10.87v27.38h-9.6v8.59h.42v13.14h-.42v21.31h-14.16v-.59H41.28v-78.59ZM196.53,794.26h-73.45v-2.39h-.68v2.14l.09.25H41.28v-100.32h81.12v2.69h.68v-2.69h10.69v-1.01h14.16v1.01h2.52v-1.01h13.65v.75h42.54v26.54h-10.11v74.04ZM333,781.55h-.59v12.71h-133.52v-71.68h10.45v-28.9h.25v-.75h13.65v1.26h96.11v.59h1.86v-.59h11.2v68.83h.59v18.53ZM568.87,779.86v14.4h-233.68v-12.71h-1.52v-18.53h1.52v-29.66h5.81v-1.01h13.65v1.52h22.99v-1.52h16.85v.76h-1.18v.76h116.25v-.17h14.83v.17h8.25v.16h1.18v-.16h5.9v-1.18h21.73v.17h7.42v31.09h.5v15.91h-.5ZM700.28,757.12h-.17v37.14h-129.38v-14.4h-.85v-15.91h.85v-69.68h.33v-.67h114.9v-.34h13.64v.85h9.61v61.66h-8.93v1.35ZM814.08,794.26h-111.95v-35.8h7.08v.17h3.03v-66.71h.02v-.34h-.02v-.17h-.51v-62.5h56.44v-8.26h36.06v8.26h.34v.16h9.51v165.19ZM814.09,542.98h-15.42v.84h-13.98v-1.18h-2.53v-.16h-2.02v6.23h-27.8v-6.91h-.23v-20.72h1.07v-15.67h-1.77v-14.49h1.1v-1.85h-19.71v-3.2h10.45v-4.55h-32.88v-14.48h-.12v-14.61h-.4v-37.73h-6.58v-30.84h-12.53v-2.51h19.99v.3h22.87v-1.51h-.37v-2.02h8.08v1.89h-1.64v2.78h13.77v-8.84h-1.01v-13.02h1.14v-17.56h-.76v-7.46h-.88v-13.9h1.13v-6.27h32.06v-.68h13.39v1.01h15.58v227.11Z"/>
  </g>
</svg>