<?xml version="1.0" encoding="UTF-8"?>
<svg id="Layer_2" data-name="Layer 2" xmlns="http://www.w3.org/2000/svg" viewBox="0 0 637.85 636.31">
  <defs>
    <style>
      .cls-1 {
        fill: #afafaf;
        stroke-width: 0px;
      }
    </style>
  </defs>
  <path class="cls-1" d="M624.8,557.79v-86.49h-5.02v-67.24h4.66v-51.74h.2v-6.28h-2.8v-49.45h1.61v-.64h.32v-35.72h-.26v-92.72h1.17v-1.59h-.06V32.72h-.04v-1.58h.02V7.26h-1.09v-.25h-60.36v-.1h-72.85v.03H10.11v6.18h.13v333.82h-.03v4.12h.8v47.4h-1.16v222.4h.23v.58h127.57v.19h249.71v-.26h237.48v-63.58h-.04ZM619.91,290.86h-10.11v3.93h-23.61v-1.87h-.16v-1.99h-21.7v-29.16h55.58v29.09ZM618.56,352.32v47.2h-103v-26.74h48.55v-2.41h-.09v-18.15h22.2v-6.37h-18.44v-2.9h-6.27v1.35h-11.4v-2.9h11.39v.03h.4v-25.28h-23.8v.02h-.03v28.52h.08v.11h23.36v7.03h.19v18.54h-23.4v-23.7h-29.45v.55h4.53v23.15h-29.45v-54.35h.13v-18.72h.51v-4.12h15.06v-.26h3.22v23.15h.5v-23.15h3.95v23.76h24.74v.03h.5v-.03h.02v-.31h-.02v-23.26h20.96v.26h7.91v4.96h3.77v23.58h1.06v-23.58h1.61v-1.29h18.34v-1.22h23.61v.77h9.72v49.45h-10.04v6.28h9.08ZM516.83,358.88v11.49h-2.95v-11.49h2.95ZM513.88,358.36v-11.14h2.95v11.14h-2.95ZM520.38,358.88v11.49h-3.05v-11.49h3.05ZM517.33,358.36v-11.14h3.05v11.14h-3.05ZM523.88,358.88v11.49h-3v-11.49h3ZM520.88,358.36v-11.14h3v11.14h-3ZM527.33,358.88v11.49h-2.95v-11.49h2.95ZM524.38,358.36v-11.14h2.95v11.14h-2.95ZM530.85,358.88v11.49h-3.02v-11.49h3.02ZM527.83,358.36v-11.14h3.02v11.14h-3.02ZM534.35,358.88v11.49h-3v-11.49h3ZM531.35,358.36v-11.14h3v11.14h-3ZM537.8,358.88v11.49h-2.95v-11.49h2.95ZM534.85,358.36v-11.14h2.95v11.14h-2.95ZM538.54,340.9v-2.85h11.01v2.85h-11.01ZM549.55,341.4v2.9h-11.01v-2.9h11.01ZM538.54,337.55v-3.47h11.01v3.47h-11.01ZM538.54,333.58v-2.9h11.01v2.9h-11.01ZM538.54,330.18v-2.85h11.01v2.85h-11.01ZM538.54,326.83v-3.06h11.01v3.06h-11.01ZM538.54,323.27v-2.9h11.01v2.9h-11.01ZM538.54,319.87v-3.22h22.96v3.22h-11.39v-3.1h-.56v3.1h-11.01ZM550.11,337.55v-3.47h11.39v3.47h-11.39ZM561.5,338.05v2.85h-11.39v-2.85h11.39ZM550.11,333.58v-2.9h11.39v2.9h-11.39ZM550.11,330.18v-2.85h11.39v2.85h-11.39ZM550.11,326.83v-3.06h11.39v3.06h-11.39ZM550.11,323.27v-2.9h11.39v2.9h-11.39ZM523.06,264.67v11.97h-.28v14.41h-.75v1.03h-3.41v-.08h-.5v.08h-3v-.08h-.5v.08h-11.27v-.49h-.5v.49h-3.22v-1.41h-15.82v-28.9h38.99v2.9h.26ZM529.09,304.68v-11.44h1.17v-.13h1.78v11.57h-2.95ZM532.04,305.15v11.22h-2.95v-11.22h2.95ZM530.26,292.21v-1.16h-6.37v-14.41h-.51v-11.97h.39v-2.9h38.99v29.16h-9.26v1.28h-23.24ZM525.59,304.68v-11.44h3v11.44h-3ZM528.59,305.15v11.22h-3v-11.22h3ZM525.09,293.24v11.44h-3.02v-11.44h3.02ZM525.09,305.15v11.22h-3.02v-11.22h3.02ZM518.62,304.68v-11.76h2.95v11.76h-2.95ZM521.57,305.15v11.22h-2.95v-11.22h2.95ZM515.12,304.68v-11.76h3v11.76h-3ZM518.12,305.15v11.22h-3v-11.22h3ZM511.57,304.68v-11.76h3.05v11.76h-3.05ZM514.62,305.15v11.22h-3.05v-11.22h3.05ZM507.8,304.68v-11.76h3.27v11.76h-3.27ZM511.07,305.15v11.22h-3.27v-11.22h3.27ZM563.05,11.8h.1v-.42h.64v-2.44h59.01v19.82h-55.4v-.2h-4.06v-6.43h-.29v-10.33ZM587.57,154.61v-9.45h30.82v20.76h-30.37v-11.31h-.45ZM587.57,143.57v-9.19h.36v-4.94h14.31v4.72h1.74v-4.72h14.41v14.13h-30.82ZM587.93,127.93v-.08h-1.59v6.53h.65v9.19h-.82v1.59h.82v9.45h-.82v11.31h-90.55v.55h-10.95v-.46h-12.28v-9.63h-2.47v7.33h-30.79v-6.98h-1.55v.02h-61.5v-38.8h83.72v17.57h22.91v-10.38h-.77v-9.32h.51v-7.98h.13v-1.8h-.97v-8.93h5.73v-.96h8.82v.37h50v-.05h15.15v.44h9.37v-.58h.09v-24.33h47.62v55.93h-30.46ZM413.34,157.91v6.69h-25.49v-6.69h25.49ZM374.98,107.14v-12.17h.71v-15.44h.39v-7.91h83.78v42.85h-83.78v-7.33h-1.1ZM481.1,96.96v9.08h-18.53v-34.42h17.76v25.34h.77ZM480.52,107.84v7.98h.71v9.32h-.58v8.57h-17.76v-16.73h-.13v-2.51h-.19v-6.63h17.95ZM496.35,71.81v22.01h-.19v1.8h-8.82v-.52h-5.19v-23.48h2.62v.19h11.58ZM543.84,72v21.82h-45.56v-22.01h10.43v-4.32h10.81v4.51h24.32ZM566.04,71.81v.19h2.8v23.17h-7.53v.56h-15.15v-1.91h-.19v-21.82h.58v-4.51h15.15v4.32h4.34ZM568.07,70.07v-15.06h-3.54v-13.7h2.87v-6.38h50.99v35.14h-50.32ZM426.98,13.12h57.27v11.33h6.18v11.32h.52v-11.32h.51v-12.65h70.72v10.33h-.64v6.43h-.32v12.75h2.16v13.7h-1.68v12.16h-15.15v-1.35h-27.03v1.35h-10.81v-1.54h-18.92v-23.17h1.54v-6.56h-5.98v1.54h-58.37V13.12ZM406.65,25.47h1.54v-12.35h17.37v24.32h-17.5v-1.03h-1.41v-10.94ZM374.86,26.25h.06v-13.13h30.95v12.35h.52v10.94h-.13v1.03h-30.57v-.96h-.83v-10.23ZM374.86,41.31h.83v-1.94h109.66v3.09h3.67v23.17h-4.25v3.86h-109.66v-5.92h-.25v-22.26ZM374.73,158.41h1.16v-.5h10.16v7.85h-11.32v-7.35ZM361.41,448.27v-22.59h.41v-1.26h-22.17v-26.06h.52v-24.13h45.75v73.97h-5.59v.63h-11.4v-.56h-7.52ZM360.75,425.68v17.37h-14.02v-17.37h14.02ZM340.17,442.53v-16.85h5.12v17.37h-5.09v-.52h-.03ZM374.94,372.88h-36.6v.46h-140.19v-.11h-36.57v-103.35h1.02v-.14h35v.14h1.06v-.22h76.15v.07h.7v-.07h75.95v.56h.69v-.14h22v.29h.79v102.51ZM198.02,423.04v-1.67h-1.55v1.67h-43.18v-48.65h43.05v35.91h1.42v-35.91h.39v-.6h140.19v.44h.19v24.13h.62v26.06h-.4v.07h-.03v18.04h-.12v.52h-140.58v-17.95h.13v-2.06h-.13ZM196.47,425.1v17.95h-43.18v-17.95h43.18ZM118.61,153.79v.36h-14.93v-.35h-18.19v-46.34h.04v-2.19h0v-31.85h-.76v-14.22h103.48v-.91h10.03v.13h13.39v18.91h-27.86v.85h-9.66v-.97h-14.86v54.7h1.54v-6.43h42.09v5.4h-7.08v1.68h9.78v-1.68h-.77v-12.1h17.24v12.23h-1.03v1.67h71.05v22.99h-5.39v.5h-11.47v-.41h-17.25v.41h-11.02v-.45h-33.38v.36h-12.36v-.23h-10.61v.23h-9.72v-.23h-6.63v.23h-9.65v-.23h-2v-2.06h-11.71v2.32h-14.8v-.52h2.06v-1.8h-19.56ZM96.1,344.75v-34.94h29.24v34.82h-8.49v4.77h-16.02v-4.65h-4.73ZM126.31,218.83v46.22h-48.79v-46.22h36.29v-1.65h11.29v1.65h1.21ZM96.1,307.63v-39.79h38.34v39.79h-38.34ZM128.13,265.05v-46.22h6.92v46.22h-6.92ZM128.25,309.81h7.04v34.82h-7.04v-34.82ZM160.41,52.5v-10.55h24.48v14.93h-23.42v-4.38h-1.06ZM212.82,97.68v10.94h-.52v8.35h-9.39v6.96h-42.09v-43.43h13.32v-1.29h9.66v1.17h28.25v17.3h.77ZM211.66,57.14h-13.39v.58h-10.03v-.84h-.78v-14.93h24.2v15.19ZM223.63,131.01v-12.23h10.3v12.23h-10.3ZM372.15,158.41v31.68h-61.65v-31.58h6.11v-1.85h10.98v1.75h44.56ZM374.15,192.27v3.62h-22.15v-.29h-153.82v-.04h-35.58v-20.53h31.68v15.06h-.06v2.18h179.93ZM352.15,266.6v-2.94h22v2.94h-22ZM374.15,267.18v2.32h-22v-2.32h22ZM352.15,263.08v-3.24h22v3.24h-22ZM352.15,259.26v-2.66h22v2.66h-22ZM352.15,256.02v-3.09h22v3.09h-22ZM352.15,252.35v-2.94h22v2.94h-22ZM352.15,248.83v-3.24h22v3.24h-22ZM352.15,245.01v-3.08h22v3.08h-22ZM352.15,241.35v-2.95h22v2.95h-22ZM352.15,237.82v-2.48h22v2.48h-22ZM352.15,234.76v-3.09h22v3.09h-22ZM352.15,231.09v-2.94h22v2.94h-22ZM352.15,227.57v-2.65h22v2.65h-22ZM352.15,224.35v-3.09h22v3.09h-22ZM352.15,220.68v-2.95h22v2.95h-22ZM352.15,217.15v-3.23h22v3.23h-22ZM352.15,213.34v-3.09h22v3.09h-22ZM352.15,209.67v-2.94h22v2.94h-22ZM352.15,206.15v-2.49h22v2.49h-22ZM352.15,203.09v-3.09h22v3.09h-22ZM352.15,199.42v-2.95h22v2.95h-22ZM275.51,259.09v-10.41h75.95v10.41h-75.95ZM351.46,259.75v9.26h-75.95v-9.26h75.95ZM275.51,248.02v-9.07h75.95v9.07h-75.95ZM275.51,238.29v-10.41h75.95v10.41h-75.95ZM275.51,227.22v-9.76h75.95v9.76h-75.95ZM275.51,216.81v-10.42h75.95v10.42h-75.95ZM275.51,205.73v-9.47h75.95v9.47h-75.95ZM198.66,259.09v-10.41h76.15v10.41h-76.15ZM274.81,259.75v9.26h-76.15v-9.26h76.15ZM198.66,248.02v-9.07h76.15v9.07h-76.15ZM198.66,238.29v-10.41h76.15v10.41h-76.15ZM198.66,227.22v-9.76h76.15v9.76h-76.15ZM198.66,216.81v-10.42h76.15v10.42h-76.15ZM198.66,205.73v-9.47h76.15v9.47h-76.15ZM162.6,266.26v-2.94h35v2.94h-35ZM197.6,266.84v2.32h-35v-2.32h35ZM162.6,262.74v-3.23h35v3.23h-35ZM162.6,258.93v-2.67h35v2.67h-35ZM162.6,255.68v-3.09h35v3.09h-35ZM162.6,252.01v-2.94h35v2.94h-35ZM162.6,248.49v-3.23h35v3.23h-35ZM162.6,244.68v-3.09h35v3.09h-35ZM162.6,241.01v-2.95h35v2.95h-35ZM162.6,237.49v-2.49h35v2.49h-35ZM162.6,234.42v-3.09h35v3.09h-35ZM162.6,230.75v-2.94h35v2.94h-35ZM162.6,227.23v-2.64h35v2.64h-35ZM162.6,224.01v-3.09h35v3.09h-35ZM162.6,220.34v-2.94h35v2.94h-35ZM162.6,216.82v-3.24h35v3.24h-35ZM162.6,213v-3.09h35v3.09h-35ZM162.6,209.34v-2.95h35v2.95h-35ZM162.6,205.81v-2.48h35v2.48h-35ZM162.6,202.75v-3.09h35v3.09h-35ZM162.6,199.08v-2.94h35v2.94h-35ZM178.71,158.17v14.73h-16.11v-15.89h2.02v-.41h9.65v1.57h4.44ZM194.28,158.49v14.41h-14.02v-14.73h.64v-1.57h9.72v1.89h3.66ZM223.5,158.55v31.54h-27.54v-31.6h5.27v-1.89h12.36v1.95h9.91ZM267.58,158.59v31.5h-41.96v-31.54h21.35v-1.86h11.02v1.9h9.59ZM309.02,190.09h-40.09v-31.5h6.31v-1.9h11.47v1.82h22.31v31.58ZM14.49,13.12h359.27v13.13h.45v10.23h-.26v4.83h.26v22.26h-.64v5.92h-.77v2.13h.38v5.98h-11.97v1.35h11.97v.58h.58v15.44h.71v12.17h-1.29v48.8h-45.59v.2h-10.98v-.47h-22.71v-38.69h-1.8v14.03h-56.69v-12.23h.01v-1.81h-21.32v-8.35h-.51v-10.94h.51v-18.34h8.3v-2.13h-8.42v-35.26h.25v-2.83h-.25v-.22h-2.32v.22h-51.25v-.22h-.56v.22h-.79v2.83h.79v10.55h-.7v4.38H14.49V13.12ZM14.49,59.2h69.89v14.22h-.74v31.85h-8.92v.64h-11.01v-.64h-31.33v2.19h.51v21.11H14.49V59.2ZM83.08,130.37v26.25h-29.21v-26.12h10.17v-.45h10.16v.32h8.88ZM74.2,128.82v.45h-10.16v-.7h-29.73v-21.11h29.4v-.9h11.01v.9h8.36v21.36h-8.88ZM14.49,130.5h37.19v26.12h-1.54v.13h-9.27v-.51H14.49v-25.74ZM14.49,157.91h26.38v-.77h9.27v.9h36.03v-1.42h-.68v-1.03h18.19v-1.06h14.93v1.06h13.77v60.45h-7.28v.56h-11.29v-.81H14.49v-57.88ZM14.49,218.83h61v46.22H31.32v1.11h-7.77v-1.11h-9.06v-46.22ZM61.49,278.98v-11.14h2.95v11.14h-2.95ZM64.44,279.47v11.41h-2.95v-11.41h2.95ZM57.99,278.98v-11.14h3v11.14h-3ZM60.99,279.47v11.41h-3v-11.41h3ZM54.47,278.98v-11.14h3.02v11.14h-3.02ZM57.49,279.47v11.41h-3.02v-11.41h3.02ZM51.02,278.98v-11.14h2.95v11.14h-2.95ZM53.97,279.47v11.41h-2.95v-11.41h2.95ZM47.52,278.98v-11.14h3v11.14h-3ZM50.52,279.47v11.41h-3v-11.41h3ZM43.97,278.98v-11.14h3.05v11.14h-3.05ZM47.02,279.47v11.41h-3.05v-11.41h3.05ZM40.2,278.98v-11.14h3.27v11.14h-3.27ZM43.47,279.47v11.41h-3.27v-11.41h3.27ZM14.49,267.84h9.06v-.58h7.77v.58h3.93v22.73h.5v-22.73h3.95v23.35h24.74v.03h.5v-.03h.02v-.31h-.02v-23.04h28.49v23.19h-22.49v-.35h-.47v28.52h.08v.11h22.88v25.44h-2.55v4.65h-14.92v-4.53h-5.26v-23.69h-29.45v.03h-.26v24.03h-.69v3.88h-21.96v-2.18h-3.85v-79.1ZM82.51,315.41v-2.85h10.92v2.85h-10.92ZM93.43,315.91v2.9h-10.92v-2.9h10.92ZM82.51,312.06v-3.47h10.92v3.47h-10.92ZM82.51,308.09v-2.9h10.92v2.9h-10.92ZM82.51,304.69v-2.85h10.92v2.85h-10.92ZM82.51,301.34v-3.06h10.92v3.06h-10.92ZM82.51,297.78v-2.9h10.92v2.9h-10.92ZM82.51,294.38v-2.85h10.92v2.85h-10.92ZM70.94,315.41v-2.85h11.01v2.85h-11.01ZM81.95,315.91v2.9h-11.01v-2.9h11.01ZM70.94,312.06v-3.47h11.01v3.47h-11.01ZM70.94,308.09v-2.9h11.01v2.9h-11.01ZM70.94,304.69v-2.85h11.01v2.85h-11.01ZM70.94,301.34v-3.06h11.01v3.06h-11.01ZM70.94,297.78v-2.9h11.01v2.9h-11.01ZM70.94,294.38v-2.85h11.01v2.85h-11.01ZM67.25,332.87v-11.14h2.95v11.14h-2.95ZM70.2,333.39v11.48h-2.95v-11.48h2.95ZM63.75,332.87v-11.14h3v11.14h-3ZM66.75,333.39v11.48h-3v-11.48h3ZM60.23,332.87v-11.14h3.02v11.14h-3.02ZM63.25,333.39v11.48h-3.02v-11.48h3.02ZM56.78,332.87v-11.14h2.95v11.14h-2.95ZM59.73,333.39v11.48h-2.95v-11.48h2.95ZM53.28,332.87v-11.14h3v11.14h-3ZM56.28,333.39v11.48h-3v-11.48h3ZM49.73,332.87v-11.14h3.05v11.14h-3.05ZM52.78,333.39v11.48h-3.05v-11.48h3.05ZM46.28,332.87v-11.14h2.95v11.14h-2.95ZM49.23,333.39v11.48h-2.95v-11.48h2.95ZM45.78,321.73v23.14h-.15v.37h-4.14v-23.51h4.29ZM12.17,351.06h6.17v-1.21h21.96l.31,55.12,18.25.08v-4.28h16.05v91.32h-2.7v.24h-9.46v-.63h-1.35v-3.86h-.37v-11.26h.97v-4.1h-.97v-22.75h.77v-11.15h.7v-1h9.7v.2h2.7v-1.75h-2.7v1.05h-9.7v-.75h-10v.75h-10.7v-.7h-25.38v-32.3h11.38v-5.58h-11.38v-.04h-4.25v-47.4ZM74.91,504.64v20.08h-5.21v18.79h-14.03v2.31h-24.97v-1.03h-14.28v-51.35h25.48v-.61h10.23v.61h10.62v-.61h9.46v.8h2.7v9.85h-.19v1.16h.19ZM59.75,438.58v11.15h.73v22.75h-.88v4.1h.88v11.26h-.82v3.86h-7.53v.63h-10.23v-1.4h-25.48v-52.5h25.38v-.85h10.7v1h7.25ZM133.99,618.15H14.29v-68.72h16.41v-2.06h24.97v1.93h20.08v-5.28h.13v-6.76h58.11v80.89ZM134.82,535.91h-.83v.39h-58.11v-31.66h5.92v-.41h47.1v.66h5.92v31.02ZM134.82,503.61h-5.92v.07h-47.1v-.2h-5.92v-9.85h.19v-1.54h-.19v-91.32h.38v-1.54h-17.4s-11.41-.01-11.41-.01v-48.77h25.71v.28h44.34v-.28h18.64v-5.82h-.25v-34.82h.97v-2.18h-.48v-40.52h-.14v-2.06h-.81v-46.22h1.31v-2.79h-.63v-59.48h14.8v.32h9.89v113h.5v103.35h-8.01v-.06h-2.12v76.45h2.12v-5.02h206.57v5.08h.07v.26h9v-.71h11.4v.45h6.95v-.84h.09v-75.77h-.48v-.19h-11.53v-102.51h1.49v-103.32h10.88v-.52h.12v-1.8h25.49v.9h1.41v-7.72h22.83v7.31h1.24v.08h31.1v2.21h2.47v-.18h12.28v-.47h10.95v.65h124.8v92.72h-150.58v.55h-.12v65.73h.38v23.3h-.2v.09h-.07v1.46h.07v20.1h-.19v1.74h.19v19.47h-.29v3.57h.2v34.17h3.37v-34.17h15.26v4.63h.09v3.09h5.5v-4.44h-1.93v-6.85h-20.65v-19.47h11.19v-.42h30.89v26.74h-7.33v4.44h109.85v66.96h-96.79v1.55h-14.8v-1.71h-30.41v-29.15h-4.15v32.27h-.19v7.59h.12v15.37h0v28.13h-.26v.65h-17.37v.25h-46.85v-.38h-17.89v-52.26h.13v-1.67h-15.96v.52h-14.67v-.39h-16.35v.49h-22.91v-.33h-29.34v.23h-12.62v-.39h-37.19v.49h-11.53v-.25h-25.18v.15h-11.04v-.33h-38.69v.33h-14.93v-.41h-2.47v1.41h.1v30.53ZM471.45,349.9v-.09h-.65v-23.3h.42v-64.74h11.27v28.9h-.42v6.63h1.41v15.92h-2.26v36.68h-9.77ZM481.22,351.36v20.1h-9.77v-20.1h9.77ZM521.67,496.85v-14.86h1.81v-5.67h79.57v9.78h11.19v66.43h-90.6v-55.68h-1.97ZM471.25,524.97v-14.8h31.28v-3.6h-31.28v-10.04h-.74v-15.06h.74v-6.85h1.26v.09h31.95v-1.03h14.8v1.61h-.03v6.7h1.36v14.86h-1.2v55.68h-40.67v-27.56h-7.47ZM375.24,479.15v-5.92h10.43v51.7h-5.02v6.22h-4.25v-52h-1.16ZM340.78,492.69v-11.45h2.95s0,11.45,0,11.45h-2.95ZM343.73,493.18v11.41h-2.95v-11.41h2.95ZM317.45,479.03v-5.64h.26v-.66h22.91v.12h12.74v6.18h-35.91ZM337.28,492.69v-11.44h3s0,11.44,0,11.44h-3ZM340.28,493.18v11.41h-3v-11.41h3ZM333.76,492.69v-11.44h3.02v11.44h-3.02ZM336.78,493.18v11.41h-3.02v-11.41h3.02ZM330.31,492.69v-11.43h2.95v11.43h-2.95ZM333.26,493.18v11.41h-2.95v-11.41h2.95ZM326.81,492.69v-11.42h3s0,11.42,0,11.42h-3ZM329.81,493.18v11.41h-3v-11.41h3ZM323.26,492.69v-11.41h3.05s0,11.41,0,11.41h-3.05ZM326.31,493.18v11.41h-3.05v-11.41h3.05ZM319.49,492.69v-11.4h3.27s0,11.4,0,11.4h-3.27ZM322.76,493.18v11.41h-3.27v-11.41h3.27ZM295.83,477.61v-4.22h20.08v5.64h-19.82v-1.42h-.26ZM319.09,514.41v2.88h-11.17v-2.88h11.17ZM307.92,513.81v-3.07h11.17v3.07h-11.17ZM319.09,517.89v2.75h-11.17v-2.75h11.17ZM319.09,521.24v3.07h-11.17v-3.07h11.17ZM319.09,524.91v2.88h-11.17v-2.88h11.17ZM319.09,528.39v3.05h-11.17v-3.05h11.17ZM319.09,532.04v1.55h-23v-1.55h23ZM307.47,517.89v2.75h-11.38v-2.75h11.38ZM296.09,517.29v-2.88h11.38v2.88h-11.38ZM307.47,521.24v3.07h-11.38v-3.07h11.38ZM307.47,524.91v2.88h-11.38v-2.88h11.38ZM307.47,528.39v3.05h-11.38v-3.05h11.38ZM307.47,513.81h-11.38v-3.07h11.38v3.07ZM293.77,473.39v5.64h-.13v2.31h.26v16.93h-33.72v-25.29h15.57v-.18h12.62v.59h5.4ZM293.9,500.2v34.43h.26v24.06h-33.98v-58.49h33.72ZM246.15,511.95v-11.75h12.36v11.75h-12.36ZM258.51,513.63v11.47h-12.36v-11.47h12.36ZM246.15,498.27v-11.68h12.36v11.68h-12.36ZM246.15,485.18v-11.05h.15v-1.15h12.21v12.2h-12.36ZM244,472.98v1.15h.03v50.97h-28.93v-52.02h11.93v-.45h11.53v.35h5.44ZM183.57,522.99v-8.83h.79v-4.42h-.79v-9.36h.61v-3.45h-.61v-9.72h.79v-3.53h-.79v-9.19h.61v-1.41h6.63v-.45h11.04v.45h11.84v52.02h-29.15v-2.11h-.97ZM183.12,514.16v10.94h-12.89v-11.47h12.72v.53h.17ZM182.95,509.74v2.56h-12.72v-12.28h12.54v.36h.35v9.36h-.17ZM182.77,496.93v1.68h-12.54v-12.37h12.72v.97h.17v9.72h-.35ZM182.95,483.68v1.5h-12.72v-12.1h12.45v1.41h.44v9.19h-.17ZM341.91,615.45h-49.55v-11.97h-.26v-10.68h.39v-6.95h49.42v29.6ZM342.42,584.18l-51.44-.03-.04,8.65h.52v10.68h-.39v11.97h-150.91v-79.54h-4.18v-62.83h1.21v-.35h14.93v.35h16.52v52.02h-7.43v2.06h97.3v31.53h-.2v2.13h83.34v8.56h.77v14.8ZM320.77,558.69v-23.25h4.3v23.25h-4.3ZM328.52,547.11v11.58h-2.95v-11.58h2.95ZM325.57,546.58v-11.14h2.95v11.14h-2.95ZM332.07,547.11v11.58h-3.05v-11.58h3.05ZM329.02,546.58v-11.14h3.05v11.14h-3.05ZM335.57,547.11v11.58h-3v-11.58h3ZM332.57,546.58v-11.14h3v11.14h-3ZM339.02,547.11v11.58h-2.95v-11.58h2.95ZM336.07,546.58v-11.14h2.95v11.14h-2.95ZM342.54,558.69h-3.02v-11.58h3.02v11.58ZM342.54,546.58h-3.02v-11.14h3.02v11.14ZM383.22,587.84h-1.93v27.61h-37.97v-29.6h.26v-1.67h-.77v-14.8h1.16v-8.56h13v-2.13h-6.98v-23.79h-29.45v.02h-.27v23.77h-25.21v-24.06h1.03v-.54h23s.48.01.48.01v-28.51h-.48v4.55h-23v-28.8l22.9-.05v23.61h24.74v.03h.5v-.03h.02v-.31h-.02v-23.36l10.8-.02v-8.36h1.94v-.22h14.67v.6h1.8v5.92h-.13v54.96h1.03v.13h6.31v.09h5.02v.94h.13v22.26h-5.09v.97h-8.88v2.32h8.88v11h2.51v16.02ZM346.04,547.11v11.58h-3v-11.58h3ZM343.04,546.58v-11.14h3v11.14h-3ZM349.49,547.11v11.58h-2.95v-11.58h2.95ZM346.54,546.58v-11.14h2.95v11.14h-2.95ZM623.55,620.08h-236.19v-4.63h-.08v-27.61h-1.74v-16.02h1.35v-14.29h-.19v-22.26h.77v-8.75h17.89v-.26h46.85v.64h17.37v34.11h153.97v59.07Z"/>
  <path class="cls-1" d="M69.95,291.88h-29.2v27.95h29.2v-27.95ZM69.45,319.32h-28.2v-26.95h28.2v26.95Z"/>
  <path class="cls-1" d="M39.8,320.39h.48v-28.52h-.48v4.56h-23.1v.05h-.15v23.9h23.25ZM28.63,297.03h11.18v3.07h-11.18v-3.07ZM28.63,300.69h11.18v2.88h-11.18v-2.88ZM28.63,304.18h11.18v2.75h-11.18v-2.75ZM28.63,307.53h11.18v3.07h-11.18v-3.07ZM28.63,311.19h11.18v2.88h-11.18v-2.88ZM28.63,314.68h11.18v3.05h-11.18v-3.05ZM17.05,297.03h11.13v3.07h-11.13v-3.07ZM17.05,300.69h11.13v2.88h-11.13v-2.88ZM17.05,304.18h11.13v2.75h-11.13v-2.75ZM17.05,307.53h11.13v3.07h-11.13v-3.07ZM17.05,311.19h11.13v2.88h-11.13v-2.88ZM17.05,314.68h11.13v3.05h-11.13v-3.05ZM17.05,319.88v-1.55h22.75v1.55h-22.75Z"/>
  <path class="cls-1" d="M320.04,533.54h29.2v-27.95h-29.2v27.95ZM320.54,506.09h28.2v26.95h-28.2v-26.95Z"/>
  <path class="cls-1" d="M373.24,532.52h-11.44v-2.9h11.44v-.5h-11.44v-2.85h11.39v-.5h-11.39v-3.47h11.47v-.5h-11.47v-2.9h11.47v-.5h-11.47v-2.85h11.42v-.5h-11.42v-3.06h11.44v-.5h-11.44v-2.9h11.44v-.5h-11.44v-2.85h11.39v-.5h-22.96v-.35h-.48v28.52h.09v.11h23.4v-.5ZM361.24,532.52h-11.01v-2.9h11.01v2.9ZM361.24,529.12h-11.01v-2.85h11.01v2.85ZM361.24,525.77h-11.01v-3.47h11.01v3.47ZM361.24,521.8h-11.01v-2.9h11.01v2.9ZM361.24,518.4h-11.01v-2.85h11.01v2.85ZM361.24,515.05h-11.01v-3.06h11.01v3.06ZM361.24,511.49h-11.01v-2.9h11.01v2.9ZM361.24,508.09h-11.01v-2.85h11.01v2.85Z"/>
  <path class="cls-1" d="M508.35,345.31h29.2v-27.95h-29.2v27.95ZM508.85,317.87h28.2v26.95h-28.2v-26.95Z"/>
  <path class="cls-1" d="M507.4,321.92h-23.1v.6h11.48v3.07h-11.48v.6h11.48v2.88h-11.48v.6h11.48v2.75h-11.48v.6h11.48v3.07h-11.48v.6h11.48v2.88h-11.48v.6h11.48v3.05h-11.48v.6h23.1v1.55h-23.25v.5h23.25s.48,0,.48,0v-28.52h-.48v4.56ZM507.4,343.22h-11.18v-3.05h11.18v3.05ZM507.4,339.57h-11.18v-2.88h11.18v2.88ZM507.4,336.08h-11.18v-3.07h11.18v3.07ZM507.4,332.42h-11.18v-2.75h11.18v2.75ZM507.4,329.07h-11.18v-2.88h11.18v2.88ZM507.4,325.58h-11.18v-3.07h11.18v3.07Z"/>
</svg>