<?xml version="1.0" encoding="UTF-8"?>
<svg id="Layer_2" data-name="Layer 2" xmlns="http://www.w3.org/2000/svg" viewBox="0 0 637.85 636.31">
  <defs>
    <style>
      .cls-1 {
        fill: #0f0f0f;
        stroke-width: 0px;
      }
    </style>
  </defs>
  <polygon class="cls-1" points="131.58 156.43 131.58 214.48 15.33 214.48 15.33 158.48 88.43 158.48 88.43 156.43 131.58 156.43"/>
  <polygon class="cls-1" points="289.2 562.37 289.06 583.1 289.06 613.95 141.66 613.95 141.66 534.4 136.92 534.38 137.07 523.69 160.06 523.6 160.06 528.35 257.11 528.35 257.11 562.4 289.2 562.37"/>
  <polygon class="cls-1" points="614.8 405.17 614.8 468.47 474.35 468.47 474.35 397.47 487.3 397.47 487.3 405.17 614.8 405.17"/>
  <polygon class="cls-1" points="612.25 488.49 612.25 550.27 601.9 550.27 601.9 550.57 524.4 550.57 524.4 478.12 601.9 478.12 601.9 488.49 612.25 488.49"/>
  <polygon class="cls-1" points="372.62 80.47 372.62 116.4 372.57 116.4 372.57 154.8 294.62 154.8 294.62 116.4 291.37 116.4 291.37 130.2 236.32 130.2 236.32 116.4 214.92 116.4 214.92 80.47 223.4 80.47 223.4 76.78 215.45 76.78 215.45 37.87 157.94 37.87 157.94 55.7 15.09 55.7 15.09 13.97 215.45 14.18 372.43 14.18 372.43 76.78 359.69 76.78 359.69 80.47 372.62 80.47"/>
  <rect class="cls-1" x="86.49" y="59.46" width="71.82" height="93.44"/>
  <rect class="cls-1" x="200.45" y="195.37" width="171.48" height="175.32"/>
  <rect class="cls-1" x="389.54" y="372.86" width="77.22" height="75.83"/>
  <rect class="cls-1" x="200.64" y="374.91" width="137.21" height="67.16"/>
  <rect class="cls-1" x="16.22" y="493.45" width="52.51" height="51.74"/>
  <rect class="cls-1" x="16.99" y="405.5" width="57.14" height="30.03"/>
</svg>