<?xml version="1.0" encoding="UTF-8"?>
<svg id="Layer_2" data-name="Layer 2" xmlns="http://www.w3.org/2000/svg" viewBox="0 0 838.63 840.95">
  <defs>
    <style>
      .cls-1, .cls-2 {
        stroke-width: 0px;
      }

      .cls-2 {
        fill: #c1a7a7;
      }
    </style>
  </defs>
  <polygon class="cls-1" points="371.85 25.44 371.85 174.5 349.69 174.5 349.69 174.75 328.78 174.75 328.78 136.92 337.96 136.92 337.96 110.92 332.86 110.92 332.86 131.68 316.66 131.68 316.66 110.92 311.47 110.92 311.47 120.73 280.63 120.73 280.63 110.92 275.02 110.92 275.02 124.56 284.71 124.56 284.71 174.75 200.36 174.75 200.36 81.13 189.91 81.13 189.91 25.44 371.85 25.44"/>
  <polygon class="cls-1" points="197.7 86.86 197.7 110.78 185.62 110.78 185.62 110.69 118.53 110.69 118.53 115.69 128.19 115.69 128.19 149.45 118.53 149.45 118.53 154.03 140.43 154.03 140.43 174.55 118.53 174.55 118.53 202.55 41.94 202.55 41.94 25.44 188.2 25.44 188.2 86.86 197.7 86.86"/>
  <polygon class="cls-1" points="670.53 26.47 670.53 131.48 602.65 131.48 602.65 140.91 550.85 140.91 550.85 26.8 596.22 26.47 670.53 26.47"/>
  <polygon class="cls-1" points="813.99 26.54 813.99 116.08 813.87 116.08 813.87 175.44 802.75 175.44 802.75 185.24 780.85 185.24 780.85 175.44 713.28 175.52 713.02 112.97 674.16 113.23 673.93 26.54 813.99 26.54"/>
  <polygon class="cls-1" points="812.17 191.66 812.17 311.69 771.13 311.69 771.13 311.36 715.34 311.36 715.34 182.02 773.35 182.02 773.35 191.66 812.17 191.66"/>
  <polygon class="cls-1" points="813.88 316.55 813.88 540.87 779.5 540.87 779.5 547.22 755.37 547.22 755.37 316.55 813.88 316.55"/>
  <polygon class="cls-1" points="813.61 544.81 813.61 610.62 803.86 610.62 803.86 615.23 765.79 615.23 765.79 624.34 714.95 624.34 714.95 550.85 765.79 550.85 765.79 551.36 783.65 551.36 783.65 544.81 813.61 544.81"/>
  <polygon class="cls-1" points="813.67 629.01 813.67 792.76 724.86 792.76 724.86 792.78 705 792.78 705 758.71 713.86 758.71 713.86 629.01 813.67 629.01"/>
  <polygon class="cls-1" points="709.16 693.89 709.16 752.79 699.49 752.79 699.49 792.83 571.71 792.83 571.71 694.54 696.82 694.54 696.82 693.89 709.16 693.89"/>
  <polygon class="cls-1" points="332.06 694.52 332.06 792.19 211.06 792.19 211.06 791.94 201.06 791.94 201.06 722.64 211.06 722.64 211.06 694.52 332.06 694.52"/>
  <polygon class="cls-1" points="207.09 694.56 207.09 719.5 197.57 719.5 197.57 792.78 124.13 792.78 124.13 790.08 122.66 790.08 122.66 792.77 43.65 792.77 43.65 694.51 122.66 694.51 122.66 697.91 124.13 697.91 124.13 694.32 197.57 694.32 197.57 694.56 207.09 694.56"/>
  <polygon class="cls-1" points="154.91 622.37 154.91 647.73 145.28 647.73 145.28 689.3 43.25 689.3 43.25 613.21 145.28 613.21 145.28 622.37 154.91 622.37"/>
  <rect class="cls-2" x="333.59" y="113.44" width="2.27" height="19.71"/>
  <polygon class="cls-1" points="197.96 214.39 197.96 221.72 197.89 221.72 197.89 282.32 186.57 282.32 186.57 284.85 145.45 284.85 145.45 280.02 145.56 280.02 145.56 217.38 174.4 217.38 174.4 214.39 197.96 214.39"/>
  <rect class="cls-1" x="43.79" y="452.52" width="150.59" height="64.91"/>
  <polygon class="cls-1" points="194.04 523.61 194.04 608.21 183.65 608.21 183.65 615.63 153.97 615.63 153.97 608.21 43.4 608.21 43.4 523.61 194.04 523.61"/>
  <rect class="cls-1" x="215.93" y="558.05" width="138.41" height="121.66"/>
  <polygon class="cls-1" points="568.81 733.88 568.81 792.01 336.79 792.01 336.79 733.88 397.96 733.88 397.96 726.37 501.96 726.37 501.96 733.88 568.81 733.88"/>
  <polygon class="cls-1" points="692.95 537.56 692.95 622.12 692.86 622.12 692.86 671.31 610.92 671.31 610.92 622.12 562.48 622.12 562.48 537.56 692.95 537.56"/>
  <rect class="cls-1" x="563.21" y="178.86" width="139" height="163.71"/>
</svg>