<?xml version="1.0" encoding="UTF-8"?>
<svg id="Layer_1" data-name="Layer 1" xmlns="http://www.w3.org/2000/svg" viewBox="0 0 829.11 829.11">
  <defs>
    <style>
      .cls-1 {
        fill: #afafaf;
        stroke-width: 0px;
      }
    </style>
  </defs>
  <rect class="cls-1" x="318.25" y="116.73" width="2.27" height="19.71"/>
  <path class="cls-1" d="M695.2,417.24v9.83s0,3.35,0,3.35h0v5.21s0,8.47,0,8.47h0v5.28s15.73,0,15.73,0h15.84s0-4.6,0-4.6h0v-5.22s0-4.61,0-4.61v-3.85h0v-4.71s0-3.87,0-3.87h0v-5.28s-15.28,0-15.28,0h-16.29ZM710.35,448.24h-14.01s0-2.99,0-2.99h14.01s0,2.99,0,2.99ZM710.35,443.63h-14.01s0-2.93,0-2.93h14.01s0,2.93,0,2.93ZM710.35,439.09h-14.01s0-2.99,0-2.99h14.01s0,2.99,0,2.99ZM710.35,434.49h-14.01s0-2.92,0-2.92h14.01s0,2.92,0,2.92ZM710.35,429.95h-14.01s0-2.41,0-2.41h14.01s0,2.41,0,2.41ZM710.35,425.92h-14.01s0-2.93,0-2.93h14.01s0,2.93,0,2.93ZM710.35,421.37h-14.01s0-2.99,0-2.99h14.01s0,2.99,0,2.99ZM712.07,418.39h13.56s0,2.99,0,2.99h-13.56s0-2.99,0-2.99ZM712.07,423h13.56s0,2.93,0,2.93h-13.56s0-2.93,0-2.93ZM712.07,427.55h13.56s0,2.41,0,2.41h-13.56s0-2.41,0-2.41ZM712.07,431.58h13.56s0,2.92,0,2.92h-13.56s0-2.92,0-2.92ZM712.07,436.1h13.56s0,2.99,0,2.99h-13.56s0-2.99,0-2.99ZM712.07,440.71h13.56s0,2.93,0,2.93h-13.56s0-2.93,0-2.93ZM712.07,445.26h13.56s0,2.99,0,2.99h-13.56s0-2.99,0-2.99Z"/>
  <path class="cls-1" d="M546.03,673.97h49.7v-48.69h-49.7v48.69ZM547.55,626.79h46.66v45.65h-46.66v-45.65Z"/>
  <path class="cls-1" d="M25.1,798.3h83.23l.09.25v-.25h692.52V27.52H25.1v585.04h-.25v3.03h.25v182.71ZM318.34,784.07h-.59v12.71h-133.52v-71.68h10.45v-28.9h.25v-.75h13.65v1.26h96.11v.59h1.86v-.59h11.2v68.83h.59v18.53ZM134.36,673.46v-13.14h.68v-6.32h39.61v.06h2.59v-10.1h-1.13v-11.95h.62v-7.63h.05v-9.3h6.95v-2.36h-1.06v-14.56h-.19v-56.03h.4v56.48h1.01v-56.69h18.2v.89h46.67v15.33h-.34v2.86h39.26v-17.86h17.69v-.84h18.36v.51h81.03v.15h.68v3.72h.42v11.46h-.52v1.49h8.36v16.87h-7.58v2.7h10.95v-.68h9.94v.51h5.39v-.51h11.45v1.12h3.02v-.61h14.34v16.68h.49v20.72h-1v.17h-.67v.34h-44.82v-1.01h-7.07v1.01h-16.18v-.34h-5.56v1.85h.17v1.86h-4.38v2.52h3.37v24.01h-29.48v-2.44h-1.01v-10.45h1.34v-11.79h14.83v-2.7h-16.85v14.49h.17v10.45h-.34v28.98h1.86v-.68h11.62v1.01h5.9v-1.34h11.96v22.74h-9.69v-.67h-10.36v.67h-9.6v-1.94h-1.77v.25h-6.57v3.04h6.57v37.15h-14.15v.92h-13.65v-1.43h-5.81v-36.39h6.32v-2.53h-118.27v.59h-13.65v-.08h-45.49v.08h-13.65v-21.31h-1.43ZM175.47,632.01v11.95h-.82v7.77h-29v-27.38h28.05v7.66h1.77ZM182.93,422.35v29.48h-8.03v-43.13h7.65v13.65h.38ZM291.55,525.28v14.66h-6.4v3.2h.17v15h-34.37v-17.69h-6.07v-15.17h7.08v-2.19h34.37v2.19h5.22ZM406.92,539.1v-10.28h1.39v-4.21h19.71v16.86h-20.22v-2.37h-.88ZM407.8,546.68v-3.72h20.22v15.18h-21.15v-11.46h.93ZM415.38,576.5v-16.87h12.64v16.87h-1.01v1.66h-9.94v-1.66h-1.69ZM467.61,525.28v15.61h-.04v2.08h.04v9.78h-20.74v-.17h-3.02v5.39h-14.82v-33.36h17.18v-.67h15.17v1.34h6.23ZM446.87,576.67v-20.89h20.74v1.94h1.18v16.68h-1.18v2.27h-20.74ZM443.85,559.82v18.34h-11.45v-1.66h-3.37v-16.68h14.82ZM487.66,625.02v-.17h.17v11.97h-1.18v17.9h-.86v.23h-30.02v.26h-37.71v-.1h-29.13v-33.62h-.17v-1.18h-.17v-1.86h3.37v-.84h16.18v1.18h4.38v3.71h2.69v-4.89h44.82v4.72h3.03v-3.2h3.03v-1.52h18.7v7.41h2.87ZM504.67,671.02v-22.24h13.31v22.41h-1.34v.84h-9.94v-1.01h-2.03ZM490.02,646.92v-10.1h-1.52v-11.97h1.18v-2.69h28.3v24.76h-27.96ZM490.02,648.78h12.97v22.24h-1.85v1.01h-10.96v-17.31h-.16v-5.94ZM472,681.12v-2.6h13.49v2.6h-13.49ZM485.49,683.04v2.6h-13.49v-2.6h13.49ZM472,676.62v-2.62h13.49v2.62h-13.49ZM485.44,660.32v2.56h-13.44v-2.56h13.44ZM472,658.39v-2.3h13.44v2.3h-13.44ZM485.44,664.82v3.05h-13.44v-3.05h13.44ZM485.44,669.78v2.32h-13.44v-2.32h13.44ZM456.91,681.12v-2.6h13.49v2.6h-13.49ZM470.4,683.04v2.6h-13.49v-2.6h13.49ZM456.91,676.62v-2.62h13.49v2.62h-13.49ZM456.91,672.1v-2.32h13.49v2.32h-13.49ZM456.91,667.87v-3.05h13.49v3.05h-13.49ZM456.91,662.88v-2.56h13.49v2.56h-13.49ZM456.91,658.39v-2.3h13.49v2.3h-13.49ZM355.91,733.61v-18.07h23.92v18.99h-16.85v-.92h-7.07ZM369.56,696.71v17.32h-13.65v-18.25h9.6v.93h4.05ZM371.83,714.03v-17.32h4.04v-.93h9.69v18.31h-.34v-.06h-13.39ZM371.24,671.35v-21.56h14.32v22.41h-11.96v-.85h-2.36ZM381.49,715.54h3.73v-.16h.34v11.23h103.11v9.02h-107.18v-20.09ZM403.54,688.12v-2.61h13.38v2.61h-13.38ZM416.92,690.03v2.6h-13.38v-2.6h13.38ZM403.54,683.6v-2.61h13.38v2.61h-13.38ZM403.54,679.09v-2.33h13.38v2.33h-13.38ZM403.54,674.86v-3.04h13.38v3.04h-13.38ZM403.54,669.91v-2.6h13.38v2.6h-13.38ZM403.54,665.39v-2.31h13.38v2.31h-13.38ZM388.93,661.16v-4.91h27.99v4.91h-27.99ZM401.84,663.08v2.31h-12.91v-2.31h12.91ZM401.84,667.31v2.6h-12.91v-2.6h12.91ZM401.84,671.82v3.04h-12.91v-3.04h12.91ZM401.84,676.76v2.33h-12.91v-2.33h12.91ZM401.84,680.99v2.61h-12.91v-2.61h12.91ZM401.84,685.51v2.61h-12.91v-2.61h12.91ZM401.84,690.03v2.6h-12.91v-2.6h12.91ZM418.06,693.77v-.4h6.43v.02h-.03v29.86h-35.53v-29.48h29.13ZM452.25,708.54v-14.01h2.96v14.01h-2.96ZM455.21,710.25v13h-2.96v-13h2.96ZM447.74,708.54v-14.01h2.9v14.01h-2.9ZM450.64,710.25v13h-2.9v-13h2.9ZM443.74,708.54v-14.01h2.39v14.01h-2.39ZM446.13,710.25v13h-2.39v-13h2.39ZM439.24,708.54v-14.01h2.89v14.01h-2.89ZM442.13,710.25v13h-2.89v-13h2.89ZM434.68,708.54v-14.01h2.96v14.01h-2.96ZM437.64,710.25v13h-2.96v-13h2.96ZM430.17,708.54v-14.01h2.9v14.01h-2.9ZM433.07,710.25v13h-2.9v-13h2.9ZM425.6,708.54v-14.01h2.96v14.01h-2.96ZM428.56,710.25v13h-2.96v-13h2.96ZM454.65,692.23h-35.47v-35.88h35.47v35.88ZM369.89,649.79v21.56h-2.19v.85h-11.62v-22.41h13.81ZM554.71,782.38h-.5v14.4h-233.68v-12.71h-1.52v-18.53h1.52v-29.66h5.81v-1.01h13.65v1.52h22.99v-1.52h16.85v.76h-1.18v.76h116.25v-.17h14.83v.17h8.25v.16h1.18v-.16h5.9v-1.18h21.73v.17h7.42v31.09h.5v15.91ZM502.82,696.46v17.35h-12.97v-18.03h1.85v-.5h9.1v1.18h2.02ZM517.98,715.5v18.19h-8.25v2.19h-14.83v-.25h-5.05v-20.13h28.13ZM517.98,696.46v17.35h-12.46v-17.35h1.01v-1.18h9.77v1.18h1.68ZM685.62,759.64h-.17v37.14h-129.38v-14.4h-.85v-15.91h.85v-69.68h.33v-.67h114.9v-.34h13.64v.85h9.61v61.66h-8.93v1.35ZM799.42,796.78h-111.95v-35.8h7.08v.17h3.03v-66.71h.02v-.34h-.02v-.17h-.51v-62.5h56.44v-8.26h36.06v8.26h.34v.16h9.51v165.19ZM799.42,628.73h-6.82v-11.29h6.82v11.29ZM799.42,614.58h-6.82v-.17h-3.03v5.9h-36.06v-.17h-1.68v8.76h-53.07v-11.12h-.81v-13.12h1.18v-3.71h-.03v-47.19h68.06v-1.18h.34v-5.06h2.53v-.67h13.98v.51h15.41v67.22ZM697.41,600.95v-47.19h.68v47.19h-.68ZM799.42,545.5h-15.41v.84h-13.98v-1.18h-2.53v-.16h-2.02v6.23h-27.8v-6.91h-.23v-20.72h1.07v-15.67h-1.77v-14.49h1.1v-1.85h-19.71v-3.2h10.45v-4.55h-32.88v-14.48s-.12,0-.12,0v-14.61s-.4,0-.4,0v-37.73s-6.58,0-6.58,0v-15.76s0-15.08,0-15.08h-4.88s-4.14,0-4.14,0h-3.51v-2.51h19.99v.3h22.87v-1.51h-.37v-2.02h8.08v1.89h-1.64v2.78h13.77v-8.84h-1.01v-13.02h1.14v-17.56h-.76v-7.46h-.88v-13.9h1.13v-6.27h32.06v-.68h13.39v1.01h15.58v227.11ZM697.07,515.51v-11.29h1.18v-1.18h17.18v12.63h2.7v-22.23h17.98v14.49h-.29v7.75h-37.57v-.17h-1.18ZM697.41,498.83v-10.45h18.02v11.79h-17.18v-1.35h-.84ZM687.44,470.5h2.6s0,13.34,0,13.34h-2.6v-13.34ZM687.32,469.27v-13.38s2.61,0,2.61,0v13.38s-2.61,0-2.61,0ZM658.16,453.62v-35.47s35.89,0,35.89,0v35.47s-35.89,0-35.89,0ZM682.92,470.5h2.6s0,13.34,0,13.34h-2.6v-13.34ZM682.8,469.27v-13.38s2.61,0,2.61,0v13.38s-2.61,0-2.61,0ZM678.69,470.5h2.33s0,13.34,0,13.34h-2.33v-13.34ZM678.57,469.27v-13.38s2.33,0,2.33,0v13.38s-2.33,0-2.33,0ZM652.93,488.39v26.96h-28.47v-27.12h3.37v-1.69h11.62v1.85h13.48ZM639.45,483.84v1.85h-11.62v-3.54h-7.56v-17.18h.66v-.34h.17v-3.88h3.37v-2.53h-3.37v-.17h-2.36v3.85h-.01v.7h-1.42v-5.48h-.39v-28.56h.47v-19.37h1.35v3.03h5.48v-1.85h-3.45v-3.54h-.23v-17.44h.73v-2.91h3.54v-.25h31.98v15.69s0,15.09,0,15.09h.27v37.71h-.11v29.1h-17.47ZM665.48,354.91v28.43h-40.69v-28.05h24.01v-1.39h10.99v1.01h5.69ZM662.14,400.8v-13.44s2.56,0,2.56,0v13.44s-2.56,0-2.56,0ZM664.7,402.4v13.5s-2.56,0-2.56,0v-13.5s2.56,0,2.56,0ZM657.91,415.89v-13.5s2.31,0,2.31,0v13.5s-2.31,0-2.31,0ZM658.06,455.88h4.92s0,27.96,0,27.96h-4.92v-27.96ZM657.91,400.8v-13.44s2.31,0,2.31,0v13.44s-2.31,0-2.31,0ZM655.46,502.71h18.03v1.69h.67v10.95h-18.7v-12.64ZM673.49,498.66v2.19h-18.03v-12.47h19.21v10.28h-1.18ZM667.2,469.27h-2.32s0-13.38,0-13.38h2.32s0,13.38,0,13.38ZM667.32,470.49v13.35h-2.32v-13.35s2.32,0,2.32,0ZM671.72,469.27h-2.6s0-13.38,0-13.38h2.6s0,13.38,0,13.38ZM671.84,470.49v13.34h-2.61v-13.35s2.61,0,2.61,0ZM673.74,483.84v-13.34s3.05,0,3.05,0v13.34h-3.05ZM673.62,469.27v-13.38s3.05,0,3.05,0v13.38s-3.05,0-3.05,0ZM669.69,402.4v13.5s-3.05,0-3.05,0v-13.5s3.05,0,3.05,0ZM666.65,400.8v-13.44s3.05,0,3.05,0v13.44s-3.05,0-3.05,0ZM673.92,402.4v13.5s-2.32,0-2.32,0v-13.5s2.32,0,2.32,0ZM671.61,400.8v-13.44s2.32,0,2.32,0v13.44s-2.32,0-2.32,0ZM675.82,400.8v-13.48s2.62,0,2.62,0v13.48s-2.62,0-2.62,0ZM678.44,402.4v13.5s-2.62,0-2.62,0v-13.5s2.62,0,2.62,0ZM682.95,402.4v13.5s-2.61,0-2.61,0v-13.5s2.61,0,2.61,0ZM680.34,400.81v-13.48s2.61,0,2.61,0v13.48s-2.61,0-2.61,0ZM687.46,402.41v13.5s-2.61,0-2.61,0v-13.5s2.61,0,2.61,0ZM684.86,400.81v-13.48s2.61,0,2.61,0v13.48s-2.61,0-2.61,0ZM691.84,455.89h2.6s0,13.38,0,13.38h-2.6s0-13.38,0-13.38ZM691.96,470.5h2.6s0,13.34,0,13.34h-2.6v-13.34ZM698.34,367.93v-2.91h-1.14v-10.99h17.82v13.9h-16.68ZM715.02,370.45v12.01h-17.69v-10.36h1.01v-1.65h16.68ZM737.13,363.25v13.02h-1.52v6.06h-6.44v-4.29h-.13v-1.39h-10.48v-22.62h16.67v9.22h1.9ZM799.42,316.04h-15.58v.59h-13.39v-.51h-32.06v-.25h-2.78v.25h-37.19v-108.92h.2v-2.36h-1.18v-12.13h1.66v-9.27h60.99v8.93h39.33v123.67ZM698.09,207.2v108.92h-1.02v-108.92h1.02ZM799.42,189.34h-7.66v-6.06h7.66v6.06ZM657.9,29.04h141.52v89.04h-.05v.5h.05v61.83h-10.53v1.35h-.16v7.58h-25.61v-7.58h-.34v-1.52h-63.68v-.16h-2.36v-57.08l-.04-4.89-38.8-.03V29.04ZM655.88,29.04v106.77h-36.14v.88h-12.13v-1.01h-18.95v3.54h8.34v6.57h-61.66V29.05s120.54,0,120.54,0ZM526.74,172.33v-24.52h70.26v25.02h-24.51v1.33h-11.12v-1.83h-34.63ZM528.26,178.14v-3.03h17.69v3.03h-17.69ZM543.68,201.14h.92v148.47h-.92v-148.47ZM358.44,29.04h172.1s0,.25,0,.25v116.5h-3.04v-5.81h-2.69v6.06h-.09v28.81h.51v.26h.76v3.03h-.51v3.54h18.07v17.31h-1.01v2.15h.63v148.47h-.25v1.64h.63v14.15h-.38v36.14h-4.04v2.78h10.61v-2.78h-5.31v-36.14h-.37v-14.15h1.13v-1.64h-.08v-148.47h.21v-2.15h-1.01v-17.31h4.13v-3.54h-.21v-3.03h13.14v-.57h11.12v.57h24.48v2.94h-.05v3.12h8.08v-3.12h-5.76v-2.69h.03v-36.14h8.34v-1.77h12.13v1.45h26.79v38.69h-5.09v3.29h5.22v.04h10.86v-2.28h-8.21v-39.74h8.85v-3.09h-.26v-17.23h38.33v61.5h-.67v12.63h1.55v12.13h-1.86v2.36h1.49v108.92h-.17v8.21h2.65v-6.27h36.39v6.27h1.27v13.9h-.13v7.46h-1.52v5.94h-36.51v-6.07h-2.53v6.07h-.88v2.4h.88v10.99h-1.14v7.08h1.52v10.36h-.51v.87h-21.63s-6.29,0-6.29,0v-31.34h-8.34v.88h-10.99v-1.14h-26.79v2.15h-.13v29.44h-3.29v6.06h.37v17.44h-3.28v21.73h.7v28.56h-.7v7.67h.17v.17h2.85v17.18h-.15v6.07h3.03v29.48h2.53v.17h48.52v5.9h2.86v-8.09h-.51v-.34h-.34v-10.95h1.18v-5.73h-.84v-10.28h21.57v10.45h-1.18v5.39h1.05v11.29h-.88v7.92h2.7v-5.05h37.57v5.22h.85v20.72h-1.87v6.91h-36.05v-6.23h-2.53v8.76h.17v47.19h-.14v3.71h1.02v13.12h-.88v76.15h-11.46v1.01h-13.64v-1.01h-124v2.86h6.91v36.56h-7.42v1.18h-21.73v-.84h-5.9v-18.19h.17v-1.69h-.17v-17.35h6.07v-2.19h-8.93v.84h-9.77v-.67h-5.73v.67h-9.1v-1.01h-1.85v-.17h-3.54v29.32h-29.96v-29.55h.02v-6.92h30.26v-12.83h3.55v-1.41h10.96v1h5.56v-1h9.94v1.34h8.42v-2.69h-5.39v-51.05h-.34v-.51h-31.67v-5.89h-2.87v3.2h-18.7v-.51h-3.36v-20.72h.5v-16.68h7.24v-2.36h-.43v-2.27h-.75v-16.68h.75v-14.75h75.11v-2.08h-.21v-45.09h-1.14v-18.95h1.65v-9.86h9.35v.15h1.8v-.15h23.05v.11h1.78v-9.21h-.73v-13.14h.38v-2.15h-.38v-10.74h1.39v-7.58h-1.14v-11.62h.12v-11.63h-.51v-.08h-18.18v1.64h.25v24.98h-36.64v-26.54h-4.3v43.22h4.3v-14.91h28.81v36.39h-28.9v-6.57h-3.03v7.83h19.54v9.86h.76v18.95h-.5v45.09h-72.63v-18.81h-.24v-.16h-8.42v.84h-15.17v-1.35h-37.9v-.17h-2.87v7.58h.46v10.28h-.46v1.85h-81.71v.34h-18.36v-1.35h-10.62v-14.66h.34v-3.36h-8.76v.67h-34.37v-.84h-10.11v2.02h-.34v16.68h-25.19v-53.81h274.89v-51.44h.26v-175h-.77v-.29h-32.22v-46.15h-.56v-.02h.43v-1.52h-242.85v-30.7h56.17v-.59h23.08v1.26h33.87v-1.26h17.94v1.01h17.94v-1.01h.25v-5.81h-3.03v3.79h-3.28V29.04ZM579.06,410.89v1.77h1.51v11.62h-.76v3.29h-15.74v-16.68h14.99ZM564.07,409.12v-6.53h14.99v6.53h-14.99ZM579.81,429.34v2.52h.38v10.74h-23.59v-13.26h23.21ZM580.19,444.75v13.14h-23.59v-13.14h23.59ZM579.65,459.41v6.32h-23.05v-6.32h23.05ZM240.56,266.24v4.48l-23.74.08v-4.48l23.74-.08ZM216.82,266.04v-4.48l23.74-.08v4.48l-23.74.08ZM240.56,271v4.57l-23.74.08v-4.57l23.74-.08ZM240.56,275.85v4.48l-23.74.08v-4.48l23.74-.08ZM240.56,280.61v4.48l-23.74.08v-4.48l23.74-.08ZM240.56,285.37v4.62l-23.74.08v-4.62l23.74-.08ZM240.56,290.13v4.48l-23.74.08v-4.48l23.74-.08ZM240.56,294.89v4.48l-23.74.08v-4.48l23.74-.08ZM240.56,299.65v4.57l-23.74.08v-4.57l23.74-.08ZM240.56,304.5v4.48l-23.74.08v-4.48l23.74-.08ZM240.56,309.26v4.48l-23.74.08v-4.48l23.74-.08ZM240.56,314.02v4.53l-23.74.08v-4.53l23.74-.08ZM240.56,318.82v4.48l-23.74.08v-4.48l23.74-.08ZM240.56,323.58v4.57l-23.74.08v-4.57l23.74-.08ZM240.56,328.43v4.48l-23.74.08v-4.48l23.74-.08ZM240.56,333.19v3l-23.74.08v-3l23.74-.08ZM240.56,336.47v4.48l-23.74.08v-4.48l23.74-.08ZM240.56,341.23v4.48l-23.74.08v-4.48l23.74-.08ZM240.56,345.99v4.48l-23.74.08v-4.48l23.74-.08ZM240.56,350.75v4.48l-23.74.08v-4.48l23.74-.08ZM263.65,355.42v-.25s.49,0,.49,0v-.25h193.71v130.2h-241.02v-129.53l46.83-.17ZM262.61,313.66l-21.39.08v-4.48l21.62-.08v-.28s-21.62.08-21.62.08v-4.48l21.64-.08v10.2h-.56v1.01h.56v2.84l-21.64.08v-4.53l21.39-.08v-.28ZM262.86,262.43v3.45l-21.64.08v-4.48l21.02-.08v1.03h.62ZM262.86,266.16v4.48l-21.64.08v-4.48l21.64-.08ZM262.86,270.92v4.57l-21.64.08v-4.57l21.64-.08ZM262.86,275.77v4.48l-21.64.08v-4.48l21.64-.08ZM262.86,280.53v4.48l-21.64.08v-4.48l21.64-.08ZM262.86,285.29v4.62l-21.64.08v-4.62l21.64-.08ZM262.86,290.05v4.48l-21.64.08v-4.48l21.64-.08ZM262.86,294.81v4.48l-21.64.08v-4.48l21.64-.08ZM262.86,299.57v4.57l-21.64.08v-4.57l21.64-.08ZM262.86,318.74v4.48l-21.64.08v-4.48l21.64-.08ZM262.86,323.5v4.57l-21.64.08v-4.57l21.64-.08ZM262.86,328.35v4.48l-21.64.08v-4.48l21.64-.08ZM262.86,333.11v3l-21.64.08v-3l21.64-.08ZM262.86,336.39v4.48l-21.64.08v-4.48l21.64-.08ZM262.86,341.15v4.48l-21.64.08v-4.48l21.64-.08ZM262.86,345.91v4.48l-21.64.08v-4.48l21.64-.08ZM262.86,350.67v4.48l-21.64.08v-4.48l21.64-.08ZM445.59,237.66h12.13v22.24h-12.13v-22.24ZM432.44,236.65v-20.34h12.38v20.34h-12.38ZM444.83,237.66v22.24h-12.38v-22.24h12.38ZM431.69,216.32v20.34h-12.13v-20.34h12.13ZM431.69,237.66v22.24h-12.13v-22.24h12.13ZM367.62,237.66h12.38v22.24h-12.38v-22.24ZM367.62,236.65v-20.34h12.38v20.34h-12.38ZM380.76,237.66h12.13v22.24h-12.13v-22.24ZM380.76,236.65v-20.34h12.13v20.34h-12.13ZM393.65,237.66h12.13v22.24h-12.13v-22.24ZM393.65,236.65v-20.34h12.13v20.34h-12.13ZM406.54,237.66h12.26v22.24h-12.26v-22.24ZM406.54,236.65v-20.34h12.26v20.34h-12.26ZM366.86,216.32v20.34h-12.13v-20.34h12.13ZM264.14,340.65v-12.38h97.22v12.38h-97.22ZM361.36,341.66v11.75h-97.22v-11.75h97.22ZM264.14,327.25v-11.62h97.22v11.62h-97.22ZM264.14,314.62v-12.38h97.22v12.38h-97.22ZM264.14,301.22v-13.01h97.22v13.01h-97.22ZM264.14,287.2v-12.38h97.22v12.38h-97.22ZM264.14,273.8v-11.37h97.22v11.37h-97.22ZM264.26,259.9v-22.24h12.13v22.24h-12.13ZM277.15,259.9v-22.24h12.13v22.24h-12.13ZM290.04,259.9v-22.24h12.38v22.24h-12.38ZM303.18,259.9v-22.24h12.13v22.24h-12.13ZM316.07,259.9v-22.24h12.13v22.24h-12.13ZM328.96,259.9v-22.24h12.13v22.24h-12.13ZM341.85,237.66h12.13v22.24h-12.13v-22.24ZM354.73,259.9v-22.24h12.13v22.24h-12.13ZM353.98,236.65h-12.13v-20.34h12.13v20.34ZM341.09,216.32v20.34h-12.13v-20.34h12.13ZM328.2,216.32v20.34h-12.13v-20.34h12.13ZM315.31,216.32v20.34h-12.13v-20.34h12.13ZM302.42,216.32v20.34h-12.38v-20.34h12.38ZM289.28,216.32v20.34h-12.13v-20.34h12.13ZM276.39,216.32v20.34h-12.13v-20.34h12.13ZM362.57,353.41v-11.75h95.27v11.75h-95.27ZM362.57,340.65v-12.38h95.27v12.38h-95.27ZM362.57,327.25v-11.62h95.27v11.62h-95.27ZM362.57,314.62v-12.38h95.27v12.38h-95.27ZM362.57,301.22v-13.01h95.27v13.01h-95.27ZM362.57,287.2v-12.38h95.27v12.38h-95.27ZM362.57,273.8v-11.37h95.27v11.37h-95.27ZM457.72,236.65h-12.13v-20.34h12.13v20.34ZM263.5,216.32v20.34h-.25v1.01h.25v22.24h-1.26v1.22l-21.02.07v-.09h-.66v.09l-23.74.08v-44.97h46.69ZM487.85,323.23l-13.04.13v-8.13l13.04-.13v8.13ZM487.85,357.97l-13.04.13v-8.13l13.04-.13v8.13ZM487.85,349.33l-13.04.13v-8.13l13.04-.13v8.13ZM487.85,340.69l-13.04.13v-8.3l13.04-.13v8.3ZM487.85,375.34l-13.04.13v-8.13l13.04-.13v8.13ZM474.81,425.3l13.04-.13v8.21l-13.04.13v-8.21ZM474.81,424.79v-8.13l13.04-.13v8.13l-13.04.13ZM474.81,416.15v-8.13l13.04-.13v8.13l-13.04.13ZM474.81,407.51v-8.13l13.04-.13v8.13l-13.04.13ZM474.81,398.87v-5.44l13.04-.13v5.44l-13.04.13ZM474.81,392.91v-8.13l13.04-.13v8.13l-13.04.13ZM474.81,384.27v-8.29l13.04-.13v8.29l-13.04.13ZM474.81,366.83v-8.22l13.04-.13v8.22l-13.04.13ZM474.81,332.01v-8.13l13.04-.13v8.13l-13.04.13ZM474.81,314.99v-8.39l13.04-.13v8.39l-13.04.13ZM474.81,306.08v-8.13l13.04-.13v8.13l-13.04.13ZM474.81,297.44v-8.13l13.04-.13v8.13l-13.04.13ZM474.81,288.8v-8.3l13.04-.13v8.3l-13.04.13ZM474.81,279.99v-8.13l13.04-.13v8.13l-13.04.13ZM474.81,271.35v-6.5h13.04v6.37l-13.04.13ZM474.4,264.84v6.51l-14.03.14v-6.65h14.03ZM460.37,424.94v-8.13l14.03-.14v8.13l-14.03.14ZM474.4,425.3v8.21l-14.03.14v-8.21l14.03-.14ZM460.37,416.3v-8.13l14.03-.14v8.13l-14.03.14ZM460.37,407.66v-8.13l14.03-.14v8.13l-14.03.14ZM460.37,399.01v-5.44l14.03-.14v5.44l-14.03.14ZM460.37,393.06v-8.13l14.03-.14v8.13l-14.03.14ZM460.37,384.42v-8.29l14.03-.14v8.29l-14.03.14ZM460.37,375.62v-8.13l14.03-.14v8.13l-14.03.14ZM460.37,366.98v-8.22l14.03-.14v8.22l-14.03.14ZM460.37,358.25v-8.13l14.03-.14v8.13l-14.03.14ZM460.37,349.61v-8.13l14.03-.14v8.13l-14.03.14ZM460.37,340.97v-8.3l14.03-.14v8.3l-14.03.14ZM460.37,332.15v-8.13l14.03-.14v8.13l-14.03.14ZM460.37,323.51v-8.13l14.03-.14v8.13l-14.03.14ZM460.37,315.13v-8.39l14.03-.14v8.39l-14.03.14ZM460.37,306.23v-8.13l14.03-.14v8.13l-14.03.14ZM460.37,297.59v-8.13l14.03-.14v8.13l-14.03.14ZM460.37,288.95v-8.3l14.03-.14v8.3l-14.03.14ZM460.37,280.13v-8.13l14.03-.14v8.13l-14.03.14ZM460.37,434.17l27.48-.28v1.31h1.83v49.92h-29.32v-50.95ZM299.55,139.22v-.51h10.36v3.04h.51v11.87h-.25v9.1h-36.55v-.61h-2.12v-34.26h25.78v11.37h2.27ZM271.5,179.18v-13.11h2.12v-1.07h36.55v13.9h-15.42v1.26h-23.08v-.98h-.17ZM174.46,29.04h182.21v149.86h-10.11v1.26h-17.94v-1.26h-16.43v-25.28h-1.26v-11.87h.75v-3.04h8.6v-2.02h-20.73v-9.39h.32v-10.7h-3.66v8.72h-31.66v-8.3h-3.66v10.7h.5v.13h8.09v51.33h-85.92v-71.8h-1.18v-17.25h1.56v-3.73h-9.48V29.04ZM183.3,286.59h-.02v.72h-8.89v-.34h-2.63v2.78h-42.79v-19.88h-1.01v-14.82h.34v-7.75h-.34v-12.47h1.68v-14.36h27.09v-.13h.54v-2.69h24.94v-.21h1.09v69.15ZM127.62,303.57v-11.46h44.14v20.89h-43.46v-9.43h-.68ZM141.86,179.4v-50.54h39.17v-.04h.51v50.36h-20.31v.73h-12.55v-.51h-6.82ZM26.62,29.04h145.82v61.09h9.1v35.42h-1.27v.28h-38.41v-6.32h.25v-3.54h-12.38v.76h-11.88v-.76h-13.9v2.53h9.1v35.63h-.25v.51h-7.75v1.34h7.75v.68h13.14v22.99h-21.23v2.03h25.02v-1.1h10.36v.59h8.59v-.59h12.55v.93h19.64v1.08h.41v9.45h.76v17.94h-.76v5.31h-27.04v3.65h-26.07v.39h-.21v-7.41h.34v-2.02h-6.07v.33h-16.85v-.33H41.03v-.17h-14.41V29.04ZM140.09,128.86v25.27h-24.77v-35.63h2.53v-.42h11.88v1.43h10.36v6.32h-.51v3.03h.51ZM127.45,179.65v-22.99h12.64v23.25h-10.36v-.26h-2.28ZM127.12,255.05v14.82h-.85v22.24h.68v11.46h-1.35v17.86h-18.7v.05h-.84v-.39h-4.05v-5.39h-1.01v-12.13h.68v-17.52h.17v-19.21h.16v-27.29h-.16v-14.49h.66v-13.14h2.87v-1.01h16.85v1.01h4.04v7.41h-.33v15.5h1.18v12.47h-1.52v7.75h1.52ZM26.62,215.12h14.41v-3.2h58.96v13.14h1.19v14.49h-1.19v19.54h-44.48v.84h-13.81v-.5h-15.08v-44.31ZM26.62,260.78h15.08v-.51h13.81v.51h44.48v6.06h1.19v14.49h-1.19v18.53h-44.14v1.52h-10.78v-.51h-18.45v-40.09ZM26.62,302.89h18.45v-1.01h10.78v1.69h44.65v12.13h-.17v6.74h.01v.34h5.72v-.53h.84v.02h18.7v.17h2.7v-7.75h43.46v8.09h2.63v-.34h6.3v8.93h3.54v-10.45h-1.01v-.5h-8.83v-31.97h9.55v-1.14h-.08v-.72h-.05v-69.15h.51v-7.46h-1.44v-17.94h.93v-9.45h.68v-1.08h30.29v34.81h.53v87.99h-.02v.28s.02,0,.02,0v181.03h-.01v54.83h-13.2v.46h-18.7v-17.98h-.17v-.85h-.29v-17.39h.43v-49.83h.53v-3.03h-.71v-29.48h1.22v-16.85h-.17v-23.42h-4.21v23.42h-46v-51.22h45.66v16.51h4.72v-19.04h-.17v-1.51h-54.75v4.04h2.35v51.22h-.5v3.2h.5v43.47h-2.35v.63h-18.71v-1.31h-9.01l-.03-15.21-.02-15.09h-.27l-.06-37.71h.11l-.05-29.54h9.67v-3.53H26.62v-47.52ZM174.39,408.7v43.13h-3.62v-43.13h3.62ZM96.38,437.43l.03,13.44h-2.55l-.03-13.44h2.55ZM93.81,422.34h2.55l.02,13.49h-2.55l-.02-13.49ZM64.56,420.13l-.06-35.47,35.75-.06.06,35.47-35.75.06ZM91.89,437.44l.02,13.44h-3.03l-.02-13.44h3.03ZM88.84,422.35h3.03s.02,13.49.02,13.49h-3.03l-.02-13.49ZM86.95,437.44l.02,13.44h-2.3s-.02-13.43-.02-13.43h2.3ZM84.64,435.85l-.02-13.5h2.31l.02,13.5h-2.31ZM82.75,437.45l.02,13.49h-2.6l-.03-13.48h2.61ZM80.12,422.36h2.61l.02,13.49h-2.61s-.02-13.49-.02-13.49ZM78.25,437.46l.02,13.48h-2.59s-.03-13.48-.03-13.48h2.6ZM75.63,422.37h2.59s.03,13.49.03,13.49h-2.6l-.02-13.49ZM73.75,437.47l.02,13.48h-2.6s-.02-13.48-.02-13.48h2.6ZM71.13,422.38h2.59s.02,13.49.02,13.49h-2.59l-.02-13.49ZM64.1,382.4l-.02-12.97h2.59l.02,12.97h-2.59ZM64.07,354.91h2.59s.02,12.96.02,12.96h-2.59s-.02-12.96-.02-12.96ZM68.59,367.87l-.02-12.97h2.59l.02,12.97h-2.59ZM71.19,382.39h-2.59l-.02-12.96h2.59s.02,12.96.02,12.96ZM73.09,367.86l-.02-12.97h2.6l.02,12.97h-2.6ZM75.7,382.38h-2.6s-.02-12.96-.02-12.96h2.59s.03,12.96.03,12.96ZM77.58,367.86l-.02-12.97h2.32s.02,12.96.02,12.96h-2.32ZM79.91,382.38h-2.32l-.02-12.97h2.32l.02,12.97ZM84.82,369.4l.02,12.97h-3.03l-.03-12.97h3.04ZM81.78,354.88h3.03l.02,12.97h-3.03l-.02-12.97ZM86.72,367.84l-.02-12.97h2.6l.02,12.97h-2.6ZM89.33,382.36h-2.6s-.02-12.96-.02-12.96h2.6s.02,12.96.02,12.96ZM91.23,367.83l-.02-12.96h2.3s.02,12.96.02,12.96h-2.3ZM93.54,382.35h-2.3s-.02-12.96-.02-12.96h2.3l.02,12.96ZM95.41,354.25h4.89l.05,28.09h-4.9s-.04-28.09-.04-28.09ZM100.57,422.33l.03,13.49h-2.3s-.02-13.49-.02-13.49h2.29ZM100.6,437.42l.02,13.44h-2.3s-.02-13.43-.02-13.43h2.3ZM26.62,353.94h36.31l.02,13.94h-.01l.02,15.66h.41v5.85s-15.49.03-15.49.03l-15.22.02v4.57s.01,4.51.01,4.51v4.56s.01,4.5.01,4.5v4.67h0v3.84s.01,5.24.01,5.24l15.22-.02,16.23-.03h0s5.83-.02,5.83-.02l.02,15.07.03,15.16H26.62v-97.55ZM62.98,395.1v2.9s-13.95.02-13.95.02v-2.9s13.95-.02,13.95-.02ZM49.02,393.51v-2.96s13.95-.02,13.95-.02v2.96s-13.95.02-13.95.02ZM62.99,399.61v2.96s-13.95.02-13.95.02v-2.96s13.95-.02,13.95-.02ZM62.99,404.17v2.89s-13.95.02-13.95.02v-2.89s13.95-.02,13.95-.02ZM63,408.67v2.39s-13.96.02-13.96.02v-2.39s13.96-.02,13.96-.02ZM63.01,412.67v2.9s-13.95.02-13.95.02v-2.9s13.95-.02,13.95-.02ZM63.01,417.18v2.96s-13.95.02-13.95.02v-2.96s13.95-.02,13.95-.02ZM47.31,395.13v2.9s-13.51.02-13.51.02v-2.9s13.51-.02,13.51-.02ZM33.79,393.54v-2.96s13.51-.02,13.51-.02v2.96s-13.51.02-13.51.02ZM47.31,399.64v2.96s-13.51.02-13.51.02v-2.96s13.51-.02,13.51-.02ZM47.32,404.2v2.89s-13.51.02-13.51.02v-2.89s13.51-.02,13.51-.02ZM47.33,408.7v2.39s-13.51.02-13.51.02v-2.39s13.51-.02,13.51-.02ZM47.33,412.7v2.9s-13.51.02-13.51.02v-2.9s13.51-.02,13.51-.02ZM47.34,417.21v2.96s-13.51.02-13.51.02v-2.96s13.51-.02,13.51-.02ZM26.62,455.03h79.27v3.95h2.36v-3.95h2.52v-1.05h18.71v.71h10.1v-2.52h-5.56v-43.47h36.24v43.13h-8.61v3.03h19.43v49.83h.75v-49.83h.78v49.83h.06v17.39h-21.86v1.01h-14.49v-.33h-37.4v-3.13h-2.53v3.13H26.62v-67.73ZM26.62,525.12h119.7v-1.14h14.49v.46h20.73v16.79h-.07v57.49h.82v14h-8.55v8.6h-38.7v-8.76h-3.04v1.13h-12.13v-1.13H26.62v-87.44ZM26.62,615.59h93.25v-.76h12.13v9.52h10.87v27.38h-9.6v8.59h.42v13.14h-.42v21.31h-14.16v-.59H26.62v-78.59ZM26.62,696.46h81.12v2.69h.68v-2.69h10.69v-1.01h14.16v1.01h2.52v-1.01h13.65v.75h42.54v26.54h-10.11v74.04h-73.45v-2.39h-.68v2.14l.09.25H26.62v-100.32Z"/>
</svg>