<?xml version="1.0" encoding="UTF-8"?>
<svg xmlns="http://www.w3.org/2000/svg" viewBox="0 0 222.44 103.14">
  <defs>
    <style>
      .cls-1 {
        letter-spacing: 0em;
      }

      .cls-2 {
        letter-spacing: .03em;
      }

      .cls-3, .cls-4 {
        letter-spacing: 0em;
      }

      .cls-5 {
        font-size: .48px;
      }

      .cls-5, .cls-4, .cls-6, .cls-7, .cls-8, .cls-9 {
        fill: #333;
        font-family: MyriadPro-Regular, 'Myriad Pro';
      }

      .cls-4, .cls-6, .cls-7, .cls-8, .cls-9 {
        font-size: .65px;
      }

      .cls-10 {
        letter-spacing: -.02em;
      }

      .cls-11 {
        letter-spacing: -.01em;
      }

      .cls-12 {
        letter-spacing: .02em;
      }

      .cls-13 {
        letter-spacing: .02em;
      }

      .cls-14 {
        letter-spacing: -.03em;
      }

      .cls-15 {
        letter-spacing: 0em;
      }

      .cls-16 {
        letter-spacing: 0em;
      }

      .cls-17, .cls-6 {
        letter-spacing: 0em;
      }

      .cls-18 {
        letter-spacing: -.02em;
      }

      .cls-19 {
        letter-spacing: 0em;
      }

      .cls-20 {
        letter-spacing: 0em;
      }

      .cls-21, .cls-8 {
        letter-spacing: 0em;
      }

      .cls-22 {
        letter-spacing: .02em;
      }

      .cls-23 {
        letter-spacing: -.01em;
      }

      .cls-24 {
        letter-spacing: .02em;
      }

      .cls-25 {
        letter-spacing: -.02em;
      }

      .cls-26 {
        letter-spacing: .01em;
      }

      .cls-27 {
        letter-spacing: .03em;
      }

      .cls-28 {
        letter-spacing: -.03em;
      }

      .cls-29 {
        letter-spacing: .01em;
      }

      .cls-30 {
        letter-spacing: 0em;
      }

      .cls-9 {
        letter-spacing: 0em;
      }

      .cls-31 {
        letter-spacing: -.02em;
      }

      .cls-32 {
        letter-spacing: -.04em;
      }

      .cls-33 {
        letter-spacing: -.07em;
      }

      .cls-34 {
        fill: #f92668;
        stroke-width: 0px;
      }

      .cls-35 {
        letter-spacing: 0em;
      }

      .cls-36 {
        letter-spacing: -.05em;
      }

      .cls-37 {
        letter-spacing: -.01em;
      }

      .cls-38 {
        letter-spacing: 0em;
      }

      .cls-39 {
        letter-spacing: 0em;
      }

      .cls-40 {
        fill: none;
        stroke: #f92668;
        stroke-miterlimit: 10;
        stroke-width: .5px;
      }
    </style>
  </defs>
  <g id="Layer_6" data-name="Layer 6">
    <path class="cls-34" d="m196.74,72.4h-73.68v-17.16H56.19v13.55h-16.76v-13.55H8.85V21.57h23.33v-4.26h76.42v4.39h16.39v4h69.58v-5.94h19.08v31.86h-16.91v20.78Zm-73.18-.5h72.68v-20.78h16.91v-30.86h-18.08v5.94h-70.58v-4h-16.39v-4.39H32.67v4.26H9.35v32.67h30.59v13.55h15.76v-13.55h67.87v17.16Z"/>
    <path class="cls-34" d="m9.78,22.54l23.08.03v19.41l-23.25-.03s.09-19.5.17-19.41Z"/>
    <path class="cls-34" d="m33.77,18.54l44.76.05v9.29l-17.67-.09v2.58l-5.17-.04v3.94l-7.27-.02v-4.39h-11.87v3.87l-2.77.02s.07-15.08,0-15.22Z"/>
    <path class="cls-34" d="m79.13,18.54h21.17v16.28h-2.84v-5.9h-15.92v5.9h-2.32s-.09-16.37-.09-16.28Z"/>
    <polygon class="cls-34" points="100.9 23.07 108.44 23.07 108.44 34.91 100.98 34.91 100.9 23.07"/>
    <polygon class="cls-34" points="108.93 23.07 116.5 23.07 116.55 34.91 108.97 34.91 108.93 23.07"/>
    <path class="cls-34" d="m61.41,28.45h5.68v5.94h-5.64s-.04-5.89-.04-5.94Z"/>
    <polygon class="cls-34" points="68.12 28.45 73.45 28.45 73.45 34.34 68.07 34.34 68.12 28.45"/>
    <path class="cls-34" d="m117.1,23.07h6.89l-.03,10.84h-6.87s0-10.85.01-10.84Z"/>
    <path class="cls-34" d="m124.48,26.52h11.23l.03,7.4-11.29-.05s.05-7.34.03-7.36Z"/>
    <path class="cls-34" d="m127.78,34.34h7.94v6.39h-7.94s.03-6.42,0-6.39Z"/>
    <path class="cls-34" d="m136.07,26.55h35.47v14.15h-35.45s.09-14.15-.02-14.15Z"/>
    <path class="cls-34" d="m171.81,26.55h23.12v14.15h-23.11s.06-14.15-.01-14.15Z"/>
    <polygon class="cls-34" points="195.27 30.9 212.58 30.9 212.58 50.47 198.25 50.47 198.25 36.63 195.26 36.63 195.27 30.9"/>
    <path class="cls-34" d="m94.01,37.95h29.9v15.62h-29.98s.17-15.62.09-15.62Z"/>
    <path class="cls-34" d="m86.07,37.95h7.46v15.72h-7.51s.02-15.75.05-15.72Z"/>
    <path class="cls-34" d="m55.51,37.95h30.05v15.62h-30.13s.17-15.62.09-15.62Z"/>
    <polygon class="cls-34" points="9.61 42.24 21.84 42.24 21.84 54.44 9.61 54.44 9.61 42.24"/>
    <polygon class="cls-34" points="22.18 42.24 32.91 42.24 32.91 54.44 22.18 54.44 22.18 42.24"/>
    <polygon class="cls-34" points="183.9 47.83 195.71 47.83 195.65 58.6 183.9 58.54 183.9 47.83"/>
    <polygon class="cls-34" points="186.13 59.05 195.71 59.05 195.66 64.47 186.13 64.44 186.13 59.05"/>
    <polygon class="cls-34" points="183.71 64.86 195.66 64.86 195.6 71.18 183.71 71.15 183.71 64.86"/>
    <polygon class="cls-34" points="177.17 64.86 183.26 64.86 183.22 71.18 177.17 71.15 177.17 64.86"/>
    <polygon class="cls-34" points="177.17 59.05 185.71 59.05 185.66 64.41 177.17 64.38 177.17 59.05"/>
    <polygon class="cls-34" points="168.73 59.02 176.68 59.02 176.63 71.18 168.73 71.11 168.73 59.02"/>
    <polygon class="cls-34" points="143.59 58.94 148.17 58.94 148.14 71.1 143.59 71.03 143.59 58.94"/>
    <polygon class="cls-34" points="148.72 58.94 153.29 58.94 153.27 71.1 148.72 71.03 148.72 58.94"/>
    <polygon class="cls-34" points="153.76 58.94 158.34 58.94 158.31 71.1 153.76 71.03 153.76 58.94"/>
    <polygon class="cls-34" points="158.66 58.94 163.24 58.94 163.22 71.1 158.66 71.03 158.66 58.94"/>
    <polygon class="cls-34" points="163.65 58.94 168.23 58.94 168.21 71.1 163.65 71.03 163.65 58.94"/>
    <path class="cls-34" d="m54.78,38.04h-21.36v8.82h4.58s.33-2.76,2.32-4.52c2.19-1.94,6.19-1.87,7.81-.06,1.85,2.08,1.94,4.58,1.94,4.58h4.71v-8.82Z"/>
    <polygon class="cls-34" points="123.05 72.15 123.05 90.52 132.9 94.65 132.82 72.28 123.05 72.15"/>
    <polyline class="cls-40" points="123.78 44.06 136.26 44.13 135.91 72.11"/>
    <path class="cls-34" d="m150.41,54.98h-6.7v-11.21h6.71l-.02,11.21Zm-6.2-.5h5.7l.02-10.21h-5.71v10.21Z"/>
    <path class="cls-34" d="m160.4,55h-9.85v-11.21h9.88l-.03,11.21Zm-9.35-.5h8.85l.02-10.21h-8.87v10.21Z"/>
    <path class="cls-34" d="m183.6,55h-22.96v-11.21h23.02l-.06,11.21Zm-22.46-.5h21.96l.06-10.21h-22.02v10.21Z"/>
    <polygon class="cls-34" points="33.42 47.24 49.62 47.31 49.68 54.28 33.42 54.34 33.42 47.24"/>
  </g>
  <g id="_13Arkk_Tekstit" data-name="13Arkk_Tekstit">
    <g id="MTEXT">
      <text class="cls-5" transform="translate(51.75 55.86)"><tspan class="cls-14" x="0" y="0">P</tspan><tspan x=".25" y="0">orras</tspan></text>
    </g>
    <g id="MTEXT-2" data-name="MTEXT">
      <text class="cls-7" transform="translate(139.31 43.07)"><tspan class="cls-13" x="0" y="0">K</tspan><tspan class="cls-39" x=".36" y="0">äytävä</tspan></text>
    </g>
    <g id="MTEXT-3" data-name="MTEXT">
      <text class="cls-5" transform="translate(139.31 43.63)"><tspan x="0" y="0">94.5 m</tspan></text>
      <text class="cls-5" transform="translate(141.14 43.63)"><tspan x="0" y="0">²</tspan></text>
    </g>
    <g id="MTEXT-4" data-name="MTEXT">
      <text class="cls-7" transform="translate(139.31 42.42)"><tspan x="0" y="0">D035</tspan></text>
    </g>
    <g id="MTEXT-5" data-name="MTEXT">
      <text class="cls-7" transform="translate(67.05 42.54)"><tspan x="0" y="0">Kotitalous</tspan></text>
    </g>
    <g id="MTEXT-6" data-name="MTEXT">
      <text class="cls-5" transform="translate(67.05 43.1)"><tspan x="0" y="0">87.5 m</tspan></text>
      <text class="cls-5" transform="translate(68.88 43.1)"><tspan x="0" y="0">²</tspan></text>
    </g>
    <g id="MTEXT-7" data-name="MTEXT">
      <text class="cls-7" transform="translate(67.05 41.89)"><tspan x="0" y="0">E010</tspan></text>
    </g>
    <g id="MTEXT-8" data-name="MTEXT">
      <text class="cls-7" transform="translate(56.13 21.96)"><tspan x="0" y="0">I</tspan><tspan class="cls-23" x=".15" y="0">V</tspan><tspan x=".51" y="0">-</tspan><tspan class="cls-31" x=".7" y="0">K</tspan><tspan x="1.04" y="0">ONEH.</tspan></text>
    </g>
    <g id="MTEXT-9" data-name="MTEXT">
      <text class="cls-5" transform="translate(56.13 22.52)"><tspan x="0" y="0">93.5 m</tspan></text>
      <text class="cls-5" transform="translate(57.96 22.52)"><tspan x="0" y="0">²</tspan></text>
    </g>
    <g id="MTEXT-10" data-name="MTEXT">
      <text class="cls-7" transform="translate(56.13 21.31)"><tspan x="0" y="0">E019</tspan></text>
    </g>
    <g id="MTEXT-11" data-name="MTEXT">
      <text class="cls-7" transform="translate(85.06 21.96)"><tspan x="0" y="0">I</tspan><tspan class="cls-23" x=".15" y="0">V</tspan><tspan x=".51" y="0">-</tspan><tspan class="cls-31" x=".7" y="0">K</tspan><tspan x="1.04" y="0">ONEH.</tspan></text>
    </g>
    <g id="MTEXT-12" data-name="MTEXT">
      <text class="cls-5" transform="translate(85.06 22.52)"><tspan x="0" y="0">47.5 m</tspan></text>
      <text class="cls-5" transform="translate(86.89 22.52)"><tspan x="0" y="0">²</tspan></text>
    </g>
    <g id="MTEXT-13" data-name="MTEXT">
      <text class="cls-7" transform="translate(85.06 21.31)"><tspan x="0" y="0">E005</tspan></text>
    </g>
    <g id="MTEXT-14" data-name="MTEXT">
      <text class="cls-4" transform="translate(169.8 50.87)"><tspan x="0" y="0">Sosiaalitila</tspan></text>
    </g>
    <g id="MTEXT-15" data-name="MTEXT">
      <text class="cls-5" transform="translate(169.8 51.42)"><tspan x="0" y="0">24.0 m</tspan></text>
      <text class="cls-5" transform="translate(171.57 51.42)"><tspan x="0" y="0">²</tspan></text>
    </g>
    <g id="MTEXT-16" data-name="MTEXT">
      <text class="cls-7" transform="translate(169.8 50.22)"><tspan x="0" y="0">D006</tspan></text>
    </g>
    <g id="MTEXT-17" data-name="MTEXT">
      <text class="cls-7" transform="translate(162.94 30.35)"><tspan class="cls-23" x="0" y="0">P</tspan><tspan class="cls-19" x=".33" y="0">uku- ja</tspan></text>
      <text class="cls-7" transform="translate(162.94 31.11)"><tspan x="0" y="0">pesuh.</tspan></text>
    </g>
    <g id="MTEXT-18" data-name="MTEXT">
      <text class="cls-5" transform="translate(162.94 30.9)"><tspan x="0" y="0">29.5 m</tspan></text>
      <text class="cls-5" transform="translate(164.77 30.9)"><tspan x="0" y="0">²</tspan></text>
    </g>
    <g id="MTEXT-19" data-name="MTEXT">
      <text class="cls-7" transform="translate(162.94 29.7)"><tspan x="0" y="0">D007</tspan></text>
    </g>
    <g id="MTEXT-20" data-name="MTEXT">
      <text class="cls-7" transform="translate(174.02 30.09)"><tspan x="0" y="0">I</tspan><tspan class="cls-23" x=".15" y="0">V</tspan><tspan x=".51" y="0">-</tspan><tspan class="cls-31" x=".7" y="0">K</tspan><tspan x="1.04" y="0">ONEH.</tspan></text>
    </g>
    <g id="MTEXT-21" data-name="MTEXT">
      <text class="cls-5" transform="translate(174.02 30.65)"><tspan x="0" y="0">58.0 m</tspan></text>
      <text class="cls-5" transform="translate(175.79 30.65)"><tspan x="0" y="0">²</tspan></text>
    </g>
    <g id="MTEXT-22" data-name="MTEXT">
      <text class="cls-7" transform="translate(174.02 29.44)"><tspan x="0" y="0">D002</tspan></text>
    </g>
    <g id="MTEXT-23" data-name="MTEXT">
      <text class="cls-7" transform="translate(98.87 42.54)"><tspan x="0" y="0">Kotitalous</tspan></text>
    </g>
    <g id="MTEXT-24" data-name="MTEXT">
      <text class="cls-5" transform="translate(98.87 43.1)"><tspan x="0" y="0">83.0 m</tspan></text>
      <text class="cls-5" transform="translate(100.64 43.1)"><tspan x="0" y="0">²</tspan></text>
    </g>
    <g id="MTEXT-25" data-name="MTEXT">
      <text class="cls-7" transform="translate(98.87 41.89)"><tspan x="0" y="0">E001</tspan></text>
    </g>
    <g id="MTEXT-26" data-name="MTEXT">
      <text class="cls-7" transform="translate(87.89 42.54)"><tspan class="cls-28" x="0" y="0">V</tspan><tspan class="cls-1" x=".34" y="0">aatehuolto</tspan></text>
    </g>
    <g id="MTEXT-27" data-name="MTEXT">
      <text class="cls-5" transform="translate(87.89 43.1)"><tspan x="0" y="0">21.5 m</tspan></text>
      <text class="cls-5" transform="translate(89.61 43.1)"><tspan x="0" y="0">²</tspan></text>
    </g>
    <g id="MTEXT-28" data-name="MTEXT">
      <text class="cls-7" transform="translate(87.89 41.89)"><tspan x="0" y="0">E009</tspan></text>
    </g>
    <g id="MTEXT-29" data-name="MTEXT">
      <text class="cls-6" transform="translate(89.12 31.58)"><tspan x="0" y="0">Kuiva-ainevarasto</tspan></text>
    </g>
    <g id="MTEXT-30" data-name="MTEXT">
      <text class="cls-5" transform="translate(89.12 32.14)"><tspan x="0" y="0">4.5 m</tspan></text>
      <text class="cls-5" transform="translate(90.6 32.14)"><tspan x="0" y="0">²</tspan></text>
    </g>
    <g id="MTEXT-31" data-name="MTEXT">
      <text class="cls-7" transform="translate(89.12 30.93)"><tspan x="0" y="0">E007</tspan></text>
    </g>
    <g id="MTEXT-32" data-name="MTEXT">
      <text class="cls-7" transform="translate(16.54 32.68)"><tspan x="0" y="0">Opetustila</tspan></text>
    </g>
    <g id="MTEXT-33" data-name="MTEXT">
      <text class="cls-5" transform="translate(16.54 33.24)"><tspan x="0" y="0">80.0 m</tspan></text>
      <text class="cls-5" transform="translate(18.26 33.24)"><tspan x="0" y="0">²</tspan></text>
    </g>
    <g id="MTEXT-34" data-name="MTEXT">
      <text class="cls-7" transform="translate(16.54 32.03)"><tspan x="0" y="0">E024</tspan></text>
    </g>
    <g id="MTEXT-35" data-name="MTEXT">
      <text class="cls-7" transform="translate(110.46 25.31)"><tspan x="0" y="0">Opint</tspan><tspan class="cls-22" x="1.53" y="0">o</tspan><tspan x="1.89" y="0">-</tspan></text>
    </g>
    <g id="MTEXT-36" data-name="MTEXT">
      <text class="cls-7" transform="translate(110.46 26.05)"><tspan x="0" y="0">ohjaaja</tspan></text>
    </g>
    <g id="MTEXT-37" data-name="MTEXT">
      <text class="cls-7" transform="translate(110.46 26.88)"><tspan x="0" y="0">18.0 m</tspan></text>
      <text class="cls-7" transform="translate(112.67 26.88)"><tspan x="0" y="0">²</tspan></text>
    </g>
    <g id="MTEXT-38" data-name="MTEXT">
      <text class="cls-7" transform="translate(110.46 24.54)"><tspan x="0" y="0">E023</tspan></text>
    </g>
    <g id="MTEXT-39" data-name="MTEXT">
      <text class="cls-7" transform="translate(35.62 50.2)"><tspan class="cls-28" x="0" y="0">V</tspan><tspan class="cls-1" x=".34" y="0">arasto/</tspan></text>
    </g>
    <g id="MTEXT-40" data-name="MTEXT">
      <text class="cls-7" transform="translate(35.62 50.94)"><tspan x="0" y="0">pien</tspan><tspan class="cls-2" x="1.2" y="0">r</tspan><tspan class="cls-19" x="1.43" y="0">yhmä</tspan></text>
    </g>
    <g id="MTEXT-41" data-name="MTEXT">
      <text class="cls-7" transform="translate(35.62 51.76)"><tspan x="0" y="0">7.0 m</tspan></text>
      <text class="cls-7" transform="translate(37.52 51.76)"><tspan x="0" y="0">²</tspan></text>
    </g>
    <g id="MTEXT-42" data-name="MTEXT">
      <text class="cls-7" transform="translate(35.62 49.42)"><tspan x="0" y="0">E022</tspan></text>
    </g>
    <g id="MTEXT-43" data-name="MTEXT">
      <text class="cls-7" transform="translate(156.09 48.06)"><tspan x="0" y="0">Sii</tspan><tspan class="cls-30" x=".62" y="0">v</tspan><tspan class="cls-19" x=".92" y="0">ous</tspan></text>
    </g>
    <g id="MTEXT-44" data-name="MTEXT">
      <text class="cls-5" transform="translate(156.09 48.62)"><tspan x="0" y="0">4.5 m</tspan></text>
      <text class="cls-5" transform="translate(157.57 48.62)"><tspan x="0" y="0">²</tspan></text>
    </g>
    <g id="MTEXT-45" data-name="MTEXT">
      <text class="cls-7" transform="translate(156.09 47.41)"><tspan x="0" y="0">D008</tspan></text>
    </g>
    <g id="MTEXT-46" data-name="MTEXT">
      <text class="cls-7" transform="translate(126.01 49.43)"><tspan class="cls-35" x="0" y="0">K</tspan><tspan x=".36" y="0">iinteistön-</tspan></text>
    </g>
    <g id="MTEXT-47" data-name="MTEXT">
      <text class="cls-7" transform="translate(126.01 50.17)"><tspan x="0" y="0">hoito</tspan></text>
    </g>
    <g id="MTEXT-48" data-name="MTEXT">
      <text class="cls-7" transform="translate(126.01 50.99)"><tspan x="0" y="0">16.5 m</tspan></text>
      <text class="cls-7" transform="translate(128.3 50.99)"><tspan x="0" y="0">²</tspan></text>
    </g>
    <g id="MTEXT-49" data-name="MTEXT">
      <text class="cls-7" transform="translate(126.01 48.66)"><tspan x="0" y="0">D031</tspan></text>
    </g>
    <g id="MTEXT-50" data-name="MTEXT">
      <text class="cls-7" transform="translate(144.59 47.04)"><tspan x="0" y="0">WC</tspan></text>
    </g>
    <g id="MTEXT-51" data-name="MTEXT">
      <text class="cls-5" transform="translate(144.59 47.6)"><tspan x="0" y="0">1.5 m</tspan></text>
      <text class="cls-5" transform="translate(145.96 47.6)"><tspan x="0" y="0">²</tspan></text>
    </g>
    <g id="MTEXT-52" data-name="MTEXT">
      <text class="cls-7" transform="translate(144.59 46.4)"><tspan x="0" y="0">D016</tspan></text>
    </g>
    <g id="MTEXT-53" data-name="MTEXT">
      <text class="cls-7" transform="translate(83.7 31.58)"><tspan x="0" y="0">Sii</tspan><tspan class="cls-30" x=".62" y="0">v</tspan><tspan class="cls-19" x=".92" y="0">ous</tspan></text>
    </g>
    <g id="MTEXT-54" data-name="MTEXT">
      <text class="cls-5" transform="translate(83.7 32.14)"><tspan x="0" y="0">4.5 m</tspan></text>
      <text class="cls-5" transform="translate(85.19 32.14)"><tspan x="0" y="0">²</tspan></text>
    </g>
    <g id="MTEXT-55" data-name="MTEXT">
      <text class="cls-7" transform="translate(83.7 30.93)"><tspan x="0" y="0">E006</tspan></text>
    </g>
    <g id="MTEXT-56" data-name="MTEXT">
      <text class="cls-7" transform="translate(94.39 31.94)"><tspan class="cls-35" x="0" y="0">H</tspan><tspan class="cls-1" x=".43" y="0">issikuilu</tspan></text>
    </g>
    <g id="MTEXT-57" data-name="MTEXT">
      <text class="cls-5" transform="translate(94.34 32.46)"><tspan x="0" y="0">2.5 m</tspan></text>
      <text class="cls-5" transform="translate(95.83 32.46)"><tspan x="0" y="0">²</tspan></text>
    </g>
    <g id="MTEXT-58" data-name="MTEXT">
      <text class="cls-7" transform="translate(94.34 31.25)"><tspan x="0" y="0">E008</tspan></text>
    </g>
    <g id="MTEXT-59" data-name="MTEXT">
      <text class="cls-7" transform="translate(74.64 31.58)"><tspan x="0" y="0">WC-E</tspan></text>
    </g>
    <g id="MTEXT-60" data-name="MTEXT">
      <text class="cls-5" transform="translate(74.64 32.14)"><tspan x="0" y="0">5.0 m</tspan></text>
      <text class="cls-5" transform="translate(76.07 32.14)"><tspan x="0" y="0">²</tspan></text>
    </g>
    <g id="MTEXT-61" data-name="MTEXT">
      <text class="cls-7" transform="translate(74.64 30.93)"><tspan x="0" y="0">E011</tspan></text>
    </g>
    <g id="MTEXT-62" data-name="MTEXT">
      <text class="cls-7" transform="translate(127.15 30.35)"><tspan class="cls-3" x="0" y="0">Maas</tspan><tspan class="cls-17" x="1.4" y="0">to</tspan><tspan class="cls-16" x="1.97" y="0">t</tspan><tspan class="cls-11" x="2.19" y="0">y</tspan><tspan x="2.48" y="0">öskent.</tspan></text>
      <text class="cls-7" transform="translate(127.15 31.11)"><tspan class="cls-21" x="0" y="0">va</tspan><tspan class="cls-36" x=".62" y="0">r</tspan><tspan x=".8" y="0">.</tspan></text>
    </g>
    <g id="MTEXT-63" data-name="MTEXT">
      <text class="cls-5" transform="translate(127.02 31.84)"><tspan x="0" y="0">14.5 m</tspan></text>
      <text class="cls-5" transform="translate(128.73 31.84)"><tspan x="0" y="0">²</tspan></text>
    </g>
    <g id="MTEXT-64" data-name="MTEXT">
      <text class="cls-7" transform="translate(127.15 29.7)"><tspan x="0" y="0">D033</tspan></text>
    </g>
    <g id="MTEXT-65" data-name="MTEXT">
      <text class="cls-7" transform="translate(188.3 62.93)"><tspan class="cls-17" x="0" y="0">Kuraatto</tspan><tspan class="cls-20" x="2.31" y="0">ri</tspan></text>
    </g>
    <g id="MTEXT-66" data-name="MTEXT">
      <text class="cls-5" transform="translate(188.3 63.49)"><tspan x="0" y="0">9.5 m</tspan></text>
      <text class="cls-5" transform="translate(189.79 63.49)"><tspan x="0" y="0">²</tspan></text>
    </g>
    <g id="MTEXT-67" data-name="MTEXT">
      <text class="cls-7" transform="translate(188.3 62.28)"><tspan x="0" y="0">D010</tspan></text>
    </g>
    <g id="MTEXT-68" data-name="MTEXT">
      <text class="cls-7" transform="translate(185.94 67.24)"><tspan class="cls-25" x="0" y="0">P</tspan><tspan x=".33" y="0">sykologi</tspan></text>
    </g>
    <g id="MTEXT-69" data-name="MTEXT">
      <text class="cls-5" transform="translate(185.94 67.79)"><tspan x="0" y="0">12.5 m</tspan></text>
      <text class="cls-5" transform="translate(187.65 67.79)"><tspan x="0" y="0">²</tspan></text>
    </g>
    <g id="MTEXT-70" data-name="MTEXT">
      <text class="cls-7" transform="translate(185.94 66.59)"><tspan x="0" y="0">D009</tspan></text>
    </g>
    <g id="MTEXT-71" data-name="MTEXT">
      <text class="cls-7" transform="translate(178.69 67.24)"><tspan class="cls-37" x="0" y="0">L</tspan><tspan x=".3" y="0">epoh.</tspan></text>
    </g>
    <g id="MTEXT-72" data-name="MTEXT">
      <text class="cls-5" transform="translate(178.69 67.79)"><tspan x="0" y="0">6.5 m</tspan></text>
      <text class="cls-5" transform="translate(180.18 67.79)"><tspan x="0" y="0">²</tspan></text>
    </g>
    <g id="MTEXT-73" data-name="MTEXT">
      <text class="cls-7" transform="translate(178.69 66.59)"><tspan x="0" y="0">D011</tspan></text>
    </g>
    <g id="MTEXT-74" data-name="MTEXT">
      <text class="cls-7" transform="translate(68.34 30.97)"><tspan class="cls-35" x="0" y="0">I</tspan><tspan x=".16" y="0">lta</tspan><tspan class="cls-29" x=".84" y="0">k</tspan><tspan x="1.15" y="0">.va</tspan><tspan class="cls-36" x="1.9" y="0">r</tspan><tspan x="2.08" y="0">.</tspan></text>
    </g>
    <g id="MTEXT-75" data-name="MTEXT">
      <text class="cls-5" transform="translate(68.34 31.53)"><tspan x="0" y="0">8.0 m</tspan></text>
      <text class="cls-5" transform="translate(69.77 31.53)"><tspan x="0" y="0">²</tspan></text>
    </g>
    <g id="MTEXT-76" data-name="MTEXT">
      <text class="cls-7" transform="translate(68.34 30.32)"><tspan x="0" y="0">E015</tspan></text>
    </g>
    <g id="MTEXT-77" data-name="MTEXT">
      <text class="cls-7" transform="translate(24.44 49)"><tspan x="0" y="0">Kotitalous</tspan></text>
    </g>
    <g id="MTEXT-78" data-name="MTEXT">
      <text class="cls-5" transform="translate(24.44 49.56)"><tspan x="0" y="0">24.5 m</tspan></text>
      <text class="cls-5" transform="translate(26.27 49.56)"><tspan x="0" y="0">²</tspan></text>
    </g>
    <g id="MTEXT-79" data-name="MTEXT">
      <text class="cls-7" transform="translate(24.44 48.35)"><tspan x="0" y="0">E002a</tspan></text>
    </g>
    <g id="MTEXT-80" data-name="MTEXT">
      <text class="cls-7" transform="translate(42.09 39.69)"><tspan x="0" y="0">Opetusaula</tspan></text>
    </g>
    <g id="MTEXT-81" data-name="MTEXT">
      <text class="cls-5" transform="translate(42.09 40.25)"><tspan x="0" y="0">21.5 m</tspan></text>
      <text class="cls-5" transform="translate(43.81 40.25)"><tspan x="0" y="0">²</tspan></text>
    </g>
    <g id="MTEXT-82" data-name="MTEXT">
      <text class="cls-7" transform="translate(42.09 39.04)"><tspan x="0" y="0">E020</tspan></text>
    </g>
    <g id="MTEXT-83" data-name="MTEXT">
      <text class="cls-7" transform="translate(151.25 39.08)"><tspan x="0" y="0">WC</tspan></text>
    </g>
    <g id="MTEXT-84" data-name="MTEXT">
      <text class="cls-5" transform="translate(151.25 39.64)"><tspan x="0" y="0">1.5 m</tspan></text>
      <text class="cls-5" transform="translate(152.62 39.64)"><tspan x="0" y="0">²</tspan></text>
    </g>
    <g id="MTEXT-85" data-name="MTEXT">
      <text class="cls-7" transform="translate(151.25 38.43)"><tspan x="0" y="0">D025</tspan></text>
    </g>
    <g id="MTEXT-86" data-name="MTEXT">
      <text class="cls-7" transform="translate(145.28 50.59)"><tspan x="0" y="0">Kohd</tspan><tspan class="cls-27" x="1.43" y="0">e</tspan><tspan x="1.77" y="0">-</tspan></text>
    </g>
    <g id="MTEXT-87" data-name="MTEXT">
      <text class="cls-8" transform="translate(145.28 51.34)"><tspan x="0" y="0">vastaava</tspan></text>
    </g>
    <g id="MTEXT-88" data-name="MTEXT">
      <text class="cls-7" transform="translate(145.28 52.16)"><tspan x="0" y="0">7.5 m</tspan></text>
      <text class="cls-7" transform="translate(147.26 52.16)"><tspan x="0" y="0">²</tspan></text>
    </g>
    <g id="MTEXT-89" data-name="MTEXT">
      <text class="cls-7" transform="translate(145.28 49.82)"><tspan x="0" y="0">D013</tspan></text>
    </g>
    <g id="MTEXT-90" data-name="MTEXT">
      <text class="cls-7" transform="translate(102.9 25.58)"><tspan class="cls-26" x="0" y="0">L</tspan><tspan x=".31" y="0">JH</tspan></text>
    </g>
    <g id="MTEXT-91" data-name="MTEXT">
      <text class="cls-5" transform="translate(102.9 26.14)"><tspan x="0" y="0">21.5 m</tspan></text>
      <text class="cls-5" transform="translate(104.61 26.14)"><tspan x="0" y="0">²</tspan></text>
    </g>
    <g id="MTEXT-92" data-name="MTEXT">
      <text class="cls-7" transform="translate(102.9 24.93)"><tspan x="0" y="0">E004</tspan></text>
    </g>
    <g id="MTEXT-93" data-name="MTEXT">
      <text class="cls-7" transform="translate(189.18 43.38)"><tspan class="cls-18" x="0" y="0">P</tspan><tspan x=".33" y="0">orrash.</tspan></text>
    </g>
    <g id="MTEXT-94" data-name="MTEXT">
      <text class="cls-5" transform="translate(189.18 43.94)"><tspan x="0" y="0">21.0 m</tspan></text>
      <text class="cls-5" transform="translate(190.84 43.94)"><tspan x="0" y="0">²</tspan></text>
    </g>
    <g id="MTEXT-95" data-name="MTEXT">
      <text class="cls-7" transform="translate(189.18 42.73)"><tspan x="0" y="0">D040</tspan></text>
    </g>
    <g id="MTEXT-96" data-name="MTEXT">
      <text class="cls-7" transform="translate(50.91 54.04)"><tspan class="cls-18" x="0" y="0">P</tspan><tspan x=".33" y="0">orras</tspan></text>
    </g>
    <g id="MTEXT-97" data-name="MTEXT">
      <text class="cls-5" transform="translate(50.91 54.6)"><tspan x="0" y="0">19.5 m</tspan></text>
      <text class="cls-5" transform="translate(52.63 54.6)"><tspan x="0" y="0">²</tspan></text>
    </g>
    <g id="MTEXT-98" data-name="MTEXT">
      <text class="cls-7" transform="translate(50.91 53.39)"><tspan x="0" y="0">E040</tspan></text>
    </g>
    <g id="MTEXT-99" data-name="MTEXT">
      <text class="cls-9" transform="translate(181.3 62.93)"><tspan x="0" y="0">Odotus</tspan></text>
    </g>
    <g id="MTEXT-100" data-name="MTEXT">
      <text class="cls-5" transform="translate(181.3 63.49)"><tspan x="0" y="0">19.0 m</tspan></text>
      <text class="cls-5" transform="translate(182.95 63.49)"><tspan x="0" y="0">²</tspan></text>
    </g>
    <g id="MTEXT-101" data-name="MTEXT">
      <text class="cls-7" transform="translate(181.3 62.28)"><tspan x="0" y="0">D019</tspan></text>
    </g>
    <g id="MTEXT-102" data-name="MTEXT">
      <text class="cls-7" transform="translate(149.49 61.45)"><tspan class="cls-13" x="0" y="0">K</tspan><tspan x=".36" y="0">anslia</tspan></text>
    </g>
    <g id="MTEXT-103" data-name="MTEXT">
      <text class="cls-5" transform="translate(149.49 62.01)"><tspan x="0" y="0">10.0 m</tspan></text>
      <text class="cls-5" transform="translate(151.09 62.01)"><tspan x="0" y="0">²</tspan></text>
    </g>
    <g id="MTEXT-104" data-name="MTEXT">
      <text class="cls-7" transform="translate(149.49 60.8)"><tspan x="0" y="0">D037</tspan></text>
    </g>
    <g id="MTEXT-105" data-name="MTEXT">
      <text class="cls-7" transform="translate(160.82 61.34)"><tspan class="cls-13" x="0" y="0">K</tspan><tspan x=".36" y="0">anslia</tspan></text>
    </g>
    <g id="MTEXT-106" data-name="MTEXT">
      <text class="cls-5" transform="translate(160.82 61.9)"><tspan x="0" y="0">9.0 m</tspan></text>
      <text class="cls-5" transform="translate(162.25 61.9)"><tspan x="0" y="0">²</tspan></text>
    </g>
    <g id="MTEXT-107" data-name="MTEXT">
      <text class="cls-7" transform="translate(160.82 60.69)"><tspan x="0" y="0">D036</tspan></text>
    </g>
    <g id="MTEXT-108" data-name="MTEXT">
      <text class="cls-7" transform="translate(151.25 47.04)"><tspan x="0" y="0">WC-E</tspan></text>
    </g>
    <g id="MTEXT-109" data-name="MTEXT">
      <text class="cls-5" transform="translate(151.25 47.6)"><tspan x="0" y="0">4.5 m</tspan></text>
      <text class="cls-5" transform="translate(152.73 47.6)"><tspan x="0" y="0">²</tspan></text>
    </g>
    <g id="MTEXT-110" data-name="MTEXT">
      <text class="cls-7" transform="translate(151.25 46.4)"><tspan x="0" y="0">D026</tspan></text>
    </g>
    <g id="MTEXT-111" data-name="MTEXT">
      <text class="cls-7" transform="translate(118.29 25.31)"><tspan x="0" y="0">Opint</tspan><tspan class="cls-22" x="1.53" y="0">o</tspan><tspan x="1.89" y="0">-</tspan></text>
    </g>
    <g id="MTEXT-112" data-name="MTEXT">
      <text class="cls-7" transform="translate(118.29 26.05)"><tspan x="0" y="0">ohjaaja</tspan></text>
    </g>
    <g id="MTEXT-113" data-name="MTEXT">
      <text class="cls-7" transform="translate(118.29 26.88)"><tspan x="0" y="0">10.0 m</tspan></text>
      <text class="cls-7" transform="translate(120.42 26.88)"><tspan x="0" y="0">²</tspan></text>
    </g>
    <g id="MTEXT-114" data-name="MTEXT">
      <text class="cls-7" transform="translate(118.29 24.54)"><tspan x="0" y="0">E026</tspan></text>
    </g>
    <g id="MTEXT-115" data-name="MTEXT">
      <text class="cls-7" transform="translate(156.55 52.15)"><tspan class="cls-15" x="0" y="0">Ar</tspan><tspan class="cls-24" x=".61" y="0">k</tspan><tspan x=".92" y="0">isto</tspan></text>
    </g>
    <g id="MTEXT-116" data-name="MTEXT">
      <text class="cls-5" transform="translate(156.55 52.71)"><tspan x="0" y="0">4.5 m</tspan></text>
      <text class="cls-5" transform="translate(158.04 52.71)"><tspan x="0" y="0">²</tspan></text>
    </g>
    <g id="MTEXT-117" data-name="MTEXT">
      <text class="cls-7" transform="translate(156.55 51.5)"><tspan x="0" y="0">D034</tspan></text>
    </g>
    <g id="MTEXT-118" data-name="MTEXT">
      <text class="cls-7" transform="translate(187 51.98)"><tspan x="0" y="0">Neu</tspan><tspan class="cls-30" x="1.1" y="0">v</tspan><tspan x="1.41" y="0">ottelu/</tspan><tspan class="cls-38" x="3.24" y="0">t</tspan><tspan class="cls-30" x="3.46" y="0">y</tspan><tspan x="3.76" y="0">ötila</tspan></text>
    </g>
    <g id="MTEXT-119" data-name="MTEXT">
      <text class="cls-5" transform="translate(187 52.54)"><tspan x="0" y="0">22.0 m</tspan></text>
      <text class="cls-5" transform="translate(188.77 52.54)"><tspan x="0" y="0">²</tspan></text>
    </g>
    <g id="MTEXT-120" data-name="MTEXT">
      <text class="cls-7" transform="translate(187 51.33)"><tspan x="0" y="0">D004</tspan></text>
    </g>
    <g id="MTEXT-121" data-name="MTEXT">
      <text class="cls-7" transform="translate(139.31 30.35)"><tspan class="cls-23" x="0" y="0">P</tspan><tspan class="cls-19" x=".33" y="0">uku- ja</tspan></text>
      <text class="cls-7" transform="translate(139.31 31.11)"><tspan x="0" y="0">pesuh.</tspan></text>
    </g>
    <g id="MTEXT-122" data-name="MTEXT">
      <text class="cls-5" transform="translate(139.28 31.97)"><tspan x="0" y="0">28.5 m</tspan></text>
      <text class="cls-5" transform="translate(141.11 31.97)"><tspan x="0" y="0">²</tspan></text>
    </g>
    <g id="MTEXT-123" data-name="MTEXT">
      <text class="cls-7" transform="translate(139.31 29.7)"><tspan x="0" y="0">D041</tspan></text>
    </g>
    <g id="MTEXT-124" data-name="MTEXT">
      <text class="cls-7" transform="translate(149.01 39.08)"><tspan x="0" y="0">WC</tspan></text>
    </g>
    <g id="MTEXT-125" data-name="MTEXT">
      <text class="cls-5" transform="translate(149.01 39.64)"><tspan x="0" y="0">1.5 m</tspan></text>
      <text class="cls-5" transform="translate(150.39 39.64)"><tspan x="0" y="0">²</tspan></text>
    </g>
    <g id="MTEXT-126" data-name="MTEXT">
      <text class="cls-7" transform="translate(149.01 38.43)"><tspan x="0" y="0">D042</tspan></text>
    </g>
    <g id="MTEXT-127" data-name="MTEXT">
      <text class="cls-7" transform="translate(155.99 61.34)"><tspan x="0" y="0">Hallinto</tspan></text>
    </g>
    <g id="MTEXT-128" data-name="MTEXT">
      <text class="cls-5" transform="translate(155.99 61.9)"><tspan x="0" y="0">12.5 m</tspan></text>
      <text class="cls-5" transform="translate(157.71 61.9)"><tspan x="0" y="0">²</tspan></text>
    </g>
    <g id="MTEXT-129" data-name="MTEXT">
      <text class="cls-7" transform="translate(155.99 60.69)"><tspan x="0" y="0">D047</tspan></text>
    </g>
    <g id="MTEXT-130" data-name="MTEXT">
      <text class="cls-7" transform="translate(145.35 61.45)"><tspan x="0" y="0">Hallinto</tspan></text>
    </g>
    <g id="MTEXT-131" data-name="MTEXT">
      <text class="cls-5" transform="translate(145.35 62.01)"><tspan x="0" y="0">10.0 m</tspan></text>
      <text class="cls-5" transform="translate(146.95 62.01)"><tspan x="0" y="0">²</tspan></text>
    </g>
    <g id="MTEXT-132" data-name="MTEXT">
      <text class="cls-7" transform="translate(145.35 60.8)"><tspan x="0" y="0">D048</tspan></text>
    </g>
    <g id="MTEXT-133" data-name="MTEXT">
      <text class="cls-7" transform="translate(164.94 61.45)"><tspan x="0" y="0">Hallinto</tspan></text>
    </g>
    <g id="MTEXT-134" data-name="MTEXT">
      <text class="cls-5" transform="translate(164.94 62.01)"><tspan x="0" y="0">9.5 m</tspan></text>
      <text class="cls-5" transform="translate(166.42 62.01)"><tspan x="0" y="0">²</tspan></text>
    </g>
    <g id="MTEXT-135" data-name="MTEXT">
      <text class="cls-7" transform="translate(164.94 60.8)"><tspan x="0" y="0">D049</tspan></text>
    </g>
    <g id="MTEXT-136" data-name="MTEXT">
      <text class="cls-7" transform="translate(152.39 51.23)"><tspan x="0" y="0">Kopiointi</tspan></text>
    </g>
    <g id="MTEXT-137" data-name="MTEXT">
      <text class="cls-5" transform="translate(152.39 51.79)"><tspan x="0" y="0">4.5 m</tspan></text>
      <text class="cls-5" transform="translate(153.87 51.79)"><tspan x="0" y="0">²</tspan></text>
    </g>
    <g id="MTEXT-138" data-name="MTEXT">
      <text class="cls-7" transform="translate(152.39 50.58)"><tspan x="0" y="0">D050</tspan></text>
    </g>
    <g id="MTEXT-139" data-name="MTEXT">
      <text class="cls-7" transform="translate(62.41 30.97)"><tspan x="0" y="0">O</tspan><tspan class="cls-10" x=".44" y="0">p</tspan><tspan class="cls-19" x=".8" y="0">.vä</tspan><tspan class="cls-30" x="1.55" y="0">l</tspan><tspan x="1.7" y="0">.</tspan></text>
      <text class="cls-7" transform="translate(62.41 31.73)"><tspan class="cls-21" x="0" y="0">va</tspan><tspan class="cls-36" x=".62" y="0">r</tspan><tspan x=".8" y="0">.</tspan></text>
    </g>
    <g id="MTEXT-140" data-name="MTEXT">
      <text class="cls-5" transform="translate(62.41 31.53)"><tspan x="0" y="0">7.5 m</tspan></text>
      <text class="cls-5" transform="translate(63.9 31.53)"><tspan x="0" y="0">²</tspan></text>
    </g>
    <g id="MTEXT-141" data-name="MTEXT">
      <text class="cls-7" transform="translate(62.41 30.32)"><tspan x="0" y="0">E014</tspan></text>
    </g>
    <g id="MTEXT-142" data-name="MTEXT">
      <text class="cls-7" transform="translate(40.5 49.91)"><tspan x="0" y="0">O</tspan><tspan class="cls-10" x=".44" y="0">p</tspan><tspan class="cls-19" x=".8" y="0">.vä</tspan><tspan class="cls-30" x="1.55" y="0">l</tspan><tspan x="1.7" y="0">.</tspan></text>
      <text class="cls-7" transform="translate(40.5 50.67)"><tspan class="cls-21" x="0" y="0">va</tspan><tspan class="cls-36" x=".62" y="0">r</tspan><tspan x=".8" y="0">.</tspan></text>
    </g>
    <g id="MTEXT-143" data-name="MTEXT">
      <text class="cls-5" transform="translate(40.53 51.31)"><tspan x="0" y="0">8.0 m</tspan></text>
      <text class="cls-5" transform="translate(41.96 51.31)"><tspan x="0" y="0">²</tspan></text>
    </g>
    <g id="MTEXT-144" data-name="MTEXT">
      <text class="cls-7" transform="translate(40.5 49.26)"><tspan x="0" y="0">E021</tspan></text>
    </g>
    <g id="MTEXT-145" data-name="MTEXT">
      <text class="cls-7" transform="translate(92.88 36.65)"><tspan class="cls-13" x="0" y="0">K</tspan><tspan class="cls-39" x=".36" y="0">äytävä</tspan></text>
    </g>
    <g id="MTEXT-146" data-name="MTEXT">
      <text class="cls-5" transform="translate(92.88 37.21)"><tspan x="0" y="0">42.5 m</tspan></text>
      <text class="cls-5" transform="translate(94.71 37.21)"><tspan x="0" y="0">²</tspan></text>
    </g>
    <g id="MTEXT-147" data-name="MTEXT">
      <text class="cls-7" transform="translate(92.88 36)"><tspan x="0" y="0">E033</tspan></text>
    </g>
    <g id="MTEXT-148" data-name="MTEXT">
      <text class="cls-7" transform="translate(44.94 62.01)"><tspan x="0" y="0">TK</tspan></text>
    </g>
    <g id="MTEXT-149" data-name="MTEXT">
      <text class="cls-5" transform="translate(44.94 62.57)"><tspan x="0" y="0">8.5 m</tspan></text>
      <text class="cls-5" transform="translate(46.43 62.57)"><tspan x="0" y="0">²</tspan></text>
    </g>
    <g id="MTEXT-150" data-name="MTEXT">
      <text class="cls-7" transform="translate(44.94 61.36)"><tspan x="0" y="0">E039</tspan></text>
    </g>
    <g id="MTEXT-151" data-name="MTEXT">
      <text class="cls-7" transform="translate(148.8 29.73)"><tspan class="cls-18" x="0" y="0">P</tspan><tspan class="cls-1" x=".33" y="0">esuh.</tspan></text>
    </g>
    <g id="MTEXT-152" data-name="MTEXT">
      <text class="cls-5" transform="translate(148.8 30.29)"><tspan x="0" y="0">6.5 m</tspan></text>
      <text class="cls-5" transform="translate(150.28 30.29)"><tspan x="0" y="0">²</tspan></text>
    </g>
    <g id="MTEXT-153" data-name="MTEXT">
      <text class="cls-7" transform="translate(148.8 29.08)"><tspan x="0" y="0">D056</tspan></text>
    </g>
    <g id="MTEXT-154" data-name="MTEXT">
      <text class="cls-7" transform="translate(202.58 39.51)"><tspan x="0" y="0">Opetustila</tspan></text>
    </g>
    <g id="MTEXT-155" data-name="MTEXT">
      <text class="cls-5" transform="translate(202.58 40.06)"><tspan x="0" y="0">47.0 m</tspan></text>
      <text class="cls-5" transform="translate(204.35 40.06)"><tspan x="0" y="0">²</tspan></text>
    </g>
    <g id="MTEXT-156" data-name="MTEXT">
      <text class="cls-7" transform="translate(202.58 38.86)"><tspan x="0" y="0">D001</tspan></text>
    </g>
    <g id="MTEXT-157" data-name="MTEXT">
      <text class="cls-7" transform="translate(147.66 47.04)"><tspan x="0" y="0">WC</tspan></text>
    </g>
    <g id="MTEXT-158" data-name="MTEXT">
      <text class="cls-5" transform="translate(147.66 47.6)"><tspan x="0" y="0">2.0 m</tspan></text>
      <text class="cls-5" transform="translate(149.09 47.6)"><tspan x="0" y="0">²</tspan></text>
    </g>
    <g id="MTEXT-159" data-name="MTEXT">
      <text class="cls-7" transform="translate(147.66 46.4)"><tspan x="0" y="0">D027</tspan></text>
    </g>
    <g id="MTEXT-160" data-name="MTEXT">
      <text class="cls-7" transform="translate(154.63 31.43)"><tspan class="cls-18" x="0" y="0">P</tspan><tspan class="cls-1" x=".33" y="0">esuh.</tspan></text>
    </g>
    <g id="MTEXT-161" data-name="MTEXT">
      <text class="cls-5" transform="translate(154.63 31.99)"><tspan x="0" y="0">6.5 m</tspan></text>
      <text class="cls-5" transform="translate(156.12 31.99)"><tspan x="0" y="0">²</tspan></text>
    </g>
    <g id="MTEXT-162" data-name="MTEXT">
      <text class="cls-7" transform="translate(154.63 30.78)"><tspan x="0" y="0">D057</tspan></text>
    </g>
    <g id="MTEXT-163" data-name="MTEXT">
      <text class="cls-7" transform="translate(157.04 38.82)"><tspan x="0" y="0">WC</tspan></text>
    </g>
    <g id="MTEXT-164" data-name="MTEXT">
      <text class="cls-5" transform="translate(157.04 39.38)"><tspan x="0" y="0">1.5 m</tspan></text>
      <text class="cls-5" transform="translate(158.41 39.38)"><tspan x="0" y="0">²</tspan></text>
    </g>
    <g id="MTEXT-165" data-name="MTEXT">
      <text class="cls-7" transform="translate(157.04 38.17)"><tspan x="0" y="0">D023</tspan></text>
    </g>
    <g id="MTEXT-166" data-name="MTEXT">
      <text class="cls-7" transform="translate(154.81 39.08)"><tspan x="0" y="0">WC</tspan></text>
    </g>
    <g id="MTEXT-167" data-name="MTEXT">
      <text class="cls-5" transform="translate(154.81 39.64)"><tspan x="0" y="0">1.5 m</tspan></text>
      <text class="cls-5" transform="translate(156.19 39.64)"><tspan x="0" y="0">²</tspan></text>
    </g>
    <g id="MTEXT-168" data-name="MTEXT">
      <text class="cls-7" transform="translate(154.81 38.43)"><tspan x="0" y="0">D024</tspan></text>
    </g>
    <g id="MTEXT-169" data-name="MTEXT">
      <text class="cls-7" transform="translate(131.23 36.95)"><tspan x="0" y="0">O</tspan><tspan class="cls-10" x=".44" y="0">p</tspan><tspan class="cls-19" x=".8" y="0">.vä</tspan><tspan class="cls-30" x="1.55" y="0">l</tspan><tspan x="1.7" y="0">.va</tspan><tspan class="cls-36" x="2.45" y="0">r</tspan><tspan x="2.62" y="0">.</tspan></text>
    </g>
    <g id="MTEXT-170" data-name="MTEXT">
      <text class="cls-5" transform="translate(131.23 37.51)"><tspan x="0" y="0">8.5 m</tspan></text>
      <text class="cls-5" transform="translate(132.71 37.51)"><tspan x="0" y="0">²</tspan></text>
    </g>
    <g id="MTEXT-171" data-name="MTEXT">
      <text class="cls-7" transform="translate(131.23 36.3)"><tspan x="0" y="0">D032</tspan></text>
    </g>
    <g id="MTEXT-172" data-name="MTEXT">
      <text class="cls-7" transform="translate(38.69 32.68)"><tspan x="0" y="0">O</tspan><tspan class="cls-10" x=".44" y="0">p</tspan><tspan class="cls-19" x=".8" y="0">.vä</tspan><tspan class="cls-30" x="1.55" y="0">l</tspan><tspan x="1.7" y="0">.</tspan></text>
      <text class="cls-7" transform="translate(38.69 33.44)"><tspan class="cls-21" x="0" y="0">va</tspan><tspan class="cls-36" x=".62" y="0">r</tspan><tspan x=".8" y="0">.</tspan></text>
    </g>
    <g id="MTEXT-173" data-name="MTEXT">
      <text class="cls-5" transform="translate(38.73 34.05)"><tspan x="0" y="0">5.0 m</tspan></text>
      <text class="cls-5" transform="translate(40.16 34.05)"><tspan x="0" y="0">²</tspan></text>
    </g>
    <g id="MTEXT-174" data-name="MTEXT">
      <text class="cls-7" transform="translate(38.69 32.03)"><tspan x="0" y="0">E016</tspan></text>
    </g>
    <g id="MTEXT-175" data-name="MTEXT">
      <text class="cls-7" transform="translate(14.41 49)"><tspan x="0" y="0">Kotitalous</tspan></text>
    </g>
    <g id="MTEXT-176" data-name="MTEXT">
      <text class="cls-5" transform="translate(14.41 49.56)"><tspan x="0" y="0">23.0 m</tspan></text>
      <text class="cls-5" transform="translate(16.19 49.56)"><tspan x="0" y="0">²</tspan></text>
    </g>
    <g id="MTEXT-177" data-name="MTEXT">
      <text class="cls-7" transform="translate(14.41 48.35)"><tspan x="0" y="0">E002b</tspan></text>
    </g>
    <g id="MTEXT-178" data-name="MTEXT">
      <text class="cls-7" transform="translate(169.53 62.24)"><tspan class="cls-33" x="0" y="0">T</tspan><tspan class="cls-1" x=".27" y="0">e</tspan><tspan class="cls-12" x=".6" y="0">r</tspan><tspan class="cls-32" x=".83" y="0">v</tspan><tspan class="cls-19" x="1.11" y="0">.hoitaja</tspan></text>
    </g>
    <g id="MTEXT-179" data-name="MTEXT">
      <text class="cls-5" transform="translate(169.53 62.8)"><tspan x="0" y="0">19.5 m</tspan></text>
      <text class="cls-5" transform="translate(171.24 62.8)"><tspan x="0" y="0">²</tspan></text>
    </g>
    <g id="MTEXT-180" data-name="MTEXT">
      <text class="cls-7" transform="translate(169.53 61.59)"><tspan x="0" y="0">D012</tspan></text>
    </g>
    <g id="MTEXT-181" data-name="MTEXT">
      <text class="cls-7" transform="translate(138.11 69.68)"><tspan x="0" y="0">TK</tspan></text>
    </g>
    <g id="MTEXT-182" data-name="MTEXT">
      <text class="cls-5" transform="translate(138.11 70.24)"><tspan x="0" y="0">6.0 m</tspan></text>
      <text class="cls-5" transform="translate(139.54 70.24)"><tspan x="0" y="0">²</tspan></text>
    </g>
    <g id="MTEXT-183" data-name="MTEXT">
      <text class="cls-7" transform="translate(138.11 69.03)"><tspan x="0" y="0">D028</tspan></text>
    </g>
    <g id="MTEXT-184" data-name="MTEXT">
      <text class="cls-7" transform="translate(42.08 36.94)"><tspan class="cls-13" x="0" y="0">K</tspan><tspan class="cls-39" x=".36" y="0">äytävä</tspan></text>
    </g>
    <g id="MTEXT-185" data-name="MTEXT">
      <text class="cls-5" transform="translate(42.08 37.5)"><tspan x="0" y="0">21.0 m</tspan></text>
      <text class="cls-5" transform="translate(43.73 37.5)"><tspan x="0" y="0">²</tspan></text>
    </g>
    <g id="MTEXT-186" data-name="MTEXT">
      <text class="cls-7" transform="translate(42.08 36.29)"><tspan x="0" y="0">E038</tspan></text>
    </g>
  </g>
</svg>