<?xml version="1.0" encoding="UTF-8"?>
<svg xmlns="http://www.w3.org/2000/svg" viewBox="0 0 1738.94 792">
  <defs>
    <style>
      .cls-1 {
        letter-spacing: .02em;
      }

      .cls-2 {
        letter-spacing: .02em;
      }

      .cls-3 {
        letter-spacing: 0em;
      }

      .cls-4 {
        letter-spacing: -.01em;
      }

      .cls-5 {
        letter-spacing: 0em;
      }

      .cls-6 {
        letter-spacing: -.06em;
      }

      .cls-7 {
        letter-spacing: 0em;
      }

      .cls-8 {
        letter-spacing: -.01em;
      }

      .cls-9 {
        letter-spacing: 0em;
      }

      .cls-10 {
        letter-spacing: -.05em;
      }

      .cls-11 {
        letter-spacing: -.01em;
      }

      .cls-12 {
        letter-spacing: 0em;
      }

      .cls-13 {
        letter-spacing: 0em;
      }

      .cls-14 {
        letter-spacing: .02em;
      }

      .cls-15 {
        fill: #d32027;
        stroke-width: 0px;
      }

      .cls-16 {
        letter-spacing: -.03em;
      }

      .cls-17 {
        letter-spacing: -.01em;
      }

      .cls-18 {
        letter-spacing: 0em;
      }

      .cls-19 {
        letter-spacing: 0em;
      }

      .cls-20 {
        letter-spacing: .02em;
      }

      .cls-21 {
        letter-spacing: -.08em;
      }

      .cls-22 {
        letter-spacing: .01em;
      }

      .cls-23 {
        letter-spacing: 0em;
      }

      .cls-24 {
        letter-spacing: .03em;
      }

      .cls-25 {
        font-size: 2.83px;
      }

      .cls-25, .cls-26 {
        fill: #333;
        font-family: MyriadPro-Regular, 'Myriad Pro';
      }

      .cls-27 {
        letter-spacing: 0em;
      }

      .cls-28 {
        letter-spacing: 0em;
      }

      .cls-29 {
        letter-spacing: -.02em;
      }

      .cls-30 {
        letter-spacing: 0em;
      }

      .cls-31 {
        letter-spacing: .01em;
      }

      .cls-26 {
        font-size: 2.12px;
      }

      .cls-32 {
        letter-spacing: 0em;
      }

      .cls-33 {
        letter-spacing: 0em;
      }
    </style>
  </defs>
  <g id="Layer_7" data-name="Layer 7">
    <path class="cls-15" d="m643.97,481.67v-81.89h-5.9c-.55,0-1-.45-1-1v-76.06H150.19v3.95c0,.55-.45,1-1,1h-6.9c-.55,0-1-.45-1-1v-146.79c0-.55.45-1,1-1h97.99v-15.87c0-.55.45-1,1-1h303.94c.55,0,1,.45,1,1v15.32h97.15c.55,0,1,.45,1,1v18.53h307.08v-22.47c0-.55.45-1,1-1h81.23c.55,0,1,.45,1,1v132.81c0,.55-.45,1-1,1h-74.33v89.07c0,.55-.45,1-1,1h-57.48c-.36,0-.69-.19-.87-.51l-.14-.25-202.91.16-1.37.52c-.11.04-.24.07-.36.07h-13.23v95.57c0,.55-.45,1-1,1h-1.31s-35.7-13.61-35.7-14.16Zm36.01,12.16v-95.57c0-.55.45-1,1-1h14.04l1.37-.52c.11-.04.23-.07.36-.07l203.68-.16c.36,0,.69.19.87.51l.14.25h55.9v-89.07c0-.55.45-1,1-1h74.33v-130.81h-79.23v22.47c0,.55-.45,1-1,1h-309.08c-.55,0-1-.45-1-1v-18.53h-97.15c-.55,0-1-.45-1-1v-15.32H242.27v15.87c0,.55-.45,1-1,1h-97.99v144.79h4.9v-3.95c0-.55.45-1,1-1h488.88c.55,0,1,.45,1,1v76.06h5.9c.55,0,1,.45,1,1v81.89l34.01,13.16Z"/>
    <rect class="cls-15" x="145.53" y="182.68" width="32.21" height="71.07"/>
    <rect class="cls-15" x="179.21" y="182.68" width="66.49" height="71.07"/>
    <rect class="cls-15" x="145.53" y="255.19" width="100.18" height="64.02"/>
    <rect class="cls-15" x="317.42" y="255.19" width="25.15" height="63.52"/>
    <rect class="cls-15" x="343.97" y="255.19" width="32.6" height="63.65"/>
    <rect class="cls-15" x="377.92" y="255.19" width="67.39" height="63.65"/>
    <rect class="cls-15" x="544.2" y="182" width="63.17" height="66.95"/>
    <rect class="cls-15" x="608.79" y="182" width="31.62" height="66.83"/>
    <rect class="cls-15" x="343.86" y="179.56" width="31.87" height="40"/>
    <rect class="cls-15" x="377.22" y="165.67" width="67.09" height="67.1"/>
    <rect class="cls-15" x="509.87" y="165.67" width="32.55" height="45.68"/>
    <rect class="cls-15" x="973.44" y="255.2" width="56.69" height="50.14"/>
    <rect class="cls-15" x="445.76" y="165.67" width="62.55" height="45.63"/>
    <rect class="cls-15" x="695.6" y="202.33" width="153.72" height="78.09"/>
    <path class="cls-15" d="m279.15,318.96c-10.58.09-21.16-.09-31.74,0v-63.72c3.57,0,6.92-.02,10.5-.04,7.65-.04,16.4.16,23.97.06-5.66,5.66-9.94,10.88-11.9,14.7-1.81,3.52-3.46,6.79-4.11,11.57-.24,1.79-.86,6.73.95,12.41,1.13,3.55,2.95,6.57,4.36,8.92,1.08,1.8,1.64,2.49,3.28,5.31,2.06,3.52,2.77,5.13,3.17,6.14.77,1.89,1.23,3.52,1.51,4.66Z"/>
    <rect class="cls-15" x="695.47" y="282.34" width="204.26" height="111.97"/>
    <rect class="cls-15" x="901.2" y="296.88" width="53.44" height="97.43"/>
    <rect class="cls-15" x="976.48" y="223.87" width="53.63" height="30.12"/>
    <rect class="cls-15" x="955.47" y="237.36" width="19.71" height="16.7"/>
  </g>
  <g id="_13Arkk_Tekstit_copy" data-name="13Arkk_Tekstit copy">
    <g id="MTEXT">
      <text class="cls-25" transform="translate(479.78 222.16)"><tspan x="0" y="0">RK</tspan></text>
    </g>
    <g id="MTEXT-2" data-name="MTEXT">
      <text class="cls-25" transform="translate(445.3 224.04)"><tspan class="cls-32" x="0" y="0">K</tspan><tspan x="1.52" y="0">uilu</tspan></text>
    </g>
    <g id="MTEXT-3" data-name="MTEXT">
      <text class="cls-25" transform="translate(509.75 223.63)"><tspan class="cls-22" x="0" y="0">H</tspan><tspan x="1.87" y="0">issi</tspan><tspan class="cls-3" x="5.43" y="0">k</tspan><tspan x="6.77" y="0">uilu</tspan></text>
    </g>
    <g id="MTEXT-4" data-name="MTEXT">
      <text class="cls-25" transform="translate(447.17 173.12)"><tspan class="cls-32" x="0" y="0">K</tspan><tspan x="1.52" y="0">uilu</tspan></text>
    </g>
    <g id="MTEXT-5" data-name="MTEXT">
      <text class="cls-25" transform="translate(248.08 219.41)"><tspan class="cls-32" x="0" y="0">K</tspan><tspan x="1.52" y="0">uilu</tspan></text>
    </g>
    <g id="MTEXT-6" data-name="MTEXT">
      <text class="cls-25" transform="translate(331.29 219.41)"><tspan class="cls-32" x="0" y="0">K</tspan><tspan x="1.52" y="0">uilu</tspan></text>
    </g>
    <g id="MTEXT-7" data-name="MTEXT">
      <text class="cls-25" transform="translate(349.74 173.12)"><tspan class="cls-32" x="0" y="0">K</tspan><tspan x="1.52" y="0">uilu</tspan></text>
    </g>
    <g id="MTEXT-8" data-name="MTEXT">
      <text class="cls-25" transform="translate(251.84 172.09)"><tspan class="cls-32" x="0" y="0">K</tspan><tspan x="1.52" y="0">uilu</tspan></text>
    </g>
    <g id="MTEXT-9" data-name="MTEXT">
      <text class="cls-25" transform="translate(955.83 214.86)"><tspan class="cls-32" x="0" y="0">K</tspan><tspan x="1.52" y="0">uilu</tspan></text>
    </g>
    <g id="MTEXT-10" data-name="MTEXT">
      <text class="cls-25" transform="translate(463.46 219.91)"><tspan x="0" y="0">WC-E</tspan></text>
    </g>
    <g id="MTEXT-11" data-name="MTEXT">
      <text class="cls-26" transform="translate(463.46 222.36)"><tspan x="0" y="0">4.0 m</tspan></text>
      <text class="cls-26" transform="translate(469.71 222.36)"><tspan x="0" y="0">²</tspan></text>
    </g>
    <g id="MTEXT-12" data-name="MTEXT">
      <text class="cls-25" transform="translate(463.46 217.07)"><tspan x="0" y="0">E111</tspan></text>
    </g>
    <g id="MTEXT-13" data-name="MTEXT">
      <text class="cls-25" transform="translate(263.92 227.09)"><tspan x="0" y="0">WC</tspan></text>
    </g>
    <g id="MTEXT-14" data-name="MTEXT">
      <text class="cls-26" transform="translate(263.92 229.54)"><tspan x="0" y="0">1.5 m</tspan></text>
      <text class="cls-26" transform="translate(269.92 229.54)"><tspan x="0" y="0">²</tspan></text>
    </g>
    <g id="MTEXT-15" data-name="MTEXT">
      <text class="cls-25" transform="translate(263.92 224.25)"><tspan x="0" y="0">E123</tspan></text>
    </g>
    <g id="MTEXT-16" data-name="MTEXT">
      <text class="cls-25" transform="translate(386.52 284.5)"><tspan x="0" y="0">Opetustila</tspan></text>
    </g>
    <g id="MTEXT-17" data-name="MTEXT">
      <text class="cls-26" transform="translate(386.52 286.95)"><tspan x="0" y="0">44.0 m</tspan></text>
      <text class="cls-26" transform="translate(394.27 286.95)"><tspan x="0" y="0">²</tspan></text>
    </g>
    <g id="MTEXT-18" data-name="MTEXT">
      <text class="cls-25" transform="translate(386.52 281.66)"><tspan x="0" y="0">E115</tspan></text>
    </g>
    <g id="MTEXT-19" data-name="MTEXT">
      <text class="cls-25" transform="translate(500.81 226.63)"><tspan x="0" y="0">WC</tspan></text>
    </g>
    <g id="MTEXT-20" data-name="MTEXT">
      <text class="cls-26" transform="translate(500.81 229.08)"><tspan x="0" y="0">1.5 m</tspan></text>
      <text class="cls-26" transform="translate(506.81 229.08)"><tspan x="0" y="0">²</tspan></text>
    </g>
    <g id="MTEXT-21" data-name="MTEXT">
      <text class="cls-25" transform="translate(500.81 223.79)"><tspan x="0" y="0">E110</tspan></text>
    </g>
    <g id="MTEXT-22" data-name="MTEXT">
      <text class="cls-25" transform="translate(474.98 192.21)"><tspan x="0" y="0">Nupa</tspan></text>
      <text class="cls-25" transform="translate(474.98 195.54)"><tspan x="0" y="0">ts</tspan><tspan class="cls-32" x="2.05" y="0">t</tspan><tspan x="2.97" y="0">o</tspan></text>
    </g>
    <g id="MTEXT-23" data-name="MTEXT">
      <text class="cls-26" transform="translate(474.98 194.66)"><tspan x="0" y="0">25.0 m</tspan></text>
      <text class="cls-26" transform="translate(482.73 194.66)"><tspan x="0" y="0">²</tspan></text>
    </g>
    <g id="MTEXT-24" data-name="MTEXT">
      <text class="cls-25" transform="translate(474.98 189.37)"><tspan x="0" y="0">E105</tspan></text>
    </g>
    <g id="MTEXT-25" data-name="MTEXT">
      <text class="cls-25" transform="translate(302.44 219.59)"><tspan class="cls-21" x="0" y="0">A</tspan><tspan x="1.51" y="0">TK</tspan></text>
    </g>
    <g id="MTEXT-26" data-name="MTEXT">
      <text class="cls-26" transform="translate(302.44 222.04)"><tspan x="0" y="0">1.0 m</tspan></text>
      <text class="cls-26" transform="translate(308.19 222.04)"><tspan x="0" y="0">²</tspan></text>
    </g>
    <g id="MTEXT-27" data-name="MTEXT">
      <text class="cls-25" transform="translate(302.44 216.75)"><tspan x="0" y="0">E121</tspan></text>
    </g>
    <g id="MTEXT-28" data-name="MTEXT">
      <text class="cls-25" transform="translate(516.39 187.86)"><tspan class="cls-29" x="0" y="0">P</tspan><tspan x="1.46" y="0">ien</tspan><tspan class="cls-24" x="5.1" y="0">r</tspan><tspan x="6.1" y="0">yhmä</tspan></text>
    </g>
    <g id="MTEXT-29" data-name="MTEXT">
      <text class="cls-26" transform="translate(516.39 190.31)"><tspan x="0" y="0">14.0 m</tspan></text>
      <text class="cls-26" transform="translate(523.64 190.31)"><tspan x="0" y="0">²</tspan></text>
    </g>
    <g id="MTEXT-30" data-name="MTEXT">
      <text class="cls-25" transform="translate(516.39 185.01)"><tspan x="0" y="0">E104</tspan></text>
    </g>
    <g id="MTEXT-31" data-name="MTEXT">
      <text class="cls-25" transform="translate(943.65 243.44)"><tspan x="0" y="0">WC</tspan></text>
    </g>
    <g id="MTEXT-32" data-name="MTEXT">
      <text class="cls-26" transform="translate(943.65 245.89)"><tspan x="0" y="0">1.5 m</tspan></text>
      <text class="cls-26" transform="translate(949.66 245.89)"><tspan x="0" y="0">²</tspan></text>
    </g>
    <g id="MTEXT-33" data-name="MTEXT">
      <text class="cls-25" transform="translate(943.65 240.6)"><tspan x="0" y="0">D127</tspan></text>
    </g>
    <g id="MTEXT-34" data-name="MTEXT">
      <text class="cls-25" transform="translate(805.13 336.1)"><tspan class="cls-5" x="0" y="0">S</tspan><tspan x="1.4" y="0">ali</tspan></text>
    </g>
    <g id="MTEXT-35" data-name="MTEXT">
      <text class="cls-26" transform="translate(805.13 338.55)"><tspan x="0" y="0">217.5 m</tspan></text>
      <text class="cls-26" transform="translate(814.14 338.55)"><tspan x="0" y="0">²</tspan></text>
    </g>
    <g id="MTEXT-36" data-name="MTEXT">
      <text class="cls-25" transform="translate(805.13 333.26)"><tspan x="0" y="0">D108</tspan></text>
    </g>
    <g id="MTEXT-37" data-name="MTEXT">
      <text class="cls-25" transform="translate(916.39 336.1)"><tspan x="0" y="0">N</tspan><tspan class="cls-12" x="1.86" y="0">ä</tspan><tspan x="3.2" y="0">yttämö</tspan></text>
    </g>
    <g id="MTEXT-38" data-name="MTEXT">
      <text class="cls-26" transform="translate(916.39 338.55)"><tspan x="0" y="0">58.5 m</tspan></text>
      <text class="cls-26" transform="translate(924.4 338.55)"><tspan x="0" y="0">²</tspan></text>
    </g>
    <g id="MTEXT-39" data-name="MTEXT">
      <text class="cls-25" transform="translate(916.39 333.26)"><tspan x="0" y="0">D107</tspan></text>
    </g>
    <g id="MTEXT-40" data-name="MTEXT">
      <text class="cls-25" transform="translate(870.08 255.46)"><tspan x="0" y="0">Lii</tspan><tspan class="cls-3" x="2.66" y="0">k</tspan><tspan class="cls-30" x="3.99" y="0">u</tspan><tspan class="cls-27" x="5.55" y="0">n</tspan><tspan x="7.11" y="0">t</tspan><tspan class="cls-12" x="8.04" y="0">a</tspan><tspan class="cls-28" x="9.38" y="0">v</tspan><tspan x="10.73" y="0">ä</tspan><tspan class="cls-17" x="12.09" y="0">l</tspan><tspan class="cls-30" x="12.73" y="0">.</tspan><tspan class="cls-28" x="13.32" y="0">v</tspan><tspan x="14.67" y="0">a</tspan><tspan class="cls-10" x="16.03" y="0">r</tspan><tspan x="16.8" y="0">.</tspan></text>
    </g>
    <g id="MTEXT-41" data-name="MTEXT">
      <text class="cls-26" transform="translate(870.08 257.9)"><tspan x="0" y="0">17.5 m</tspan></text>
      <text class="cls-26" transform="translate(877.58 257.9)"><tspan x="0" y="0">²</tspan></text>
    </g>
    <g id="MTEXT-42" data-name="MTEXT">
      <text class="cls-25" transform="translate(870.08 252.61)"><tspan x="0" y="0">D109</tspan></text>
    </g>
    <g id="MTEXT-43" data-name="MTEXT">
      <text class="cls-25" transform="translate(970.9 191.15)"><tspan x="0" y="0">UU</tspan></text>
      <text class="cls-25" transform="translate(970.9 194.48)"><tspan class="cls-28" x="0" y="0">v</tspan><tspan x="1.35" y="0">äline</tspan><tspan class="cls-7" x="7.02" y="0">v</tspan><tspan x="8.37" y="0">a</tspan><tspan class="cls-10" x="9.73" y="0">r</tspan><tspan x="10.51" y="0">.</tspan></text>
    </g>
    <g id="MTEXT-44" data-name="MTEXT">
      <text class="cls-26" transform="translate(970.9 193.59)"><tspan x="0" y="0">13.5 m</tspan></text>
      <text class="cls-26" transform="translate(978.4 193.59)"><tspan x="0" y="0">²</tspan></text>
    </g>
    <g id="MTEXT-45" data-name="MTEXT">
      <text class="cls-25" transform="translate(970.9 188.3)"><tspan x="0" y="0">D102a</tspan></text>
    </g>
    <g id="MTEXT-46" data-name="MTEXT">
      <text class="cls-25" transform="translate(382.01 201.96)"><tspan x="0" y="0">Opetustila</tspan></text>
    </g>
    <g id="MTEXT-47" data-name="MTEXT">
      <text class="cls-26" transform="translate(382.01 204.41)"><tspan x="0" y="0">43.0 m</tspan></text>
      <text class="cls-26" transform="translate(389.76 204.41)"><tspan x="0" y="0">²</tspan></text>
    </g>
    <g id="MTEXT-48" data-name="MTEXT">
      <text class="cls-25" transform="translate(382.01 199.12)"><tspan x="0" y="0">E113</tspan></text>
    </g>
    <g id="MTEXT-49" data-name="MTEXT">
      <text class="cls-25" transform="translate(290.16 227.09)"><tspan x="0" y="0">WC</tspan></text>
    </g>
    <g id="MTEXT-50" data-name="MTEXT">
      <text class="cls-26" transform="translate(290.16 229.54)"><tspan x="0" y="0">1.5 m</tspan></text>
      <text class="cls-26" transform="translate(296.16 229.54)"><tspan x="0" y="0">²</tspan></text>
    </g>
    <g id="MTEXT-51" data-name="MTEXT">
      <text class="cls-25" transform="translate(290.16 224.25)"><tspan x="0" y="0">E122</tspan></text>
    </g>
    <g id="MTEXT-52" data-name="MTEXT">
      <text class="cls-25" transform="translate(583.64 213.18)"><tspan x="0" y="0">Opetustila</tspan></text>
    </g>
    <g id="MTEXT-53" data-name="MTEXT">
      <text class="cls-26" transform="translate(583.64 215.63)"><tspan x="0" y="0">42.0 m</tspan></text>
      <text class="cls-26" transform="translate(591.4 215.63)"><tspan x="0" y="0">²</tspan></text>
    </g>
    <g id="MTEXT-54" data-name="MTEXT">
      <text class="cls-25" transform="translate(583.64 210.34)"><tspan x="0" y="0">E103</tspan></text>
    </g>
    <g id="MTEXT-55" data-name="MTEXT">
      <text class="cls-25" transform="translate(280.99 187.86)"><tspan x="0" y="0">Opetustila</tspan></text>
    </g>
    <g id="MTEXT-56" data-name="MTEXT">
      <text class="cls-26" transform="translate(280.99 190.31)"><tspan x="0" y="0">41.0 m</tspan></text>
      <text class="cls-26" transform="translate(288.24 190.31)"><tspan x="0" y="0">²</tspan></text>
    </g>
    <g id="MTEXT-57" data-name="MTEXT">
      <text class="cls-25" transform="translate(280.99 185.01)"><tspan x="0" y="0">E125</tspan></text>
    </g>
    <g id="MTEXT-58" data-name="MTEXT">
      <text class="cls-25" transform="translate(190.29 219.91)"><tspan x="0" y="0">Opetustila</tspan></text>
    </g>
    <g id="MTEXT-59" data-name="MTEXT">
      <text class="cls-26" transform="translate(190.29 222.36)"><tspan x="0" y="0">45.0 m</tspan></text>
      <text class="cls-26" transform="translate(198.04 222.36)"><tspan x="0" y="0">²</tspan></text>
    </g>
    <g id="MTEXT-60" data-name="MTEXT">
      <text class="cls-25" transform="translate(190.29 217.07)"><tspan x="0" y="0">E126</tspan></text>
    </g>
    <g id="MTEXT-61" data-name="MTEXT">
      <text class="cls-25" transform="translate(190.29 288.72)"><tspan x="0" y="0">Opetustila</tspan></text>
    </g>
    <g id="MTEXT-62" data-name="MTEXT">
      <text class="cls-26" transform="translate(190.29 291.17)"><tspan x="0" y="0">61.5 m</tspan></text>
      <text class="cls-26" transform="translate(197.79 291.17)"><tspan x="0" y="0">²</tspan></text>
    </g>
    <g id="MTEXT-63" data-name="MTEXT">
      <text class="cls-25" transform="translate(190.29 285.87)"><tspan x="0" y="0">E128</tspan></text>
    </g>
    <g id="MTEXT-64" data-name="MTEXT">
      <text class="cls-25" transform="translate(313.72 223.95)"><tspan x="0" y="0">Sii</tspan><tspan class="cls-17" x="2.72" y="0">v</tspan><tspan x="4.05" y="0">ous</tspan></text>
    </g>
    <g id="MTEXT-65" data-name="MTEXT">
      <text class="cls-26" transform="translate(313.72 226.4)"><tspan x="0" y="0">2.5 m</tspan></text>
      <text class="cls-26" transform="translate(320.22 226.4)"><tspan x="0" y="0">²</tspan></text>
    </g>
    <g id="MTEXT-66" data-name="MTEXT">
      <text class="cls-25" transform="translate(313.72 221.11)"><tspan x="0" y="0">E120</tspan></text>
    </g>
    <g id="MTEXT-67" data-name="MTEXT">
      <text class="cls-25" transform="translate(345.98 226.31)"><tspan x="0" y="0">WC</tspan></text>
    </g>
    <g id="MTEXT-68" data-name="MTEXT">
      <text class="cls-26" transform="translate(345.98 228.76)"><tspan x="0" y="0">1.5 m</tspan></text>
      <text class="cls-26" transform="translate(351.99 228.76)"><tspan x="0" y="0">²</tspan></text>
    </g>
    <g id="MTEXT-69" data-name="MTEXT">
      <text class="cls-25" transform="translate(345.98 223.47)"><tspan x="0" y="0">E109</tspan></text>
    </g>
    <g id="MTEXT-70" data-name="MTEXT">
      <text class="cls-25" transform="translate(918.11 269.36)"><tspan class="cls-16" x="0" y="0">P</tspan><tspan x="1.43" y="0">o</tspan><tspan class="cls-3" x="2.98" y="0">r</tspan><tspan class="cls-33" x="3.92" y="0">r</tspan><tspan x="4.83" y="0">ash.</tspan></text>
    </g>
    <g id="MTEXT-71" data-name="MTEXT">
      <text class="cls-26" transform="translate(918.11 271.81)"><tspan x="0" y="0">15.5 m</tspan></text>
      <text class="cls-26" transform="translate(925.62 271.81)"><tspan x="0" y="0">²</tspan></text>
    </g>
    <g id="MTEXT-72" data-name="MTEXT">
      <text class="cls-25" transform="translate(918.11 266.52)"><tspan x="0" y="0">D121</tspan></text>
    </g>
    <g id="MTEXT-73" data-name="MTEXT">
      <text class="cls-25" transform="translate(652.29 243.47)"><tspan x="0" y="0">TK</tspan></text>
    </g>
    <g id="MTEXT-74" data-name="MTEXT">
      <text class="cls-26" transform="translate(652.29 245.91)"><tspan x="0" y="0">23.5 m</tspan></text>
      <text class="cls-26" transform="translate(660.3 245.91)"><tspan x="0" y="0">²</tspan></text>
    </g>
    <g id="MTEXT-75" data-name="MTEXT">
      <text class="cls-25" transform="translate(652.29 240.62)"><tspan x="0" y="0">D119</tspan></text>
    </g>
    <g id="MTEXT-76" data-name="MTEXT">
      <text class="cls-25" transform="translate(920.08 243.46)"><tspan x="0" y="0">WC</tspan></text>
    </g>
    <g id="MTEXT-77" data-name="MTEXT">
      <text class="cls-26" transform="translate(920.08 245.91)"><tspan x="0" y="0">1.5 m</tspan></text>
      <text class="cls-26" transform="translate(926.09 245.91)"><tspan x="0" y="0">²</tspan></text>
    </g>
    <g id="MTEXT-78" data-name="MTEXT">
      <text class="cls-25" transform="translate(920.08 240.62)"><tspan x="0" y="0">D105</tspan></text>
    </g>
    <g id="MTEXT-79" data-name="MTEXT">
      <text class="cls-25" transform="translate(769.43 239.84)"><tspan class="cls-2" x="0" y="0">K</tspan><tspan x="1.58" y="0">a</tspan><tspan class="cls-4" x="2.94" y="0">h</tspan><tspan x="4.47" y="0">vio</tspan></text>
    </g>
    <g id="MTEXT-80" data-name="MTEXT">
      <text class="cls-26" transform="translate(769.43 242.29)"><tspan x="0" y="0">116.0 m</tspan></text>
      <text class="cls-26" transform="translate(777.68 242.29)"><tspan x="0" y="0">²</tspan></text>
    </g>
    <g id="MTEXT-81" data-name="MTEXT">
      <text class="cls-25" transform="translate(769.43 237)"><tspan x="0" y="0">D111</tspan></text>
    </g>
    <g id="MTEXT-82" data-name="MTEXT">
      <text class="cls-25" transform="translate(997.46 280.42)"><tspan x="0" y="0">Neu</tspan><tspan class="cls-23" x="4.83" y="0">v</tspan><tspan x="6.16" y="0">ot</tspan><tspan class="cls-19" x="8.65" y="0">t</tspan><tspan x="9.57" y="0">elu</tspan></text>
    </g>
    <g id="MTEXT-83" data-name="MTEXT">
      <text class="cls-26" transform="translate(997.46 282.87)"><tspan x="0" y="0">25.5 m</tspan></text>
      <text class="cls-26" transform="translate(1005.47 282.87)"><tspan x="0" y="0">²</tspan></text>
    </g>
    <g id="MTEXT-84" data-name="MTEXT">
      <text class="cls-25" transform="translate(997.46 277.58)"><tspan x="0" y="0">D120</tspan></text>
    </g>
    <g id="MTEXT-85" data-name="MTEXT">
      <text class="cls-25" transform="translate(993.92 236.71)"><tspan class="cls-6" x="0" y="0">T</tspan><tspan class="cls-30" x="1.22" y="0">auk</tspan><tspan class="cls-1" x="5.47" y="0">o</tspan><tspan x="7.06" y="0">- ja</tspan></text>
      <text class="cls-25" transform="translate(993.92 240.05)"><tspan class="cls-18" x="0" y="0">t</tspan><tspan class="cls-23" x=".96" y="0">y</tspan><tspan class="cls-9" x="2.26" y="0">öske</tspan><tspan class="cls-27" x="7.68" y="0">nt</tspan><tspan x="10.15" y="0">elytilaa</tspan></text>
    </g>
    <g id="MTEXT-86" data-name="MTEXT">
      <text class="cls-26" transform="translate(993.92 239.16)"><tspan x="0" y="0">12.0 m</tspan></text>
      <text class="cls-26" transform="translate(1001.18 239.16)"><tspan x="0" y="0">²</tspan></text>
    </g>
    <g id="MTEXT-87" data-name="MTEXT">
      <text class="cls-25" transform="translate(993.92 233.87)"><tspan x="0" y="0">D122</tspan></text>
    </g>
    <g id="MTEXT-88" data-name="MTEXT">
      <text class="cls-25" transform="translate(861.24 219.91)"><tspan class="cls-11" x="0" y="0">L</tspan><tspan x="1.29" y="0">oke</tspan><tspan class="cls-3" x="5.59" y="0">r</tspan><tspan x="6.52" y="0">i</tspan><tspan class="cls-14" x="7.18" y="0">k</tspan><tspan x="8.56" y="0">kotila</tspan></text>
    </g>
    <g id="MTEXT-89" data-name="MTEXT">
      <text class="cls-26" transform="translate(861.24 222.36)"><tspan x="0" y="0">21.5 m</tspan></text>
      <text class="cls-26" transform="translate(868.75 222.36)"><tspan x="0" y="0">²</tspan></text>
    </g>
    <g id="MTEXT-90" data-name="MTEXT">
      <text class="cls-25" transform="translate(861.24 217.07)"><tspan x="0" y="0">D124</tspan></text>
    </g>
    <g id="MTEXT-91" data-name="MTEXT">
      <text class="cls-25" transform="translate(932.8 243.54)"><tspan x="0" y="0">WC</tspan></text>
    </g>
    <g id="MTEXT-92" data-name="MTEXT">
      <text class="cls-26" transform="translate(932.8 245.98)"><tspan x="0" y="0">1.5 m</tspan></text>
      <text class="cls-26" transform="translate(938.8 245.98)"><tspan x="0" y="0">²</tspan></text>
    </g>
    <g id="MTEXT-93" data-name="MTEXT">
      <text class="cls-25" transform="translate(932.8 240.69)"><tspan x="0" y="0">D126</tspan></text>
    </g>
    <g id="MTEXT-94" data-name="MTEXT">
      <text class="cls-25" transform="translate(958.47 248.06)"><tspan x="0" y="0">Kopioi</tspan><tspan class="cls-27" x="7.57" y="0">n</tspan><tspan x="9.12" y="0">ti</tspan></text>
    </g>
    <g id="MTEXT-95" data-name="MTEXT">
      <text class="cls-26" transform="translate(958.47 250.51)"><tspan x="0" y="0">4.5 m</tspan></text>
      <text class="cls-26" transform="translate(964.97 250.51)"><tspan x="0" y="0">²</tspan></text>
    </g>
    <g id="MTEXT-96" data-name="MTEXT">
      <text class="cls-25" transform="translate(958.47 245.22)"><tspan x="0" y="0">D130</tspan></text>
    </g>
    <g id="MTEXT-97" data-name="MTEXT">
      <text class="cls-25" transform="translate(404.13 242.4)"><tspan class="cls-2" x="0" y="0">K</tspan><tspan class="cls-12" x="1.58" y="0">ä</tspan><tspan x="2.92" y="0">yt</tspan><tspan class="cls-12" x="5.18" y="0">ä</tspan><tspan class="cls-28" x="6.52" y="0">v</tspan><tspan x="7.87" y="0">ä</tspan></text>
    </g>
    <g id="MTEXT-98" data-name="MTEXT">
      <text class="cls-26" transform="translate(404.13 244.85)"><tspan x="0" y="0">15.5 m</tspan></text>
      <text class="cls-26" transform="translate(411.64 244.85)"><tspan x="0" y="0">²</tspan></text>
    </g>
    <g id="MTEXT-99" data-name="MTEXT">
      <text class="cls-25" transform="translate(404.13 239.56)"><tspan x="0" y="0">E130</tspan></text>
    </g>
    <g id="MTEXT-100" data-name="MTEXT">
      <text class="cls-25" transform="translate(656.79 294.36)"><tspan class="cls-8" x="0" y="0">A</tspan><tspan class="cls-30" x="1.7" y="0">ula</tspan></text>
    </g>
    <g id="MTEXT-101" data-name="MTEXT">
      <text class="cls-26" transform="translate(656.79 296.81)"><tspan x="0" y="0">49.0 m</tspan></text>
      <text class="cls-26" transform="translate(664.55 296.81)"><tspan x="0" y="0">²</tspan></text>
    </g>
    <g id="MTEXT-102" data-name="MTEXT">
      <text class="cls-25" transform="translate(656.79 291.52)"><tspan x="0" y="0">D134</tspan></text>
    </g>
    <g id="MTEXT-103" data-name="MTEXT">
      <text class="cls-25" transform="translate(250.16 295.01)"><tspan class="cls-31" x="0" y="0">R</tspan><tspan class="cls-30" x="1.56" y="0">yhm</tspan><tspan class="cls-28" x="6.82" y="0">ä</tspan><tspan class="cls-18" x="8.17" y="0">t</tspan><tspan class="cls-23" x="9.13" y="0">y</tspan><tspan class="cls-9" x="10.43" y="0">ötila</tspan></text>
    </g>
    <g id="MTEXT-104" data-name="MTEXT">
      <text class="cls-26" transform="translate(250.16 297.45)"><tspan x="0" y="0">14.5 m</tspan></text>
      <text class="cls-26" transform="translate(257.66 297.45)"><tspan x="0" y="0">²</tspan></text>
    </g>
    <g id="MTEXT-105" data-name="MTEXT">
      <text class="cls-25" transform="translate(250.16 292.16)"><tspan x="0" y="0">E118</tspan></text>
    </g>
    <g id="MTEXT-106" data-name="MTEXT">
      <text class="cls-25" transform="translate(1001.86 191.15)"><tspan x="0" y="0">UU</tspan></text>
      <text class="cls-25" transform="translate(1001.86 194.48)"><tspan class="cls-28" x="0" y="0">v</tspan><tspan x="1.35" y="0">äline</tspan><tspan class="cls-7" x="7.02" y="0">v</tspan><tspan x="8.37" y="0">a</tspan><tspan class="cls-10" x="9.73" y="0">r</tspan><tspan x="10.51" y="0">.</tspan></text>
    </g>
    <g id="MTEXT-107" data-name="MTEXT">
      <text class="cls-26" transform="translate(1001.86 193.59)"><tspan x="0" y="0">14.0 m</tspan></text>
      <text class="cls-26" transform="translate(1009.11 193.59)"><tspan x="0" y="0">²</tspan></text>
    </g>
    <g id="MTEXT-108" data-name="MTEXT">
      <text class="cls-25" transform="translate(1001.86 188.3)"><tspan x="0" y="0">D102b</tspan></text>
    </g>
    <g id="MTEXT-109" data-name="MTEXT">
      <text class="cls-26" transform="translate(657.5 433.4)"><tspan x="0" y="0">33,0 m</tspan></text>
      <text class="cls-26" transform="translate(665.5 433.4)"><tspan x="0" y="0">²</tspan></text>
    </g>
    <g id="MTEXT-110" data-name="MTEXT">
      <text class="cls-25" transform="translate(657.5 430.95)"><tspan class="cls-13" x="0" y="0">Y</tspan><tspan class="cls-9" x="1.5" y="0">hd</tspan><tspan class="cls-32" x="4.67" y="0">y</tspan><tspan x="5.98" y="0">s</tspan><tspan class="cls-20" x="7.1" y="0">k</tspan><tspan class="cls-12" x="8.48" y="0">ä</tspan><tspan x="9.82" y="0">yt</tspan><tspan class="cls-12" x="12.08" y="0">ä</tspan><tspan class="cls-28" x="13.42" y="0">v</tspan><tspan x="14.77" y="0">ä</tspan></text>
    </g>
    <g id="MTEXT-111" data-name="MTEXT">
      <text class="cls-25" transform="translate(657.5 428.11)"><tspan x="0" y="0">C129</tspan></text>
    </g>
    <g id="MTEXT-112" data-name="MTEXT">
      <text class="cls-25" transform="translate(350.56 284.5)"><tspan class="cls-29" x="0" y="0">P</tspan><tspan x="1.46" y="0">ien</tspan><tspan class="cls-24" x="5.1" y="0">r</tspan><tspan x="6.1" y="0">yhmä</tspan></text>
    </g>
    <g id="MTEXT-113" data-name="MTEXT">
      <text class="cls-26" transform="translate(350.56 286.95)"><tspan x="0" y="0">21.5 m</tspan></text>
      <text class="cls-26" transform="translate(358.06 286.95)"><tspan x="0" y="0">²</tspan></text>
    </g>
    <g id="MTEXT-114" data-name="MTEXT">
      <text class="cls-25" transform="translate(350.56 281.66)"><tspan x="0" y="0">E116</tspan></text>
    </g>
    <g id="MTEXT-115" data-name="MTEXT">
      <text class="cls-25" transform="translate(323.19 284.5)"><tspan class="cls-31" x="0" y="0">R</tspan><tspan class="cls-30" x="1.56" y="0">yhm</tspan><tspan class="cls-28" x="6.82" y="0">ä</tspan><tspan class="cls-18" x="8.17" y="0">t</tspan><tspan class="cls-23" x="9.13" y="0">y</tspan><tspan class="cls-9" x="10.43" y="0">ötila</tspan></text>
    </g>
    <g id="MTEXT-116" data-name="MTEXT">
      <text class="cls-26" transform="translate(323.19 286.95)"><tspan x="0" y="0">20.5 m</tspan></text>
      <text class="cls-26" transform="translate(330.94 286.95)"><tspan x="0" y="0">²</tspan></text>
    </g>
    <g id="MTEXT-117" data-name="MTEXT">
      <text class="cls-25" transform="translate(323.19 281.66)"><tspan x="0" y="0">E117</tspan></text>
    </g>
    <g id="MTEXT-118" data-name="MTEXT">
      <text class="cls-25" transform="translate(155.85 218.97)"><tspan class="cls-29" x="0" y="0">P</tspan><tspan x="1.46" y="0">ien</tspan><tspan class="cls-24" x="5.1" y="0">r</tspan><tspan x="6.1" y="0">yhmä</tspan></text>
    </g>
    <g id="MTEXT-119" data-name="MTEXT">
      <text class="cls-26" transform="translate(155.85 221.42)"><tspan x="0" y="0">20.5 m</tspan></text>
      <text class="cls-26" transform="translate(163.6 221.42)"><tspan x="0" y="0">²</tspan></text>
    </g>
    <g id="MTEXT-120" data-name="MTEXT">
      <text class="cls-25" transform="translate(155.85 216.13)"><tspan x="0" y="0">E127</tspan></text>
    </g>
    <g id="MTEXT-121" data-name="MTEXT">
      <text class="cls-25" transform="translate(347.73 191.93)"><tspan class="cls-29" x="0" y="0">P</tspan><tspan x="1.46" y="0">ien</tspan><tspan class="cls-24" x="5.1" y="0">r</tspan><tspan x="6.1" y="0">yhmä</tspan></text>
    </g>
    <g id="MTEXT-122" data-name="MTEXT">
      <text class="cls-26" transform="translate(347.73 194.38)"><tspan x="0" y="0">15.5 m</tspan></text>
      <text class="cls-26" transform="translate(355.24 194.38)"><tspan x="0" y="0">²</tspan></text>
    </g>
    <g id="MTEXT-123" data-name="MTEXT">
      <text class="cls-25" transform="translate(347.73 189.09)"><tspan x="0" y="0">E114</tspan></text>
    </g>
    <g id="MTEXT-124" data-name="MTEXT">
      <text class="cls-25" transform="translate(614.97 213.18)"><tspan class="cls-29" x="0" y="0">P</tspan><tspan x="1.46" y="0">ien</tspan><tspan class="cls-24" x="5.1" y="0">r</tspan><tspan x="6.1" y="0">yhmä</tspan></text>
    </g>
    <g id="MTEXT-125" data-name="MTEXT">
      <text class="cls-26" transform="translate(614.97 215.63)"><tspan x="0" y="0">20.0 m</tspan></text>
      <text class="cls-26" transform="translate(622.48 215.63)"><tspan x="0" y="0">²</tspan></text>
    </g>
    <g id="MTEXT-126" data-name="MTEXT">
      <text class="cls-25" transform="translate(614.97 210.34)"><tspan x="0" y="0">E102</tspan></text>
    </g>
    <g id="MTEXT-127" data-name="MTEXT">
      <text class="cls-25" transform="translate(679.34 336.1)"><tspan class="cls-16" x="0" y="0">P</tspan><tspan x="1.43" y="0">o</tspan><tspan class="cls-3" x="2.98" y="0">r</tspan><tspan class="cls-33" x="3.92" y="0">r</tspan><tspan x="4.83" y="0">as</tspan></text>
    </g>
    <g id="MTEXT-128" data-name="MTEXT">
      <text class="cls-26" transform="translate(679.34 338.55)"><tspan x="0" y="0">10.5 m</tspan></text>
      <text class="cls-26" transform="translate(686.6 338.55)"><tspan x="0" y="0">²</tspan></text>
    </g>
    <g id="MTEXT-129" data-name="MTEXT">
      <text class="cls-25" transform="translate(679.34 333.26)"><tspan x="0" y="0">D135</tspan></text>
    </g>
    <g id="MTEXT-130" data-name="MTEXT">
      <text class="cls-25" transform="translate(922.91 286.92)"><tspan class="cls-16" x="0" y="0">P</tspan><tspan x="1.43" y="0">o</tspan><tspan class="cls-3" x="2.98" y="0">r</tspan><tspan class="cls-33" x="3.92" y="0">r</tspan><tspan x="4.83" y="0">ash.</tspan></text>
    </g>
    <g id="MTEXT-131" data-name="MTEXT">
      <text class="cls-26" transform="translate(922.91 289.37)"><tspan x="0" y="0">3.0 m</tspan></text>
      <text class="cls-26" transform="translate(929.17 289.37)"><tspan x="0" y="0">²</tspan></text>
    </g>
    <g id="MTEXT-132" data-name="MTEXT">
      <text class="cls-25" transform="translate(922.91 284.08)"><tspan x="0" y="0">D132</tspan></text>
    </g>
    <g id="MTEXT-133" data-name="MTEXT">
      <text class="cls-25" transform="translate(283.51 248.36)"><tspan class="cls-2" x="0" y="0">K</tspan><tspan class="cls-12" x="1.58" y="0">ä</tspan><tspan x="2.92" y="0">yt</tspan><tspan class="cls-12" x="5.18" y="0">ä</tspan><tspan class="cls-28" x="6.52" y="0">v</tspan><tspan x="7.87" y="0">ä</tspan></text>
    </g>
    <g id="MTEXT-134" data-name="MTEXT">
      <text class="cls-26" transform="translate(283.51 250.81)"><tspan x="0" y="0">15.5 m</tspan></text>
      <text class="cls-26" transform="translate(291.01 250.81)"><tspan x="0" y="0">²</tspan></text>
    </g>
    <g id="MTEXT-135" data-name="MTEXT">
      <text class="cls-25" transform="translate(283.51 245.52)"><tspan x="0" y="0">E129</tspan></text>
    </g>
  </g>
</svg>