<?xml version="1.0" encoding="UTF-8"?>
<svg id="Layer_1" data-name="Layer 1" xmlns="http://www.w3.org/2000/svg" viewBox="0 0 585.71 737.14">
  <defs>
    <style>
      .cls-1 {
        fill: #3bb29e;
        stroke-width: 0px;
      }
    </style>
  </defs>
  <path class="cls-1" d="m210.31,719.8H29.29c-.13,0-.26-.05-.35-.15-.09-.09-.15-.22-.15-.35.02-6,2.03-599.33,1.39-606.27-.02-.07-.02-.14,0-.21.04-.24.25-.42.49-.42h186.03v-49.06c0-.28.22-.5.5-.5h182.59V15.85c0-.13.05-.26.15-.35.09-.09.22-.15.35-.15h0l174.14,1.38c.27,0,.5.23.5.5v549.27c0,.28-.22.5-.5.5h-182.59v97.24c0,.28-.22.5-.5.5h-180.52v54.56c0,.28-.22.5-.5.5Zm-180.52-1h180.02v-54.56c0-.28.22-.5.5-.5h180.52v-97.24c0-.28.22-.5.5-.5h182.59V17.72l-173.14-1.37v46.99c0,.28-.22.5-.5.5h-182.59v49.06c0,.28-.22.5-.5.5H31.15c.14,1.87.14,7.59.15,25.64,0,15.74-.01,38.86-.06,68.73-.09,50.31-.26,120.44-.51,208.44-.41,145.51-.91,292.83-.94,302.59Z"/>
  <polygon class="cls-1" points="401.69 17.26 488.73 17.26 487.87 69.54 401.87 69.19 401.69 17.26"/>
  <path class="cls-1" d="m33.07,467.38h157.62v48.53l-157.97-.34s.34-48.53.34-48.18Z"/>
  <path class="cls-1" d="m34.04,518.25h85.64v46.71l-16.87.65-.65,47.69-67.8-.32-.65-47.36s-.16-47.85.32-47.36Z"/>
  <path class="cls-1" d="m121.63,518.25h90.83l.97,94.4-91.48.97s-.81-95.86-.32-95.37Z"/>
  <path class="cls-1" d="m34.19,615.62h70.21v-26.84h15.23v125.96H34.71s0-99.63-.52-99.12Z"/>
  <path class="cls-1" d="m123.5,715.12l-.13-18.84h-2.06v-79.11h1.81v-2.32h88.28v2.32h2.32v45.56h-5.68l-.26,53.04s-84.15-.77-84.27-.65Z"/>
  <path class="cls-1" d="m216.68,661.82h88.79v-76.4h-8v-16.78h-81.82s.52,93.18,1.03,93.18Z"/>
  <polygon class="cls-1" points="215.39 517.54 305.47 517.79 305.47 567.61 215.65 567.61 215.39 517.54"/>
  <path class="cls-1" d="m231.13,440.36v26.33h-16v49.04h89.82v-75.11s-73.43-.65-73.82-.26Z"/>
  <path class="cls-1" d="m305.73,463.59h9.81v-23.75h30.46v49.04h-40.27s-.26-25.3,0-25.3Z"/>
  <path class="cls-1" d="m307.02,552.64h89.82l1.29-90.6h-21.42v19.62h-29.43v8.26h-40.27s.26,62.46,0,62.72Z"/>
  <path class="cls-1" d="m306.5,555.22h82.85v107.12h-81.31s-1.55-107.38-1.55-107.12Z"/>
  <path class="cls-1" d="m400.2,462.82h84.92v101.7h-85.95s1.03-101.96,1.03-101.7Z"/>
  <path class="cls-1" d="m487.44,463.59h84.15v101.44h-84.15s.65-102.08,0-101.44Z"/>
  <path class="cls-1" d="m478.41,367.31h93.95v92.92h-67.11v-22.97h-27.36s.77-69.95.52-69.95Z"/>
  <polygon class="cls-1" points="429.66 317.65 572.62 317.76 572.4 216.72 512 216.55 511.96 213.39 461.54 213.39 456.67 266.39 429.62 266.39 429.66 317.65"/>
  <path class="cls-1" d="m249.72,394.59h74.85v23.23l-74.85-.17s0-23.75,0-23.06Z"/>
  <polygon class="cls-1" points="362.43 363.61 394.61 363.79 394.61 417.82 362.26 417.82 362.43 363.61"/>
  <path class="cls-1" d="m36.05,117.8h165.12v32.11h-78.43v5.96l-86.23-.46s0-38.07-.46-37.61Z"/>
  <polygon class="cls-1" points="429.71 213.56 458.45 213.56 454.03 263.86 429.55 264.08 429.71 213.56"/>
  <polygon class="cls-1" points="219.78 68.68 393.23 70.22 394.26 360.34 363.8 360.34 363.8 338.66 244.56 338.66 245.07 413.52 216.16 414.03 214.87 118.23 219.26 118.23 219.78 68.68"/>
  <polygon class="cls-1" points="36 156.95 124.79 156.95 124.79 151.27 203.77 151.27 204.03 117.72 208.94 117.97 208.42 397.77 172.28 397.51 172.28 381.25 119.11 381.77 119.37 417.39 88.14 417.13 87.62 316.46 36 316.21 36 156.95"/>
</svg>