<?xml version="1.0" encoding="UTF-8"?>
<svg id="Layer_1" data-name="Layer 1" xmlns="http://www.w3.org/2000/svg" viewBox="0 0 1382.2 472.68">
  <defs>
    <style>
      .cls-1 {
        fill: #55aa5f;
        stroke-width: 0px;
      }
    </style>
  </defs>
  <path class="cls-1" d="m1261.49,464.92h-499.27v-57.45h5.84v-61.28H24.18l-.65,5.19h-11.97v-.5c0-2.16-.21-209.81-.23-221.5h0v-1h.5c.09-.02.15-.01.21,0h149.51v-25.29h462.51v24.78h148.19V8.1h84.11v144.54h327.32v-17.55h53.69v-22.71h132.12v215.75h-113.57v78.5h5.56v58.29Zm-498.27-1h497.27v-56.29h-5.56v-80.5h113.57V113.38h-130.12v22.71h-53.69v17.55h-329.32V9.1h-82.11v119.77h-150.19v-24.78H162.55v25.29H12.32c.01.44.02,1.07.02,1.98l.22,219.02h10.09l.65-5.19h745.76v63.28h-5.84v55.45Z"/>
  <path class="cls-1" d="m20.61,135.6h149.71v95.33H21.3s-.69-96.36-.69-95.33Z"/>
  <path class="cls-1" d="m174.6,109.62l139.62-.1.39,70.34-142.57.82v-45.08h2.62s-.07-24.7-.11-25.93c0-.03.02-.05.05-.05Z"/>
  <path class="cls-1" d="m314.94,109.53h155.56v97.05h-152.03v-78.98h-3.36s-.17-18.15-.17-18.07Z"/>
  <path class="cls-1" d="m20.95,241.94h147.99v92.23h-7.23v5.85H23.02l.17-2.58h-1.89s-.52-95.5-.34-95.5Z"/>
  <path class="cls-1" d="m313.05,236.78l-.78,103.24h-140.15l47.72-34.95c5.87,6.55,14.46,10.69,24.03,10.69,17.68,0,32.01-14.1,32.01-31.49,0-6.13-1.78-11.86-4.86-16.7l42.03-30.79Z"/>
  <polygon class="cls-1" points="316.92 242.97 471.79 243.49 471.79 340.02 316.92 339.76 316.92 242.97"/>
  <path class="cls-1" d="m615.04,236.78l-.78,103.24h-140.15l47.72-34.95c5.87,6.55,14.46,10.69,24.03,10.69,17.68,0,32.01-14.1,32.01-31.49,0-6.13-1.78-11.86-4.86-16.7l42.03-30.79Z"/>
  <path class="cls-1" d="m619.78,241.77h100.75l-.94,96.5h-100.15s.34-96.85.34-96.5Z"/>
  <polygon class="cls-1" points="722.61 241.77 767.5 241.77 767.42 338.27 721.99 338.27 722.61 241.77"/>
  <path class="cls-1" d="m622.19,135.25h145.58v96.71h-146.95s1.03-97.05,1.38-96.71Z"/>
  <path class="cls-1" d="m473.86,109.1h144.2v24.78h-144.54s.34-25.47.34-24.78Z"/>
</svg>