<?xml version="1.0" encoding="UTF-8"?>
<svg id="Layer_6" data-name="Layer 6" xmlns="http://www.w3.org/2000/svg" viewBox="0 0 3571.68 1683.84">
  <defs>
    <style>
      .cls-1 {
        stroke-width: .25px;
      }

      .cls-1, .cls-2, .cls-3, .cls-4, .cls-5 {
        stroke-miterlimit: 10;
      }

      .cls-1, .cls-2, .cls-5 {
        fill: #f499c1;
        stroke: #f499c1;
      }

      .cls-3, .cls-4 {
        stroke: #914c9e;
      }

      .cls-3, .cls-6 {
        fill: #914c9e;
      }

      .cls-4 {
        fill: none;
      }

      .cls-5 {
        stroke-width: 3px;
      }

      .cls-6 {
        stroke-width: 0px;
      }
    </style>
  </defs>
  <polygon class="cls-1" points="640.69 1204.12 640.63 1212.71 638.22 1212.71 638.23 1218.48 119.26 1218.48 119.33 1211.67 111.12 1211.68 111.12 855.6 660.9 855.6 660.9 1204.05 640.69 1204.12"/>
  <polygon class="cls-1" points="627.12 822.72 627.12 844.8 566.88 844.8 566.88 822.72 563.28 822.72 563.28 845.72 111.12 844.8 111.12 461.04 639.84 461.04 639.84 477.12 662.88 477.12 662.88 822.72 627.12 822.72"/>
  <polygon class="cls-2" points="1784.4 729.01 1217.04 729.01 1217.04 379.85 1239.84 379.85 1239.84 364.56 1762.56 364.56 1762.56 378.89 1784.4 378.89 1784.4 729.01"/>
  <rect class="cls-5" x="2347.68" y="461.28" width="543.84" height="360"/>
  <polyline class="cls-5" points="2339.76 856.08 2339.76 1200.96 2362.36 1200.96 2362.36 1216.32 2711.32 1216.32 2711.32 856.08 2417.08 856.08 2417.08 831.6 2361.17 831.6 2361.17 856.08 2339.76 856.08"/>
  <rect class="cls-5" x="2721.12" y="856.08" width="170.4" height="359.16"/>
  <polyline class="cls-2" points="1213.68 856.08 1213.68 1201.44 1240.56 1201.44 1240.56 1217.28 1762.8 1217.28 1762.8 1203.36 1784.16 1203.36 1784.16 856.08 1262.64 856.08 1262.64 832.32 1233.12 832.32 1233.12 856.08 1213.68 856.08"/>
  <polygon class="cls-1" points="2321.42 1207.35 2321.49 1216.8 1803.44 1216.8 1803.43 1211.93 1793.82 1211.89 1793.82 1066.56 2328.72 1066.56 2328.72 1207.34 2321.42 1207.35"/>
  <polygon class="cls-2" points="1199.36 1211.74 1199.37 1217.94 679.75 1217.94 679.74 1212.7 675.25 1212.69 675.25 1063.2 1202.4 1063.2 1202.4 1211.7 1199.36 1211.74"/>
  <polyline class="cls-1" points="672.24 461.28 672.24 477.12 672.24 627.6 973.03 627.6 973.03 634.92 971.04 634.92 971.04 684 1024.8 684 1024.8 635.04 1023.6 635.04 1023.6 627.27 1206.96 627.27 1206.96 380.45 1202.64 380.45 1202.64 364.56 680.64 364.56 680.64 462.88 672.67 462.88"/>
  <polyline class="cls-2" points="1795 369.51 1795 612.24 2253.6 612.24 2253.6 742.32 2330.64 742.32 2330.64 618.96 2302.56 618.96 2302.56 612.24 2330.64 612.24 2330.64 364.56 1801.92 364.56 1801.92 369.51 1795 369.51"/>
  <path class="cls-4" d="m2886,427.68v4.94h-524.16v-99.26h-38.16v3.6h-521.76v-4.56h-39.12v4.56h-522.96v-3.6h-38.88v4.32h-522.72v-4.32h-38.4v101.04H116.88v-5.28h-38.16v823.2h39.84v-5.52h520.32v4.08h40.56v-5.52h522.24v4.32h38.88v-6.36h522.96v6.36h39.6v-6.48h521.04v7.64h39.84v-6.68h520.08v4.56h40.08V427.68h-38.16Zm5.52,393.6h-99.12v33.84h99.12v361.2h-528.96v-15.36h-22.8v-253.2h-10.32v260.16h-7.55v9.36h-519.01v-4.8h-10.08v-265.2h-8.64v256.08h-21.6v13.92h-522v-15.84h-26.88v-252h-11.04v262.8h-2.88v6.24h-520.56v-5.28h-4.87v-267.36h-11.21v258.48h-22.32v8.88h-2.4v6.72H117.84v-7.44h-6.96v-355.68h552.24v31.68h10.32v-65.76h-46.32v22.08h-60.24v-22.08h-3.6v23.76H111.12v-385.2h528.72v15.84h32.4v-15.84h8.4v-96.72h522v15.36h37.2v-15.36h522.72v14.4h32.44v-9.45h6.92v-4.95h528.72v95.28h560.88v361.44Z"/>
  <polygon class="cls-4" points="2792.4 821.28 2792.4 855.12 2891.52 855.12 2891.52 1216.32 2362.56 1216.32 2362.56 1200.96 2339.76 1200.96 2339.76 947.76 2329.44 947.76 2329.44 1207.92 2321.89 1207.92 2321.89 1217.28 1802.88 1217.28 1802.88 1212.48 1792.8 1212.48 1792.8 947.28 1784.16 947.28 1784.16 1203.36 1762.56 1203.36 1762.56 1217.28 1240.56 1217.28 1240.56 1201.44 1213.68 1201.44 1213.68 949.44 1202.64 949.44 1202.64 1212.24 1199.76 1212.24 1199.76 1218.48 679.2 1218.48 679.2 1213.2 674.33 1213.2 674.33 945.84 663.12 945.84 663.12 1204.32 640.8 1204.32 640.8 1213.2 638.4 1213.2 638.4 1219.92 117.84 1219.92 117.84 1212.48 110.88 1212.48 110.88 856.8 663.12 856.8 663.12 888.48 673.44 888.48 673.44 822.72 627.12 822.72 627.12 844.8 566.88 844.8 566.88 822.72 563.28 822.72 563.28 846.48 111.12 846.48 111.12 461.28 639.84 461.28 639.84 477.12 672.24 477.12 672.24 461.28 680.64 461.28 680.64 364.56 1202.64 364.56 1202.64 379.92 1239.84 379.92 1239.84 364.56 1762.56 364.56 1762.56 378.96 1795 378.96 1795 369.51 1801.92 369.51 1801.92 364.56 2330.64 364.56 2330.64 459.84 2891.52 459.84 2891.52 821.28 2792.4 821.28"/>
  <polygon class="cls-3" points="1203.36 823.2 1203.36 890.16 1213.68 890.16 1213.68 856.08 1233.12 856.08 1233.12 832.32 1262.64 832.32 1262.64 856.08 1784.16 856.08 1784.16 888 1792.8 888 1792.8 823.2 1203.36 823.2"/>
  <polygon class="cls-6" points="2329.44 822 2329.44 888.96 2339.76 888.96 2339.76 856.08 2361.36 856.08 2361.36 831.6 2417.76 831.6 2417.76 855.12 2736.48 855.12 2736.48 822 2329.44 822"/>
  <path class="cls-6" d="m2886,427.68v4.94h-524.16v-99.26h-38.16v3.6h-521.76v-4.56h-39.12v4.56h-522.96v-3.6h-38.88v4.32h-522.72v-4.32h-38.4v101.04H116.88v-5.28h-38.16v823.2h39.84v-5.52h520.32v4.08h40.56v-5.52h522.24v4.32h38.88v-6.36h522.96v6.36h39.6v-6.48h521.04v7.64h39.84v-6.68h520.08v4.56h40.08V427.68h-38.16Zm5.52,393.6h-99.12v33.84h99.12v361.2h-528.96v-15.36h-22.8v-253.2h-10.32v260.16h-7.55v9.36h-519.01v-4.8h-10.08v-265.2h-8.64v256.08h-21.6v13.92h-522v-15.84h-26.88v-252h-11.04v262.8h-2.88v6.24h-520.56v-5.28h-4.87v-267.36h-11.21v258.48h-22.32v8.88h-2.4v6.72H117.84v-7.44h-6.96v-355.68h552.24v31.68h10.32v-65.76h-46.32v22.08h-60.24v-22.08h-3.6v23.76H111.12v-385.2h528.72v15.84h32.4v-15.84h8.4v-96.72h522v15.36h37.2v-15.36h522.72v14.4h32.44v-9.45h6.92v-4.95h528.72v95.28h560.88v361.44Z"/>
  <g>
    <rect class="cls-6" x="2714.58" y="861.84" width="3" height="6"/>
    <path class="cls-6" d="m2717.58,1192.95h-3v-11.61h3v11.61Zm0-23.22h-3v-11.61h3v11.61Zm0-23.22h-3v-11.61h3v11.61Zm0-23.22h-3v-11.61h3v11.61Zm0-23.22h-3v-11.61h3v11.61Zm0-23.22h-3v-11.61h3v11.61Zm0-23.22h-3v-11.61h3v11.61Zm0-23.22h-3v-11.61h3v11.61Zm0-23.22h-3v-11.61h3v11.61Zm0-23.22h-3v-11.61h3v11.61Zm0-23.22h-3v-11.61h3v11.61Zm0-23.22h-3v-11.61h3v11.61Zm0-23.22h-3v-11.61h3v11.61Zm0-23.22h-3v-11.61h3v11.61Z"/>
    <rect class="cls-6" x="2714.58" y="1204.56" width="3" height="6"/>
  </g>
  <polygon class="cls-3" points="1786.8 436.32 1794.24 436.32 1794.24 612.24 2027.28 612.24 2027.28 617.52 2016.72 617.52 2016.72 623.04 2011.2 623.04 2011.2 618.84 1987.68 618.84 1987.68 725.52 2025.12 725.52 2025.12 758.4 1953.12 758.4 1953.12 724.74 1981.68 724.74 1981.68 619.44 1857.36 619.44 1857.36 680.16 1873.92 680.16 1873.92 725.52 1893.84 725.52 1893.84 758.4 1832.16 758.4 1832.16 735.12 1801.44 735.12 1801.44 758.4 1786.08 758.4 1786.08 752.4 1761.6 752.4 1761.6 737.04 1707.36 737.04 1707.36 730.32 1786.8 730.32 1786.8 436.32"/>
  <polygon class="cls-3" points="664.32 534.24 671.52 534.24 671.52 627.6 825.67 627.6 825.67 635.04 816 635.04 816 680.16 809.28 680.16 809.28 652.32 736.37 652.32 736.37 725.28 830.03 725.28 830.03 759.12 739.44 759.12 739.44 737.4 700.8 737.4 700.8 759.12 673.44 759.12 673.44 764.16 664.32 764.16 664.32 534.24"/>
  <polyline class="cls-3" points="881.76 627.84 881.76 634.56 900.96 634.56 900.96 679.92 907.68 679.92 907.68 634.56 945.84 634.56 945.84 650.88 964.32 650.88 964.32 726.24 886.08 726.24 886.08 759.12 1050.48 759.12 1050.48 726.24 1031.52 726.24 1031.52 653.04 1067.04 653.04 1067.04 634.56 1131.36 634.56 1131.36 652.08 1149.6 652.08 1149.6 726.24 1107.84 726.24 1107.84 759.12 1214.4 759.12 1214.4 737.04 1644.48 737.04 1644.48 730.32 1214.4 730.32 1214.4 720.96 1217.04 720.96 1217.04 437.04 1206.96 437.04 1206.96 627.6 1023.6 627.6 1023.6 634.56 1024.8 634.56 1024.8 684 971.04 684 971.04 634.56 973.03 634.56 973.03 627.84 882 629.07"/>
  <polygon class="cls-6" points="2347.68 517.68 2347.68 758.4 2244.72 758.4 2244.72 621.36 2162.68 621.36 2162.68 725.7 2179.44 725.7 2179.44 758.4 2082.48 758.4 2082.48 725.52 2152.8 725.7 2152.8 653.52 2092.08 653.52 2092.08 679.44 2084.64 679.44 2084.64 612.24 2253.6 612.24 2253.6 742.32 2330.64 742.32 2330.64 618.96 2302.56 618.96 2302.56 612.24 2330.64 612.24 2330.64 517.68 2347.68 517.68"/>
  <path class="cls-6" d="m2183.5,1066.7l-.96-.27c2.18-7.64,3.71-15.44,4.56-23.2,3.3-30.21-2.34-57.68-16.76-81.67-3.19-5.31-32.87-52.12-90.57-60.1-49.62-6.86-100.56,17.69-126.75,61.11-27.59,45.73-16.94,90.67-13.02,103.36l-.96.29c-3.95-12.78-14.68-58.08,13.12-104.17,26.39-43.75,77.73-68.51,127.74-61.59,58.16,8.05,88.07,55.22,91.29,60.57,14.54,24.18,20.22,51.87,16.9,82.3-.85,7.81-2.4,15.67-4.59,23.36Z"/>
  <path class="cls-6" d="m1832.59,1066.32c-3.74-6.41-6.96-12.64-9.84-19.05l-34.75-111.36.96-.3,34.73,111.3c2.85,6.33,6.06,12.53,9.77,18.9l-.86.5Z"/>
  <polygon class="cls-6" points="1910.66 1059.19 1892.46 1035.28 1884.62 1018.4 1860.22 939.92 1860.22 825.82 2184.62 825.82 2262.02 870.67 2262.02 949.66 2329.44 949.66 2329.44 950.66 2261.02 950.66 2261.02 871.25 2184.35 826.82 1861.22 826.82 1861.22 939.76 1885.55 1018.04 1893.34 1034.81 1911.07 1058.08 1929.97 1054.13 1930.18 1055.11 1910.66 1059.19"/>
  <polygon class="cls-6" points="1202.4 953.3 1134.94 953.3 1134.94 827.54 741.36 827.54 741.36 826.54 1135.94 826.54 1135.94 952.3 1202.4 952.3 1202.4 953.3"/>
  <path class="cls-6" d="m792.71,1062.58c-38.96-35-42.53-86.92-42.25-107.63h1c-.27,20.58,3.26,72.16,41.92,106.88l-.67.74Z"/>
  <path class="cls-6" d="m708.06,1062.52c-16.07-34.63-27.4-71.7-33.68-110.16l.99-.16c6.27,38.37,17.58,75.35,33.6,109.9l-.91.42Z"/>
</svg>