<?xml version="1.0" encoding="UTF-8"?>
<svg id="Layer_1" data-name="Layer 1" xmlns="http://www.w3.org/2000/svg" viewBox="0 0 1387.25 489.44">
  <defs>
    <style>
      .cls-1 {
        fill: #5097dd;
        stroke-width: 0px;
      }
    </style>
  </defs>
  <path class="cls-1" d="m1258.05,468.88h-490.42c-.28,0-.5-.22-.5-.5v-122.36l-746.55-1.55c-.13,0-.26-.05-.35-.15s-.15-.22-.14-.36c.61-70.03,1.47-203.23.33-207.27-.08-.13-.09-.29-.03-.44.08-.19.26-.31.46-.31l151.42-.18.02-25.11c0-.14.04-.27.14-.37.09-.1.22-.16.36-.16l451.86-.52c.13,0,.26.05.36.15.09.09.15.22.15.36l-.25,25.56h152.05l-.51-120.55c0-.13.05-.26.15-.35.09-.09.22-.15.35-.15h84.66c.28,0,.5.22.5.5v137.85h326.29v-8.79c0-.28.22-.5.5-.5h54.22v-28.41c0-.28.22-.5.5-.5h124.93c.28,0,.5.22.5.5v216.82c0,.28-.22.5-.5.5h-109.97v135.78c0,.28-.22.5-.5.5Zm-489.92-1h489.42v-135.78c0-.28.22-.5.5-.5h109.97V115.78h-123.93v28.41c0,.28-.22.5-.5.5h-54.22v8.79c0,.28-.22.5-.5.5h-327.29c-.28,0-.5-.22-.5-.5V15.63h-83.66l.51,120.55c0,.13-.05.26-.15.35-.09.09-.22.15-.35.15h-153.06c-.13,0-.26-.05-.36-.15-.09-.1-.15-.22-.14-.36l.25-25.56-450.83.52-.02,25.11c0,.14-.36.53-.5.53l-151.42.18c1.31,12.6.14,159.46-.28,206.53l746.54,1.55c.28,0,.5.22.5.5v122.36Z"/>
  <path class="cls-1" d="m24.26,138.29h46.72v116.93H23.75s.13-117.31.52-116.93Z"/>
  <path class="cls-1" d="m73.14,138.29l99.57.26v116.67h-99.92s.35-116.79.35-116.92Z"/>
  <path class="cls-1" d="m23.66,257.54h47.2v83.89H23.01s.65-84.02.66-83.89Z"/>
  <polygon class="cls-1" points="72.53 257.54 172.42 257.54 172.42 341.42 72.1 341.42 72.53 257.54"/>
  <path class="cls-1" d="m175.73,111.78l141.45.13v71.76h-141.7s.26-72.01.26-71.88Z"/>
  <polygon class="cls-1" points="320.06 341.94 474.59 341.94 474.59 341.62 320.42 341.62 320.06 341.94"/>
  <path class="cls-1" d="m318.74,112.37h102.56v124.24h-100.84s-1.72-124.58-1.72-124.24Z"/>
  <path class="cls-1" d="m423.08,112.05h51.85v67.97h-51.85s0-68.49,0-67.97Z"/>
  <path class="cls-1" d="m476.48,112.05h144.72v77.09h-20.82v-8.95h-124.07s.17-68.66.17-68.14Z"/>
  <path class="cls-1" d="m624.29,245.75h101.18v96.19h-101.35s.34-96.02.17-96.19Z"/>
  <path class="cls-1" d="m727.19,246.09h4.3v-3.44h13.08v3.61h24.78v95.67h-42.85s.52-95.85.69-95.85Z"/>
  <path class="cls-1" d="m771.28,346.41h80.06v119.25h-80.44s.38-120,.38-119.25Z"/>
  <path class="cls-1" d="m624.38,138.8h101.44v97.57h-101.18s-.77-98.08-.26-97.57Z"/>
  <path class="cls-1" d="m728.92,138.81h42.85v97.83h-43.88s1.03-99.12,1.03-97.83Z"/>
  <rect class="cls-1" x="423.08" y="182.42" width="51.85" height="53.43"/>
  <path class="cls-1" d="m477.43,245.75h39.23s-8.07,25.38-9.46,35.28c-2.07,14.71-1.29,25.55,8,35.88,7.92,8.8,22.01,14.45,34.33,15.49,15.31,1.29,33.04-7.74,43.54-26.59,4.98-8.94,18.41-38.03,18.41-38.03l10.67-.17v74.34h-145.23l.52-96.19Z"/>
  <path class="cls-1" d="m320.92,245.83h152.8v95.67h-152.96s.67-96.19.16-95.67Z"/>
  <path class="cls-1" d="m320.92,245.83h152.8v95.67h-152.96s.67-96.19.16-95.67Z"/>
  <path class="cls-1" d="m174.88,245.32h39.23s-8.07,25.38-9.46,35.28c-2.07,14.71-1.29,25.55,8,35.88,7.92,8.8,22.01,14.45,34.33,15.49,15.31,1.29,33.04-7.74,43.54-26.59,4.98-8.94,18.41-38.03,18.41-38.03l10.67-.17v74.34h-145.23l.52-96.19Z"/>
</svg>